<?xml version="1.0" encoding="UTF-8"?> <svg xmlns="http://www.w3.org/2000/svg" viewBox="0 0 990 1000"><path transform="scale(1,-1) translate(0,-1000)" d="M1000 700C1000 780 960 856 918 904H916C840 990 748 1000 700 1000H300C198 1000 134 950 96 914C-26 800 -36 604 96 484C138 446 208 400 300 400H700C718 400 758 390 778 366C814 324 808 258 766 224C746 208 712 200 700 200H300C260 200 246 206 226 226C206 246 200 270 200 300H0C0 230 24 144 90 82C152 24 224 0 300 0H700C808 0 858 32 918 100C1028 222 1029 409 904 518C869 549 802 600 700 600H300C272 600 242 612 224 636C194 674 197 730 228 766C247 788 282 800 300 800H700C712 800 764 776 764 776C764 776 800 744 800 700Z" fill="#000" /></svg>