<?xml version="1.0" standalone="no"?>
<!DOCTYPE svg PUBLIC "-//W3C//DTD SVG 20010904//EN"
 "http://www.w3.org/TR/2001/REC-SVG-20010904/DTD/svg10.dtd">
<svg version="1.0" xmlns="http://www.w3.org/2000/svg"
 width="512.000000pt" height="512.000000pt" viewBox="0 0 512.000000 512.000000"
 preserveAspectRatio="xMidYMid meet">
<metadata>
Created by potrace 1.16, written by Peter Selinger 2001-2019
</metadata>
<g transform="translate(0.000000,512.000000) scale(0.100000,-0.100000)"
fill="#000000" stroke="none">
<path d="M1586 4650 c-16 -5 -40 -19 -53 -32 -57 -53 -53 87 -53 -2061 l0
-1984 23 -33 c12 -18 35 -43 50 -54 28 -21 30 -21 1007 -21 977 0 979 0 1007
21 15 11 38 36 51 54 l22 33 0 1987 0 1987 -22 33 c-13 18 -36 43 -51 54 -28
21 -31 21 -990 23 -529 1 -975 -2 -991 -7z m1208 -343 c24 -17 24 -67 0 -84
-13 -10 -70 -13 -234 -13 -236 0 -252 4 -252 55 0 51 16 55 252 55 164 0 221
-3 234 -13z m636 -1722 l0 -1355 -870 0 -870 0 0 1355 0 1355 870 0 870 0 0
-1355z m-785 -1574 c133 -60 163 -235 58 -332 -65 -61 -158 -77 -232 -40 -69
36 -121 115 -121 186 0 107 100 205 210 205 25 0 63 -9 85 -19z"/>
</g>
</svg>
