<?xml version="1.0" encoding="UTF-8" standalone="no"?>
<!-- Created with Inkscape (http://www.inkscape.org/) -->

<svg
   xmlns:dc="http://purl.org/dc/elements/1.1/"
   xmlns:cc="http://creativecommons.org/ns#"
   xmlns:rdf="http://www.w3.org/1999/02/22-rdf-syntax-ns#"
   xmlns:svg="http://www.w3.org/2000/svg"
   xmlns="http://www.w3.org/2000/svg"
   xmlns:sodipodi="http://sodipodi.sourceforge.net/DTD/sodipodi-0.dtd"
   xmlns:inkscape="http://www.inkscape.org/namespaces/inkscape"
   viewBox="0 0 293.17844 145"
   version="1.1"
   id="svg1247"
   inkscape:version="0.92.4 (5da689c313, 2019-01-14)"
   sodipodi:docname="instruct-2.svg">
  <defs
     id="defs1241" />
  <sodipodi:namedview
     id="base"
     pagecolor="#ffffff"
     bordercolor="#666666"
     borderopacity="1.0"
     inkscape:pageopacity="0.0"
     inkscape:pageshadow="2"
     inkscape:zoom="5.1747494"
     inkscape:cx="149.88647"
     inkscape:cy="68.711479"
     inkscape:document-units="mm"
     inkscape:current-layer="layer1"
     showgrid="false"
     fit-margin-top="0"
     fit-margin-left="0"
     fit-margin-right="0"
     fit-margin-bottom="0"
     inkscape:window-width="1920"
     inkscape:window-height="1017"
     inkscape:window-x="1912"
     inkscape:window-y="22"
     inkscape:window-maximized="1"
     inkscape:snap-text-baseline="true" />
  <metadata
     id="metadata1244">
    <rdf:RDF>
      <cc:Work
         rdf:about="">
        <dc:format>image/svg+xml</dc:format>
        <dc:type
           rdf:resource="http://purl.org/dc/dcmitype/StillImage" />
        <dc:title></dc:title>
      </cc:Work>
    </rdf:RDF>
  </metadata>
  <g
     inkscape:label="Layer 1"
     inkscape:groupmode="layer"
     id="layer1"
     transform="translate(105.01184,-81.032908)">
    <polygon
       transform="matrix(0.26458333,0,0,0.26458333,-125.89539,28.834641)"
       style="fill:#4d4d4d"
       id="polygon118"
       points=""
       class="cls-5" />
    <polygon
       transform="matrix(0.26458333,0,0,0.26458333,-125.89539,28.834641)"
       style="fill:#4d4d4d"
       id="polygon162"
       points=""
       class="cls-5" />
    <path
       inkscape:connector-curvature="0"
       style="fill:#f6f7f8;stroke-width:0.01852198"
       id="path10"
       d="m -53.108521,124.43654 c 2.955396,-2.05317 5.995459,-3.62744 9.432396,-5.207 9.11225,-4.18836 18.436167,-7.91369 27.902959,-11.22892 18.9441629,-6.63575 38.430733,-11.628438 58.110433,-15.544271 19.67971,-3.915833 39.59755,-6.76275 59.531253,-9.104312 1.29117,-0.151695 2.58233,-0.300743 3.8735,-0.447146 19.09234,-2.180167 39.08161,-3.823229 56.94892,3.249083 14.43302,5.709708 27.4664,19.621496 25.22273,34.980566 -1.1139,7.63852 -5.87375,14.38275 -11.80835,19.31458 -5.93461,4.93183 -13.00957,8.28146 -20.08982,11.36121 -18.04193,7.8396 -36.65273,14.2875 -55.36935,20.35439 -37.646682,12.19201 -75.755503,22.8212 -114.326462,31.88759 -16.28775,3.82852 -32.686625,7.37923 -49.336854,9.04346 -6.151563,0.61383 -12.45923,0.95779 -18.436166,-0.62971 -5.976937,-1.5875 -11.641667,-5.40544 -14.062604,-11.09663 -2.719917,-6.4135 -0.907521,-13.80595 1.5875,-20.3147 6.201833,-16.2613 14.999229,-31.38753 26.92929,-44.11928 3.461788,-3.69401 7.160559,-7.15857 11.072813,-10.37166 0.939271,-0.76465 1.87325,-1.47109 2.817812,-2.12725 0,0 0,0 0,0"
       class="cls-3" />
    <rect
       style="fill:#ffffff;stroke-width:0.26458332"
       id="rect13"
       height="53.416729"
       width="78.90139"
       y="110.03526"
       x="23.308434"
       class="cls-4" />
    <path
       inkscape:connector-curvature="0"
       style="fill:#4d4d4d;stroke-width:0.01852198"
       id="path15"
       d="m 102.20984,162.77202 c 0,0 -75.705233,0 -75.705233,0 -1.01336,0 -2.05582,-0.0714 -3.06652,0 -0.04494,0.003 -0.09,0.003 -0.13494,0 0,0 0.29898,0.67733 0.29898,0.67733 0,0 0,-51.25508 0,-51.25508 0,-0.68792 0.037,-1.38642 0,-2.07169 0,-0.0291 0,-0.0582 0,-0.0873 0,0 -0.29898,0.67733 -0.29898,0.67733 0,0 75.69729,0 75.69729,0 1.013353,0 2.058463,0.0714 3.069173,0 0,0 0.13493,0 0.13493,0 0,0 -0.29368,-0.67733 -0.29368,-0.67733 0,0 0,46.83125 0,46.83125 0,2.16694 -0.0291,4.33387 0,6.50081 0,0 0,0.0873 0,0.0873 0,0.17463 0.037,0.67998 0.29898,0.67998 0.26193,0 0.29633,-0.52917 0.29633,-0.67998 0,0 0,-46.83125 0,-46.83125 0,-2.16694 0.0291,-4.33652 0,-6.50346 0,0 0,-0.0873 0,-0.0873 0,-0.16933 -0.037,-0.67733 -0.29633,-0.67733 0,0 -75.705233,0 -75.705233,0 -1.01865,0 -2.04788,-0.0423 -3.06652,0 0,0 -0.13494,0 -0.13494,0 -0.26458,0 -0.29898,0.52916 -0.29898,0.67733 0,0 0,46.83125 0,46.83125 0,2.16694 -0.0291,4.33388 0,6.50081 0,0 0,0.0873 0,0.0873 0,0.16934 0.0397,0.67998 0.29898,0.67998 0,0 75.69729,0 75.69729,0 1.021293,0 2.050523,0.0397 3.069173,0 0.045,0 0.09,0 0.13493,0 0.42334,-0.003 0.42598,-1.35996 0.005,-1.35996 0,0 3e-4,1e-5 3e-4,1e-5"
       class="cls-5" />
    <rect
       style="fill:#ffffff;stroke-width:0.26458332"
       id="rect17"
       height="53.416729"
       width="78.90139"
       y="110.03526"
       x="103.46131"
       class="cls-4" />
    <path
       inkscape:connector-curvature="0"
       style="fill:#4d4d4d;stroke-width:0.01852198"
       id="path19"
       d="m 182.36271,162.77202 c 0,0 -75.68935,0 -75.68935,0 -1.01336,0 -2.05582,-0.0714 -3.06652,0 -0.0449,0.003 -0.09,0.003 -0.13494,0 0,0 0.29898,0.67733 0.29898,0.67733 0,0 0,-51.25508 0,-51.25508 0,-0.68792 0.037,-1.38642 0,-2.07169 0,-0.0291 0,-0.0582 0,-0.0873 0,0 -0.29898,0.67733 -0.29898,0.67733 0,0 75.69729,0 75.69729,0 1.01335,0 2.05846,0.0714 3.06917,0 0,0 0.13493,0 0.13493,0 0,0 -0.29897,-0.67733 -0.29897,-0.67733 0,0 0,46.83125 0,46.83125 0,2.16694 -0.0291,4.33387 0,6.50081 0,0 0,0.0873 0,0.0873 0,0.17463 0.037,0.67998 0.29897,0.67998 0.26194,0 0.29634,-0.52917 0.29634,-0.67998 0,0 0,-46.83125 0,-46.83125 0,-2.16694 0.0291,-4.33652 0,-6.50346 0,0 0,-0.0873 0,-0.0873 0,-0.16933 -0.037,-0.67733 -0.29634,-0.67733 0,0 -75.69993,0 -75.69993,0 -1.01865,0 -2.04788,-0.0423 -3.06652,0 0,0 -0.13494,0 -0.13494,0 -0.26458,0 -0.29898,0.52916 -0.29898,0.67733 0,0 0,46.83125 0,46.83125 0,2.16694 -0.0291,4.33388 0,6.50081 0,0 0,0.0873 0,0.0873 0,0.16934 0.0397,0.67998 0.29898,0.67998 0,0 75.69729,0 75.69729,0 1.02129,0 2.05052,0.0397 3.06917,0 0.045,0 0.09,0 0.13493,0 0.40746,-0.003 0.41011,-1.35996 -0.0106,-1.35996 0,0 2e-5,1e-5 2e-5,1e-5"
       class="cls-5" />
    <path
       inkscape:connector-curvature="0"
       style="fill:#fb805f;stroke-width:0.01852198"
       id="path21"
       d="m 131.43307,161.00195 c 0,0 -9.69434,-3.31523 -9.69434,-3.31523 0,0 -5.5245,-0.0609 -5.5245,-0.0609 0,0 -7.81844,2.77813 -5.61975,20.43378 0,0 7.06173,6.61458 7.06173,6.61458 0,0 -0.10319,-6.63311 4.16454,-12.56771 0,0 3.64596,-4.69106 5.51127,-5.9346 0,0.003 4.40002,-3.5269 4.10105,-5.16996 0,0 0,4e-5 0,4e-5"
       class="cls-6" />
    <path
       inkscape:connector-curvature="0"
       style="fill:#f2d9be;stroke-width:0.01852198"
       id="path23"
       d="m 113.86738,188.96048 c 0,0 7.32102,8.001 7.32102,8.001 0,0 -82.931003,0.28575 -82.931003,0.28575 0,0 5.59329,-1.03452 2.48708,-4.55613 0,0 -7.67291,-1.03717 -7.67291,-1.03717 0,0 -1.86532,-2.27806 -1.86532,-2.27806 0,0 82.661133,-0.41539 82.661133,-0.41539"
       class="cls-7" />
    <path
       inkscape:connector-curvature="0"
       style="fill:#bac0c5;stroke-width:0.01852198"
       id="path25"
       d="m 23.964607,188.96048 c 0,0 -1.03717,10.15206 -1.03717,10.15206 0,0 7.67292,8.49312 7.67292,8.49312 0,0 1.03716,-10.56481 1.03716,-10.56481 0,0 8.83444,-0.32279 8.83444,-0.32279 0,0 2.3495,-2.16429 0.28046,-4.02696 0,0 -6.83948,-0.95514 -6.83948,-0.95514 0,0 -2.70933,-2.36009 -2.70933,-2.36009 0,0 -7.239,-0.41539 -7.239,-0.41539"
       class="cls-8" />
    <path
       inkscape:connector-curvature="0"
       style="fill:#de9f5d;stroke-width:0.01852198"
       id="path27"
       d="m 150.18144,195.69412 c 4.78896,-2.59821 10.24996,-4.7916 13.04925,-9.46414 1.89442,-3.15648 2.2516,-6.97707 2.42888,-10.65478 0.23812,-4.93712 0.21431,-9.9986 -1.41288,-14.66585 -1.62719,-4.66725 -5.12762,-8.92704 -9.87954,-10.29494 -1.03188,-0.29633 -2.13254,-0.46566 -3.02948,-1.05833 -0.89694,-0.59267 -1.51606,-1.79917 -1.02923,-2.75961 0.37306,-0.73818 1.26471,-1.09008 1.6801,-1.80445 0.52917,-0.92605 0.0714,-2.18017 -0.76993,-2.84163 -0.84138,-0.66146 -1.94734,-0.86783 -3.00567,-0.99748 -1.95786,-0.23408 -3.9337,-0.27927 -5.90021,-0.13494 -9.67052,1.92617 -13.5255,6.72042 -13.5255,6.72042 -2.27806,4.97152 -7.24958,9.32127 -7.24958,9.32127 0,0 9.525,5.38692 9.525,5.38692 -0.62177,1.65629 -4.14338,4.55612 -4.14338,4.55612 -9.73666,7.04321 -9.11489,17.8144 -9.11489,17.8144 0,0 -7.35806,-6.85535 -7.35806,-6.85535 -0.82815,2.69345 3.4237,10.99873 3.4237,10.99873 0,0 7.32102,8.001 7.32102,8.001 0,0 -3.48191,0.23283 -3.48191,0.23283 0,0 3.87879,5.00592 3.87879,5.00592 0,0 22.86,-0.0688 22.86,-0.0688 0.11616,-0.9469 0.45331,-1.85323 0.98425,-2.64583 1.14565,-1.69069 2.9501,-2.81517 4.74927,-3.79148 0,0 0,0 0,0"
       class="cls-9" />
    <path
       inkscape:connector-curvature="0"
       style="fill:#e8bc8e;stroke-width:0.01852198"
       id="path29"
       d="m 177.87538,152.92422 c 0,0 -4.55613,-4.97152 -4.55613,-4.97152 -3.5216,-5.17789 -12.6365,-6.83418 -12.6365,-6.83418 -7.63852,-1.28588 -13.68954,-1.02394 -18.37531,-0.0926 1.96651,-0.14433 3.94235,-0.0992 5.90021,0.13493 1.05833,0.12965 2.16958,0.33338 3.01096,0.99484 0.84137,0.66146 1.32291,1.91558 0.76993,2.84162 -0.41539,0.71438 -1.30704,1.05834 -1.6801,1.80446 -0.48683,0.96044 0.13229,2.16694 1.02923,2.75961 0.89694,0.59266 1.9976,0.76464 3.02948,1.05833 4.7625,1.36789 8.25235,5.62769 9.87954,10.29494 1.62719,4.66725 1.651,9.72873 1.41288,14.66585 -0.17728,3.67771 -0.52917,7.4983 -2.42888,10.65478 -2.79929,4.67254 -8.26029,6.87916 -13.04925,9.46414 -1.79917,0.97632 -3.60362,2.1008 -4.7625,3.79677 -0.53094,0.7926 -0.86809,1.69894 -0.98425,2.64584 0,0 16.03375,-0.0476 16.03375,-0.0476 15.32731,0 19.05,-7.50887 19.05,-7.50887 2.83633,-4.97417 4.97417,-27.0563 4.97417,-27.0563 0.42333,-10.78177 -6.61723,-14.605 -6.61723,-14.605 0,0 0,-4e-5 0,-4e-5"
       class="cls-10" />
    <path
       inkscape:connector-curvature="0"
       style="fill:#6797c2;stroke-width:0.01852198"
       id="path57"
       d="m -16.636901,206.24589 c -4.519218,-3.11154 -10.401527,-3.14657 -15.888923,-3.07014 0,0 -24.583403,0.35033 -24.583403,0.35033 -6.818638,0.0987 -15.143682,-0.69747 -17.99407,-6.8919 -0.955437,-2.07648 -1.073275,-4.42367 -1.165634,-6.70716 -1.066165,-26.67272 -0.656827,-53.38399 1.226145,-80.01151 0.38536,-5.45237 1.178372,-11.573518 5.516058,-14.901629 3.401357,-2.611525 8.051152,-2.726177 12.331512,-2.50643 4.280359,0.219748 8.790023,0.636963 12.656359,-1.229327 2.993705,-1.43315 5.274014,-4.818589 5.060634,-7.94287 0,0 -39.004137,0 -39.004137,0 -2.110694,0 -3.821749,1.711054 -3.82175,3.821748 0,0 0,121.308688 0,121.308688 0,1.01359 0.402648,1.98568 1.119365,2.70238 0.716717,0.71672 1.688794,1.11937 2.702385,1.11937 0,0 66.007981,0 66.007981,0 -0.645883,-2.43518 -2.117148,-4.57059 -4.162522,-6.04155 0,0 0,0 0,0"
       class="cls-13" />
    <path
       inkscape:connector-curvature="0"
       style="fill:#95b6d4;stroke-width:0.01852198"
       id="path59"
       d="m -5.3054142,83.335254 c 0,0 -34.1728088,0 -34.1728088,0 0.21338,3.124281 -2.066929,6.50972 -5.060634,7.94287 -3.879076,1.856732 -8.376,1.449075 -12.656359,1.21977 -4.28036,-0.229305 -8.917416,-0.105083 -12.331512,2.506442 -4.337686,3.328096 -5.130698,9.449254 -5.516058,14.901614 -1.882972,26.62752 -2.29231,53.33879 -1.226145,80.01151 0.09236,2.28349 0.210197,4.63069 1.165634,6.70718 2.850388,6.19441 11.175432,6.99061 17.99407,6.89188 0,0 24.583403,-0.35032 24.583403,-0.35032 5.487396,-0.0764 11.369705,-0.0414 15.888923,3.07013 2.047184,1.47335 3.518641,3.61244 4.162522,6.05111 0,0 7.1689648,0 7.1689648,0 2.1106938,0 3.8217492,-1.71106 3.8217492,-3.82175 0,0 0,-121.308688 0,-121.308688 -7e-7,-2.110694 -1.7110558,-3.821748 -3.8217492,-3.821748 0,0 0,0 0,0"
       class="cls-14" />
    <path
       inkscape:connector-curvature="0"
       style="fill:none;stroke-width:0.01852198"
       id="path62"
       d="m 110.90669,177.69187 c 0.39688,0.84931 1.18004,1.50283 1.8706,2.11667 0.69057,0.61383 1.38378,1.32292 2.0955,1.95527 0.71173,0.63235 1.4658,1.23031 2.15636,1.88912 -0.13494,-0.68262 -0.37042,-1.3626 -0.47096,-2.03993 -0.18521,-1.23032 -0.3175,-2.47386 -0.42598,-3.70417 -0.18785,-2.17752 -0.26458,-4.4159 0.10319,-6.58019 0.31495,-1.9092 1.03683,-3.72833 2.11667,-5.334 0.73081,-1.02082 1.56224,-1.96571 2.48179,-2.82046 0.6376,-0.6707 1.34747,-1.26877 2.11666,-1.78329 0,0 -3.54277,-1.651 -3.54277,-1.651 -0.77091,0.6171 -1.50424,1.27974 -2.19604,1.98438 -0.74031,0.79021 -1.43129,1.62523 -2.06904,2.50031 -1.33146,1.77455 -2.4255,3.71536 -3.25438,5.77321 -0.605,1.53014 -1.01566,3.13013 -1.22237,4.7625 0.0238,0.52916 0.045,1.05833 0.0556,1.60337 0.0159,0.4445 -0.0291,0.90223 0.18521,1.32821 0,0 -4e-5,0 -4e-5,0"
       class="cls-15" />
    <path
       inkscape:connector-curvature="0"
       style="fill:none;stroke-width:0.01852198"
       id="path64"
       d="m 114.3304,188.67473 c 0,0 0.21696,0 0.21696,0 0.1561,0 0.23283,0.2487 0.23283,0.49741 0,0 0.26458,0.28575 0.26458,0.28575 0,0 4.23334,4.70165 4.23334,4.70165 0,0 0.85725,0 0.85725,0 -0.17463,-0.30956 -0.3519,-0.61648 -0.52917,-0.92869 -0.53678,-0.9772 -0.97973,-2.00308 -1.32292,-3.06387 -0.52972,-1.69336 -0.81308,-3.45412 -0.84137,-5.22817 -0.0503,0.0688 -0.12171,0.09 -0.21167,0 -0.97896,-1.03717 -2.17223,-1.85208 -3.175,-2.86544 -0.76994,-0.79375 -1.64571,-1.45256 -2.41564,-2.23573 -0.44398,-0.42653 -0.80781,-0.92927 -1.07421,-1.48431 0.10036,1.4733 0.40123,2.92603 0.89429,4.318 0.37943,1.01676 0.84319,2.00002 1.38642,2.93952 0.43103,0.70505 0.79849,1.44704 1.09802,2.21721 0.0741,0.21696 0.13758,0.43392 0.19314,0.65352 0,0 0,0 0,0 0,0 0.19315,0.19315 0.19315,0.19315"
       class="cls-15" />
    <path
       inkscape:connector-curvature="0"
       style="fill:none;stroke-width:0.01852198"
       id="path66"
       d="m 36.627567,194.36327 c 0,0 0,0 0,0"
       class="cls-15" />
    <path
       inkscape:connector-curvature="0"
       style="fill:none;stroke-width:0.01852198"
       id="path68"
       d="m 24.070437,189.66691 c -0.01,0.12592 -0.01,0.25244 0,0.37836 -0.10319,1.49489 -0.19579,2.98979 -0.2884,4.49791 -0.0476,0.74613 -0.0926,1.4949 -0.14022,2.24103 -0.0423,0.66939 -0.18257,1.41816 0,2.07168 0.18256,0.65352 0.79375,1.19592 1.2647,1.69334 0.529167,0.54151 1.04246,1.09008 1.53988,1.6457 0.920747,1.00719 1.822093,2.04612 2.70404,3.1168 0.23813,0.28839 0.4736,0.57943 0.70908,0.87312 0.156566,0.24219 0.346263,0.46128 0.56357,0.65088 0.045,0.0291 0.24606,0.1561 0.30691,0.11906 0.03468,-0.17412 0.04801,-0.35182 0.0397,-0.52917 0,0 0.0794,-1.05833 0.0794,-1.05833 0,0 0.65087,-8.65452 0.65087,-8.65452 0,-0.10848 0.0661,-0.35984 0.21167,-0.36513 0,0 5.00591,-0.2196 5.00591,-0.2196 0.79375,-0.0344 1.60338,-0.0556 2.40242,-0.10583 0.67204,-0.045 1.41817,-0.14817 1.91294,-0.65088 0.336387,-0.31308 0.500939,-0.7693 0.44185,-1.22502 -0.11112,-0.54504 -0.59796,-0.94985 -1.05833,-1.20121 -1.19592,-0.64823 -2.64583,-0.51594 -3.94758,-0.48419 -1.12713,0.0291 -2.27807,-0.0212 -3.30994,-0.52916 -0.454178,-0.21494 -0.851906,-0.53294 -1.16152,-0.92869 -0.155723,-0.22201 -0.291207,-0.45755 -0.40482,-0.70379 -0.108385,-0.26046 -0.360858,-0.43189 -0.64293,-0.43656 -1.21973,-0.11113 -2.45269,-0.14817 -3.67771,-0.20109 0,0 -3.20146,0 -3.20146,0 0,0 -3e-5,0.005 -3e-5,0.005 m 12.58888,3.57452 c 0.51329,-0.39952 1.32291,-0.45772 1.92087,-0.3122 0.293154,0.0576 0.566529,0.18968 0.79375,0.38364 0.193238,0.18069 0.31764,0.42294 0.3519,0.68527 0.01481,0.0776 0.02191,0.15648 0.0212,0.23548 1.12e-4,0.072 -0.007,0.14376 -0.0212,0.21431 -0.03448,0.30626 -0.190895,0.5857 -0.43392,0.77523 -0.288577,0.20475 -0.626476,0.32895 -0.97896,0.35984 -0.61912,0.0767 -1.397,-0.037 -1.83621,-0.52917 -0.430993,-0.5565 -0.350755,-1.35304 0.18257,-1.8124 0,0 0,0 0,0"
       class="cls-15" />
    <path
       inkscape:connector-curvature="0"
       style="fill:none;stroke-width:0.01852198"
       id="path70"
       d="m 121.3445,198.29233 c 0,-0.2831 -0.0318,-0.56621 -0.0609,-0.84931 0,0 -0.0238,0 -0.0238,0 -0.0231,0.0193 -0.0519,0.0305 -0.082,0.0318 0,0 -0.15346,0 -0.15346,0 -0.89165,0.0317 -1.79123,0 -2.68817,0 0,0 3.03213,3.75444 3.03213,3.75444 0.003,-0.98161 0.0185,-1.96057 -0.0238,-2.93688 0,0 0,-5e-5 0,-5e-5"
       class="cls-15" />
    <path
       inkscape:connector-curvature="0"
       style="fill:none;stroke-width:0.01852198"
       id="path72"
       d="m 121.62496,201.54935 c 0,0 0,0 0,0"
       class="cls-15" />
    <path
       inkscape:connector-curvature="0"
       style="fill:none;stroke-width:0.01852198"
       id="path74"
       d="m 38.238877,193.86585 c -0.512221,-0.0751 -1.034026,0.0438 -1.46315,0.33338 0,0 -0.037,0.0344 -0.037,0.0344 0.05598,0.0485 0.116197,0.0919 0.17992,0.12965 0.467484,0.24115 1.003461,0.31492 1.51871,0.20902 0.235405,-0.0375 0.460566,-0.12304 0.66145,-0.25136 0.04058,-0.0255 0.07867,-0.0547 0.11377,-0.0873 -0.06016,-0.0535 -0.125781,-0.1005 -0.19579,-0.14023 -0.240582,-0.12927 -0.505548,-0.20678 -0.77787,-0.22754 0,0 -4e-5,-2e-5 -4e-5,-2e-5"
       class="cls-15" />
    <path
       inkscape:connector-curvature="0"
       style="fill:none;stroke-width:0.01852198"
       id="path76"
       d="m 180.15609,155.59122 c 0,0 -1.12448,-1.15093 -1.12448,-1.15093 -0.39423,-0.40217 -0.79375,-0.79375 -1.18004,-1.20386 -0.48684,-0.35454 -0.99219,-0.68262 -1.51078,-0.98954 0.13494,0.37042 0.26459,0.74613 0.35984,1.12713 0.45005,1.69087 0.66112,3.43642 0.62706,5.18583 -0.0334,2.55004 -0.20474,5.09641 -0.51329,7.62794 -0.56621,4.79954 -1.56633,9.525 -2.43946,14.2875 -0.3466,1.88383 -0.7276,3.77825 -1.44462,5.55625 -0.69351,1.78413 -1.8136,3.37116 -3.26232,4.62227 -3.24379,2.74902 -7.60677,3.79942 -11.74485,4.18306 -2.60615,0.24077 -5.22023,0.23019 -7.83431,0.24077 0,0 -4.99798,0.0185 -4.99798,0.0185 0,0 -7.28134,0.0265 -7.28134,0.0265 0,0 -8.15181,0.0265 -8.15181,0.0265 -2.53295,0 -5.06501,0 -7.59619,0 0,0 -0.79375,0 -0.79375,0 0,0 0.0397,0.0953 0.0397,0.0953 0.69056,1.9976 0.51329,4.21481 0.508,6.31296 0,0 0.34661,0 0.34661,0 1.32291,0.0265 2.64583,0.0238 3.96875,0.0265 2.20486,0 4.40972,0 6.61458,0 0,0 7.9375,-0.0185 7.9375,-0.0185 0,0 7.81314,-0.0265 7.81314,-0.0265 0,0 6.40028,-0.0265 6.40028,-0.0265 0,0 3.57452,0 3.57452,0 3.89202,0 7.84489,-0.0582 11.64166,-1.04246 2.0429,-0.50945 3.98315,-1.36592 5.73617,-2.53206 1.61318,-1.08212 2.91125,-2.57188 3.76237,-4.318 0.80963,-1.67746 1.23561,-3.50573 1.5875,-5.32871 0.40746,-2.11667 0.79375,-4.23333 1.20121,-6.35 0.93663,-4.94242 1.71186,-9.94304 1.85209,-14.97806 0.0931,-1.7827 -0.0609,-3.56972 -0.45773,-5.31019 -0.35878,-1.44209 -0.94561,-2.81761 -1.73832,-4.07458 -0.474,-0.74622 -1.01511,-1.44763 -1.6166,-2.0955 -0.0847,0.14816 -0.17198,0.22225 -0.2831,0.10847 0,0 -1e-5,-9e-5 -1e-5,-9e-5"
       class="cls-15" />
    <path
       inkscape:connector-curvature="0"
       style="fill:none;stroke-width:0.01852198"
       id="path78"
       d="m 131.88815,160.70562 c 0,0 0.0212,0 0.0212,0 0.87577,-1.29381 1.71714,-2.61408 2.64583,-3.87879 1.24011,-1.77023 2.72003,-3.35968 4.39737,-4.72281 3.35227,-2.62202 7.49036,-4.01638 11.66019,-4.64873 3.83758,-0.55095 7.72738,-0.63978 11.58611,-0.26459 3.15385,0.25273 6.2672,0.87434 9.27629,1.85209 1.1512,0.38447 2.27628,0.84316 3.36814,1.37318 -0.0556,-0.0926 -0.10848,-0.1852 -0.16668,-0.26458 -0.10848,-0.16933 -0.21961,-0.33337 -0.33073,-0.49742 0,0 -0.22225,-0.22489 -0.22225,-0.22489 0,0 -3.07711,-3.14854 -3.07711,-3.14854 -0.0298,-0.0331 -0.0507,-0.0731 -0.0609,-0.11642 -0.85296,-0.65404 -1.75623,-1.23971 -2.7014,-1.75154 -2.71763,-1.42387 -5.63435,-2.43 -8.65187,-2.9845 -3.1707,-0.61103 -6.39393,-0.90792 -9.6229,-0.88636 -4.21481,0 -8.509,0.44715 -12.48569,1.90765 -1.9634,0.71214 -3.81415,1.70301 -5.49539,2.94217 -1.70386,1.3253 -3.20414,2.89333 -4.45294,4.65402 -1.25677,1.70391 -2.38125,3.50837 -3.59569,5.23875 -0.51196,0.71372 -1.09046,1.37726 -1.72773,1.98173 0,0 3.05594,1.09008 3.05594,1.09008 0,0 6.58021,2.3495 6.58021,2.3495"
       class="cls-15" />
    <path
       inkscape:connector-curvature="0"
       style="fill:none;stroke-width:0.01852198"
       id="path80"
       d="m 124.07236,161.88037 c -0.65352,0.1614 -1.24619,0.61383 -1.76213,1.02394 -0.60465,0.48654 -1.17816,1.01057 -1.71714,1.56898 -0.90307,0.8753 -1.70211,1.8519 -2.38125,2.91041 -0.96525,1.61131 -1.55237,3.42061 -1.71715,5.29167 -0.16065,2.13407 -0.0986,4.27906 0.18521,6.40027 0.0804,0.97257 0.21551,1.93984 0.40481,2.89719 0.11906,0.52917 0.26458,1.05833 0.36248,1.5875 0.20902,-4.45029 1.89177,-8.64394 4.45294,-12.26079 1.24547,-1.77485 2.71355,-3.38253 4.36827,-4.78367 1.61131,-1.35202 3.35227,-2.61673 4.60904,-4.32858 0.11642,-0.15611 0.22754,-0.31486 0.34131,-0.47361 0,0 -0.36248,0 -0.36248,0 0,0 -6.78391,0.16669 -6.78391,0.16669"
       class="cls-15" />
    <path
       inkscape:connector-curvature="0"
       style="fill:none;stroke-width:0.01852198"
       id="path82"
       d="m 157.36223,147.97387 c -4.21481,0 -8.509,0.4445 -12.48569,1.90765 -1.96438,0.70993 -3.81544,1.70096 -5.49539,2.94216 -1.70495,1.32493 -3.20615,2.89299 -4.45558,4.65402 -1.25942,1.70657 -2.38125,3.50838 -3.59569,5.2414 -1.21444,1.73302 -2.80988,2.9845 -4.39738,4.29154 -1.69813,1.31452 -3.19244,2.87303 -4.43441,4.62492 -1.33247,1.77484 -2.42658,3.71666 -3.25438,5.77585 -1.5875,4.0058 -1.89442,8.58838 -0.43127,12.67884 0.38034,1.01682 0.84498,2.00008 1.38906,2.93952 0.20902,0.37306 0.42334,0.74612 0.61913,1.12977 0,0 4.57464,0 4.57464,0 2.64583,0 5.29167,-0.006 7.9375,-0.0185 0,0 7.81315,-0.0265 7.81315,-0.0265 0,0 6.40292,-0.0238 6.40292,-0.0238 0,0 3.57187,-0.0132 3.57187,-0.0132 3.89202,0 7.8449,-0.0609 11.64167,-1.04511 2.03736,-0.51144 3.97147,-1.36975 5.71764,-2.53735 1.61453,-1.08058 2.91296,-2.57076 3.76238,-4.318 0.81227,-1.67746 1.2356,-3.50573 1.5875,-5.32606 0.40746,-2.11667 0.79375,-4.23334 1.20121,-6.35 0.93662,-4.94242 1.7145,-9.9404 1.85208,-14.97807 0.0902,-1.78265 -0.0638,-3.56926 -0.45773,-5.31018 -0.20931,-0.82689 -0.49176,-1.63352 -0.84402,-2.41036 -2.69871,-1.40228 -5.59161,-2.39393 -8.58308,-2.94217 -3.17506,-0.61177 -6.40275,-0.90866 -9.63613,-0.88635 0,0 0,-2e-5 0,-2e-5"
       class="cls-15" />
    <path
       inkscape:connector-curvature="0"
       style="fill:none;stroke-width:0.01852198"
       id="path84"
       d="m 120.15123,158.06243 c 0,0 -0.86783,0.0159 -0.86783,0.0159 0,0 -1.17475,0.0212 -1.17475,0.0212 0,0 1.26471,0.59267 1.26471,0.59267 0.26458,-0.21167 0.52916,-0.42069 0.77787,-0.62971 0,0 0,-6e-5 0,-6e-5"
       class="cls-15" />
    <path
       inkscape:connector-curvature="0"
       style="fill:none;stroke-width:0.01852198"
       id="path86"
       d="m 121.02965,196.09893 c -0.0518,-0.17938 -0.11274,-0.356 -0.18256,-0.52916 -0.0582,-0.14023 -0.12436,-0.26459 -0.1905,-0.4154 0,0 -0.48948,0 -0.48948,0 0,0 0.86254,0.94456 0.86254,0.94456"
       class="cls-15" />
    <path
       inkscape:connector-curvature="0"
       style="fill:none;stroke-width:0.01852198"
       id="path88"
       d="m 118.60607,159.34831 c -0.80698,-0.36777 -1.64571,-0.70644 -2.4183,-1.13242 0,0 0,0 0,0 0,0 -0.0265,0 -0.0265,0 0.0291,0 -0.0503,0.0238 -0.0635,0.0317 -0.1084,0.0607 -0.20958,0.1335 -0.30163,0.21696 -0.26789,0.2304 -0.52147,0.47692 -0.75935,0.73819 -0.46832,0.49212 -0.92075,1.00277 -1.34409,1.53458 -0.567,0.75452 -1.05882,1.5627 -1.46843,2.413 -0.54198,1.05269 -0.95847,2.16539 -1.2409,3.31523 -0.48683,2.02142 -0.48419,4.10369 -0.39952,6.17273 0.72944,-3.16566 2.08516,-6.15329 3.98727,-8.78681 1.16057,-1.65661 2.51516,-3.16842 4.0349,-4.50321 0,0 5e-5,5e-5 5e-5,5e-5"
       class="cls-15" />
    <path
       inkscape:connector-curvature="0"
       style="fill:none;stroke-width:0.01852198"
       id="path90"
       d="m 124.09088,160.88818 c 0,0 0.94456,-0.0238 0.94456,-0.0238 0,0 4.19629,-0.10848 4.19629,-0.10848 0,0 -0.13494,-0.0476 -0.13494,-0.0476 0,0 -7.38981,-2.64583 -7.38981,-2.64583 -0.0503,-0.0185 -0.15081,-0.0344 -0.127,-0.037 0,0 -0.15875,0 -0.15875,0 -0.40216,0.35189 -0.81227,0.69585 -1.22502,1.03717 0,0 3.89467,1.82554 3.89467,1.82554"
       class="cls-15" />
    <path
       inkscape:connector-curvature="0"
       style="fill:#4d4d4d;stroke-width:0.01852198"
       id="path92"
       d="m 23.260817,199.34537 c 0,-0.0318 0,-0.0609 -0.0212,-0.09 0.0052,0.0304 0.01229,0.0605 0.0212,0.09 0,0 0,0 0,0"
       class="cls-5" />
    <path
       inkscape:connector-curvature="0"
       style="fill:#4d4d4d;stroke-width:0.01852198"
       id="path94"
       d="m 23.289917,199.42475 c 0,-0.0265 -0.0185,-0.0529 -0.0291,-0.0794 0.008,0.0265 0.0185,0.0529 0.0291,0.0794 0,0 0,0 0,0"
       class="cls-5" />
    <path
       inkscape:connector-curvature="0"
       style="fill:#4d4d4d;stroke-width:0.01852198"
       id="path96"
       d="m 23.559787,199.52264 c 0.121009,-0.20538 0.149836,-0.45225 0.0794,-0.67998 -0.0476,-0.14023 -0.14817,-0.33602 -0.29898,-0.17727 -0.109221,0.17602 -0.145302,0.38776 -0.10054,0.59002 0,0.0291 0.0132,0.0582 0.0212,0.09 0.008,0.0318 0.0212,0.0529 0.0291,0.0794 0.0556,0.12171 0.14817,0.22489 0.26987,0.0979 0,0 -5e-5,-7e-5 -5e-5,-7e-5"
       class="cls-5" />
    <path
       inkscape:connector-curvature="0"
       style="fill:#4d4d4d;stroke-width:0.01852198"
       id="path98"
       d="m 23.329607,198.66539 c 0.15081,-0.15875 0.26458,0.037 0.29898,0.17727 -0.1905,-0.65352 -0.0503,-1.40229 0,-2.07168 0.0476,-0.74613 0.0926,-1.4949 0.14023,-2.24102 0.0926,-1.4949 0.1852,-2.9898 0.28839,-4.49792 -0.01,-0.12592 -0.01,-0.25244 0,-0.37836 0,0 -0.26458,0 -0.26458,0 -0.06315,-0.005 -0.118828,-0.0431 -0.14552,-0.10054 0,0.0503 0,0.10054 0,0.14817 -0.0317,0.46302 -0.0609,0.9234 -0.0926,1.38642 0,0 -0.17462,2.77018 -0.17462,2.77018 -0.0582,0.92075 -0.11377,1.85209 -0.17198,2.76755 -0.0529,0.86254 -0.18256,1.77006 0.037,2.61672 -0.04595,-0.19605 -0.01567,-0.40223 0.0847,-0.57679 0,0 0,0 0,0"
       class="cls-5" />
    <path
       inkscape:connector-curvature="0"
       style="fill:#4d4d4d;stroke-width:0.01852198"
       id="path100"
       d="m 31.711607,197.34248 c 0,0 0.10318,0 0.10318,0 -0.01683,-0.0338 -0.03013,-0.0693 -0.0397,-0.10584 0,0 -0.06348,0.10584 -0.06348,0.10584"
       class="cls-5" />
    <path
       inkscape:connector-curvature="0"
       style="fill:#4d4d4d;stroke-width:0.01852198"
       id="path102"
       d="m 31.814787,197.33718 c 0,0 -0.10318,0 -0.10318,0 0,0 0.0635,-0.11112 0.0635,-0.11112 -0.0767,-0.29369 0,-0.75671 0.19843,-0.75671 0,0 0.15346,0 0.15346,0 1.15094,-0.0423 2.31511,0 3.46869,0 0,0 5.38956,0 5.38956,0 0.93663,-0.71173 1.18004,-2.15106 0.74613,-3.2041 -0.52917,-1.26736 -1.96321,-1.7145 -3.21469,-1.80446 -1.41552,-0.10319 -2.85221,0.16933 -4.25185,-0.14288 -0.580447,-0.12039 -1.127634,-0.36599 -1.60338,-0.71966 -0.215251,-0.16751 -0.401219,-0.36958 -0.55033,-0.59796 -0.06726,-0.10886 -0.127362,-0.22199 -0.17992,-0.33867 0,0 -4.66196,0 -4.66196,0 1.22502,0.0529 2.45798,0.09 3.67771,0.20109 0.282076,0.005 0.534553,0.1761 0.64294,0.43656 0.11361,0.24623 0.24909,0.48178 0.40481,0.70379 0.309614,0.39575 0.707342,0.71375 1.16152,0.92869 1.03188,0.50535 2.18281,0.55562 3.30994,0.52916 1.32292,-0.0318 2.75167,-0.16404 3.94758,0.48419 0.46302,0.26458 0.94986,0.65617 1.05834,1.20121 0.05909,0.45572 -0.10547,0.91194 -0.44186,1.22502 -0.49477,0.50271 -1.24089,0.6059 -1.91294,0.65088 -0.79375,0.0503 -1.5875,0.0714 -2.40241,0.10583 0,0 -5.00592,0.2196 -5.00592,0.2196 -0.14552,0 -0.20373,0.26459 -0.21167,0.36513 0,0 -0.65087,8.65452 -0.65087,8.65452 0,0 -0.0794,1.05833 -0.0794,1.05833 0.0083,0.17735 -0.005,0.35505 -0.0397,0.52917 -0.0609,0.037 -0.26459,-0.09 -0.30692,-0.11906 -0.217303,-0.1896 -0.406997,-0.40869 -0.56356,-0.65088 -0.23548,-0.29369 -0.47096,-0.58473 -0.70909,-0.87312 -0.88194,-1.05833 -1.784167,-2.09815 -2.70668,-3.11944 -0.502713,-0.56621 -1.010713,-1.11389 -1.524,-1.64306 -0.47625,-0.49742 -1.04246,-1.01865 -1.26471,-1.69334 0.07044,0.22773 0.04161,0.4746 -0.0794,0.67998 -0.1217,0.127 -0.21431,0.0238 -0.26458,-0.0979 0.23369,0.59507 0.587676,1.13551 1.03981,1.5875 0.50271,0.52916 1.016,1.05833 1.51342,1.60073 1.0354,1.11654 2.03729,2.26307 3.00567,3.43958 0.24077,0.28839 0.47625,0.57944 0.71173,0.87312 0.187846,0.26898 0.398525,0.52127 0.6297,0.75407 0.15611,0.13758 0.40746,0.29368 0.62177,0.19314 0.26459,-0.12171 0.31221,-0.49212 0.33338,-0.74612 0.13229,-1.5875 0.24077,-3.19088 0.35983,-4.78632 0.123473,-1.64041 0.246947,-3.28171 0.37042,-4.92389 -0.03332,-0.0243 -0.06051,-0.056 -0.0794,-0.0926 0,0 8e-5,0 8e-5,0"
       class="cls-5" />
    <path
       inkscape:connector-curvature="0"
       style="fill:#4d4d4d;stroke-width:0.01852198"
       id="path104"
       d="m 27.118437,188.67208 c -0.79375,-0.0397 -1.56633,-0.0767 -2.3495,-0.12435 -0.30162,-0.0185 -0.61648,-0.0661 -0.82815,0.127 0,0 0.0132,0 0.0132,0 1.0504,-0.0318 2.11138,-0.008 3.16442,-0.003 0,0 3e-5,3.5e-4 3e-5,3.5e-4"
       class="cls-5" />
    <path
       inkscape:connector-curvature="0"
       style="fill:#4d4d4d;stroke-width:0.01852198"
       id="path106"
       d="m 39.310437,194.23362 c -0.0021,0.0388 -0.0021,0.0776 0,0.11642 0,0 0,0 0,0 0.005,-0.0265 0,-0.12171 0,-0.11642 0,0 0,0 0,0"
       class="cls-5" />
    <path
       inkscape:connector-curvature="0"
       style="fill:#4d4d4d;stroke-width:0.01852198"
       id="path108"
       d="m 39.318377,194.11191 c 0,0 0,0 0,0 0,0 -0.0185,0.0291 -0.0185,0.0291 -0.02549,0.0325 -0.05383,0.0626 -0.0847,0.09 0,0 0.0529,0.0476 0.0529,0.0476 0,0 0.0317,0.0397 0.0317,0.0397 0.0062,0.0103 0.01328,0.02 0.0212,0.0291 -0.0021,-0.0388 -0.0021,-0.0776 0,-0.11641 -0.0106,-0.0318 -0.008,-0.0688 -0.003,-0.11907 0,0 4e-4,-2e-5 4e-4,-2e-5"
       class="cls-5" />
    <path
       inkscape:connector-curvature="0"
       style="fill:#4d4d4d;stroke-width:0.01852198"
       id="path110"
       d="m 39.318377,194.11191 c 0,0 0,0 0,0"
       class="cls-5" />
    <path
       inkscape:connector-curvature="0"
       style="fill:#4d4d4d;stroke-width:0.01852198"
       id="path112"
       d="m 39.318377,194.10927 c 0,0 0,0 0,0 0,0 0,0 0,0"
       class="cls-5" />
    <path
       inkscape:connector-curvature="0"
       style="fill:#4d4d4d;stroke-width:0.01852198"
       id="path114"
       d="m 39.318377,194.35268 c 0,0 0,0 0,0"
       class="cls-5" />
    <path
       inkscape:connector-curvature="0"
       style="fill:#4d4d4d;stroke-width:0.01852198"
       id="path116"
       d="m 39.326317,194.10133 c 0,0 0,0 0,0 0,0 0,0 0,0 0,0 -0.0132,0.0238 -0.0132,0.0238 0,0 0,0 0,0 0,0 0.0132,-0.0238 0.0132,-0.0238"
       class="cls-5" />
    <path
       inkscape:connector-curvature="0"
       style="fill:#4d4d4d;stroke-width:0.01852198"
       id="path120"
       d="m 39.328957,194.36591 c 0,0 0,0 0,0 0,0 0.003,0.005 0,0 0,0 0,0 0,0"
       class="cls-5" />
    <path
       inkscape:connector-curvature="0"
       style="fill:#4d4d4d;stroke-width:0.01852198"
       id="path122"
       d="m 39.318377,194.35268 c 0,0 0,0 0,0"
       class="cls-5" />
    <path
       inkscape:connector-curvature="0"
       style="fill:#4d4d4d;stroke-width:0.01852198"
       id="path124"
       d="m 39.527397,193.73621 c -0.14288,0 -0.19315,0.21695 -0.20902,0.37306 0,0 0.0132,-0.0238 0.0132,-0.0238 0,0 0,0 0,0 0,0 0,0 0,0 0,0 0,0 0,0 0,0 0,0 0,0 -0.01063,0.0424 -0.01597,0.0859 -0.0159,0.12964 0,0 0,0.09 0,0.11642 0,0 0,0 0,0 0,0 0,0 0,0 0.0018,0.005 0.0018,0.0108 0,0.0159 0,0 0,0 0,0 0,0 0,0.045 0,-0.0159 0,0 0,0 0,0 0.0132,0.15875 0.0582,0.37306 0.20902,0.37835 0.15082,0.005 0.17198,-0.14023 0.19844,-0.28046 0.01125,-0.071 0.01833,-0.14252 0.0212,-0.21431 -0.003,-0.0788 -0.01008,-0.1574 -0.0212,-0.23548 -0.0265,-0.11112 -0.082,-0.23812 -0.19579,-0.24341 0,0 5e-5,-1e-5 5e-5,-1e-5"
       class="cls-5" />
    <path
       inkscape:connector-curvature="0"
       style="fill:#4d4d4d;stroke-width:0.01852198"
       id="path126"
       d="m 38.312957,195.583 c 0.352484,-0.0309 0.690383,-0.15509 0.97896,-0.35984 0.243025,-0.18953 0.39944,-0.46897 0.43392,-0.77523 -0.0265,0.14023 -0.0847,0.28575 -0.19844,0.28046 -0.11377,-0.005 -0.19579,-0.2196 -0.20902,-0.37835 -0.0079,-0.009 -0.01502,-0.0188 -0.0212,-0.0291 0,0 -0.0318,-0.0397 -0.0318,-0.0397 0,0 -0.0529,-0.0476 -0.0529,-0.0476 -0.03509,0.0326 -0.07319,0.0618 -0.11377,0.0873 -0.200884,0.12832 -0.426045,0.21388 -0.66145,0.25136 -0.515249,0.1059 -1.051226,0.0321 -1.51871,-0.20902 -0.06372,-0.0378 -0.123936,-0.0812 -0.17992,-0.12965 -0.03973,0.0408 -0.07684,0.0841 -0.11112,0.12965 0,0 0,0 0,0 0.0185,-0.0212 0,0 0,0.0159 0,0 0,-0.0159 0,-0.0159 0,0 0,0 0,0 0,0 0,0 0,0 0.0212,-0.0476 0,-0.0238 0,0 0.01686,-0.0874 0.01686,-0.1772 0,-0.26459 0,0 0,0 0,0 0,0 -0.0185,-0.0264 0,0 0,-0.0185 0,-0.0159 0,0 0,0 0,0 0,0 0.02149,0.0326 0.04536,0.0635 0.0714,0.0926 0,0 0.0291,0.0238 0.0291,0.0238 0,0 0.037,-0.0344 0.037,-0.0344 0.429121,-0.28959 0.950923,-0.40848 1.46314,-0.33338 0.272325,0.0208 0.537295,0.0983 0.77788,0.22754 0.07001,0.0397 0.135635,0.0867 0.19579,0.14023 0.03087,-0.0274 0.05921,-0.0575 0.0847,-0.09 0,0 0.0185,-0.0291 0.0185,-0.0291 0,0 0,0 0,0 0.0159,-0.15611 0.0661,-0.37836 0.20902,-0.37306 0.14288,0.005 0.16933,0.13229 0.19844,0.26458 -0.03426,-0.26233 -0.158662,-0.50458 -0.3519,-0.68527 -0.22722,-0.19397 -0.500595,-0.3261 -0.79375,-0.38365 -0.61119,-0.14552 -1.40758,-0.0873 -1.92087,0.31221 -0.533325,0.45936 -0.613563,1.2559 -0.18257,1.8124 0.45244,0.50271 1.23032,0.61648 1.84944,0.53975 0,0 1.3e-4,6e-5 1.3e-4,6e-5"
       class="cls-5" />
    <polygon
       class="cls-5"
       points="39.318379,194.35003 39.318379,194.35268 "
       id="polygon128"
       style="fill:#4d4d4d" />
    <path
       inkscape:connector-curvature="0"
       style="fill:#4d4d4d;stroke-width:0.01852198"
       id="path130"
       d="m 39.328957,194.36591 c 0.0018,-0.005 0.0018,-0.0108 0,-0.0159 0,0 0,0 0,0 0,0 0,0.0159 0,0.0159"
       class="cls-5" />
    <path
       inkscape:connector-curvature="0"
       style="fill:#4d4d4d;stroke-width:0.01852198"
       id="path132"
       d="m 39.318377,194.35268 c 0,0.0609 0.0132,0.037 0,0.0159 0,0 0,0 0,0 0,0 0,-0.0159 0,-0.0159"
       class="cls-5" />
    <path
       inkscape:connector-curvature="0"
       style="fill:#4d4d4d;stroke-width:0.01852198"
       id="path134"
       d="m 39.326317,194.10398 c 0,0 0,0 0,0"
       class="cls-5" />
    <path
       inkscape:connector-curvature="0"
       style="fill:#4d4d4d;stroke-width:0.01852198"
       id="path136"
       d="m 39.318377,194.35268 c 0,0 0,0 0,0"
       class="cls-5" />
    <path
       inkscape:connector-curvature="0"
       style="fill:#4d4d4d;stroke-width:0.01852198"
       id="path138"
       d="m 36.627567,194.10662 c 0,0 0,0 0,0"
       class="cls-5" />
    <path
       inkscape:connector-curvature="0"
       style="fill:#4d4d4d;stroke-width:0.01852198"
       id="path140"
       d="m 36.627567,194.10133 c 0,0 0,0 0,0 0,0 0,0 0,0 0,-0.0265 0,-0.0291 0,0 0,0 0,0 0,0"
       class="cls-5" />
    <polygon
       class="cls-5"
       points="36.62492,194.10133 36.627566,194.10397 "
       id="polygon142"
       style="fill:#4d4d4d" />
    <polygon
       class="cls-5"
       points="36.627566,194.10662 36.627566,194.10397 "
       id="polygon144"
       style="fill:#4d4d4d" />
    <path
       inkscape:connector-curvature="0"
       style="fill:#4d4d4d;stroke-width:0.01852198"
       id="path146"
       d="m 36.627567,194.10398 c 0,0 0,0 0,0"
       class="cls-5" />
    <path
       inkscape:connector-curvature="0"
       style="fill:#4d4d4d;stroke-width:0.01852198"
       id="path148"
       d="m 39.733767,193.99814 c 0.01112,0.0781 0.01819,0.15667 0.0212,0.23548 7.11e-4,-0.079 -0.0064,-0.15788 -0.0212,-0.23548 0,0 0,0 0,0"
       class="cls-5" />
    <path
       inkscape:connector-curvature="0"
       style="fill:#4d4d4d;stroke-width:0.01852198"
       id="path150"
       d="m 36.627567,194.10133 c 0,0 0,0 0,0"
       class="cls-5" />
    <path
       inkscape:connector-curvature="0"
       style="fill:#4d4d4d;stroke-width:0.01852198"
       id="path152"
       d="m 39.746997,194.23362 c -0.0029,0.0718 -0.0099,0.14335 -0.0212,0.21431 0.01421,-0.0706 0.02131,-0.14234 0.0212,-0.21431 0,0 0,0 0,0"
       class="cls-5" />
    <path
       inkscape:connector-curvature="0"
       style="fill:#4d4d4d;stroke-width:0.01852198"
       id="path154"
       d="m 36.627567,194.10662 c 0,0 0,0 0,0 0.008,0.0291 0.008,0.0265 0,0 0,0 0,0 0,0"
       class="cls-5" />
    <path
       inkscape:connector-curvature="0"
       style="fill:#4d4d4d;stroke-width:0.01852198"
       id="path156"
       d="m 36.627567,194.10398 c 0,0 0,0 0,0 -0.0185,-0.0265 -0.0106,-0.0132 0,0 0,0 0,0 0,0"
       class="cls-5" />
    <path
       inkscape:connector-curvature="0"
       style="fill:#4d4d4d;stroke-width:0.01852198"
       id="path158"
       d="m 36.627567,194.36327 c 0,0 0,0.0159 0,0.0159 0,0 0.0185,-0.037 0,-0.0159 0,0 0,0 0,0"
       class="cls-5" />
    <path
       inkscape:connector-curvature="0"
       style="fill:#4d4d4d;stroke-width:0.01852198"
       id="path160"
       d="m 39.321017,194.11985 c 0,0 0,-0.0185 0,-0.0185 0,0 0,0 0,0 0,0.0503 0,0.0952 0,0.12171 -7.5e-5,-0.0437 0.0053,-0.0873 0.0159,-0.12965 0,0 0,0 0,0.0159 0,0 -0.0159,0.0105 -0.0159,0.0105"
       class="cls-5" />
    <path
       inkscape:connector-curvature="0"
       style="fill:#4d4d4d;stroke-width:0.01852198"
       id="path164"
       d="m 39.326317,194.10133 c 0,0 0,0 0,0"
       class="cls-5" />
    <path
       inkscape:connector-curvature="0"
       style="fill:#4d4d4d;stroke-width:0.01852198"
       id="path166"
       d="m 36.638147,194.11721 c 0,0 0,0 0,0 0,0 0,0 0,0 0,0 0,0 0,0 0,0.0264 0,0.0291 0,0 0,0 0,0 0,0 0.01686,0.0874 0.01686,0.17719 0,0.26458 0,-0.0238 0.0212,-0.0476 0,0 0.03428,-0.0455 0.07139,-0.0888 0.11112,-0.12965 0,0 -0.0291,-0.0238 -0.0291,-0.0238 -0.03051,-0.0346 -0.05795,-0.0718 -0.082,-0.11112 0,0 -2e-5,-1e-5 -2e-5,-1e-5"
       class="cls-5" />
    <path
       inkscape:connector-curvature="0"
       style="fill:#4d4d4d;stroke-width:0.01852198"
       id="path168"
       d="m 39.326317,194.10133 c 0,0 0,0.0185 0,0.0185 0,0 0,0 0,-0.0159 0,0 0,-0.003 0,-0.003"
       class="cls-5" />
    <path
       inkscape:connector-curvature="0"
       style="fill:#4d4d4d;stroke-width:0.01852198"
       id="path170"
       d="m 39.321017,194.11985 c 0,0 0,0 0,0"
       class="cls-5" />
    <path
       inkscape:connector-curvature="0"
       style="fill:#4d4d4d;stroke-width:0.01852198"
       id="path174"
       d="m 39.331607,194.09075 c 0,0 0,0 0,0"
       class="cls-5" />
    <path
       inkscape:connector-curvature="0"
       style="fill:#4d4d4d;stroke-width:0.01852198"
       id="path176"
       d="m 121.64877,201.55993 c -0.007,-0.001 -0.0142,-0.001 -0.0212,0 0,0 0,0 0,0 0,0 0.0212,0 0.0212,0"
       class="cls-5" />
    <path
       inkscape:connector-curvature="0"
       style="fill:#4d4d4d;stroke-width:0.01852198"
       id="path178"
       d="m 121.62496,201.54935 c 0,0 0,0 0,0"
       class="cls-5" />
    <path
       inkscape:connector-curvature="0"
       style="fill:#4d4d4d;stroke-width:0.01852198"
       id="path180"
       d="m 184.05075,160.80881 c -0.80764,-2.88493 -2.44205,-5.47037 -4.70164,-7.43744 -0.43127,-0.37835 -0.88371,-0.7276 -1.34673,-1.05833 0,0 2.38125,2.42623 2.38125,2.42623 0.12171,0.12435 0.11906,0.52916 0.0344,0.75406 0.60149,0.64787 1.14261,1.34928 1.61661,2.0955 0.7927,1.25697 1.37953,2.63249 1.73831,4.07458 0.3968,1.74047 0.55084,3.52749 0.45773,5.31019 -0.12965,5.02708 -0.90488,10.03565 -1.85208,14.97806 -0.39952,2.11667 -0.79375,4.23334 -1.20121,6.35 -0.3519,1.82298 -0.77788,3.65125 -1.5875,5.32871 -0.85112,1.74612 -2.1492,3.23589 -3.76238,4.318 -1.75302,1.16614 -3.69327,2.02261 -5.73616,2.53206 -3.79148,0.98425 -7.74436,1.03453 -11.64167,1.04246 0,0 -3.57452,0 -3.57452,0 0,0 -6.40027,0.0265 -6.40027,0.0265 0,0 -7.81315,0.0265 -7.81315,0.0265 0,0 -7.9375,0.0185 -7.9375,0.0185 -2.20309,0 -4.40795,0 -6.61458,0 -1.32292,0 -2.64583,0 -3.96875,-0.0265 0,0 -0.34661,0 -0.34661,0 0,0.15875 0,0.32015 0,0.4789 0,0.11641 -0.0317,0.49741 -0.2196,0.49741 -0.0158,0.003 -0.0319,0.003 -0.0476,0 0.12435,0.0926 0.50535,0.0344 0.63235,0.0371 0.52917,0 1.08215,0 1.6219,0.0159 1.8706,0.0132 3.74385,0.0132 5.61445,0 2.53118,0 5.06324,0 7.59619,0 0,0 8.15181,-0.0265 8.15181,-0.0265 0,0 7.28134,-0.0265 7.28134,-0.0265 0,0 4.99798,-0.0185 4.99798,-0.0185 2.61143,0 5.22816,0 7.83166,-0.24077 4.14073,-0.38364 8.50371,-1.43404 11.7475,-4.18306 1.44704,-1.25264 2.56682,-2.83921 3.26232,-4.62227 0.71702,-1.78594 1.09802,-3.67771 1.44462,-5.55625 0.87313,-4.74927 1.8706,-9.47473 2.43946,-14.27427 0.30855,-2.53153 0.4799,-5.0779 0.51329,-7.62794 0.0417,-1.7575 -0.16403,-3.51212 -0.61119,-5.21229 0,0 -3e-5,-4e-5 -3e-5,-4e-5"
       class="cls-5" />
    <path
       inkscape:connector-curvature="0"
       style="fill:#4d4d4d;stroke-width:0.01852198"
       id="path182"
       d="m 121.29952,195.25756 c 0,0 -0.0397,-0.0952 -0.0397,-0.0952 0,0 -0.60325,0 -0.60325,0 0.0661,0.13758 0.13229,0.26458 0.1905,0.4154 0.0698,0.17316 0.13076,0.34978 0.18256,0.52916 0,0 0.39158,0.43392 0.39158,0.43392 0.17198,0.1905 0.0767,0.96044 -0.13758,0.91017 0.0291,0.2831 0.0503,0.5662 0.0609,0.84931 0.0423,0.97631 0.0265,1.95527 0.0238,2.93423 0,0 0.23018,0.2831 0.23018,0.2831 0.007,0.0107 0.0122,0.0222 0.0159,0.0344 0,0 0,0 0,0 0,0 0,0 0,0 0,0 0.11112,0 0.11112,0 0,0 0.0582,0 0.0582,0 0.0291,-2.09021 0.20638,-4.30742 -0.48419,-6.29444 0,0 -2e-5,-5e-5 -2e-5,-5e-5"
       class="cls-5" />
    <path
       inkscape:connector-curvature="0"
       style="fill:#4d4d4d;stroke-width:0.01852198"
       id="path184"
       d="m 121.81017,202.03883 c 0,-0.15875 0,-0.32015 0,-0.4789 0,0 -0.0556,0 -0.0556,0 0,0 -0.11113,0 -0.11113,0 0,0 0,0 0,0 0.007,-0.001 0.0142,-0.001 0.0212,0 0,0 -0.0238,0 -0.0238,0 0,0 0,0 0,0 0.0992,0.19758 0.11998,0.42537 0.0582,0.63765 -0.0291,0.10319 -0.11112,0.26458 -0.21166,0.23813 0.019,0.0336 0.0421,0.0647 0.0688,0.0926 0,0 0,0 0,0 0.0157,0.003 0.0319,0.003 0.0476,0 0.17463,0.008 0.20638,-0.37306 0.20638,-0.48948 0,0 1e-5,0 1e-5,0"
       class="cls-5" />
    <path
       inkscape:connector-curvature="0"
       style="fill:#4d4d4d;stroke-width:0.01852198"
       id="path186"
       d="m 121.46357,202.42512 c 0,0 -0.0238,0 -0.0238,0 0.0197,0.0471 0.0566,0.0849 0.10319,0.10584 0,0 0,0 0,0 -0.0313,-0.0313 -0.0581,-0.067 -0.0794,-0.10584 0,0 1e-5,0 1e-5,0"
       class="cls-5" />
    <path
       inkscape:connector-curvature="0"
       style="fill:#4d4d4d;stroke-width:0.01852198"
       id="path188"
       d="m 120.2015,193.02977 c -0.54408,-0.93944 -1.00872,-1.9227 -1.38906,-2.93952 -1.46315,-4.09046 -1.15094,-8.67304 0.43127,-12.67884 0.8278,-2.05919 1.92191,-4.00101 3.25438,-5.77585 1.24197,-1.75189 2.73628,-3.3104 4.43441,-4.62492 1.5875,-1.30704 3.20146,-2.59292 4.39738,-4.29154 1.19591,-1.69863 2.33627,-3.53483 3.59569,-5.2414 1.24943,-1.76103 2.75063,-3.32909 4.45558,-4.65402 1.67995,-1.2412 3.53101,-2.23223 5.49539,-2.94216 3.96875,-1.46315 8.27088,-1.90765 12.48569,-1.90765 3.22896,-0.0214 6.45218,0.27544 9.6229,0.88635 2.99386,0.55107 5.8886,1.5463 8.58837,2.95275 -0.21614,-0.47637 -0.45906,-0.94013 -0.7276,-1.38906 -1.09187,-0.53003 -2.21694,-0.98872 -3.36815,-1.37319 -3.00909,-0.97775 -6.12244,-1.59935 -9.27629,-1.85208 -3.85873,-0.37519 -7.74852,-0.28637 -11.5861,0.26458 -4.16984,0.63236 -8.30792,2.02671 -11.66019,4.64873 -1.68294,1.36627 -3.1674,2.96026 -4.4106,4.73605 -0.91811,1.2647 -1.75948,2.58497 -2.64584,3.87879 0.21961,0.127 0.20638,0.95514 -0.0794,0.96308 0,0 -0.60061,0.0159 -0.60061,0.0159 -0.11377,0.15875 -0.22489,0.3175 -0.34131,0.4736 -1.25677,1.71186 -2.99773,2.97657 -4.60904,4.32859 -1.65472,1.40113 -3.1228,3.00882 -4.36827,4.78366 -2.56117,3.61686 -4.23334,7.8105 -4.45294,12.2608 0.0586,0.31346 0.0922,0.63108 0.10054,0.94986 -0.001,0.1522 -0.0412,0.30158 -0.11641,0.43391 0.0307,1.77812 0.31764,3.54252 0.85195,5.23874 0.34319,1.06079 0.78614,2.08668 1.32292,3.06388 0.16933,0.31221 0.3466,0.61912 0.52917,0.92869 0,0 0.68262,0 0.68262,0 -0.19314,-0.39158 -0.40746,-0.762 -0.61648,-1.1377 0,0 3e-5,-3e-5 3e-5,-3e-5"
       class="cls-5" />
    <path
       inkscape:connector-curvature="0"
       style="fill:#4d4d4d;stroke-width:0.01852198"
       id="path190"
       d="m 177.84627,153.23643 c 0,0 -1.89177,-1.93675 -1.89177,-1.93675 0.13759,0.30957 0.26459,0.62707 0.381,0.94721 0.52388,0.30692 1.02923,0.635 1.51077,0.98954 0,0 0,0 0,0"
       class="cls-5" />
    <path
       inkscape:connector-curvature="0"
       style="fill:#4d4d4d;stroke-width:0.01852198"
       id="path192"
       d="m 121.61702,201.54671 c 0,0 0,0 0,0"
       class="cls-5" />
    <path
       inkscape:connector-curvature="0"
       style="fill:#4d4d4d;stroke-width:0.01852198"
       id="path194"
       d="m 174.8459,150.42391 c 0,0 0.508,0.26459 0.508,0.26459 0,0 -1.00542,-1.02923 -1.00542,-1.02923 0.11113,0.16404 0.22225,0.32808 0.33073,0.49741 0.0582,0.082 0.11113,0.17463 0.16669,0.26723 0,0 0,0 0,0"
       class="cls-5" />
    <path
       inkscape:connector-curvature="0"
       style="fill:#4d4d4d;stroke-width:0.01852198"
       id="path196"
       d="m 121.97157,157.15756 c 0,0 0.28045,0.10054 0.28045,0.10054 0.63727,-0.60447 1.21577,-1.26801 1.72773,-1.98173 1.21973,-1.73037 2.33892,-3.53483 3.59569,-5.23875 1.24941,-1.76182 2.75059,-3.33076 4.45558,-4.65667 1.68124,-1.23916 3.532,-2.23003 5.4954,-2.94216 3.96875,-1.4605 8.27087,-1.905 12.48569,-1.90765 3.22897,-0.0216 6.45219,0.27533 9.62289,0.88636 3.01753,0.5545 5.93425,1.56063 8.65188,2.9845 0.94516,0.51183 1.84843,1.0975 2.70139,1.75154 -0.10054,-0.3175 0.0318,-0.99484 0.28046,-0.74084 0,0 1.12448,1.15094 1.12448,1.15094 0,0 2.11667,2.159 2.11667,2.159 -0.72179,-1.02713 -1.56287,-1.96501 -2.50561,-2.794 -2.26748,-1.99496 -5.02708,-3.3655 -7.87135,-4.32064 -3.00939,-0.97662 -6.1226,-1.5982 -9.27629,-1.85209 -3.85873,-0.37516 -7.74853,-0.28633 -11.58611,0.26459 -4.16983,0.635 -8.30791,2.0267 -11.66018,4.65137 -1.68285,1.36536 -3.16732,2.95846 -4.41061,4.7334 -1.26735,1.7436 -2.38125,3.59568 -3.65654,5.33135 -0.64088,0.84666 -1.3719,1.62115 -2.18017,2.30981 0,0 0.15346,0 0.15346,0 0.15682,0.0115 0.31063,0.049 0.45509,0.11113 0,0 0,0 0,0"
       class="cls-5" />
    <path
       inkscape:connector-curvature="0"
       style="fill:#4d4d4d;stroke-width:0.01852198"
       id="path198"
       d="m 114.14254,188.46571 c -0.0556,-0.21961 -0.11906,-0.43657 -0.19314,-0.65353 -0.29953,-0.77017 -0.66699,-1.51216 -1.09802,-2.2172 -0.54323,-0.9395 -1.00699,-1.92276 -1.38642,-2.93952 -0.49306,-1.39197 -0.79393,-2.8447 -0.89429,-4.31801 -0.14043,-0.29969 -0.22985,-0.62072 -0.26458,-0.94985 -0.0609,-0.68792 -0.0265,-1.39171 -0.0556,-2.08492 0,-0.21431 -0.0185,-0.43127 -0.0291,-0.64823 -0.0608,0.5133 -0.10583,1.03188 -0.127,1.55311 -0.10418,2.20738 0.18061,4.41588 0.84137,6.52462 0.34365,1.06147 0.78658,2.08819 1.32292,3.06653 0.45322,0.75436 0.86397,1.53345 1.23031,2.33362 0.0712,0.17321 0.13395,0.34981 0.18786,0.52917 0,0 0.18521,0 0.18521,0 0.0556,-0.1905 0.15345,-0.32809 0.28045,-0.19579 0,0 3e-5,0 3e-5,0"
       class="cls-5" />
    <path
       inkscape:connector-curvature="0"
       style="fill:#4d4d4d;stroke-width:0.01852198"
       id="path200"
       d="m 120.138,194.15954 c 0.18257,0.32544 0.35984,0.65617 0.52917,0.99219 0,0 0.60325,0 0.60325,0 -0.12463,-0.33994 -0.27135,-0.67138 -0.43921,-0.99219 0,0 -0.69321,0 -0.69321,0"
       class="cls-5" />
    <path
       inkscape:connector-curvature="0"
       style="fill:#4d4d4d;stroke-width:0.01852198"
       id="path202"
       d="m 175.5735,151.81297 c 0,0 0.0635,0.0317 0.0635,0.0317 0.23548,0.12965 0.47096,0.26459 0.70379,0.40217 -0.11641,-0.32014 -0.24341,-0.63764 -0.381,-0.94721 0,0 -0.60589,-0.61912 -0.60589,-0.61912 0,0 -0.508,-0.26459 -0.508,-0.26459 0.26881,0.4515 0.51173,0.91792 0.7276,1.397 0,0 0,5e-5 0,5e-5"
       class="cls-5" />
    <path
       inkscape:connector-curvature="0"
       style="fill:#4d4d4d;stroke-width:0.01852198"
       id="path204"
       d="m 178.00238,152.30775 c -0.23284,-0.24078 -0.46831,-0.48155 -0.70379,-0.71967 0,0 -2.794,-2.8575 -2.794,-2.8575 0.48254,0.6878 0.90732,1.41436 1.27,2.17223 0.77197,0.42003 1.51611,0.88931 2.22779,1.40494 0,0 0,0 0,0"
       class="cls-5" />
    <path
       inkscape:connector-curvature="0"
       style="fill:#4d4d4d;stroke-width:0.01852198"
       id="path206"
       d="m 175.95979,151.29968 c 0,0 1.89178,1.93675 1.89178,1.93675 0.92562,0.66356 1.7827,1.41783 2.55852,2.25161 0.0847,-0.22754 0.0873,-0.62971 -0.0344,-0.75407 0,0 -2.38125,-2.42622 -2.38125,-2.42622 -0.71168,-0.51563 -1.45582,-0.98491 -2.22779,-1.40494 0.0714,0.13229 0.13229,0.26194 0.19314,0.39687 0,0 0,0 0,0"
       class="cls-5" />
    <path
       inkscape:connector-curvature="0"
       style="fill:#4d4d4d;stroke-width:0.01852198"
       id="path208"
       d="m 171.26873,145.42064 c -0.24871,-0.26458 -0.381,0.42333 -0.28046,0.74083 1.29141,0.98521 2.42457,2.1621 3.36021,3.48986 0,0 1.00542,1.02923 1.00542,1.02923 0.14023,0.0741 0.2831,0.14552 0.42069,0.22225 -0.36268,-0.75787 -0.78746,-1.48443 -1.27,-2.17223 0,0 -2.11667,-2.159 -2.11667,-2.159 0,0 -1.11919,-1.15094 -1.11919,-1.15094"
       class="cls-5" />
    <path
       inkscape:connector-curvature="0"
       style="fill:#4d4d4d;stroke-width:0.01852198"
       id="path210"
       d="m 175.77459,150.90281 c -0.13759,-0.0767 -0.28046,-0.14817 -0.42069,-0.22225 0,0 0.60589,0.61912 0.60589,0.61912 -0.0608,-0.13493 -0.1217,-0.26458 -0.1852,-0.39687 0,0 0,0 0,0"
       class="cls-5" />
    <path
       inkscape:connector-curvature="0"
       style="fill:#4d4d4d;stroke-width:0.01852198"
       id="path212"
       d="m 121.37361,202.02825 c 0,-0.26459 0,-0.52917 0,-0.79375 0,0 -3.03213,-3.75444 -3.03213,-3.75444 0,0 -0.79375,0 -0.79375,0 0,0 -0.13494,0 -0.13494,0 0,0 3.41578,4.23333 3.41578,4.23333 0,0 0.52916,0.6694 0.52916,0.6694 0.0175,0.0209 0.0391,0.038 0.0635,0.0503 -0.0242,-0.0529 -0.0402,-0.10905 -0.0476,-0.16669 -0.0105,-0.079 -0.0105,-0.1591 0,-0.23812 0,0 -2e-5,-3e-5 -2e-5,-3e-5"
       class="cls-5" />
    <path
       inkscape:connector-curvature="0"
       style="fill:#4d4d4d;stroke-width:0.01852198"
       id="path214"
       d="m 121.61438,201.54406 c -0.004,-0.0121 -0.009,-0.0237 -0.0159,-0.0344 0,0 -0.23018,-0.2831 -0.23018,-0.2831 0,0.26458 0,0.52917 0,0.79375 -0.003,-0.0405 -0.003,-0.0812 0,-0.12171 0.0212,-0.0609 0.1217,-0.41275 0.24606,-0.35454 0,0 2e-5,0 2e-5,0"
       class="cls-5" />
    <path
       inkscape:connector-curvature="0"
       style="fill:#4d4d4d;stroke-width:0.01852198"
       id="path216"
       d="m 121.61702,201.54935 c 0,0 0,0 0,0 0,0 -0.0106,-0.003 0,0 0,0 0,0 0,0"
       class="cls-5" />
    <path
       inkscape:connector-curvature="0"
       style="fill:#4d4d4d;stroke-width:0.01852198"
       id="path218"
       d="m 121.39213,202.2505 c 0.007,0.0576 0.0234,0.11384 0.0476,0.16668 0,0 0.0238,0 0.0238,0 -0.0336,-0.0508 -0.0578,-0.10729 -0.0714,-0.16668 0,0 0,0 0,0"
       class="cls-5" />
    <path
       inkscape:connector-curvature="0"
       style="fill:#4d4d4d;stroke-width:0.01852198"
       id="path220"
       d="m 121.61702,201.54671 c 0,0 0,0 0,0 -0.13758,-0.0582 -0.22489,0.29368 -0.23283,0.36247 -0.003,0.0405 -0.003,0.0812 0,0.12171 0,0 0,0 0,0 -2.3e-4,0.071 0.006,0.14182 0.0185,0.21167 0.0127,0.0622 0.0369,0.12138 0.0714,0.17462 0.10054,0.0212 0.18256,-0.13493 0.21167,-0.23812 0.0618,-0.21228 0.041,-0.44007 -0.0582,-0.63765 0,0 -0.0212,0.003 -0.0106,0.005 0,0 6e-5,3e-4 6e-5,3e-4"
       class="cls-5" />
    <path
       inkscape:connector-curvature="0"
       style="fill:#4d4d4d;stroke-width:0.01852198"
       id="path222"
       d="m 121.37361,202.02825 c -0.003,0.0746 0.003,0.14922 0.0185,0.22225 -0.0125,-0.0698 -0.0187,-0.1407 -0.0185,-0.21167 0,0 0,-0.0106 0,-0.0106"
       class="cls-5" />
    <path
       inkscape:connector-curvature="0"
       style="fill:#4d4d4d;stroke-width:0.01852198"
       id="path224"
       d="m 45.451417,193.00596 c 0,0 0.38365,0.46037 0.38365,0.46037 0.14022,0.16669 0.26458,-0.0423 0.29897,-0.17727 0.06879,-0.22788 0.04004,-0.47408 -0.0794,-0.67998 0,0 -2.45269,-2.94217 -2.45269,-2.94217 0,0 -0.91016,0 -0.91016,0 0.01074,0.0255 0.02309,0.0502 0.037,0.0741 0,0 2.72263,3.26495 2.72263,3.26495"
       class="cls-5" />
    <path
       inkscape:connector-curvature="0"
       style="fill:#4d4d4d;stroke-width:0.01852198"
       id="path226"
       d="m 48.322147,191.37348 c 0,0 0.20373,0.23018 0.20373,0.23018 0.14023,0.15875 0.26458,-0.0344 0.29633,-0.17727 0.033,-0.12508 0.04109,-0.25544 0.0238,-0.38364 -0.0072,-0.10583 -0.04188,-0.20796 -0.10054,-0.29634 0,0 -0.96044,-1.0795 -0.96044,-1.0795 0,0 -0.96043,0 -0.96043,0 0.01082,0.027 0.02603,0.052 0.045,0.0741 0,0 1.45255,1.63247 1.45255,1.63247"
       class="cls-5" />
    <path
       inkscape:connector-curvature="0"
       style="fill:#4d4d4d;stroke-width:0.01852198"
       id="path228"
       d="m 56.402517,191.37348 c 0,0 0.20373,0.23018 0.20373,0.23018 0.14288,0.15875 0.26459,-0.0344 0.29898,-0.17727 0.03084,-0.12545 0.03803,-0.25555 0.0212,-0.38364 -0.005,-0.10585 -0.0389,-0.20831 -0.0979,-0.29634 0,0 -0.96043,-1.0795 -0.96043,-1.0795 0,0 -0.97367,0 -0.97367,0 0.01161,0.0272 0.0277,0.0522 0.0476,0.0741 0.481547,0.54504 0.96838,1.0892 1.4605,1.63248 0,0 -10e-6,-1e-5 -10e-6,-1e-5"
       class="cls-5" />
    <path
       inkscape:connector-curvature="0"
       style="fill:#4d4d4d;stroke-width:0.01852198"
       id="path230"
       d="m 64.464377,191.37348 c 0,0 0.20373,0.23018 0.20373,0.23018 0.14287,0.15875 0.26458,-0.0344 0.29898,-0.17727 0.03084,-0.12545 0.03803,-0.25555 0.0212,-0.38364 -0.0047,-0.10632 -0.03959,-0.2091 -0.10054,-0.29634 0,0 -0.95779,-1.0795 -0.95779,-1.0795 0,0 -0.96308,0 -0.96308,0 0.01184,0.0265 0.02696,0.0514 0.045,0.0741 0,0 1.4525,1.63247 1.4525,1.63247"
       class="cls-5" />
    <path
       inkscape:connector-curvature="0"
       style="fill:#4d4d4d;stroke-width:0.01852198"
       id="path232"
       d="m 72.542107,191.37348 c 0,0 0.20373,0.23018 0.20373,0.23018 0.14023,0.15875 0.26458,-0.0344 0.29898,-0.17727 0.03084,-0.12545 0.03803,-0.25555 0.0212,-0.38364 -0.0047,-0.10632 -0.03959,-0.2091 -0.10054,-0.29634 0,0 -0.9525,-1.0795 -0.9525,-1.0795 0,0 -0.96044,0 -0.96044,0 0.01082,0.027 0.02603,0.052 0.045,0.0741 0,0 1.44457,1.63247 1.44457,1.63247"
       class="cls-5" />
    <path
       inkscape:connector-curvature="0"
       style="fill:#4d4d4d;stroke-width:0.01852198"
       id="path234"
       d="m 80.609247,191.37348 c 0,0 0.20109,0.23018 0.20109,0.23018 0.14287,0.15875 0.26458,-0.0344 0.29898,-0.17727 0.033,-0.12508 0.04109,-0.25544 0.0238,-0.38364 -0.0072,-0.10583 -0.04188,-0.20796 -0.10054,-0.29634 0,0 -0.96044,-1.0795 -0.96044,-1.0795 0,0 -0.96308,0 -0.96308,0 0.01272,0.0266 0.02871,0.0515 0.0476,0.0741 0,0 1.45259,1.63247 1.45259,1.63247"
       class="cls-5" />
    <path
       inkscape:connector-curvature="0"
       style="fill:#4d4d4d;stroke-width:0.01852198"
       id="path236"
       d="m 88.681687,191.37348 c 0,0 0.20373,0.23018 0.20373,0.23018 0.14287,0.15875 0.26458,-0.0344 0.29898,-0.17727 0.03084,-0.12545 0.03803,-0.25555 0.0212,-0.38364 -0.0047,-0.10632 -0.0396,-0.2091 -0.10055,-0.29634 0,0 -0.9525,-1.0795 -0.9525,-1.0795 0,0 -0.96308,0 -0.96308,0 0.01184,0.0265 0.02696,0.0514 0.045,0.0741 0,0 1.44722,1.63247 1.44722,1.63247"
       class="cls-5" />
    <path
       inkscape:connector-curvature="0"
       style="fill:#4d4d4d;stroke-width:0.01852198"
       id="path238"
       d="m 96.751477,191.37348 c 0,0 0.20373,0.23018 0.20373,0.23018 0.14288,0.15875 0.26458,-0.0344 0.29898,-0.17727 0.03084,-0.12545 0.03803,-0.25555 0.0212,-0.38364 -0.0047,-0.10632 -0.03959,-0.2091 -0.10054,-0.29634 0,0 -0.9578,-1.0795 -0.9578,-1.0795 0,0 -0.96308,0 -0.96308,0 0.01184,0.0265 0.02696,0.0514 0.045,0.0741 0,0 1.45251,1.63247 1.45251,1.63247"
       class="cls-5" />
    <path
       inkscape:connector-curvature="0"
       style="fill:#4d4d4d;stroke-width:0.01852198"
       id="path240"
       d="m 104.82127,191.37348 c 0,0 0.20373,0.23018 0.20373,0.23018 0.14023,0.15875 0.26459,-0.0344 0.29634,-0.17727 0.033,-0.12508 0.0411,-0.25544 0.0238,-0.38364 -0.007,-0.10583 -0.0419,-0.20796 -0.10054,-0.29634 0,0 -0.9525,-1.0795 -0.9525,-1.0795 0,0 -0.96044,0 -0.96044,0 0.0108,0.027 0.026,0.052 0.045,0.0741 0,0 1.44461,1.63247 1.44461,1.63247"
       class="cls-5" />
    <path
       inkscape:connector-curvature="0"
       style="fill:#4d4d4d;stroke-width:0.01852198"
       id="path242"
       d="m 53.523857,193.00596 c 0,0 0.381,0.46037 0.381,0.46037 0.14023,0.16669 0.26458,-0.0423 0.29898,-0.17727 0.07125,-0.22736 0.0434,-0.47421 -0.0767,-0.67998 0,0 -2.45269,-2.94217 -2.45269,-2.94217 0,0 -0.91017,0 -0.91017,0 0.0097,0.0259 0.02206,0.0508 0.037,0.0741 0,0 2.72258,3.26495 2.72258,3.26495"
       class="cls-5" />
    <path
       inkscape:connector-curvature="0"
       style="fill:#4d4d4d;stroke-width:0.01852198"
       id="path244"
       d="m 61.593647,193.00596 c 0,0 0.38364,0.46037 0.38364,0.46037 0.14023,0.16669 0.26459,-0.0423 0.29898,-0.17727 0.0701,-0.22776 0.04129,-0.4745 -0.0794,-0.67998 -0.81492,-0.98249 -1.6316,-1.96321 -2.45004,-2.94217 0,0 -0.91282,0 -0.91282,0 0.01059,0.026 0.0239,0.0509 0.0397,0.0741 0,0 2.71994,3.26495 2.71994,3.26495"
       class="cls-5" />
    <path
       inkscape:connector-curvature="0"
       style="fill:#4d4d4d;stroke-width:0.01852198"
       id="path246"
       d="m 69.666087,193.00596 c 0,0 0.38364,0.46037 0.38364,0.46037 0.14023,0.16669 0.26459,-0.0423 0.29898,-0.17727 0.0701,-0.22776 0.04129,-0.4745 -0.0794,-0.67998 0,0 -2.45269,-2.94217 -2.45269,-2.94217 0,0 -0.91017,0 -0.91017,0 0.01073,0.0255 0.02309,0.0502 0.037,0.0741 0,0 2.72264,3.26495 2.72264,3.26495"
       class="cls-5" />
    <path
       inkscape:connector-curvature="0"
       style="fill:#4d4d4d;stroke-width:0.01852198"
       id="path248"
       d="m 77.738517,193.00596 c 0,0 0.38365,0.46037 0.38365,0.46037 0.13758,0.16669 0.26458,-0.0423 0.29633,-0.17727 0.07125,-0.22736 0.0434,-0.47421 -0.0767,-0.67998 0,0 -2.45268,-2.94217 -2.45268,-2.94217 0,0 -0.91017,0 -0.91017,0 0.01073,0.0255 0.02309,0.0502 0.037,0.0741 0,0 2.72257,3.26495 2.72257,3.26495"
       class="cls-5" />
    <path
       inkscape:connector-curvature="0"
       style="fill:#4d4d4d;stroke-width:0.01852198"
       id="path250"
       d="m 85.810957,193.00596 c 0,0 0.381,0.46037 0.381,0.46037 0.14023,0.16669 0.26458,-0.0423 0.29898,-0.17727 0.0696,-0.22751 0.04184,-0.47369 -0.0767,-0.67998 0,0 -2.45269,-2.94217 -2.45269,-2.94217 0,0 -0.91281,0 -0.91281,0 0.01059,0.026 0.0239,0.0509 0.0397,0.0741 0,0 2.72252,3.26495 2.72252,3.26495"
       class="cls-5" />
    <path
       inkscape:connector-curvature="0"
       style="fill:#4d4d4d;stroke-width:0.01852198"
       id="path252"
       d="m 93.880747,193.00596 c 0,0 0.38365,0.46037 0.38365,0.46037 0.14023,0.16669 0.26458,-0.0423 0.29898,-0.17727 0.0701,-0.22776 0.04129,-0.4745 -0.0794,-0.67998 -0.81668,-0.98249 -1.63336,-1.96321 -2.45004,-2.94217 0,0 -0.91281,0 -0.91281,0 0.01059,0.026 0.0239,0.0509 0.0397,0.0741 0,0 2.71992,3.26495 2.71992,3.26495"
       class="cls-5" />
    <path
       inkscape:connector-curvature="0"
       style="fill:#4d4d4d;stroke-width:0.01852198"
       id="path254"
       d="m 101.95319,193.00596 c 0,0 0.38365,0.46037 0.38365,0.46037 0.14023,0.16669 0.26458,-0.0423 0.29898,-0.17727 0.0688,-0.22788 0.04,-0.47408 -0.0794,-0.67998 0,0 -2.45269,-2.94217 -2.45269,-2.94217 0,0 -0.910163,0 -0.910163,0 0.01073,0.0255 0.02309,0.0502 0.037,0.0741 0,0 2.722623,3.26495 2.722623,3.26495"
       class="cls-5" />
    <path
       inkscape:connector-curvature="0"
       style="fill:#4d4d4d;stroke-width:0.01852198"
       id="path256"
       d="m 110.02563,193.00596 c 0,0 0.381,0.46037 0.381,0.46037 0.14023,0.16669 0.26458,-0.0423 0.29898,-0.17727 0.0745,-0.22473 0.0514,-0.47036 -0.0635,-0.67733 0,0 -2.45269,-2.94217 -2.45269,-2.94217 0,0 -0.91017,0 -0.91017,0 0.01,0.026 0.0221,0.0508 0.037,0.0741 0,0 2.70938,3.2623 2.70938,3.2623"
       class="cls-5" />
    <path
       inkscape:connector-curvature="0"
       style="fill:#4d4d4d;stroke-width:0.01852198"
       id="path258"
       d="m 118.78863,194.15954 c 0,0 0.49212,0 0.49212,0 0,0 -4.23333,-4.70165 -4.23333,-4.70165 0,0 -0.26458,-0.28575 -0.26458,-0.28575 0,0.24607 -0.0794,0.49477 -0.23284,0.49477 0,0 -0.18256,0 -0.18256,0 0,0.0582 0,0.11377 0.0212,0.16934 1.29822,1.43933 2.59821,2.87955 3.89996,4.32064 0,0 0.50003,0.003 0.50003,0.003"
       class="cls-5" />
    <path
       inkscape:connector-curvature="0"
       style="fill:#4d4d4d;stroke-width:0.01852198"
       id="path260"
       d="m 119.18286,195.15173 c 0,0 1.12712,1.25148 1.12712,1.25148 0,0 0.0661,0.0714 0.0661,0.0714 0,0 0.75141,0 0.75141,0 -0.0291,-0.127 -0.0609,-0.26458 -0.0979,-0.37571 0,0 -0.86254,-0.9472 -0.86254,-0.9472 0,0 -0.98419,3e-5 -0.98419,3e-5"
       class="cls-5" />
    <path
       inkscape:connector-curvature="0"
       style="fill:#4d4d4d;stroke-width:0.01852198"
       id="path262"
       d="m 114.3304,188.67473 c 0,0 -0.18521,-0.20373 -0.18521,-0.20373 0,0 0,0 0,0 0.0159,0.0688 0.0344,0.14023 0.0503,0.20902 0,0 0.13491,-0.005 0.13491,-0.005"
       class="cls-5" />
    <path
       inkscape:connector-curvature="0"
       style="fill:#4d4d4d;stroke-width:0.01852198"
       id="path264"
       d="m 121.25984,197.43508 c 0,0 0.0238,0 0.0238,0 10e-4,-0.008 10e-4,-0.0159 0,-0.0238 0,0 -0.0238,0.0238 -0.0238,0.0238"
       class="cls-5" />
    <path
       inkscape:connector-curvature="0"
       style="fill:#4d4d4d;stroke-width:0.01852198"
       id="path266"
       d="m 121.17782,196.47464 c 0.26458,0 0.29897,0.74613 0.10318,0.94457 10e-4,0.008 10e-4,0.0159 0,0.0238 0.21432,0.0503 0.30957,-0.71967 0.13759,-0.91017 0,0 -0.39159,-0.43392 -0.39159,-0.43392 0.037,0.12436 0.0688,0.24871 0.0979,0.37571 0,0 0.0529,1e-5 0.0529,1e-5"
       class="cls-5" />
    <path
       inkscape:connector-curvature="0"
       style="fill:#4d4d4d;stroke-width:0.01852198"
       id="path268"
       d="m 114.36479,189.66691 c 0,0 -0.12964,0 -0.12964,0 0,0 0.15081,0.16669 0.15081,0.16669 -0.008,-0.0529 -0.0132,-0.10848 -0.0212,-0.16669 0,0 3e-5,0 3e-5,0"
       class="cls-5" />
    <path
       inkscape:connector-curvature="0"
       style="fill:#4d4d4d;stroke-width:0.01852198"
       id="path270"
       d="m 119.28075,194.15954 c 0,0 -0.99483,0 -0.99483,0 0,0 0.89694,0.99483 0.89694,0.99483 0,0 0.98425,0 0.98425,0 0,0 -0.88636,-0.99483 -0.88636,-0.99483"
       class="cls-5" />
    <path
       inkscape:connector-curvature="0"
       style="fill:#4d4d4d;stroke-width:0.01852198"
       id="path272"
       d="m 114.14254,188.46571 c -0.127,-0.1323 -0.22489,0 -0.26458,0.20902 0,0 0.32279,0 0.32279,0 -0.0238,-0.0688 -0.0423,-0.14023 -0.0582,-0.20902 0,0 -1e-5,0 -1e-5,0"
       class="cls-5" />
    <path
       inkscape:connector-curvature="0"
       style="fill:#4d4d4d;stroke-width:0.01852198"
       id="path274"
       d="m 121.02436,197.46683 c 0,0 0.15346,0 0.15346,0 0.0301,-10e-4 0.0589,-0.0125 0.082,-0.0318 -0.022,-0.0113 -0.0417,-0.0266 -0.0582,-0.045 0,0 -0.8255,-0.91546 -0.8255,-0.91546 0,0 -2.85486,0 -2.85486,0 0,0 0.26459,0.32015 0.26459,0.32015 0,0 0.54504,0.67733 0.54504,0.67733 0.90223,0.008 1.80181,0.0265 2.69346,-0.005 0,0 1e-5,-2.2e-4 1e-5,-2.2e-4"
       class="cls-5" />
    <path
       inkscape:connector-curvature="0"
       style="fill:#4d4d4d;stroke-width:0.01852198"
       id="path276"
       d="m 116.92332,196.47464 c 0,0 -75.935423,0 -75.935423,0 0,0 0,0 0,0 -0.52917,0.40746 -1.25677,0.50007 -1.91294,0.52917 -0.79375,0.0476 -1.60867,0.0714 -2.413,0.10848 0,0 -4.7625,0.20637 -4.7625,0.20637 0,0 0,0.0979 0,0.0979 0.02429,0.0212 0.05511,0.0333 0.0873,0.0344 0,0 85.460423,0 85.460423,0 0,0 -0.38894,-0.48155 -0.38894,-0.48155 -0.10376,-0.14298 -0.15174,-0.31892 -0.13493,-0.49477 0,0 1e-5,0 1e-5,0"
       class="cls-5" />
    <path
       inkscape:connector-curvature="0"
       style="fill:#4d4d4d;stroke-width:0.01852198"
       id="path278"
       d="m 31.814787,197.33718 c 0.01626,0.0367 0.04068,0.0693 0.0714,0.0952 0,0 0,-0.0979 0,-0.0979 0,0 -0.0714,0.003 -0.0714,0.003"
       class="cls-5" />
    <path
       inkscape:connector-curvature="0"
       style="fill:#4d4d4d;stroke-width:0.01852198"
       id="path280"
       d="m 32.126997,196.47464 c 0,0 -0.15346,0 -0.15346,0 -0.20902,0 -0.26458,0.46302 -0.19843,0.75671 0,0 0.14552,-0.26458 0.14552,-0.26458 0,0.11906 -0.0185,0.23812 -0.0265,0.35719 0,0 4.7625,-0.20638 4.7625,-0.20638 0.79375,-0.037 1.61131,-0.0609 2.413,-0.10848 0.65617,-0.0397 1.37319,-0.13229 1.91294,-0.52917 0,0 0,0 0,0 0,0 -5.38692,0 -5.38692,0 -1.15358,-0.005 -2.31775,-0.0476 -3.46869,-0.005 0,0 4e-5,-2.9e-4 4e-5,-2.9e-4"
       class="cls-5" />
    <path
       inkscape:connector-curvature="0"
       style="fill:#4d4d4d;stroke-width:0.01852198"
       id="path282"
       d="m 31.775107,197.23135 c 0.0096,0.0366 0.02287,0.072 0.0397,0.10583 0,0 0.0794,0 0.0794,0 0,-0.11906 0.0185,-0.23812 0.0265,-0.35718 0,0 -0.1456,0.25135 -0.1456,0.25135"
       class="cls-5" />
    <path
       inkscape:connector-curvature="0"
       style="fill:#4d4d4d;stroke-width:0.01852198"
       id="path284"
       d="m 118.33619,197.47212 c 0,0 -0.55033,-0.67733 -0.55033,-0.67733 0,0 -0.26459,-0.32015 -0.26459,-0.32015 0,0 -0.60854,0 -0.60854,0 -0.0285,0.17778 0.0102,0.35981 0.10848,0.51065 0,0 0.38894,0.48154 0.38894,0.48154 0,0 0.13494,0 0.13494,0 0,0 0.7911,0.005 0.7911,0.005"
       class="cls-5" />
    <path
       inkscape:connector-curvature="0"
       style="fill:#4d4d4d;stroke-width:0.01852198"
       id="path286"
       d="m 121.281,197.41921 c -0.0322,-0.31764 -0.0835,-0.63306 -0.15346,-0.94457 0,0 -0.75141,0 -0.75141,0 0,0 0.8255,0.91546 0.8255,0.91546 0.0165,0.0184 0.0362,0.0337 0.0582,0.045 0,0 0.0212,-0.0159 0.0212,-0.0159"
       class="cls-5" />
    <path
       inkscape:connector-curvature="0"
       style="fill:#4d4d4d;stroke-width:0.01852198"
       id="path288"
       d="m 121.17782,196.47464 c 0,0 -0.0503,0 -0.0503,0 0.07,0.31151 0.12124,0.62693 0.15346,0.94457 0.20902,-0.19844 0.16404,-0.94457 -0.10318,-0.94457 0,0 2e-5,0 2e-5,0"
       class="cls-5" />
    <path
       inkscape:connector-curvature="0"
       style="fill:#4d4d4d;stroke-width:0.01852198"
       id="path290"
       d="m 29.653147,188.80702 c 0.43127,0.0238 0.86519,0.0291 1.29381,0.0688 0.277422,0.007 0.538998,0.13068 0.71967,0.34131 0.105288,0.1392 0.194075,0.29013 0.26458,0.44979 0,0 10.76061,0 10.76061,0 -0.08116,-0.19171 -0.09515,-0.40523 -0.0397,-0.60589 0.0344,-0.13494 0.15875,-0.34396 0.29898,-0.17727 0,0 0.381,0.46037 0.381,0.46037 0,0 0.26458,0.32279 0.26458,0.32279 0,0 3.22792,0 3.22792,0 -0.02842,-0.0712 -0.04713,-0.14601 -0.0556,-0.22225 -0.01683,-0.12809 -0.0096,-0.25819 0.0212,-0.38364 0.0344,-0.14288 0.15611,-0.33602 0.29898,-0.17727 0,0 0.20373,0.23018 0.20373,0.23018 0,0 0.49212,0.55298 0.49212,0.55298 0,0 2.97921,0 2.97921,0 -0.08202,-0.19142 -0.09692,-0.40493 -0.0423,-0.60589 0.037,-0.13494 0.15875,-0.34396 0.29898,-0.17727 0,0 0.38365,0.46037 0.38365,0.46037 0,0 0.26458,0.32279 0.26458,0.32279 0,0 3.22527,0 3.22527,0 -0.02882,-0.071 -0.04666,-0.14591 -0.0529,-0.22225 -0.01683,-0.12809 -0.0096,-0.25819 0.0212,-0.38364 0.0344,-0.14288 0.1561,-0.33602 0.29898,-0.17727 0,0 0.20373,0.23018 0.20373,0.23018 0,0 0.49212,0.55298 0.49212,0.55298 0,0 2.97657,0 2.97657,0 -0.07995,-0.192 -0.09391,-0.4051 -0.0397,-0.60589 0.037,-0.13494 0.15875,-0.34396 0.29898,-0.17727 0,0 0.38364,0.46037 0.38364,0.46037 0,0 0.26459,0.32279 0.26459,0.32279 0,0 3.21998,0 3.21998,0 -0.02842,-0.0712 -0.04713,-0.14601 -0.0556,-0.22225 -0.01729,-0.1282 -0.0092,-0.25856 0.0238,-0.38364 0.0344,-0.14288 0.1561,-0.33602 0.29897,-0.17727 0,0 0.20109,0.23018 0.20109,0.23018 0,0 0.49477,0.55298 0.49477,0.55298 0,0 2.98185,0 2.98185,0 -0.07995,-0.192 -0.09391,-0.4051 -0.0397,-0.60589 0.0344,-0.13494 0.15875,-0.34396 0.29897,-0.17727 0,0 0.381,0.46037 0.381,0.46037 0,0 0.26459,0.32279 0.26459,0.32279 0,0 3.22262,0 3.22262,0 -0.02842,-0.0712 -0.04713,-0.14601 -0.0556,-0.22225 -0.01683,-0.12809 -0.0096,-0.25819 0.0212,-0.38364 0.0344,-0.14288 0.15875,-0.33602 0.29898,-0.17727 0,0 0.20373,0.23018 0.20373,0.23018 0,0 0.49212,0.55298 0.49212,0.55298 0,0 2.97921,0 2.97921,0 -0.08115,-0.19171 -0.09515,-0.40523 -0.0397,-0.60589 0.0344,-0.13494 0.15875,-0.34396 0.29633,-0.17727 0,0 0.38365,0.46037 0.38365,0.46037 0,0 0.26458,0.32279 0.26458,0.32279 0,0 3.21998,0 3.21998,0 -0.02634,-0.0717 -0.0441,-0.14634 -0.0529,-0.22225 -0.01683,-0.12809 -0.0096,-0.25819 0.0212,-0.38364 0.0344,-0.14288 0.15611,-0.33602 0.29898,-0.17727 0,0 0.20373,0.23018 0.20373,0.23018 0,0 0.49213,0.55298 0.49213,0.55298 0,0 2.97656,0 2.97656,0 -0.07995,-0.192 -0.09391,-0.4051 -0.0397,-0.60589 0.037,-0.13494 0.15875,-0.34396 0.29898,-0.17727 0,0 0.38365,0.46037 0.38365,0.46037 0,0 0.26458,0.32279 0.26458,0.32279 0,0 3.21998,0 3.21998,0 -0.02842,-0.0712 -0.04713,-0.14601 -0.0556,-0.22225 -0.01463,-0.12829 -0.0066,-0.25815 0.0238,-0.38364 0.0344,-0.14288 0.1561,-0.33602 0.29898,-0.17727 0,0 0.20108,0.23018 0.20108,0.23018 0.16669,0.18257 0.33073,0.36778 0.49477,0.55298 0,0 2.97656,0 2.97656,0 -0.07995,-0.192 -0.09391,-0.4051 -0.0397,-0.60589 0.037,-0.13494 0.15875,-0.34396 0.29898,-0.17727 0,0 0.38364,0.46037 0.38364,0.46037 0,0 0.26459,0.32279 0.26459,0.32279 0,0 3.21997,0 3.21997,0 -0.02842,-0.0712 -0.04713,-0.14601 -0.0556,-0.22225 -0.01683,-0.12809 -0.0096,-0.25819 0.0212,-0.38364 0.0344,-0.14288 0.15875,-0.33602 0.29898,-0.17727 0,0 0.20373,0.23018 0.20373,0.23018 0,0 0.49477,0.55298 0.49477,0.55298 0,0 2.97656,0 2.97656,0 -0.08115,-0.19171 -0.09515,-0.40523 -0.0397,-0.60589 0.0344,-0.13494 0.15875,-0.34396 0.29898,-0.17727 0,0 0.381,0.46037 0.381,0.46037 0,0 0.264593,0.32279 0.264593,0.32279 0,0 3.22262,0 3.22262,0 -0.0284,-0.0712 -0.0471,-0.14601 -0.0556,-0.22225 -0.0168,-0.12809 -0.01,-0.25819 0.0212,-0.38364 0.0344,-0.14288 0.15611,-0.33602 0.29898,-0.17727 0,0 0.20373,0.23018 0.20373,0.23018 0,0 0.49213,0.55298 0.49213,0.55298 0,0 2.97921,0 2.97921,0 -0.0806,-0.19175 -0.0955,-0.4048 -0.0423,-0.60589 0.037,-0.13494 0.15875,-0.34396 0.29898,-0.17727 0,0 0.38365,0.46037 0.38365,0.46037 0,0 0.26458,0.32279 0.26458,0.32279 0,0 2.68817,0 2.68817,0 1.00806,0 2.02141,0.0291 3.02948,0 -0.0457,-0.33881 -0.11556,-0.67392 -0.20902,-1.00277 0,0 -86.508173,0 -86.508173,0 0,0 2.50829,0.14287 2.50829,0.14287"
       class="cls-5" />
    <path
       inkscape:connector-curvature="0"
       style="fill:#4d4d4d;stroke-width:0.01852198"
       id="path292"
       d="m 24.544037,189.52404 c -0.11641,0 -0.34395,-0.0503 -0.43656,0.0476 -0.02103,0.0277 -0.03385,0.0607 -0.037,0.0953 0,0 3.19881,0 3.19881,0 0,0 -0.76729,-0.0344 -0.76729,-0.0344 0,0 -1.95796,-0.1085 -1.95796,-0.1085"
       class="cls-5" />
    <path
       inkscape:connector-curvature="0"
       style="fill:#4d4d4d;stroke-width:0.01852198"
       id="path294"
       d="m 23.797917,189.66691 c 0,0 0.26458,0 0.26458,0 0.0031,-0.0346 0.01597,-0.0676 0.037,-0.0953 0.0926,-0.0979 0.32015,-0.0529 0.43657,-0.0476 0,0 1.95791,0.10848 1.95791,0.10848 0,0 0.7673,0.0344 0.7673,0.0344 0,0 4.66195,0 4.66195,0 -0.07051,-0.15966 -0.159292,-0.31059 -0.26458,-0.44979 -0.180672,-0.21063 -0.442248,-0.33468 -0.71967,-0.34131 -0.42862,-0.0397 -0.86254,-0.045 -1.29381,-0.0688 0,0 -2.50825,-0.13229 -2.50825,-0.13229 0,0 -0.0265,0 -0.0265,0 -1.05833,0 -2.11666,-0.0344 -3.175,0 0,0 -0.0132,0 -0.0132,0 -0.05274,0.0458 -0.0959,0.10152 -0.127,0.16404 -0.101177,0.22954 -0.156023,0.47681 -0.16139,0.7276 0.02962,0.0633 0.09416,0.10289 0.16404,0.10054 0,0 5e-5,3e-5 5e-5,3e-5"
       class="cls-5" />
    <path
       inkscape:connector-curvature="0"
       style="fill:#4d4d4d;stroke-width:0.01852198"
       id="path296"
       d="m 114.23515,189.66956 c 0,0 -0.30956,-0.34396 -0.30956,-0.34396 -0.1002,-0.20211 -0.12007,-0.43469 -0.0556,-0.65087 0,0 -0.1852,0 -0.1852,0 0.0935,0.32885 0.16332,0.66396 0.20902,1.00277 0,0 0.34134,-0.008 0.34134,-0.008"
       class="cls-5" />
    <path
       inkscape:connector-curvature="0"
       style="fill:#4d4d4d;stroke-width:0.01852198"
       id="path298"
       d="m 43.332107,189.34412 c 0,0 -0.381,-0.46037 -0.381,-0.46037 -0.14023,-0.16669 -0.26459,0.0423 -0.29898,0.17727 -0.05544,0.20066 -0.04145,0.41418 0.0397,0.60589 0,0 0.91016,0 0.91016,0 0,0 -0.26988,-0.32279 -0.26988,-0.32279"
       class="cls-5" />
    <path
       inkscape:connector-curvature="0"
       style="fill:#4d4d4d;stroke-width:0.01852198"
       id="path300"
       d="m 47.292917,189.11393 c 0,0 -0.20373,-0.23018 -0.20373,-0.23018 -0.14287,-0.15875 -0.26458,0.0344 -0.29898,0.17727 -0.03084,0.12545 -0.03803,0.25555 -0.0212,0.38364 0.0085,0.0762 0.02718,0.151 0.0556,0.22225 0,0 0.96043,0 0.96043,0 0,0 -0.49212,-0.55298 -0.49212,-0.55298"
       class="cls-5" />
    <path
       inkscape:connector-curvature="0"
       style="fill:#4d4d4d;stroke-width:0.01852198"
       id="path302"
       d="m 55.365357,189.11393 c 0,0 -0.20373,-0.23018 -0.20373,-0.23018 -0.14288,-0.15875 -0.26459,0.0344 -0.29898,0.17727 -0.03084,0.12545 -0.03803,0.25555 -0.0212,0.38364 0.0062,0.0763 0.02408,0.15128 0.0529,0.22225 0,0 0.96308,0 0.96308,0 0,0 -0.49207,-0.55298 -0.49207,-0.55298"
       class="cls-5" />
    <path
       inkscape:connector-curvature="0"
       style="fill:#4d4d4d;stroke-width:0.01852198"
       id="path304"
       d="m 63.435147,189.11393 c 0,0 -0.20108,-0.23018 -0.20108,-0.23018 -0.14288,-0.15875 -0.26459,0.0344 -0.29898,0.17727 -0.033,0.12508 -0.04109,0.25544 -0.0238,0.38364 0.0085,0.0762 0.02718,0.151 0.0556,0.22225 0,0 0.96308,0 0.96308,0 0,0 -0.49482,-0.55298 -0.49482,-0.55298"
       class="cls-5" />
    <path
       inkscape:connector-curvature="0"
       style="fill:#4d4d4d;stroke-width:0.01852198"
       id="path306"
       d="m 71.507587,189.11393 c 0,0 -0.20373,-0.23018 -0.20373,-0.23018 -0.14023,-0.15875 -0.26459,0.0344 -0.29898,0.17727 -0.03084,0.12545 -0.03803,0.25555 -0.0212,0.38364 0.0085,0.0762 0.02718,0.151 0.0556,0.22225 0,0 0.97367,0 0.97367,0 0,0 -0.50536,-0.55298 -0.50536,-0.55298"
       class="cls-5" />
    <path
       inkscape:connector-curvature="0"
       style="fill:#4d4d4d;stroke-width:0.01852198"
       id="path308"
       d="m 79.580017,189.11393 c 0,0 -0.20373,-0.23018 -0.20373,-0.23018 -0.14287,-0.15875 -0.26458,0.0344 -0.29897,0.17727 -0.03084,0.12545 -0.03803,0.25555 -0.0212,0.38364 0.0088,0.0759 0.02656,0.15051 0.0529,0.22225 0,0 0.96308,0 0.96308,0 0,0 -0.49208,-0.55298 -0.49208,-0.55298"
       class="cls-5" />
    <path
       inkscape:connector-curvature="0"
       style="fill:#4d4d4d;stroke-width:0.01852198"
       id="path310"
       d="m 87.649817,189.11393 c 0,0 -0.20109,-0.23018 -0.20109,-0.23018 -0.14287,-0.15875 -0.26458,0.0344 -0.29898,0.17727 -0.03037,0.12549 -0.03843,0.25535 -0.0238,0.38364 0.0085,0.0762 0.02718,0.151 0.0556,0.22225 0,0 0.97102,0 0.97102,0 -0.17198,-0.1852 -0.33602,-0.37041 -0.5027,-0.55298 0,0 -5e-5,0 -5e-5,0"
       class="cls-5" />
    <path
       inkscape:connector-curvature="0"
       style="fill:#4d4d4d;stroke-width:0.01852198"
       id="path312"
       d="m 95.722247,189.11393 c 0,0 -0.20373,-0.23018 -0.20373,-0.23018 -0.14023,-0.15875 -0.26458,0.0344 -0.29898,0.17727 -0.03084,0.12545 -0.03803,0.25555 -0.0212,0.38364 0.0085,0.0762 0.02718,0.151 0.0556,0.22225 0,0 0.96308,0 0.96308,0 0,0 -0.49477,-0.55298 -0.49477,-0.55298"
       class="cls-5" />
    <path
       inkscape:connector-curvature="0"
       style="fill:#4d4d4d;stroke-width:0.01852198"
       id="path314"
       d="m 104.29211,189.66691 c 0,0 -0.49213,-0.55298 -0.49213,-0.55298 0,0 -0.20373,-0.23018 -0.20373,-0.23018 -0.14287,-0.15875 -0.26458,0.0344 -0.29898,0.17727 -0.0308,0.12545 -0.038,0.25555 -0.0212,0.38364 0.008,0.0762 0.0272,0.151 0.0556,0.22225 0,0 0.96044,0 0.96044,0"
       class="cls-5" />
    <path
       inkscape:connector-curvature="0"
       style="fill:#4d4d4d;stroke-width:0.01852198"
       id="path316"
       d="m 51.404537,189.34412 c 0,0 -0.38364,-0.46037 -0.38364,-0.46037 -0.14023,-0.16669 -0.26458,0.0423 -0.29898,0.17727 -0.05462,0.20096 -0.03972,0.41447 0.0423,0.60589 0,0 0.91017,0 0.91017,0 0,0 -0.26985,-0.32279 -0.26985,-0.32279"
       class="cls-5" />
    <path
       inkscape:connector-curvature="0"
       style="fill:#4d4d4d;stroke-width:0.01852198"
       id="path318"
       d="m 59.476977,189.34412 c 0,0 -0.38364,-0.46037 -0.38364,-0.46037 -0.14023,-0.16669 -0.26459,0.0423 -0.29898,0.17727 -0.05421,0.20079 -0.04025,0.41389 0.0397,0.60589 0,0 0.91282,0 0.91282,0 0,0 -0.2699,-0.32279 -0.2699,-0.32279"
       class="cls-5" />
    <path
       inkscape:connector-curvature="0"
       style="fill:#4d4d4d;stroke-width:0.01852198"
       id="path320"
       d="m 67.816647,189.66691 c 0,0 -0.26458,-0.32279 -0.26458,-0.32279 0,0 -0.381,-0.46037 -0.381,-0.46037 -0.14023,-0.16669 -0.26459,0.0423 -0.29898,0.17727 -0.05421,0.20079 -0.04025,0.41389 0.0397,0.60589 0,0 0.91017,0 0.91017,0 0,0 -0.0053,0 -0.0053,0"
       class="cls-5" />
    <path
       inkscape:connector-curvature="0"
       style="fill:#4d4d4d;stroke-width:0.01852198"
       id="path322"
       d="m 75.619207,189.34412 c 0,0 -0.38364,-0.46037 -0.38364,-0.46037 -0.13759,-0.16669 -0.26459,0.0423 -0.29634,0.17727 -0.05545,0.20066 -0.04145,0.41418 0.0397,0.60589 0,0 0.91017,0 0.91017,0 0,0 -0.26989,-0.32279 -0.26989,-0.32279"
       class="cls-5" />
    <path
       inkscape:connector-curvature="0"
       style="fill:#4d4d4d;stroke-width:0.01852198"
       id="path324"
       d="m 83.691647,189.34412 c 0,0 -0.38365,-0.46037 -0.38365,-0.46037 -0.14023,-0.16669 -0.26458,0.0423 -0.29898,0.17727 -0.05421,0.20079 -0.04025,0.41389 0.0397,0.60589 0,0 0.91281,0 0.91281,0 0,0 -0.26988,-0.32279 -0.26988,-0.32279"
       class="cls-5" />
    <path
       inkscape:connector-curvature="0"
       style="fill:#4d4d4d;stroke-width:0.01852198"
       id="path326"
       d="m 91.764087,189.34412 c 0,0 -0.38365,-0.46037 -0.38365,-0.46037 -0.14023,-0.16669 -0.26458,0.0423 -0.29898,0.17727 -0.05421,0.20079 -0.04025,0.41389 0.0397,0.60589 0,0 0.91281,0 0.91281,0 0,0 -0.26988,-0.32279 -0.26988,-0.32279"
       class="cls-5" />
    <path
       inkscape:connector-curvature="0"
       style="fill:#4d4d4d;stroke-width:0.01852198"
       id="path328"
       d="m 99.833877,189.34412 c 0,0 -0.381,-0.46037 -0.381,-0.46037 -0.14023,-0.16669 -0.26459,0.0423 -0.29898,0.17727 -0.05545,0.20066 -0.04145,0.41418 0.0397,0.60589 0,0 0.910163,0 0.910163,0 0,0 -0.269883,-0.32279 -0.269883,-0.32279"
       class="cls-5" />
    <path
       inkscape:connector-curvature="0"
       style="fill:#4d4d4d;stroke-width:0.01852198"
       id="path330"
       d="m 107.90632,189.34412 c 0,0 -0.38365,-0.46037 -0.38365,-0.46037 -0.14023,-0.16669 -0.26458,0.0423 -0.29898,0.17727 -0.0532,0.20109 -0.0383,0.41414 0.0423,0.60589 0,0 0.91017,0 0.91017,0 0,0 -0.26984,-0.32279 -0.26984,-0.32279"
       class="cls-5" />
    <path
       inkscape:connector-curvature="0"
       style="fill:#4d4d4d;stroke-width:0.01852198"
       id="path332"
       d="m 114.54736,189.66691 c 0.15346,0 0.23018,-0.2487 0.23283,-0.49477 0,0 -0.44979,-0.49741 -0.44979,-0.49741 0,0 -0.13758,0 -0.13758,0 0.0741,0.32808 0.12964,0.65881 0.17197,0.99218 0,0 0.18257,0 0.18257,0"
       class="cls-5" />
    <path
       inkscape:connector-curvature="0"
       style="fill:#4d4d4d;stroke-width:0.01852198"
       id="path334"
       d="m 114.19282,188.67473 c 0,0 -0.3228,0 -0.3228,0 -0.0645,0.21618 -0.0446,0.44876 0.0556,0.65087 0,0 0.30956,0.34396 0.30956,0.34396 0,0 0.12964,0 0.12964,0 -0.0423,-0.33602 -0.0979,-0.66675 -0.17197,-0.99483 0,0 -3e-5,0 -3e-5,0"
       class="cls-5" />
    <path
       inkscape:connector-curvature="0"
       style="fill:#4d4d4d;stroke-width:0.01852198"
       id="path336"
       d="m 117.45248,183.64235 c 0,-0.0318 0,-0.0661 0,-0.0979 -0.0979,-0.52917 -0.24341,-1.05834 -0.36248,-1.5875 -0.1893,-0.95735 -0.32445,-1.92462 -0.40481,-2.89719 -0.28379,-2.12121 -0.34586,-4.2662 -0.18521,-6.40027 0.16478,-1.87106 0.7519,-3.68036 1.71715,-5.29167 0.67914,-1.05852 1.47818,-2.03512 2.38125,-2.91042 0.53898,-0.55841 1.11249,-1.08244 1.71714,-1.56898 0.51594,-0.4101 1.10861,-0.86254 1.76213,-1.02393 -0.0312,4.4e-4 -0.0615,-0.0109 -0.0847,-0.0317 0,0 -0.93662,-0.43392 -0.93662,-0.43392 0,0 -0.0952,-0.045 -0.0952,-0.045 -0.76919,0.51452 -1.47907,1.11259 -2.11667,1.78329 -0.91955,0.85475 -1.75098,1.79964 -2.48179,2.82046 -1.07984,1.60567 -1.80172,3.4248 -2.11667,5.334 -0.37041,2.16429 -0.29104,4.40267 -0.10319,6.58019 0.10848,1.24089 0.24078,2.48443 0.42598,3.70417 0.10055,0.67733 0.33602,1.35731 0.47096,2.03993 0.14288,0.13759 0.28575,0.26459 0.42069,0.4154 -0.0159,-0.11377 -0.0159,-0.25136 -0.008,-0.38894 0,0 4e-5,-2e-5 4e-5,-2e-5"
       class="cls-5" />
    <path
       inkscape:connector-curvature="0"
       style="fill:#4d4d4d;stroke-width:0.01852198"
       id="path338"
       d="m 116.17984,158.21589 c 0,0 0,0 0,0 0,0 0.0185,0 0,0 0,0 0,0 0,0"
       class="cls-5" />
    <path
       inkscape:connector-curvature="0"
       style="fill:#4d4d4d;stroke-width:0.01852198"
       id="path340"
       d="m 114.06052,182.0575 c 0.99748,1.01864 2.19075,1.82827 3.175,2.86543 0.09,0.0952 0.1614,0.0741 0.21167,0 0,-0.28398 0,-0.56708 0,-0.84931 -0.10583,0.13759 -0.21167,0.26459 -0.32015,0.4154 -0.007,-0.28648 -0.0408,-0.57168 -0.10054,-0.85196 -0.69056,-0.65881 -1.44462,-1.25148 -2.15635,-1.88913 -0.71173,-0.63764 -1.37319,-1.32291 -2.0955,-1.95527 -0.72231,-0.63235 -1.47373,-1.25677 -1.87061,-2.11666 -0.20637,-0.43921 -0.16139,-0.88371 -0.17197,-1.35996 0,-0.52917 -0.0317,-1.05834 -0.0556,-1.60338 -0.15379,1.19661 -0.18747,2.4056 -0.10054,3.60892 0.2664,0.55504 0.63023,1.05778 1.07421,1.48431 0.76465,0.79904 1.63777,1.46579 2.41035,2.25161 0,0 3e-5,0 3e-5,0"
       class="cls-5" />
    <path
       inkscape:connector-curvature="0"
       style="fill:#4d4d4d;stroke-width:0.01852198"
       id="path342"
       d="m 110.97548,166.46295 c 0.28665,-1.15041 0.70759,-2.26313 1.25413,-3.31523 0.40961,-0.8503 0.90143,-1.65848 1.46843,-2.413 0.42334,-0.52916 0.87578,-1.04245 1.34409,-1.53458 0.23788,-0.26127 0.49146,-0.50779 0.75935,-0.73819 0.0921,-0.0834 0.19323,-0.15623 0.30163,-0.21695 0,0 0.0926,-0.0397 0.0635,-0.0318 0,0 0.0265,0 0.0265,0 -0.0265,-0.0182 -0.0491,-0.0416 -0.0662,-0.0688 0,0 -0.21431,0 -0.21431,0 -0.1905,0 -0.26459,-0.381 -0.21696,-0.67205 -0.22225,0.18521 -0.42598,0.41805 -0.50271,0.49213 -0.51065,0.50535 -0.9869,1.04246 -1.44727,1.5875 -0.51077,0.635 -0.9641,1.31412 -1.35467,2.02935 -0.61218,1.05738 -1.11062,2.17664 -1.48696,3.33904 -0.8546,2.6723 -0.8546,5.48746 -0.7276,8.26559 0.0212,0.48948 0.045,0.97896 0.0662,1.46844 0.0811,-0.68087 0.19667,-1.35379 0.3466,-2.01878 -0.0979,-2.06904 -0.10054,-4.15131 0.38629,-6.17272 0,0 -4e-5,5e-5 -4e-5,5e-5"
       class="cls-5" />
    <path
       inkscape:connector-curvature="0"
       style="fill:#4d4d4d;stroke-width:0.01852198"
       id="path344"
       d="m 123.98769,161.84862 c -0.19844,-0.14817 -0.19579,-0.82815 0.0238,-0.94192 -0.37341,0.10208 -0.72993,0.25806 -1.05833,0.46302 0,0 0.0952,0.045 0.0952,0.045 0,0 0.93933,0.4339 0.93933,0.4339"
       class="cls-5" />
    <path
       inkscape:connector-curvature="0"
       style="fill:#4d4d4d;stroke-width:0.01852198"
       id="path346"
       d="m 117.02121,183.64235 c 0.0597,0.28028 0.0933,0.56548 0.10054,0.85196 0.10848,-0.13758 0.21432,-0.27781 0.32015,-0.4154 0,0 0,-0.0212 0,-0.0212 -0.13494,-0.14288 -0.27781,-0.27782 -0.42069,-0.4154 0,0 0,4e-5 0,4e-5"
       class="cls-5" />
    <path
       inkscape:connector-curvature="0"
       style="fill:#4d4d4d;stroke-width:0.01852198"
       id="path348"
       d="m 116.19836,158.21589 c 0.0767,0.0661 0.13758,0 0.18521,-0.082 0,0 -0.26459,0 -0.26459,0 0.0171,0.0272 0.0396,0.0506 0.0661,0.0688 0.0132,0.0132 0.0132,0.0132 0.0132,0.0132 0,0 8e-5,0 8e-5,0"
       class="cls-5" />
    <path
       inkscape:connector-curvature="0"
       style="fill:#4d4d4d;stroke-width:0.01852198"
       id="path350"
       d="m 124.07236,160.88818 c 0,0 0.0185,0 0.0185,0 0,0 -3.89467,-1.81504 -3.89467,-1.81504 0,0 -0.61383,0.50271 -0.61383,0.50271 0,0 -0.16934,0.14287 -0.16934,0.14287 0,0 3.54278,1.651 3.54278,1.651 0.3284,-0.20496 0.68492,-0.36094 1.05833,-0.46302 0.0175,-0.0111 0.0375,-0.0175 0.0582,-0.0185 0,0 3e-5,-2e-5 3e-5,-2e-5"
       class="cls-5" />
    <path
       inkscape:connector-curvature="0"
       style="fill:#4d4d4d;stroke-width:0.01852198"
       id="path352"
       d="m 116.19836,158.21589 c 0.77258,0.42598 1.61131,0.76465 2.41829,1.13242 0,0 0.32279,-0.28311 0.32279,-0.28311 0,0 0.43392,-0.37306 0.43392,-0.37306 0,0 -1.27265,-0.59267 -1.27265,-0.59267 0,0 -1.73567,0.0344 -1.73567,0.0344 -0.0397,0.082 -0.10054,0.14817 -0.16668,0.082 0,0 0,2e-5 0,2e-5"
       class="cls-5" />
    <path
       inkscape:connector-curvature="0"
       style="fill:#4d4d4d;stroke-width:0.01852198"
       id="path354"
       d="m 117.45777,183.54446 c 0,0.0318 0,0.0661 0,0.0979 0,0.13758 0,0.26458 0,0.4154 0,0 0,0 0,0 0,0 0,0 0,0 0,0.28399 0,0.56709 0,0.84931 0.0752,-0.13233 0.11529,-0.28171 0.11642,-0.43392 -0.0147,-0.31211 -0.0536,-0.62261 -0.11642,-0.92868 0,0 0,-1e-5 0,-1e-5"
       class="cls-5" />
    <path
       inkscape:connector-curvature="0"
       style="fill:#4d4d4d;stroke-width:0.01852198"
       id="path356"
       d="m 117.4419,184.05775 c 0,0 0,0.0212 0,0.0212 0,0 0,0 0,0 0,0 0,-0.0212 0,-0.0212"
       class="cls-5" />
    <path
       inkscape:connector-curvature="0"
       style="fill:#4d4d4d;stroke-width:0.01852198"
       id="path358"
       d="m 110.31402,177.3876 c 0.0347,0.32913 0.12415,0.65016 0.26459,0.94985 -0.0869,-1.20331 -0.0532,-2.4123 0.10054,-3.60891 0,-0.12965 0,-0.26459 -0.0185,-0.38894 -0.0265,-0.56621 -0.0556,-1.13506 -0.0767,-1.70392 -0.14817,0.66675 -0.2637,1.33968 -0.34661,2.01877 0,0.21696 0.0212,0.43392 0.0291,0.64823 0.0212,0.69321 -0.0132,1.397 0.0476,2.08492 0,0 -2e-5,0 -2e-5,0"
       class="cls-5" />
    <path
       inkscape:connector-curvature="0"
       style="fill:#4d4d4d;stroke-width:0.01852198"
       id="path360"
       d="m 120.19621,159.07314 c 0,0 -0.82285,-0.381 -0.82285,-0.381 0,0 -0.45244,0.37306 -0.45244,0.37306 0,0 -0.32279,0.28311 -0.32279,0.28311 0,0 0.23019,0.10319 0.23019,0.10319 0,0 0.57679,0.26458 0.57679,0.26458 0,0 0.16933,-0.14288 0.16933,-0.14288 0,0 0.62177,-0.50006 0.62177,-0.50006"
       class="cls-5" />
    <path
       inkscape:connector-curvature="0"
       style="fill:#4d4d4d;stroke-width:0.01852198"
       id="path362"
       d="m 121.61438,158.03333 c 0,0 -0.0344,0 -0.0344,0 -0.0238,0 0.0767,0.0185 0.127,0.037 0,0 7.38981,2.64583 7.38981,2.64583 0,0 0.13494,0.0476 0.13494,0.0476 0,0 2.59821,-0.0662 2.59821,-0.0662 0,0 0,0.15875 0,0.15875 0,0 0.0873,-0.12964 0.0873,-0.12964 0,0 -0.0212,0 -0.0212,0 0,0 -6.58019,-2.3495 -6.58019,-2.3495 0,0 -3.05594,-1.09009 -3.05594,-1.09009 -0.26987,0.26106 -0.5468,0.51771 -0.83079,0.76994 0,0 0.19315,0 0.19315,0 0,0 -0.008,-0.0237 -0.008,-0.0237"
       class="cls-5" />
    <path
       inkscape:connector-curvature="0"
       style="fill:#4d4d4d;stroke-width:0.01852198"
       id="path364"
       d="m 131.822,160.86172 c 0,0 0,-0.15875 0,-0.15875 0,0 -2.59821,0.0661 -2.59821,0.0661 0,0 2.11667,0.75936 2.11667,0.75936 0,0 0.48154,-0.66671 0.48154,-0.66671"
       class="cls-5" />
    <path
       inkscape:connector-curvature="0"
       style="fill:#4d4d4d;stroke-width:0.01852198"
       id="path366"
       d="m 116.30419,157.2581 c 0.30956,0.17198 0.64823,0.30427 0.96838,0.45244 0,0 0.83608,0.38893 0.83608,0.38893 0,0 1.17475,-0.0212 1.17475,-0.0212 0,0 0.86783,-0.0159 0.86783,-0.0159 0.40481,-0.33337 0.81227,-0.66939 1.2065,-1.016 -0.48154,0 -0.96308,0.0185 -1.44198,0.0265 0,0 -4.01637,0.0767 -4.01637,0.0767 -0.11642,0 -0.18786,0.14288 -0.21696,0.32015 0.23019,-0.19315 0.47625,-0.33867 0.62177,-0.21167 0,0 0,5e-5 0,5e-5"
       class="cls-5" />
    <path
       inkscape:connector-curvature="0"
       style="fill:#4d4d4d;stroke-width:0.01852198"
       id="path368"
       d="m 124.07236,161.88037 c 0,0 6.7945,-0.17462 6.7945,-0.17462 0,0 0.36248,0 0.36248,0 0,0 0.12964,-0.18257 0.12964,-0.18257 0,0 -2.11666,-0.75935 -2.11666,-0.75935 0,0 -4.20688,0.0979 -4.20688,0.0979 0,0 -0.94456,0.0238 -0.94456,0.0238 0,0 0.0397,0.0185 0.0397,0.0185 0.26987,0.12171 0.22489,0.90752 -0.0582,0.97631 0,0 -2e-5,3e-5 -2e-5,3e-5"
       class="cls-5" />
    <path
       inkscape:connector-curvature="0"
       style="fill:#4d4d4d;stroke-width:0.01852198"
       id="path370"
       d="m 121.57998,158.03333 c 0,0 0,0 0,0"
       class="cls-5" />
    <path
       inkscape:connector-curvature="0"
       style="fill:#4d4d4d;stroke-width:0.01852198"
       id="path372"
       d="m 131.35898,161.51525 c 0,0 -0.12964,0.18256 -0.12964,0.18256 0,0 0.6006,-0.0159 0.6006,-0.0159 0.28575,0 0.29898,-0.83609 0.0794,-0.96309 0,0 -0.0873,0.12965 -0.0873,0.12965 -0.0159,0.26458 -0.0344,0.5424 -0.0503,0.81492 0,0 -0.41276,-0.14814 -0.41276,-0.14814"
       class="cls-5" />
    <path
       inkscape:connector-curvature="0"
       style="fill:#4d4d4d;stroke-width:0.01852198"
       id="path374"
       d="m 131.77173,161.65547 c 0.0159,-0.26458 0.0344,-0.54504 0.0503,-0.81491 0,0 -0.46302,0.66675 -0.46302,0.66675 0,0 0.41272,0.14816 0.41272,0.14816"
       class="cls-5" />
    <path
       inkscape:connector-curvature="0"
       style="fill:#4d4d4d;stroke-width:0.01852198"
       id="path376"
       d="m 121.25454,158.04127 c 0,0 0.16669,0 0.16669,0 0.28223,-0.25224 0.55916,-0.50889 0.83079,-0.76994 0,0 -0.28045,-0.10054 -0.28045,-0.10054 -0.14547,-0.0663 -0.30114,-0.10748 -0.46038,-0.12171 0,0 -0.15346,0 -0.15346,0 -0.39423,0.3466 -0.79375,0.68262 -1.2065,1.016 0,0 1.10331,-0.0238 1.10331,-0.0238"
       class="cls-5" />
    <path
       inkscape:connector-curvature="0"
       style="fill:#4d4d4d;stroke-width:0.01852198"
       id="path378"
       d="m 116.46294,157.86929 c 0.0467,-0.21651 -0.01,-0.44244 -0.15346,-0.61119 -0.24606,-0.13494 -0.35719,0.61119 -0.1905,0.88106 0,0 0.26459,0 0.26459,0 0.0384,-0.086 0.0651,-0.17678 0.0794,-0.26987 0,0 -3e-5,0 -3e-5,0"
       class="cls-5" />
    <path
       inkscape:connector-curvature="0"
       style="fill:#4d4d4d;stroke-width:0.01852198"
       id="path380"
       d="m 115.89938,158.14181 c 0,0 0.21431,0 0.21431,0 -0.16669,-0.26459 -0.0556,-1.016 0.1905,-0.88106 -0.14552,-0.127 -0.39158,0.0185 -0.62177,0.21166 -0.0476,0.2884 0.0265,0.67469 0.21696,0.6694 0,0 0,0 0,0"
       class="cls-5" />
    <path
       inkscape:connector-curvature="0"
       style="fill:#4d4d4d;stroke-width:0.01852198"
       id="path382"
       d="m 124.0115,160.9067 c 0,0 0.0609,-0.0185 0.0609,-0.0185 -0.0216,5.3e-4 -0.0426,0.007 -0.0609,0.0185 0,0 0,0 0,0"
       class="cls-5" />
    <path
       inkscape:connector-curvature="0"
       style="fill:#4d4d4d;stroke-width:0.01852198"
       id="path384"
       d="m 116.46294,157.86929 c -0.0165,0.0915 -0.045,0.18049 -0.0847,0.26458 0,0 1.73567,-0.0344 1.73567,-0.0344 0,0 -0.83608,-0.38894 -0.83608,-0.38894 -0.32015,-0.14816 -0.65882,-0.28046 -0.96838,-0.45243 0.14347,0.16875 0.20019,0.39467 0.15346,0.61118 0,0 3e-5,1e-5 3e-5,1e-5"
       class="cls-5" />
    <path
       inkscape:connector-curvature="0"
       style="fill:#4d4d4d;stroke-width:0.01852198"
       id="path386"
       d="m 124.01415,161.86185 c 0,0 -0.0265,0 -0.0265,0 0.0233,0.0208 0.0535,0.0321 0.0847,0.0317 0.2831,-0.0688 0.31485,-0.8546 0.0582,-0.97367 0,0 -0.0397,-0.0185 -0.0397,-0.0185 0,0 -0.0185,0 -0.0185,0 -0.0185,0.31221 -0.0397,0.635 -0.0582,0.96044 0,0 0,3e-5 0,3e-5"
       class="cls-5" />
    <path
       inkscape:connector-curvature="0"
       style="fill:#4d4d4d;stroke-width:0.01852198"
       id="path388"
       d="m 124.07236,160.88818 c 0,0 -0.0609,0.0185 -0.0609,0.0185 -0.2196,0.11377 -0.22225,0.79375 -0.0238,0.94192 0,0 0.0265,0 0.0265,0 0.0185,-0.31221 0.0397,-0.635 0.0582,-0.96044 0,0 0,2e-5 0,2e-5"
       class="cls-5" />
    <path
       inkscape:connector-curvature="0"
       style="fill:#4d4d4d;stroke-width:0.01852198"
       id="path390"
       d="m -5.3054142,211.69188 c 0,0 -72.1896618,0 -72.1896618,0 -0.318478,0 -0.659251,0 -0.987284,0 -1.850364,-0.035 -3.541489,-1.42679 -3.560597,-3.34722 0,-1.0669 0,-2.13062 0,-3.18479 0,0 0,-114.706606 0,-114.706606 0,-1.060532 0,-2.117887 0,-3.184787 0.0191,-1.91088 1.713417,-3.305818 3.560597,-3.340852 0.334402,0 0.668806,0 1.003208,0 0,0 68.6513595,0 68.6513595,0 1.2038511,0 2.4108859,-0.03503 3.6115532,0 1.8344396,0.05733 3.4523131,1.490482 3.4682369,3.366322 0,0.36944 0,0.73888 0,1.108308 0,0 0,118.920095 0,118.920095 0,0.33759 0,0.67835 0,1.01594 -0.019103,1.91088 -1.7070485,3.30263 -3.5574118,3.34722 -0.37262,0 -0.369435,1.20067 0,1.1943 2.4522894,-0.0573 4.0510542,-2.12107 4.0829029,-4.45871 0,-0.31848 0,-0.60193 0,-0.90448 0,0 0,-119.276781 0,-119.276781 0,-0.334412 0,-0.668812 0,-1.003212 -0.015925,-2.012791 -1.1624498,-3.917297 -3.2102694,-4.395015 -0.5514405,-0.0992 -1.1126093,-0.133401 -1.6720159,-0.101918 0,0 -71.5017464,0 -71.5017464,0 -0.407654,0 -0.824861,-0.02229 -1.232515,0 -2.302603,0.210196 -3.700727,2.28031 -3.729389,4.458703 0,0.987288 0,1.974575 0,2.961862 0,0 0,115.235291 0,115.235291 0,1.00321 0,2.00323 0,3.00644 0.02866,2.13063 1.334427,4.14023 3.554227,4.45871 0.462494,0.0447 0.927506,0.0574 1.391753,0.0383 0,0 72.3170528,0 72.3170528,0 0.3662511,-0.0159 0.3694361,-1.20704 0,-1.20704 0,0 0,-6e-5 0,-6e-5"
       class="cls-5" />
    <text
       transform="rotate(90)"
       y="68.06971"
       x="100.73818"
       class="cls-16"
       id="text392"
       style="font-style:normal;font-variant:normal;font-weight:bold;font-stretch:normal;font-size:8.26948833px;font-family:sans-serif;-inkscape-font-specification:'sans-serif Bold';fill:#ffffff;stroke-width:0.26458329">1234 5678 9012 3456</text>
    <text
       transform="rotate(90)"
       y="20.054119"
       x="99.051079"
       class="cls-16"
       id="text394"
       style="font-weight:bold;font-size:7.42373344px;font-family:sans-serif;fill:#ffffff;stroke-width:0.26458332;-inkscape-font-specification:'sans-serif, Bold';font-style:normal;font-stretch:normal;font-variant:normal;text-anchor:start;text-align:start;writing-mode:lr;font-variant-ligatures:normal;font-variant-caps:normal;font-variant-numeric:normal;font-feature-settings:normal;">STANDARD CREDIT CARD</text>
    <text
       style="font-style:normal;font-variant:normal;font-weight:normal;font-stretch:normal;font-size:9.52499962px;font-family:sans-serif;-inkscape-font-specification:sans-serif;fill:#4d4d4d;stroke-width:0.26458332"
       id="text396"
       class="cls-17"
       x="86.972481"
       y="120.25877">A4</text>
    <text
       style="font-size:9.52493356px;font-family:sans-serif;fill:#4d4d4d;stroke-width:0.26458332;-inkscape-font-specification:'sans-serif, Normal';font-weight:normal;font-style:normal;font-stretch:normal;font-variant:normal;text-anchor:start;text-align:start;writing-mode:lr;font-variant-ligatures:normal;font-variant-caps:normal;font-variant-numeric:normal;font-feature-settings:normal;"
       id="text398"
       class="cls-17"
       x="86.972481"
       y="175.81334">or</text>
    <text
       style="font-size:9.52493356px;font-family:sans-serif;fill:#4d4d4d;stroke-width:0.26458332;-inkscape-font-specification:'sans-serif, Normal';font-weight:normal;font-style:normal;font-stretch:normal;font-variant:normal;text-anchor:start;text-align:start;writing-mode:lr;font-variant-ligatures:normal;font-variant-caps:normal;font-variant-numeric:normal;font-feature-settings:normal;"
       id="text400"
       class="cls-17"
       x="167.4402"
       y="120.25877">A4</text>
  </g>
</svg>
