<svg id="Layer_1" data-name="Layer 1" xmlns="http://www.w3.org/2000/svg" viewBox="0 0 480.39 158.67"><defs><style>.cls-1{fill:#00467f;}.cls-2{fill:#fff;}</style></defs><title>UOA HC 4C</title><polygon class="cls-1" points="0 24.29 24.29 0 480.39 0 480.39 134.39 456.1 158.67 0 158.67 0 24.29"/><polygon class="cls-2" points="173.12 104.82 174.55 104.82 174.55 95.18 178 95.18 178 93.75 169.67 93.75 169.67 95.18 173.12 95.18 173.12 104.82"/><path class="cls-2" d="M361,312.67c-1.81,0-3.07,1.5-3.07,3.71,0,2,1.14,3.87,3.18,3.87a4,4,0,0,0,2.62-.85V318a3.94,3.94,0,0,1-2.29.88c-1.26,0-2-.76-2.21-2.19h4.62C363.81,314,362.7,312.67,361,312.67Zm-1.74,3.06c.18-1.16.77-1.8,1.77-1.8s1.49.7,1.53,1.8Z" transform="translate(-180.47 -215.29)"/><polygon class="cls-2" points="195.9 93.75 194.54 93.75 191.78 101.38 189.04 93.75 187.6 93.75 191.64 104.92 191.91 104.92 195.21 95.86 198.48 104.92 198.76 104.92 202.81 93.75 201.39 93.75 198.67 101.38 195.9 93.75"/><path class="cls-2" d="M390.47,320.11v-4.46c0-2-1-3-2.23-3a2.47,2.47,0,0,0-2,1.11h0V309H385v11.07h1.3v-5.23c.61-.76,1.06-1.05,1.63-1.05.79,0,1.29.7,1.29,1.76v4.52Z" transform="translate(-180.47 -215.29)"/><path class="cls-2" d="M394.76,316.16c-1.05.43-2.23.86-2.23,2.31a1.67,1.67,0,0,0,1.6,1.78,2.67,2.67,0,0,0,1.77-.74.87.87,0,0,0,1,.74c.41,0,.66-.12,1.25-.56v-.88a1.38,1.38,0,0,1-.68.39c-.16,0-.25-.1-.25-.37v-3.75a2.2,2.2,0,0,0-2.38-2.41,2.56,2.56,0,0,0-2.17,1v1.57a2.62,2.62,0,0,1,2.07-1.2c.79,0,1.18.37,1.18,1.28v.39Zm1.15,2.47a1.58,1.58,0,0,1-1.14.6,1,1,0,0,1-.93-1c0-.86,1-1.28,2.07-1.71Z" transform="translate(-180.47 -215.29)"/><path class="cls-2" d="M400.17,312.82v7.29h1.29v-3.82c0-1.25.71-2.23,1.6-2.23a2.11,2.11,0,0,1,1.21.71l.68-1.25a2.19,2.19,0,0,0-1.56-.85c-.61,0-1.24.54-1.9,1.82h0v-1.67Z" transform="translate(-180.47 -215.29)"/><path class="cls-2" d="M409.09,312.67c-1.81,0-3.06,1.5-3.06,3.71,0,2,1.13,3.87,3.18,3.87a4,4,0,0,0,2.61-.85V318a3.92,3.92,0,0,1-2.29.88c-1.26,0-2-.76-2.21-2.19h4.62C411.94,314,410.83,312.67,409.09,312.67Zm-1.74,3.06c.18-1.16.78-1.8,1.77-1.8s1.49.7,1.53,1.8Z" transform="translate(-180.47 -215.29)"/><polygon class="cls-2" points="244.03 93.75 242.67 93.75 239.91 101.38 237.17 93.75 235.74 93.75 239.77 104.92 240.05 104.92 243.34 95.86 246.62 104.92 246.89 104.92 250.94 93.75 249.52 93.75 246.81 101.38 244.03 93.75"/><path class="cls-2" d="M433.94,316.16c-1.06.43-2.24.86-2.24,2.31a1.68,1.68,0,0,0,1.61,1.78,2.65,2.65,0,0,0,1.76-.74.88.88,0,0,0,1,.74c.4,0,.65-.12,1.25-.56v-.88a1.43,1.43,0,0,1-.68.39c-.17,0-.25-.1-.25-.37v-3.75a2.2,2.2,0,0,0-2.38-2.41,2.53,2.53,0,0,0-2.17,1v1.57a2.6,2.6,0,0,1,2.07-1.2c.78,0,1.18.37,1.18,1.28v.39Zm1.15,2.47a1.58,1.58,0,0,1-1.14.6,1,1,0,0,1-.94-1c0-.86,1-1.28,2.08-1.71Z" transform="translate(-180.47 -215.29)"/><path class="cls-2" d="M444.74,320.11v-4.5c0-2-1-2.94-2.23-2.94a2.47,2.47,0,0,0-2,1.11h0v-1h-1.3v7.29h1.3v-5.23c.62-.76,1.07-1.05,1.64-1.05.79,0,1.28.7,1.28,1.76v4.52Z" transform="translate(-180.47 -215.29)"/><path class="cls-2" d="M449,316.16c-1,.43-2.24.86-2.24,2.31a1.68,1.68,0,0,0,1.61,1.78,2.67,2.67,0,0,0,1.77-.74.87.87,0,0,0,1,.74c.41,0,.65-.12,1.26-.56v-.88a1.49,1.49,0,0,1-.69.39c-.16,0-.25-.1-.25-.37v-3.75a2.2,2.2,0,0,0-2.38-2.41,2.58,2.58,0,0,0-2.18,1v1.57A2.63,2.63,0,0,1,449,314c.79,0,1.18.37,1.18,1.28v.39Zm1.15,2.47a1.58,1.58,0,0,1-1.14.6.94.94,0,0,1-.93-1c0-.86,1-1.28,2.07-1.71Z" transform="translate(-180.47 -215.29)"/><path class="cls-2" d="M459.84,320.11v-4.5c0-2-1-2.94-2.24-2.94a2.47,2.47,0,0,0-2,1.11h0v-1h-1.3v7.29h1.3v-5.23c.62-.76,1.07-1.05,1.64-1.05.79,0,1.28.7,1.28,1.76v4.52Z" transform="translate(-180.47 -215.29)"/><path class="cls-2" d="M467.65,312.82H465c-1.78,0-2.87,1-2.87,2.52a2.34,2.34,0,0,0,1.45,2.29v0c-.63.16-1,.57-1,1s.2.62.66.93a1.91,1.91,0,0,0-1.65,2c0,1.28,1.25,2.2,3,2.2,1.94,0,3.09-.87,3.09-2.32,0-.92-.49-1.71-1.89-2s-2-.54-2-.94c0-.86,1.78-.34,2.65-1.38a2.8,2.8,0,0,0,.62-1.65,2.15,2.15,0,0,0-.69-1.59h1.34Zm-3.43,7.65c.8,0,2.15.24,2.15,1.17,0,.66-.67,1.05-1.81,1.05s-1.83-.39-1.83-1.12S463.35,320.47,464.22,320.47Zm.35-3.75a1.25,1.25,0,0,1-1.31-1.33,1.31,1.31,0,0,1,1.3-1.32,1.29,1.29,0,0,1,1.27,1.28A1.27,1.27,0,0,1,464.57,316.72Z" transform="translate(-180.47 -215.29)"/><path class="cls-2" d="M471.13,316.16c-1.05.43-2.23.86-2.23,2.31a1.68,1.68,0,0,0,1.61,1.78,2.67,2.67,0,0,0,1.76-.74.88.88,0,0,0,1,.74c.41,0,.66-.12,1.26-.56v-.88a1.44,1.44,0,0,1-.69.39c-.16,0-.24-.1-.24-.37v-3.75a2.21,2.21,0,0,0-2.39-2.41,2.55,2.55,0,0,0-2.17,1v1.57a2.63,2.63,0,0,1,2.07-1.2c.79,0,1.18.37,1.18,1.28v.39Zm1.15,2.47a1.54,1.54,0,0,1-1.13.6,1,1,0,0,1-.94-1c0-.86,1-1.28,2.07-1.71Z" transform="translate(-180.47 -215.29)"/><path class="cls-2" d="M484.35,320.25a3.81,3.81,0,1,0-3.46-3.86A3.53,3.53,0,0,0,484.35,320.25Zm0-6.28a2.26,2.26,0,0,1,2.24,2.44,2.24,2.24,0,0,1-2.24,2.55c-1.26,0-2.12-1-2.12-2.57A2.21,2.21,0,0,1,484.34,314Z" transform="translate(-180.47 -215.29)"/><polygon class="cls-2" points="316.87 104.82 316.87 95.18 320.32 95.18 320.32 93.75 312 93.75 312 95.18 315.44 95.18 315.44 104.82 316.87 104.82"/><path class="cls-2" d="M502.59,316.16c-1,.43-2.23.86-2.23,2.31a1.68,1.68,0,0,0,1.61,1.78,2.67,2.67,0,0,0,1.76-.74.88.88,0,0,0,1,.74c.4,0,.65-.12,1.25-.56v-.88a1.43,1.43,0,0,1-.68.39c-.17,0-.25-.1-.25-.37v-3.75a2.21,2.21,0,0,0-2.38-2.41,2.55,2.55,0,0,0-2.18,1v1.57a2.63,2.63,0,0,1,2.07-1.2c.79,0,1.18.37,1.18,1.28v.39Zm1.15,2.47a1.55,1.55,0,0,1-1.14.6.94.94,0,0,1-.93-1c0-.86,1-1.28,2.07-1.71Z" transform="translate(-180.47 -215.29)"/><path class="cls-2" d="M517.88,320.11v-4.58c0-1.72-.84-2.86-2.17-2.86a2.85,2.85,0,0,0-2.19,1.32,2.17,2.17,0,0,0-2-1.32,2.66,2.66,0,0,0-1.91,1.11v-1h-1.3v7.29h1.3v-5.29a1.88,1.88,0,0,1,1.63-.93c.65,0,1.19.5,1.19,1.69v4.53h1.29v-5.29a2.32,2.32,0,0,1,1.46-.93c.75,0,1.37.6,1.37,1.7v4.52Z" transform="translate(-180.47 -215.29)"/><path class="cls-2" d="M522.63,316.16c-1,.43-2.23.86-2.23,2.31a1.68,1.68,0,0,0,1.61,1.78,2.69,2.69,0,0,0,1.77-.74.87.87,0,0,0,1,.74,1.92,1.92,0,0,0,1.25-.56v-.88a1.4,1.4,0,0,1-.69.39c-.16,0-.24-.1-.24-.37v-3.75a2.21,2.21,0,0,0-2.38-2.41,2.57,2.57,0,0,0-2.18,1v1.57a2.63,2.63,0,0,1,2.08-1.2c.78,0,1.18.37,1.18,1.28v.39Zm1.16,2.47a1.58,1.58,0,0,1-1.15.6.94.94,0,0,1-.92-1c0-.86,1-1.28,2.07-1.71Z" transform="translate(-180.47 -215.29)"/><polygon class="cls-2" points="352.23 97.53 349.33 101.1 352.61 104.82 354.37 104.82 350.98 101.1 353.78 97.53 352.23 97.53"/><rect class="cls-2" x="347.97" y="93.75" width="1.3" height="11.07"/><path class="cls-2" d="M537.4,309.75a.87.87,0,1,0,.77.86A.83.83,0,0,0,537.4,309.75Z" transform="translate(-180.47 -215.29)"/><rect class="cls-2" x="356.28" y="97.53" width="1.3" height="7.29"/><polygon class="cls-2" points="375.49 104.82 375.49 93.75 374.16 93.75 370.84 98.3 367.54 93.75 366.2 93.75 366.2 104.82 367.63 104.82 367.63 96.2 367.66 96.2 370.72 100.49 370.96 100.49 374.02 96.2 374.05 96.2 374.05 104.82 375.49 104.82"/><path class="cls-2" d="M560.88,316.16c-1,.43-2.23.86-2.23,2.31a1.68,1.68,0,0,0,1.61,1.78,2.63,2.63,0,0,0,1.76-.74.88.88,0,0,0,1,.74c.41,0,.66-.12,1.25-.56v-.88a1.43,1.43,0,0,1-.68.39c-.16,0-.25-.1-.25-.37v-3.75a2.2,2.2,0,0,0-2.38-2.41,2.58,2.58,0,0,0-2.18,1v1.57a2.63,2.63,0,0,1,2.08-1.2c.79,0,1.18.37,1.18,1.28v.39Zm1.16,2.47a1.58,1.58,0,0,1-1.14.6.94.94,0,0,1-.93-1c0-.86,1-1.28,2.07-1.71Z" transform="translate(-180.47 -215.29)"/><polygon class="cls-2" points="390.49 97.53 387.58 101.1 390.87 104.82 392.62 104.82 389.23 101.1 392.03 97.53 390.49 97.53"/><rect class="cls-2" x="386.22" y="93.75" width="1.3" height="11.07"/><path class="cls-2" d="M574.56,313.67v1.57a2.62,2.62,0,0,1,2.08-1.2c.78,0,1.18.37,1.18,1.28v.39l-1.16.45c-1,.43-2.24.86-2.24,2.31a1.68,1.68,0,0,0,1.61,1.78,2.65,2.65,0,0,0,1.77-.74.87.87,0,0,0,1,.74c.41,0,.66-.12,1.26-.56v-.88a1.44,1.44,0,0,1-.69.39c-.16,0-.24-.1-.24-.37v-3.75a2.21,2.21,0,0,0-2.39-2.41A2.56,2.56,0,0,0,574.56,313.67Zm3.26,5a1.6,1.6,0,0,1-1.14.6,1,1,0,0,1-.94-1c0-.86,1-1.28,2.08-1.71Z" transform="translate(-180.47 -215.29)"/><path class="cls-2" d="M587.94,320.11v-7.29h-1.3V318a1.91,1.91,0,0,1-1.57,1c-.88,0-1.34-.59-1.34-1.61v-4.63h-1.3v4.53c0,1.85.93,2.9,2.27,2.9a2.72,2.72,0,0,0,1.94-1.07v.93Z" transform="translate(-180.47 -215.29)"/><path class="cls-2" d="M591.14,312.82v7.29h1.3v-3.82c0-1.25.7-2.23,1.6-2.23a2.11,2.11,0,0,1,1.21.71l.68-1.25a2.19,2.19,0,0,0-1.56-.85c-.61,0-1.24.54-1.9,1.82h0v-1.67Z" transform="translate(-180.47 -215.29)"/><path class="cls-2" d="M599.81,316.16c-1.06.43-2.24.86-2.24,2.31a1.68,1.68,0,0,0,1.61,1.78,2.63,2.63,0,0,0,1.76-.74.88.88,0,0,0,1,.74c.39,0,.65-.12,1.24-.56v-.88a1.43,1.43,0,0,1-.68.39c-.17,0-.25-.1-.25-.37v-3.75a2.2,2.2,0,0,0-2.38-2.41,2.56,2.56,0,0,0-2.17,1v1.57a2.6,2.6,0,0,1,2.07-1.2c.79,0,1.18.37,1.18,1.28v.39Zm1.15,2.47a1.58,1.58,0,0,1-1.13.6.94.94,0,0,1-.94-1c0-.86,1-1.28,2.07-1.71Z" transform="translate(-180.47 -215.29)"/><path class="cls-2" d="M611.08,320.11v-7.29h-1.3V318a1.91,1.91,0,0,1-1.56,1c-.89,0-1.34-.59-1.34-1.61v-4.63h-1.3v4.53c0,1.85.93,2.9,2.26,2.9a2.7,2.7,0,0,0,1.94-1.07v.93Z" transform="translate(-180.47 -215.29)"/><rect class="cls-2" x="251.48" y="95.71" width="3.75" height="0.74"/><rect class="cls-2" x="320.25" y="95.71" width="3.76" height="0.74"/><polygon class="cls-2" points="219.6 40.97 211.99 40.97 211.99 35.64 219.11 35.64 219.11 32.45 211.99 32.45 211.99 27.32 219.37 27.32 219.37 24.13 208.81 24.13 208.81 44.15 219.6 44.15 219.6 40.97"/><polygon class="cls-2" points="311.66 27.32 311.66 24.13 301.11 24.13 301.11 44.15 311.89 44.15 311.89 40.97 304.28 40.97 304.28 35.64 311.41 35.64 311.41 32.45 304.28 32.45 304.28 27.32 311.66 27.32"/><polygon class="cls-2" points="191.05 35.73 200.15 35.73 200.15 44.15 203.34 44.15 203.34 24.13 200.15 24.13 200.15 32.55 191.05 32.55 191.05 24.13 187.86 24.13 187.86 44.15 191.05 44.15 191.05 35.73"/><path class="cls-2" d="M419.36,259.7a7.92,7.92,0,0,0,6.06-2.27,8.46,8.46,0,0,0,2-5.93V239.42h-3.19V251c0,2-.29,3.2-1,4a4.94,4.94,0,0,1-3.83,1.44,4.52,4.52,0,0,1-3.5-1.52c-.72-.83-1-1.7-1-3.74V239.43h-3.18v12.36a7.84,7.84,0,0,0,2.35,6A7.7,7.7,0,0,0,419.36,259.7Z" transform="translate(-180.47 -215.29)"/><path class="cls-2" d="M448.82,259.44v-20h-3v14.32l-11.27-14.32H432v20h3V245.21c.29.36,11.12,14.23,11.12,14.23Z" transform="translate(-180.47 -215.29)"/><path class="cls-2" d="M477.59,239.42h-3.21s-4.82,12.58-5,13l-5-13h-3.23L469,259.61h1Z" transform="translate(-180.47 -215.29)"/><path class="cls-2" d="M508.69,259.44h3.82l-.52-.8c-1.06-1.62-1.49-2.28-2.19-3.54-.6-1.1-1.22-2.24-1.85-3.17a9.84,9.84,0,0,0-1.69-2,5.22,5.22,0,0,0,2.62-4.8,5.59,5.59,0,0,0-1.65-4.21,6.27,6.27,0,0,0-4.41-1.55h-4.73v20h3.19v-8.39h.7c1.09,0,2,.3,4.32,4.25Zm-3.08-14.3a2.67,2.67,0,0,1-.67,2,3.25,3.25,0,0,1-2.4.78h-1.26v-5.38h1.26c2.08,0,3,.82,3.07,2.58Z" transform="translate(-180.47 -215.29)"/><path class="cls-2" d="M520.45,242.6a5.33,5.33,0,0,1,3.83,1.91l.46.48.14.15V241l0,0-.1-.08a6.89,6.89,0,0,0-4.09-1.43,5.68,5.68,0,0,0-4.07,1.5,5.44,5.44,0,0,0-1.54,4c0,2.77,1.93,4.31,3.91,5.64l.48.33.89.61a9.57,9.57,0,0,1,1.16,1,3,3,0,0,1,1.08,2.21,2.26,2.26,0,0,1-2.49,2.1,5.43,5.43,0,0,1-4.31-2.66l-.48-.68-.15-.21.1,4.84,0,0a7.54,7.54,0,0,0,5.09,1.86,5,5,0,0,0,3.74-1.6,5.79,5.79,0,0,0,1.48-4c0-3.29-2-4.87-3.93-6.1l-1.38-.87a14.28,14.28,0,0,1-1.16-.85,2.53,2.53,0,0,1-1.06-2C518,243.41,519,242.6,520.45,242.6Z" transform="translate(-180.47 -215.29)"/><path class="cls-2" d="M561.5,259.45h3.18V249l6.78-9.58h-3.85l-4.54,6.41-4.49-6.4h-3.86L561.5,249Z" transform="translate(-180.47 -215.29)"/><rect class="cls-2" x="273.58" y="24.13" width="3.18" height="20.01"/><rect class="cls-2" x="350.62" y="24.13" width="3.19" height="20.01"/><polygon class="cls-2" points="176.1 44.15 179.29 44.15 179.29 27.32 185.31 27.32 185.31 24.13 170.09 24.13 170.09 27.32 176.1 27.32 176.1 44.15"/><polygon class="cls-2" points="363.87 44.15 367.05 44.15 367.05 27.32 373.07 27.32 373.07 24.13 357.85 24.13 357.85 27.32 363.87 27.32 363.87 44.15"/><polygon class="cls-2" points="423.4 35.03 430.1 35.03 430.1 31.89 423.4 31.89 423.4 27.27 430.1 27.27 430.1 24.13 420.25 24.13 420.25 43.91 423.4 43.91 423.4 35.03"/><path class="cls-2" d="M587.34,259.71a9.17,9.17,0,0,0,7.09-3.09,11.06,11.06,0,0,0,0-14.18,9.54,9.54,0,0,0-13.95,0,11,11,0,0,0-.05,14.17A9.14,9.14,0,0,0,587.34,259.71Zm-4.47-15.13a6.05,6.05,0,0,1,4.52-2c3.69,0,6.36,2.91,6.36,6.93a7.29,7.29,0,0,1-1.81,5,6.11,6.11,0,0,1-4.55,2,6,6,0,0,1-4.52-2,7.76,7.76,0,0,1,0-10Z" transform="translate(-180.47 -215.29)"/><path class="cls-2" d="M526.47,267.36h-3.79l-13.14,34.17h5.59s3.65-9.5,3.72-9.67h11.77l3.93,9.67h5.6Zm-5.54,19.1c.14-.35,3.38-9.06,3.6-9.69.25.62,3.75,9.34,3.88,9.69Z" transform="translate(-180.47 -215.29)"/><polygon class="cls-2" points="324.34 80.83 310.99 80.83 310.99 52.26 305.58 52.26 305.58 86.24 324.34 86.24 324.34 80.83"/><path class="cls-2" d="M359.75,291.86h11.76l3.95,9.67H381l-13.66-34.17h-3.8l-13.14,34.17H356S359.69,292,359.75,291.86Zm5.69-15.09c.24.62,3.73,9.34,3.87,9.69h-7.46C362,286.11,365.2,277.4,365.44,276.77Z" transform="translate(-180.47 -215.29)"/><path class="cls-2" d="M445.54,298.82V292.2l-.23.16-.71.5a17.37,17.37,0,0,1-10,3.6,11,11,0,0,1-8.22-3.29,12.08,12.08,0,0,1-3.14-8.58,12.37,12.37,0,0,1,3.19-8.58,10.82,10.82,0,0,1,8-3.39c3.28,0,6.32,1,9.86,3.31l.69.45.23.15-.27-6.62-.08,0c-4.15-1.93-7.25-2.76-10.38-2.76-9.71,0-16.77,7.53-16.77,17.91a18.4,18.4,0,0,0,3.93,11.13A15.53,15.53,0,0,0,434.25,302a20.71,20.71,0,0,0,11.22-3.1Z" transform="translate(-180.47 -215.29)"/><path class="cls-2" d="M464.14,283.65l13.32-16.1h-6.81l-11.55,14v-14h-5.41v34h5.41V286.21c.45.5,14.18,15.32,14.18,15.32h7.42Z" transform="translate(-180.47 -215.29)"/><path class="cls-2" d="M608.38,273.06A15.41,15.41,0,0,0,596,267.55H583.93v34H596A15.51,15.51,0,0,0,608,296.29a18,18,0,0,0,4.32-11.75A18.36,18.36,0,0,0,608.38,273.06Zm-12.87,23.06h-6.17V273h6c3.67,0,6.67,1.19,8.67,3.42a12,12,0,0,1,2.78,8.17C606.75,288.84,604.37,296.12,595.51,296.12Z" transform="translate(-180.47 -215.29)"/><path class="cls-2" d="M397.74,302c4.45,0,7.9-1.29,10.29-3.83,2.23-2.39,3.41-5.87,3.41-10.08V267.56H406v19.68c0,3.46-.49,5.42-1.71,6.78-.82.9-2.76,2.44-6.49,2.44a7.56,7.56,0,0,1-5.93-2.59c-1.24-1.39-1.63-2.87-1.63-6.35v-20h-5.4v21c0,4.29,1.38,7.82,4,10.2A13.06,13.06,0,0,0,397.74,302Z" transform="translate(-180.47 -215.29)"/><path class="cls-2" d="M569.92,291.86c-.49-.61-19.13-24.3-19.13-24.3h-4.25v34h5.15V277.39l18.89,24.14h4.5v-34h-5.16Z" transform="translate(-180.47 -215.29)"/><polygon class="cls-2" points="180.9 130.2 172.66 120.53 170.31 120.53 170.31 134.39 172.93 134.39 172.93 124.56 181.21 134.39 183.51 134.39 183.51 120.53 180.9 120.53 180.9 130.2"/><polygon class="cls-2" points="200.21 128.35 206.22 128.35 206.22 126.26 200.21 126.26 200.21 122.62 206.49 122.62 206.49 120.53 197.53 120.53 197.53 134.39 206.63 134.39 206.63 132.29 200.21 132.29 200.21 128.35"/><polygon class="cls-2" points="234.41 129.11 230.76 120.53 228.5 120.53 224.87 129.08 221.42 120.53 218.65 120.53 224.36 134.56 225.24 134.56 229.62 124.29 233.99 134.56 234.89 134.56 240.59 120.53 237.86 120.53 234.41 129.11"/><polygon class="cls-2" points="281.19 120.53 268.99 120.53 268.99 122.62 276.57 122.62 268.51 134.39 281.23 134.39 281.23 132.29 273.11 132.29 281.19 120.53"/><polygon class="cls-2" points="296.91 128.35 302.92 128.35 302.92 126.26 296.91 126.26 296.91 122.62 303.19 122.62 303.19 120.53 294.23 120.53 294.23 134.39 303.33 134.39 303.33 132.29 296.91 132.29 296.91 128.35"/><path class="cls-2" d="M501.55,335.82l-5.72,13.86h2.81L500,346.3h6.16l1.44,3.38h2.83l-6.12-13.86Zm-.76,8.45,2.14-5.49,2.34,5.49Z" transform="translate(-180.47 -215.29)"/><polygon class="cls-2" points="345.22 120.53 342.54 120.53 342.54 134.39 351.94 134.39 351.94 132.29 345.22 132.29 345.22 120.53"/><path class="cls-2" d="M549.5,335.82l-5.71,13.86h2.8l1.34-3.38h6.16l1.44,3.38h2.83l-6.12-13.86Zm-.75,8.45,2.13-5.49,2.34,5.49Z" transform="translate(-180.47 -215.29)"/><polygon class="cls-2" points="401.08 130.2 392.84 120.53 390.49 120.53 390.49 134.39 393.11 134.39 393.11 124.56 401.39 134.39 403.69 134.39 403.69 120.53 401.08 120.53 401.08 130.2"/><path class="cls-2" d="M607.83,336.7a8.15,8.15,0,0,0-3.85-.88h-5.8v13.86h5.64a8.68,8.68,0,0,0,4-.87,6.21,6.21,0,0,0,2.66-2.43,6.87,6.87,0,0,0,.94-3.61,7,7,0,0,0-.93-3.59A6.46,6.46,0,0,0,607.83,336.7Zm-.56,9.55a4.85,4.85,0,0,1-3.57,1.33h-2.84v-9.67h2.75a5,5,0,0,1,3.65,1.3,5.28,5.28,0,0,1,0,7Z" transform="translate(-180.47 -215.29)"/><rect class="cls-2" x="170.17" y="113.5" width="261.36" height="1.52"/><path class="cls-2" d="M229,239.6v48.92c0,11.5,8.59,45,47.85,61.39l.64.27.64-.27C317.41,333.49,326,300,326,288.52V239.6Z" transform="translate(-180.47 -215.29)"/><path class="cls-1" d="M239.46,272h0l-.3-.15a14.5,14.5,0,0,0-7.36-2l-.48,0-.15,0v18.63c0,.4,1.27,40.37,46.37,59.35,45.08-19,46.34-58.95,46.34-59.35V269.91l-.62,0a14.55,14.55,0,0,0-7.37,2,15.79,15.79,0,0,1-15.71,0,14.78,14.78,0,0,0-14.78,0l-.13.06a15.74,15.74,0,0,1-15.59-.05l-.08-.06a14.85,14.85,0,0,0-14.7,0l-.21.13h0A15.73,15.73,0,0,1,239.46,272Z" transform="translate(-180.47 -215.29)"/><path class="cls-1" d="M244.68,248.32a6.57,6.57,0,0,1,4.94-2.26c7.19-.23,10.84,5.16,10.68,9.47-.18,4.92-3.9,6.06-4.41,6.2a5,5,0,0,0,.77,2.51c0,.1.22.23.06.5,0,.06-.17.33-.21.38a.46.46,0,0,0,0,.38,1.59,1.59,0,0,1-.27,1.14,5.45,5.45,0,0,0,.13,2.07c0,.14-.08.15-.17.05a3.3,3.3,0,0,1-.93-1.73A4.67,4.67,0,0,0,253,269.3c0,.1-.22.22-.25,0a2.9,2.9,0,0,1,1.21-2.56,2.55,2.55,0,0,0-1.94.4s-.24.12-.09-.1c0,0,.44-1,2.31-1.23a9.48,9.48,0,0,0,.57-1.16,6.52,6.52,0,0,0-.85-2.39,4.79,4.79,0,0,0-2.34.84.41.41,0,0,0-.18.34v.4c0,.06-.07.43-.55.59,0,0-1.62.54-2.37.89a3.61,3.61,0,0,0-1.21,1,2.59,2.59,0,0,1-1.08.91,1.77,1.77,0,0,0-.67.4,4.4,4.4,0,0,1-.61.57,3.34,3.34,0,0,0-.92,1.21c0,.09-.14.2-.15,0s0-.59,0-.6a3,3,0,0,1,.86-1.54.78.78,0,0,1-.24-.09,10.24,10.24,0,0,0-3.46.44c-.08,0-.16,0-.08-.09.2-.27.61-1.32,3-1.37,0-.23-1.09-.78-1.65-.78-.18,0-.08-.1,0-.13a2.59,2.59,0,0,1,2.46.31,5.85,5.85,0,0,1,1.4-.39,22.74,22.74,0,0,1,2.42-1.95,1.63,1.63,0,0,1,0-.63l-.06,0a5.44,5.44,0,0,1-.76-3.16,6.27,6.27,0,0,1-3.69-2.4,5.48,5.48,0,0,1-4.1-3.1c-3.68,2.64-6.07,7.34-6.2,7.56-.09.06-.14.06-.2,0a3.47,3.47,0,0,1-.35-2.19,30.57,30.57,0,0,1,4.25-7c-.7-4,3-5.33,4.42-5.28a3.63,3.63,0,0,1,2.71,1.3Z" transform="translate(-180.47 -215.29)"/><path class="cls-2" d="M251.87,248.9s-.08,0,0-.07a2.11,2.11,0,0,1,1.31-.56,4.34,4.34,0,0,0-3.51.07l0-.07a3.67,3.67,0,0,1,1-1,4.3,4.3,0,0,0-3,1.07v-.15a2.92,2.92,0,0,1,.78-1c-2.26.06-4,2.92-4,2.92a2.5,2.5,0,0,0-2.35-2c-1.43-.22-4.64,1.74-3.41,4.4-.57,1.06-2.45,2.71-4,6,0,.07,0,.05,0,.12,1.44-2.06,3.54-4.7,5.67-6,.21.17,1.44,3.36,4.26,3.54.32.23,1.73,2.59,4.24,2.36a10.94,10.94,0,0,0,.46,3.27l.11.14c0-.07,0,0,0,0a9.23,9.23,0,0,1,2.8-1.64,9.51,9.51,0,0,1,.84-2,4.66,4.66,0,0,0,3.77-4.35C256.8,251.37,254.47,248.56,251.87,248.9ZM239.8,252a.6.6,0,0,1,0-1.2.6.6,0,0,1,0,1.2Z" transform="translate(-180.47 -215.29)"/><path class="cls-1" d="M275.06,248.32a6.55,6.55,0,0,1,4.93-2.26c7.2-.23,10.85,5.16,10.68,9.47-.18,4.92-3.9,6.06-4.41,6.2a5,5,0,0,0,.77,2.51.39.39,0,0,1,.06.5,2.75,2.75,0,0,1-.2.38.45.45,0,0,0-.05.38,1.63,1.63,0,0,1-.26,1.14,5.23,5.23,0,0,0,.12,2.07c0,.14-.08.15-.17.05a3.28,3.28,0,0,1-.92-1.73,4.64,4.64,0,0,0-2.23,2.27c0,.1-.21.22-.25,0a2.87,2.87,0,0,1,1.21-2.56,2.55,2.55,0,0,0-1.94.4s-.24.12-.09-.1c0,0,.44-1,2.31-1.23a10.69,10.69,0,0,0,.58-1.16,6.55,6.55,0,0,0-.86-2.39,4.79,4.79,0,0,0-2.34.84.41.41,0,0,0-.18.34v.4c0,.06-.06.43-.55.59,0,0-1.62.54-2.36.89a3.5,3.5,0,0,0-1.22,1,2.55,2.55,0,0,1-1.07.91,1.79,1.79,0,0,0-.68.4,4.4,4.4,0,0,1-.61.57,3.34,3.34,0,0,0-.92,1.21c-.05.09-.14.2-.14,0a5.42,5.42,0,0,1,0-.6,3.2,3.2,0,0,1,.86-1.54.73.73,0,0,1-.23-.09,10.32,10.32,0,0,0-3.47.44c-.08,0-.16,0-.08-.09.21-.27.61-1.32,3-1.37,0-.23-1.09-.78-1.65-.78-.18,0-.08-.1,0-.13a2.59,2.59,0,0,1,2.46.31,6,6,0,0,1,1.4-.39,23.74,23.74,0,0,1,2.41-1.95,2.34,2.34,0,0,1,0-.63l-.06,0a5.52,5.52,0,0,1-.76-3.16,6.27,6.27,0,0,1-3.69-2.4,5.5,5.5,0,0,1-4.1-3.1c-3.68,2.64-6.07,7.34-6.2,7.56a.14.14,0,0,1-.2,0,3.54,3.54,0,0,1-.35-2.19,30.21,30.21,0,0,1,4.25-7c-.69-4,3-5.33,4.43-5.28a3.67,3.67,0,0,1,2.71,1.3Z" transform="translate(-180.47 -215.29)"/><path class="cls-2" d="M282.24,248.9s-.08,0,0-.07a2.14,2.14,0,0,1,1.32-.56,4.36,4.36,0,0,0-3.52.07l0-.07a3.67,3.67,0,0,1,1-1,4.23,4.23,0,0,0-3,1.07l0-.15a2.92,2.92,0,0,1,.78-1c-2.25.06-4,2.92-4,2.92a2.5,2.5,0,0,0-2.35-2c-1.43-.22-4.63,1.74-3.4,4.4-.58,1.06-2.46,2.71-4.06,6,0,.07,0,.05,0,.12,1.44-2.06,3.54-4.7,5.67-6,.21.17,1.44,3.36,4.27,3.54.31.23,1.73,2.59,4.23,2.36a10.94,10.94,0,0,0,.46,3.27l.11.14c0-.07,0,0,0,0a9.28,9.28,0,0,1,2.79-1.64,10.11,10.11,0,0,1,.84-2,4.67,4.67,0,0,0,3.78-4.35C287.17,251.37,284.84,248.56,282.24,248.9ZM270.18,252a.6.6,0,1,1,.6-.6A.6.6,0,0,1,270.18,252Z" transform="translate(-180.47 -215.29)"/><path class="cls-1" d="M305.24,248.32a6.58,6.58,0,0,1,4.93-2.26c7.21-.23,10.85,5.16,10.69,9.47-.18,4.92-3.91,6.06-4.41,6.2a5,5,0,0,0,.77,2.51c0,.1.22.23.06.5a2.82,2.82,0,0,1-.21.38.5.5,0,0,0,0,.38,1.59,1.59,0,0,1-.27,1.14,5.63,5.63,0,0,0,.12,2.07c0,.14-.07.15-.16.05a3.22,3.22,0,0,1-.92-1.73,4.64,4.64,0,0,0-2.23,2.27c0,.1-.22.22-.25,0a2.87,2.87,0,0,1,1.21-2.56,2.59,2.59,0,0,0-1.95.4s-.24.12-.08-.1c0,0,.44-1,2.31-1.23a9.48,9.48,0,0,0,.57-1.16,6.34,6.34,0,0,0-.85-2.39,4.79,4.79,0,0,0-2.34.84.41.41,0,0,0-.18.34v.4a.71.71,0,0,1-.55.59s-1.62.54-2.37.89a3.51,3.51,0,0,0-1.21,1,2.67,2.67,0,0,1-1.08.91,1.77,1.77,0,0,0-.67.4,4.4,4.4,0,0,1-.61.57,3.45,3.45,0,0,0-.93,1.21c0,.09-.13.2-.14,0s0-.59,0-.6a3,3,0,0,1,.86-1.54.78.78,0,0,1-.24-.09,10.27,10.27,0,0,0-3.46.44c-.08,0-.16,0-.08-.09.2-.27.61-1.32,3-1.37,0-.23-1.09-.78-1.66-.78-.17,0-.07-.1,0-.13a2.61,2.61,0,0,1,2.47.31,5.85,5.85,0,0,1,1.4-.39,22.69,22.69,0,0,1,2.41-1.95,2.34,2.34,0,0,1,0-.63l-.06,0a5.52,5.52,0,0,1-.76-3.16,6.27,6.27,0,0,1-3.69-2.4,5.52,5.52,0,0,1-4.11-3.1c-3.67,2.64-6.06,7.34-6.19,7.56-.09.06-.14.06-.21,0a3.53,3.53,0,0,1-.34-2.19,29.87,29.87,0,0,1,4.25-7c-.7-4,3-5.33,4.42-5.28a3.63,3.63,0,0,1,2.71,1.3Z" transform="translate(-180.47 -215.29)"/><path class="cls-2" d="M312.43,248.9s-.09,0,0-.07a2.11,2.11,0,0,1,1.31-.56,4.33,4.33,0,0,0-3.51.07l0-.07a3.67,3.67,0,0,1,1-1,4.27,4.27,0,0,0-3,1.07v-.15a2.65,2.65,0,0,1,.76-1c-2.25.06-4,2.92-4,2.92a2.5,2.5,0,0,0-2.35-2c-1.44-.22-4.64,1.74-3.41,4.4-.57,1.06-2.45,2.71-4.05,6,0,.07,0,.05,0,.12,1.45-2.06,3.54-4.7,5.66-6,.22.17,1.45,3.36,4.27,3.54.32.23,1.73,2.59,4.24,2.36a10.94,10.94,0,0,0,.46,3.27l.11.14c0-.07,0,0,0,0a9.23,9.23,0,0,1,2.8-1.64,9.51,9.51,0,0,1,.84-2,4.68,4.68,0,0,0,3.78-4.35C317.35,251.37,315,248.56,312.43,248.9ZM300.36,252a.6.6,0,0,1,0-1.2.6.6,0,0,1,0,1.2Z" transform="translate(-180.47 -215.29)"/><path class="cls-2" d="M281.32,318.36l-.69.47.74.39a1.45,1.45,0,0,1,.77,1.29,1.47,1.47,0,0,1-1.47,1.47h-6.31a1.46,1.46,0,0,1-1.46-1.47,1.45,1.45,0,0,1,.77-1.29l.73-.39-.69-.47a8.82,8.82,0,0,0-5-1.54,9.07,9.07,0,0,0-5,1.54,9.59,9.59,0,0,1-6,1.53,12.49,12.49,0,0,1-8.63-3.16l-.15-.12h-1.58l-.15.18a1.19,1.19,0,0,1-.91.42,1.08,1.08,0,1,1,0-2.15,1.19,1.19,0,0,1,.92.42l.15.18h1.89v-2.3h-1.89l-.15.18a1.2,1.2,0,0,1-.92.41,1.08,1.08,0,1,1,0-2.15,1.17,1.17,0,0,1,.92.43l.15.18h1.89v-2.3h-1.88l-.15.17a1.18,1.18,0,0,1-.92.42,1.08,1.08,0,1,1,0-2.15,1.17,1.17,0,0,1,.92.43l.15.18h1.88v-2.3h-1.87l-.15.17a1.19,1.19,0,0,1-.92.42,1.08,1.08,0,1,1,0-2.15,1.16,1.16,0,0,1,.92.43l.15.18h1.87V303.6h-1.87l-.15.18a1.16,1.16,0,0,1-.91.42,1.08,1.08,0,1,1,0-2.15,1.19,1.19,0,0,1,.92.42l.15.18h1.86v-2.3h-1.86l-.15.18a1.21,1.21,0,0,1-.92.42,1.08,1.08,0,1,1,0-2.16,1.19,1.19,0,0,1,.92.43l.15.18h1.86v-2.3h-1.86l-.15.18a1.2,1.2,0,0,1-.92.41,1.08,1.08,0,1,1,0-2.15,1.17,1.17,0,0,1,.92.43l.15.18h1.48l1.57-.79v20.86l.24.42c4.33,2.72,8.67,3,12.58.79,4.11-2.32,9.88-2.44,13.28,2.51H275a.5.5,0,0,0-.5.5.5.5,0,0,0,.5.5h5.07a.5.5,0,0,0,.5-.5.5.5,0,0,0-.5-.5h-1.62c3.45-5,9.25-4.55,13.3-2.5,3.6,1.82,7.8,1.56,12.52-.78l.28-.44V295.37l1.58.79h1.47l.15-.18a1.21,1.21,0,0,1,.93-.43,1.08,1.08,0,1,1,0,2.15,1.24,1.24,0,0,1-.93-.41l-.15-.18h-1.85v2.3h1.85l.15-.18a1.22,1.22,0,0,1,.93-.43,1.08,1.08,0,1,1,0,2.16,1.25,1.25,0,0,1-.93-.42l-.15-.18h-1.85v2.3h1.86l.15-.18a1.19,1.19,0,0,1,.92-.42,1.08,1.08,0,1,1,0,2.15,1.21,1.21,0,0,1-.91-.42l-.15-.18h-1.87v2.31h1.87l.15-.18a1.19,1.19,0,0,1,.92-.43,1.08,1.08,0,1,1,0,2.15,1.18,1.18,0,0,1-.92-.42l-.15-.17h-1.87v2.3h1.87l.15-.18a1.22,1.22,0,0,1,.93-.43,1.08,1.08,0,1,1,0,2.15,1.16,1.16,0,0,1-.92-.42l-.15-.17h-1.88v2.3h1.89l.15-.18a1.17,1.17,0,0,1,2.07.65,1.12,1.12,0,0,1-1.16,1.07,1.2,1.2,0,0,1-.91-.41l-.15-.18h-1.89v2.3h1.89l.15-.18a1.18,1.18,0,0,1,.92-.42,1.08,1.08,0,1,1,0,2.15,1.2,1.2,0,0,1-.92-.43l-.15-.17H306l-.14.12a12.51,12.51,0,0,1-8.63,3.16,9.62,9.62,0,0,1-6-1.53A8.88,8.88,0,0,0,281.32,318.36Z" transform="translate(-180.47 -215.29)"/><path class="cls-2" d="M252.83,315.51c3.21,1.7,5.84,2.16,10.58-.3A11.72,11.72,0,0,1,277,317.26v1.57c-3.78-4.91-9.84-4.72-14.2-2.26-3.49,2-7.4,1.76-11.32-.62V294.86l1.06-.53v21Z" transform="translate(-180.47 -215.29)"/><path class="cls-2" d="M253.56,314.76V293.83l.13-.07a14.65,14.65,0,0,0,10-1c4.41-1.87,8.9-1.27,13.34,1.77v21.37a13.07,13.07,0,0,0-8.28-3,12.45,12.45,0,0,0-5.79,1.44C258.71,316.52,256.41,316.22,253.56,314.76Z" transform="translate(-180.47 -215.29)"/><path class="cls-2" d="M291.63,315.21c4.74,2.46,7.37,2,10.58.3l.27-.15v-21l1,.53v21.05c-4.3,2.06-8.12,2.28-11.34.65-4.28-2.16-10.34-2.7-14.18,2.27v-1.57A11.72,11.72,0,0,1,291.63,315.21Z" transform="translate(-180.47 -215.29)"/><path class="cls-2" d="M278,315.92V294.55c4.44-3,8.92-3.64,13.34-1.77a14.7,14.7,0,0,0,10,1l.13.07v20.93c-2.85,1.46-5.15,1.76-9.39-.44A12.67,12.67,0,0,0,278,315.92Z" transform="translate(-180.47 -215.29)"/><polygon class="cls-2" points="121.23 74.7 115.58 70.43 109.93 74.7 112.1 67.89 106.14 63.59 113.39 63.59 115.58 56.74 117.77 63.59 125.03 63.59 119.07 67.89 121.23 74.7"/><polygon class="cls-2" points="84.15 74.76 78.5 70.49 72.84 74.76 75.01 67.94 69.06 63.65 76.31 63.65 78.5 56.79 80.68 63.65 87.94 63.65 81.98 67.94 84.15 74.76"/><polygon class="cls-2" points="91.4 128.27 93.56 121.45 87.61 117.16 94.86 117.16 97.05 110.3 99.23 117.16 106.49 117.16 100.53 121.45 102.7 128.27 97.05 124 91.4 128.27"/></svg>