<?xml version="1.0" encoding="utf-8"?>
<!-- Generator: Adobe Illustrator 22.1.0, SVG Export Plug-In . SVG Version: 6.00 Build 0)  -->
<svg version="1.1" id="Layer_1" xmlns="http://www.w3.org/2000/svg" xmlns:xlink="http://www.w3.org/1999/xlink" x="0px" y="0px"
	 viewBox="0 0 70.7 70.7" style="enable-background:new 0 0 70.7 70.7;" xml:space="preserve">
<style type="text/css">
	.st0{fill:#231F20;}
	.st1{fill:none;stroke:#231F20;stroke-width:5;stroke-miterlimit:10;}
	.st2{fill:none;stroke:#000000;stroke-width:5;stroke-linejoin:round;}
</style>
<g>
	<g>
		<circle class="st0" cx="68.2" cy="55.1" r="1"/>
	</g>
	<g>
		<line class="st1" x1="68.2" y1="17.3" x2="68.2" y2="53.7"/>
		<circle class="st0" cx="68.2" cy="17.1" r="2.5"/>
		<circle class="st0" cx="68.2" cy="53.7" r="2.5"/>
	</g>
</g>
<g>
	<g>
		<circle class="st0" cx="2.5" cy="55.1" r="1"/>
	</g>
	<g>
		<line class="st1" x1="2.5" y1="17.3" x2="2.5" y2="53.7"/>
		<circle class="st0" cx="2.5" cy="17.1" r="2.5"/>
		<circle class="st0" cx="2.5" cy="53.7" r="2.5"/>
	</g>
</g>
<g>
	<g>
		<circle class="st0" cx="15.5" cy="68.2" r="1"/>
	</g>
	<g>
		<line class="st1" x1="53.3" y1="68.2" x2="17" y2="68.2"/>
		<circle class="st0" cx="53.5" cy="68.2" r="2.5"/>
		<circle class="st0" cx="17" cy="68.2" r="2.5"/>
	</g>
</g>
<g>
	<g>
		<circle class="st0" cx="15.4" cy="2.5" r="1"/>
	</g>
	<g>
		<line class="st1" x1="53.2" y1="2.5" x2="16.9" y2="2.5"/>
		<circle class="st0" cx="53.4" cy="2.5" r="2.5"/>
		<circle class="st0" cx="16.9" cy="2.5" r="2.5"/>
	</g>
</g>
<path class="st2" d="M40.6,17.3c2.7,0.1,5.4,0.9,7.8,2.3c0.6,0.4,1,1.1,1,1.9c0.2,1.9,0.5,3.9,0.8,5.8c0.3,2.1,0.7,4.2,1,6.3
	c0.5,2.7,0.9,5.4,1.4,8.2c0.3,1.5,0.3,3,0.6,4.5c0.1,0.3-0.1,0.4-0.3,0.4c-0.5,0-1,0-1.5,0s-0.5,0.2-0.5,0.5c0,1.5-0.5,3-1.4,4.2
	c-1.4,2.1-4.2,2.7-6.3,1.3c-0.5-0.3-0.9-0.8-1.3-1.3c-0.9-1.2-1.4-2.7-1.4-4.2c0-0.4-0.2-0.5-0.5-0.5c-3,0-6,0-9,0
	c-0.6,0-0.6,0.4-0.6,0.8c-0.1,1.5-0.6,2.9-1.6,4.1c-1.5,2-4.3,2.4-6.3,0.9l0,0c-1.5-1.2-2.4-3-2.5-4.9c-0.1-0.8-0.1-0.9-0.9-0.9
	c-0.5,0-1,0-1.4,0S17,46.6,17,46.2c0-0.9,0.1-1.7,0.3-2.5c0.3-2.2,0.7-4.4,1-6.6c0.2-1.3,0.4-2.6,0.6-3.9c0.2-0.9,0.7-1.2,2-1.3
	c2-0.1,4-0.2,6-0.4c0.6,0,1.1-0.1,1.7-0.1c0.4,0,0.6-0.2,0.6-0.6c0.4-2.4,0.6-4.8,0.7-7.2c-0.1-1.2,0.2-2.3,0.6-3.4
	c0.5-1,1.4-1.6,2.5-1.7c1.7-0.3,3.4-0.6,5.1-0.8C39,17.3,39.8,17.3,40.6,17.3z"/>
</svg>
