<?xml version="1.0" encoding="utf-8"?>
<!-- Generator: Adobe Illustrator 22.1.0, SVG Export Plug-In . SVG Version: 6.00 Build 0)  -->
<svg version="1.1" id="Layer_1" xmlns="http://www.w3.org/2000/svg" xmlns:xlink="http://www.w3.org/1999/xlink" x="0px" y="0px"
	 viewBox="0 0 70.7 70.7" style="enable-background:new 0 0 70.7 70.7;" xml:space="preserve">
<style type="text/css">
	.st0{fill:#231F20;}
	.st1{fill:none;stroke:#231F20;stroke-width:5;stroke-miterlimit:10;}
	.st2{fill:none;stroke:#000000;stroke-width:5;stroke-linejoin:round;}
</style>
<g>
	<g>
		<circle class="st0" cx="68.2" cy="55.1" r="1"/>
	</g>
	<g>
		<line class="st1" x1="68.2" y1="17.3" x2="68.2" y2="53.7"/>
		<circle class="st0" cx="68.2" cy="17.1" r="2.5"/>
		<circle class="st0" cx="68.2" cy="53.7" r="2.5"/>
	</g>
</g>
<g>
	<g>
		<circle class="st0" cx="2.5" cy="55.1" r="1"/>
	</g>
	<g>
		<line class="st1" x1="2.5" y1="17.3" x2="2.5" y2="53.7"/>
		<circle class="st0" cx="2.5" cy="17.1" r="2.5"/>
		<circle class="st0" cx="2.5" cy="53.7" r="2.5"/>
	</g>
</g>
<g>
	<g>
		<circle class="st0" cx="15.5" cy="68.2" r="1"/>
	</g>
	<g>
		<line class="st1" x1="53.3" y1="68.2" x2="17" y2="68.2"/>
		<circle class="st0" cx="53.5" cy="68.2" r="2.5"/>
		<circle class="st0" cx="17" cy="68.2" r="2.5"/>
	</g>
</g>
<g>
	<g>
		<circle class="st0" cx="15.4" cy="2.5" r="1"/>
	</g>
	<g>
		<line class="st1" x1="53.2" y1="2.5" x2="16.9" y2="2.5"/>
		<circle class="st0" cx="53.4" cy="2.5" r="2.5"/>
		<circle class="st0" cx="16.9" cy="2.5" r="2.5"/>
	</g>
</g>
<path class="st2" d="M53.2,27.2c-0.9-11.4-12.5-13.4-18-4.1c-5.6-9.3-17.2-7.3-18,4.1c-0.7,9.4,5.6,16.8,12.2,22.3
	c1.8,1.5,3.7,2.8,5.8,3.8c2.1-1.1,4-2.4,5.8-3.8C47.6,44,53.9,36.5,53.2,27.2z"/>
</svg>
