<?xml version="1.0" encoding="utf-8"?>
<!-- Generator: Adobe Illustrator 22.1.0, SVG Export Plug-In . SVG Version: 6.00 Build 0)  -->
<svg version="1.1" id="Layer_1" xmlns="http://www.w3.org/2000/svg" xmlns:xlink="http://www.w3.org/1999/xlink" x="0px" y="0px"
	 viewBox="0 0 70.7 70.7" style="enable-background:new 0 0 70.7 70.7;" xml:space="preserve">
<style type="text/css">
	.st0{fill:#231F20;}
	.st1{fill:none;stroke:#231F20;stroke-width:5;stroke-miterlimit:10;}
	.st2{fill:none;stroke:#000000;stroke-width:5;stroke-miterlimit:10;}
</style>
<g>
	<g>
		<circle class="st0" cx="68.2" cy="55.1" r="1"/>
	</g>
	<g>
		<line class="st1" x1="68.2" y1="17.3" x2="68.2" y2="53.7"/>
		<circle class="st0" cx="68.2" cy="17.1" r="2.5"/>
		<circle class="st0" cx="68.2" cy="53.7" r="2.5"/>
	</g>
</g>
<g>
	<g>
		<circle class="st0" cx="2.5" cy="55.1" r="1"/>
	</g>
	<g>
		<line class="st1" x1="2.5" y1="17.3" x2="2.5" y2="53.7"/>
		<circle class="st0" cx="2.5" cy="17.1" r="2.5"/>
		<circle class="st0" cx="2.5" cy="53.7" r="2.5"/>
	</g>
</g>
<g>
	<g>
		<circle class="st0" cx="15.5" cy="68.2" r="1"/>
	</g>
	<g>
		<line class="st1" x1="53.3" y1="68.2" x2="17" y2="68.2"/>
		<circle class="st0" cx="53.5" cy="68.2" r="2.5"/>
		<circle class="st0" cx="17" cy="68.2" r="2.5"/>
	</g>
</g>
<g>
	<g>
		<circle class="st0" cx="15.4" cy="2.5" r="1"/>
	</g>
	<g>
		<line class="st1" x1="53.2" y1="2.5" x2="16.9" y2="2.5"/>
		<circle class="st0" cx="53.4" cy="2.5" r="2.5"/>
		<circle class="st0" cx="16.9" cy="2.5" r="2.5"/>
	</g>
</g>
<path class="st2" d="M50.6,37.6C49,36,46,35.7,47.1,33c1.2-2.9,1.9-6,2.2-9.2c0.2-2-0.4-3.9-1.8-5.4c-1.1-1-1.6-1.6-3.3-1.1
	c-3.3,1.1-4.3,3.6-4.9,6.4c-0.4,1.7-0.4,4.3-1.2,5.6c-0.7,1-1.8,1.7-3,1.8c-1.2-0.1-2.3-0.7-3-1.8c-0.8-1.3-0.9-3.9-1.2-5.6
	c-0.6-2.9-1.5-5.4-4.9-6.4c-1.7-0.5-2.2,0-3.3,1c-1.3,1.5-1.9,3.5-1.8,5.4c0.3,3.2,1,6.3,2.2,9.2c1.1,2.8-1.9,3-3.5,4.6
	C13.2,44,20,49.8,26.2,51.7c2.9,0.8,5.9,1.3,8.9,1.5c3-0.2,6-0.7,9-1.5C50.3,49.9,57.1,44,50.6,37.6z"/>
</svg>
