<?xml version="1.0" encoding="utf-8"?>
<!-- Generator: Adobe Illustrator 22.1.0, SVG Export Plug-In . SVG Version: 6.00 Build 0)  -->
<svg version="1.1" id="Layer_1" xmlns="http://www.w3.org/2000/svg" xmlns:xlink="http://www.w3.org/1999/xlink" x="0px" y="0px"
	 viewBox="0 0 26.5 22.2" style="enable-background:new 0 0 26.5 22.2;" xml:space="preserve">
<style type="text/css">
	.st0{fill:#FFFFFF;}
	.st1{fill:#228BA3;}
</style>
<g>
	<path class="st0" d="M0,10.9c0.1,0.2,0.1,0.3,0.2,0.4c3.5,3.5,7,7,10.5,10.6c0.2,0.2,0.5,0.4,0.7,0.4c2.2,0,4.4,0,7,0
		c-2.9-2.9-5.5-5.5-8.4-8.4c5.7,0,11,0,16.4,0c0-1.8,0-3.6,0-5.4c-5.5,0-10.8,0-16.6,0c2.9-2.9,5.6-5.6,8.4-8.4c-2.5,0-4.7,0-7,0
		c-0.3,0-0.6,0.3-0.9,0.6C9,2,7.6,3.5,6.1,4.9C4.1,7,2,9,0,10.9z"/>
	<path class="st1" d="M0,10.9c2-2,4.1-4,6.1-6C7.6,3.5,9,2,10.5,0.6C10.7,0.4,11,0,11.3,0c2.3,0,4.5,0,7,0c-2.8,2.8-5.5,5.5-8.4,8.4
		c5.7,0,11.1,0,16.6,0c0,1.8,0,3.6,0,5.4c-5.4,0-10.7,0-16.4,0c2.9,2.9,5.5,5.6,8.4,8.4c-2.5,0-4.7,0-7,0c-0.2,0-0.5-0.2-0.7-0.4
		c-3.5-3.5-7-7-10.5-10.6C0.1,11.3,0.1,11.2,0,10.9z"/>
</g>
</svg>
