<?xml version="1.0" encoding="utf-8"?>
<!-- Generator: Adobe Illustrator 22.1.0, SVG Export Plug-In . SVG Version: 6.00 Build 0)  -->
<svg version="1.1" id="Layer_1" xmlns="http://www.w3.org/2000/svg" xmlns:xlink="http://www.w3.org/1999/xlink" x="0px" y="0px"
	 viewBox="0 0 90.4 90.4" style="enable-background:new 0 0 90.4 90.4;" xml:space="preserve">
<style type="text/css">
	.st0{fill:#FFFFFF;}
</style>
<g>
	<path class="st0" d="M24.7,24.7c0,13.7,0,27.4,0,41.1c2.7,0,5.5,0,8.2,0c0-5.5,0-10.9,0-16.4c8.2,0,16.4,0,24.6,0
		c0,5.5,0,10.9,0,16.4c2.8,0,5.5,0,8.2,0c0-13.7,0-27.4,0-41.1c-2.7,0-5.5,0-8.2,0c0,5.5,0,10.9,0,16.4c-8.2,0-16.4,0-24.6,0
		c0-5.5,0-10.9,0-16.4C30.2,24.7,27.4,24.7,24.7,24.7z"/>
	<path d="M24.7,24.7c2.7,0,5.5,0,8.2,0c0,5.5,0,10.9,0,16.4c8.2,0,16.4,0,24.6,0c0-5.5,0-10.9,0-16.4c2.8,0,5.5,0,8.2,0
		c0,13.7,0,27.4,0,41.1c-2.7,0-5.5,0-8.2,0c0-5.5,0-10.9,0-16.4c-8.2,0-16.4,0-24.6,0c0,5.5,0,10.9,0,16.4c-2.8,0-5.5,0-8.2,0
		C24.7,52.1,24.7,38.4,24.7,24.7z"/>
</g>
<rect x="1" y="25.6" width="8.2" height="41.1"/>
<rect x="83.2" y="25.6" width="8.2" height="41.1"/>
<rect x="42.1" y="-15.5" transform="matrix(-1.836970e-16 1 -1 -1.836970e-16 51.2562 -41.2357)" width="8.2" height="41.1"/>
<rect x="42.1" y="66.8" transform="matrix(-1.836970e-16 1 -1 -1.836970e-16 133.5609 41.069)" width="8.2" height="41.1"/>
</svg>
