<?xml version="1.0" encoding="utf-8"?>
<!-- Generator: Adobe Illustrator 22.1.0, SVG Export Plug-In . SVG Version: 6.00 Build 0)  -->
<svg version="1.1" id="Layer_1" xmlns="http://www.w3.org/2000/svg" xmlns:xlink="http://www.w3.org/1999/xlink" x="0px" y="0px"
	 viewBox="0 0 90.4 90.4" style="enable-background:new 0 0 90.4 90.4;" xml:space="preserve">
<g>
	<path d="M24.7,45.1c0.1-5.8,2.3-10.9,6.6-14.9c4.1-3.8,9-5.6,14.6-5.5c5.7,0.2,10.6,2.4,14.5,6.6c3.8,4.1,5.6,9,5.4,14.6
		c-0.2,5.7-2.4,10.6-6.6,14.5c-4.1,3.8-9,5.6-14.6,5.4c-5.7-0.2-10.6-2.4-14.4-6.6C26.5,55.3,24.8,50.6,24.7,45.1z M45.1,57.6
		c3.3,0,6.1-1.1,8.5-3.3c2.4-2.2,3.8-5,3.9-8.3c0.2-3.5-0.9-6.5-3.3-9.1c-2.2-2.4-5-3.8-8.3-4c-3.5-0.2-6.6,0.9-9.1,3.3
		c-2.4,2.2-3.8,5-3.9,8.3c-0.2,3.5,0.9,6.6,3.3,9.1C38.7,56.2,41.7,57.5,45.1,57.6z"/>
</g>
<rect x="1" y="25.6" width="8.2" height="41.1"/>
<rect x="83.2" y="25.6" width="8.2" height="41.1"/>
<rect x="42.1" y="-15.5" transform="matrix(-1.836970e-16 1 -1 -1.836970e-16 51.2562 -41.2357)" width="8.2" height="41.1"/>
<rect x="42.1" y="66.8" transform="matrix(-1.836970e-16 1 -1 -1.836970e-16 133.5609 41.069)" width="8.2" height="41.1"/>
</svg>
