<?xml version="1.0" encoding="utf-8"?>
<!-- Generator: Adobe Illustrator 22.1.0, SVG Export Plug-In . SVG Version: 6.00 Build 0)  -->
<svg version="1.1" id="Layer_1" xmlns="http://www.w3.org/2000/svg" xmlns:xlink="http://www.w3.org/1999/xlink" x="0px" y="0px"
	 viewBox="0 0 90.4 90.4" style="enable-background:new 0 0 90.4 90.4;" xml:space="preserve">
<style type="text/css">
	.st0{fill:#FFFFFF;}
</style>
<g>
	<path class="st0" d="M32.9,49.4c0.1,0,0.2,0,0.3,0c5.5,0,10.9,0,16.4,0c0.2,0,0.3,0.1,0.4,0.3c0.4,1,0.8,2,1.2,2.9
		c0.6,1.5,1.3,3,1.9,4.5c0.6,1.5,1.3,3,1.9,4.5c0.6,1.4,1.2,2.8,1.8,4.2c3,0,6,0,9,0c-2.5-5.8-5-11.6-7.5-17.4
		c0.5-0.2,0.9-0.4,1.4-0.7c1.2-0.7,2.3-1.6,3.2-2.8c0.5-0.6,1-1.3,1.4-2c0.6-1.1,1-2.2,1.2-3.5c0.1-0.7,0.2-1.3,0.2-2
		c0.1-1-0.1-2-0.3-2.9c-0.2-1.5-0.7-2.8-1.5-4.1c-0.6-0.9-1.2-1.7-2-2.4c-0.5-0.4-0.9-0.8-1.4-1.1c-1.1-0.8-2.4-1.4-3.7-1.7
		c-0.9-0.3-1.9-0.5-2.9-0.5c-9.7,0-19.3,0-29,0c0,0-0.1,0-0.2,0c0,13.7,0,27.4,0,41.1c2.7,0,5.5,0,8.2,0
		C32.9,60.3,32.9,54.9,32.9,49.4z"/>
	<path d="M32.9,49.4c0,5.5,0,11,0,16.4c-2.7,0-5.5,0-8.2,0c0-13.7,0-27.4,0-41.1c0.1,0,0.2,0,0.3,0c9.7,0,19.3,0,29,0
		c1,0,1.9,0.2,2.8,0.4c1.3,0.4,2.6,0.9,3.7,1.7c0.5,0.4,0.9,0.7,1.4,1.1c0.8,0.7,1.4,1.5,2,2.4c0.8,1.4,1.3,2.7,1.6,4.2
		c0.2,1,0.3,1.9,0.3,2.9c0,0.7-0.1,1.3-0.2,2c-0.2,1.2-0.6,2.4-1.2,3.5c-0.4,0.7-0.9,1.4-1.4,2c-0.9,1.1-2,2-3.2,2.8
		c-0.4,0.3-0.9,0.5-1.4,0.7c2.5,5.8,5,11.6,7.5,17.4c-3,0-6,0-9,0c-0.6-1.4-1.2-2.8-1.8-4.2c-0.6-1.5-1.3-3-1.9-4.5
		c-0.6-1.5-1.3-3-1.9-4.5c-0.4-1-0.8-2-1.2-2.9c-0.1-0.2-0.2-0.3-0.4-0.3c-5.5,0-10.9,0-16.4,0C33.1,49.4,33,49.4,32.9,49.4z
		 M32.9,41.1c0.1,0,0.2,0,0.3,0c6.8,0,13.6,0,20.4,0c0.2,0,0.4,0,0.6-0.1c1-0.2,1.8-0.7,2.4-1.5c0.9-1.1,1-2.4,0.6-3.8
		c-0.3-1-0.9-1.7-1.8-2.2c-0.5-0.3-1.1-0.6-1.8-0.6c-6.9,0-13.7,0-20.6,0c-0.1,0-0.2,0-0.3,0"/>
</g>
<rect x="1" y="25.6" width="8.2" height="41.1"/>
<rect x="83.2" y="25.6" width="8.2" height="41.1"/>
<rect x="42.1" y="-15.5" transform="matrix(-1.836970e-16 1 -1 -1.836970e-16 51.2562 -41.2357)" width="8.2" height="41.1"/>
<rect x="42.1" y="66.8" transform="matrix(-1.836970e-16 1 -1 -1.836970e-16 133.5609 41.069)" width="8.2" height="41.1"/>
</svg>
