<?xml version="1.0" encoding="utf-8"?>
<!-- Generator: Adobe Illustrator 22.1.0, SVG Export Plug-In . SVG Version: 6.00 Build 0)  -->
<svg version="1.1" id="Layer_1" xmlns="http://www.w3.org/2000/svg" xmlns:xlink="http://www.w3.org/1999/xlink" x="0px" y="0px"
	 viewBox="0 0 90.4 90.4" style="enable-background:new 0 0 90.4 90.4;" xml:space="preserve">
<style type="text/css">
	.st0{fill:#FFFFFF;}
</style>
<g>
	<path class="st0" d="M49.4,65.8c5.5-13.7,11-27.4,16.4-41.1c-1,0-2,0-3,0c-1.9,0-3.8,0-5.6,0c-0.2,0-0.3,0.1-0.3,0.2
		c-0.5,1.3-1,2.6-1.6,3.9c-0.6,1.4-1.1,2.7-1.7,4.1c-0.9,2.2-1.7,4.3-2.6,6.5c-0.6,1.6-1.3,3.2-1.9,4.8c-0.7,1.7-1.4,3.5-2,5.2
		c-0.4,1-0.8,2.1-1.2,3.1c-0.2,0.5-0.4,0.9-0.6,1.4c-0.3-0.8-0.6-1.5-0.9-2.2c-0.6-1.6-1.3-3.2-1.9-4.9c-0.6-1.5-1.2-2.9-1.8-4.4
		c-0.6-1.6-1.3-3.3-1.9-4.9c-0.6-1.5-1.2-2.9-1.8-4.4c-0.7-1.7-1.4-3.5-2-5.2C34.5,27,34.1,26,33.7,25c-0.1-0.2-0.2-0.3-0.4-0.3
		c-2.7,0-5.5,0-8.2,0c-0.1,0-0.2,0-0.4,0c5.5,13.7,11,27.4,16.4,41.1C43.9,65.8,46.6,65.8,49.4,65.8z"/>
	<path d="M49.4,65.8c-2.8,0-5.5,0-8.2,0c-5.5-13.7-11-27.4-16.5-41.1c0.2,0,0.3,0,0.4,0c2.7,0,5.5,0,8.2,0c0.2,0,0.3,0.1,0.4,0.3
		c0.4,1,0.8,2.1,1.2,3.1c0.7,1.7,1.4,3.5,2,5.2c0.6,1.5,1.2,2.9,1.8,4.4c0.6,1.6,1.3,3.3,1.9,4.9c0.6,1.5,1.2,2.9,1.8,4.4
		c0.6,1.6,1.3,3.2,1.9,4.9c0.3,0.7,0.6,1.5,0.9,2.2c0.2-0.5,0.4-1,0.6-1.4c0.4-1,0.8-2.1,1.2-3.1c0.7-1.7,1.4-3.5,2-5.2
		c0.6-1.6,1.3-3.2,1.9-4.8c0.9-2.2,1.7-4.3,2.6-6.5c0.5-1.4,1.1-2.7,1.7-4.1c0.5-1.3,1-2.6,1.6-3.9c0.1-0.3,0.2-0.4,0.4-0.4
		c1.9,0,3.8,0,5.6,0c1,0,2,0,3,0C60.3,38.4,54.8,52.1,49.4,65.8z"/>
</g>
<rect x="1" y="25.6" width="8.2" height="41.1"/>
<rect x="83.2" y="25.6" width="8.2" height="41.1"/>
<rect x="42.1" y="-15.5" transform="matrix(-1.836970e-16 1 -1 -1.836970e-16 51.2562 -41.2357)" width="8.2" height="41.1"/>
<rect x="42.1" y="66.8" transform="matrix(-1.836970e-16 1 -1 -1.836970e-16 133.5609 41.069)" width="8.2" height="41.1"/>
</svg>
