<?xml version="1.0" encoding="utf-8"?>
<!-- Generator: Adobe Illustrator 22.1.0, SVG Export Plug-In . SVG Version: 6.00 Build 0)  -->
<svg version="1.1" id="Layer_1" xmlns="http://www.w3.org/2000/svg" xmlns:xlink="http://www.w3.org/1999/xlink" x="0px" y="0px"
	 viewBox="0 0 70.7 70.7" style="enable-background:new 0 0 70.7 70.7;" xml:space="preserve">
<style type="text/css">
	.st0{fill:none;stroke:#231F20;stroke-width:5;stroke-miterlimit:10;}
	.st1{fill:#231F20;}
</style>
<path class="st0" d="M50.5,34.5c2-3.4,3-7.3,3-11.3c-0.2-2.9-1.8-6-5.1-6c-3.7,0-7.1,3.3-8.5,6.3c-1.2,2.5-0.4,6.7-4.5,6.8
	c-4-0.1-3.3-4.3-4.5-6.8c-1.4-3-4.8-6.2-8.5-6.3c-3.3,0-4.9,3-5.1,6c0,4,1,7.8,3,11.3c2.4,4-1.9,6.8-1.1,10.8c0.6,3,3.5,7.7,6.9,8
	s4.8-6.6,6.2-8.9c1.3-1.7,3.8-2.1,5.5-0.8c0.3,0.2,0.5,0.5,0.8,0.8c1.2,2.3,2.6,9.3,6.1,8.9s6.3-5.1,6.9-8
	C52.4,41.3,48.1,38.6,50.5,34.5z"/>
<g>
	<g>
		<circle class="st1" cx="68.2" cy="55.1" r="1"/>
	</g>
	<g>
		<line class="st0" x1="68.2" y1="17.3" x2="68.2" y2="53.7"/>
		<circle class="st1" cx="68.2" cy="17.1" r="2.5"/>
		<circle class="st1" cx="68.2" cy="53.7" r="2.5"/>
	</g>
</g>
<g>
	<g>
		<circle class="st1" cx="2.5" cy="55.1" r="1"/>
	</g>
	<g>
		<line class="st0" x1="2.5" y1="17.3" x2="2.5" y2="53.7"/>
		<circle class="st1" cx="2.5" cy="17.1" r="2.5"/>
		<circle class="st1" cx="2.5" cy="53.7" r="2.5"/>
	</g>
</g>
<g>
	<g>
		<circle class="st1" cx="15.5" cy="68.2" r="1"/>
	</g>
	<g>
		<line class="st0" x1="53.3" y1="68.2" x2="17" y2="68.2"/>
		<circle class="st1" cx="53.5" cy="68.2" r="2.5"/>
		<circle class="st1" cx="17" cy="68.2" r="2.5"/>
	</g>
</g>
<g>
	<g>
		<circle class="st1" cx="15.4" cy="2.5" r="1"/>
	</g>
	<g>
		<line class="st0" x1="53.2" y1="2.5" x2="16.9" y2="2.5"/>
		<circle class="st1" cx="53.4" cy="2.5" r="2.5"/>
		<circle class="st1" cx="16.9" cy="2.5" r="2.5"/>
	</g>
</g>
</svg>
