<?xml version="1.0" encoding="utf-8"?>
<!-- Generator: Adobe Illustrator 22.1.0, SVG Export Plug-In . SVG Version: 6.00 Build 0)  -->
<svg version="1.1" id="Layer_1" xmlns="http://www.w3.org/2000/svg" xmlns:xlink="http://www.w3.org/1999/xlink" x="0px" y="0px"
	 viewBox="0 0 70.7 70.7" style="enable-background:new 0 0 70.7 70.7;" xml:space="preserve">
<style type="text/css">
	.st0{fill:#231F20;}
	.st1{fill:none;stroke:#231F20;stroke-width:5;stroke-miterlimit:10;}
	.st2{fill:none;stroke:#000000;stroke-width:5;stroke-miterlimit:10;}
</style>
<g>
	<g>
		<circle class="st0" cx="68.2" cy="55.1" r="1"/>
	</g>
	<g>
		<line class="st1" x1="68.2" y1="17.3" x2="68.2" y2="53.7"/>
		<circle class="st0" cx="68.2" cy="17.1" r="2.5"/>
		<circle class="st0" cx="68.2" cy="53.7" r="2.5"/>
	</g>
</g>
<g>
	<g>
		<circle class="st0" cx="2.5" cy="55.1" r="1"/>
	</g>
	<g>
		<line class="st1" x1="2.5" y1="17.3" x2="2.5" y2="53.7"/>
		<circle class="st0" cx="2.5" cy="17.1" r="2.5"/>
		<circle class="st0" cx="2.5" cy="53.7" r="2.5"/>
	</g>
</g>
<g>
	<g>
		<circle class="st0" cx="15.5" cy="68.2" r="1"/>
	</g>
	<g>
		<line class="st1" x1="53.3" y1="68.2" x2="17" y2="68.2"/>
		<circle class="st0" cx="53.5" cy="68.2" r="2.5"/>
		<circle class="st0" cx="17" cy="68.2" r="2.5"/>
	</g>
</g>
<g>
	<g>
		<circle class="st0" cx="15.4" cy="2.5" r="1"/>
	</g>
	<g>
		<line class="st1" x1="53.2" y1="2.5" x2="16.9" y2="2.5"/>
		<circle class="st0" cx="53.4" cy="2.5" r="2.5"/>
		<circle class="st0" cx="16.9" cy="2.5" r="2.5"/>
	</g>
</g>
<path class="st2" d="M37.3,53.4C35.3,53.4,37.7,53.4,37.3,53.4c-2,0-4-0.3-6-0.8c-0.6-0.2-0.8-0.5-0.6-1.1c0.3-1.1,0.5-2.2,0.4-3.3
	c0.1-1.5,0-2.9-0.1-4.4c-0.9-5-3.7-2.6-5.9-1.7c-4,1.7-5.8,0.2-7-2c-1.1-2-1.9-3.9-0.3-6.7c0.7-1.3,1.8-2.3,3-3.1
	c0.3-0.4-1.8-1.6-0.4-5.4c0.8-2.1,1.9-3,4.4-3.8c0.6-0.2,2.1-0.3,2.8-0.4c1.1-0.3,2.1-1.1,2.7-2.1c2.8-3.5,9.8,0.1,11.5,2.8
	c0.8,1.3,2.4,1.9,3.8,1.5c1-0.1,1.9,0.1,2.7,0.6c0.6,0.3,1.2,0.7,1.7,1.3c0.9,0.9,1.5,2,1.6,3.3c0.2,1,0.1,2-0.4,2.9
	c-0.1,0.3-0.6,0.9-0.5,1.2c0.1,0.3,0.9,0.7,1.2,0.9c2.8,2.6,0,9.1-3.5,9.1c-2.7,0-9.8-5.8-8.3,0.9c0.5,2.1,1.8,4.9,2.4,7.2
	C43.3,52.8,38.6,53.4,37.3,53.4z"/>
</svg>
