<?xml version="1.0" encoding="utf-8"?>
<!-- Generator: Adobe Illustrator 22.1.0, SVG Export Plug-In . SVG Version: 6.00 Build 0)  -->
<svg version="1.1" id="Layer_1" xmlns="http://www.w3.org/2000/svg" xmlns:xlink="http://www.w3.org/1999/xlink" x="0px" y="0px"
	 viewBox="0 0 70.7 70.7" style="enable-background:new 0 0 70.7 70.7;" xml:space="preserve">
<style type="text/css">
	.st0{fill:#231F20;}
	.st1{fill:none;stroke:#231F20;stroke-width:5;stroke-miterlimit:10;}
	.st2{fill:none;stroke:#000000;stroke-width:5;stroke-linejoin:round;}
</style>
<g>
	<g>
		<circle class="st0" cx="68.2" cy="55.1" r="1"/>
	</g>
	<g>
		<line class="st1" x1="68.2" y1="17.3" x2="68.2" y2="53.7"/>
		<circle class="st0" cx="68.2" cy="17.1" r="2.5"/>
		<circle class="st0" cx="68.2" cy="53.7" r="2.5"/>
	</g>
</g>
<g>
	<g>
		<circle class="st0" cx="2.5" cy="55.1" r="1"/>
	</g>
	<g>
		<line class="st1" x1="2.5" y1="17.3" x2="2.5" y2="53.7"/>
		<circle class="st0" cx="2.5" cy="17.1" r="2.5"/>
		<circle class="st0" cx="2.5" cy="53.7" r="2.5"/>
	</g>
</g>
<g>
	<g>
		<circle class="st0" cx="15.5" cy="68.2" r="1"/>
	</g>
	<g>
		<line class="st1" x1="53.3" y1="68.2" x2="17" y2="68.2"/>
		<circle class="st0" cx="53.5" cy="68.2" r="2.5"/>
		<circle class="st0" cx="17" cy="68.2" r="2.5"/>
	</g>
</g>
<g>
	<g>
		<circle class="st0" cx="15.4" cy="2.5" r="1"/>
	</g>
	<g>
		<line class="st1" x1="53.2" y1="2.5" x2="16.9" y2="2.5"/>
		<circle class="st0" cx="53.4" cy="2.5" r="2.5"/>
		<circle class="st0" cx="16.9" cy="2.5" r="2.5"/>
	</g>
</g>
<path class="st2" d="M28,44.2c-0.7,0.4-1.4,0.8-2.2,1.1C24.3,46,22.6,46,21,45.5c-3.5-1.5-5.2-5.3-4.1-8.9c0.5-1.9,1.9-3.4,3.7-4
	c1-0.3,2-0.7,3.1-0.9c-0.8-0.7-1.5-1.5-2.1-2.3c-1-1.3-1.5-2.9-1.3-4.5c0.3-2,1.4-3.9,3.1-5c1.7-1.4,4-1.8,6.2-1.3
	c2,0.6,3.7,1.9,4.7,3.8l0.5,0.9c0.4-0.8,0.8-1.5,1.2-2.2c1.7-2.8,5.1-4,8.2-2.9c2.1,0.7,3.8,2.3,4.6,4.4c0.8,1.9,0.4,4.1-0.9,5.8
	c-0.5,0.8-1.2,1.4-1.8,2.2c0.5,0.1,1,0.1,1.5,0.2c1.5,0.2,2.9,0.8,4,1.8c1.6,1.4,2.4,3.5,2,5.6c-0.2,2.2-1.3,4.1-3.1,5.4
	c-1.9,1.3-4.2,1.6-6.4,0.9c-0.7-0.2-1.5-0.5-2.1-0.8c0.2,1,0.3,2,0.2,3c-0.1,2.7-1.8,5-4.3,6c-1.7,0.7-3.6,0.8-5.4,0.3
	c-1.7-0.4-3.2-1.6-4-3.3c-0.5-1.2-0.7-2.4-0.6-3.7C28,45.4,28,44.8,28,44.2z"/>
</svg>
