<?xml version="1.0" encoding="utf-8"?>
<!-- Generator: Adobe Illustrator 22.1.0, SVG Export Plug-In . SVG Version: 6.00 Build 0)  -->
<svg version="1.1" id="Layer_1" xmlns="http://www.w3.org/2000/svg" xmlns:xlink="http://www.w3.org/1999/xlink" x="0px" y="0px"
	 viewBox="0 0 70.7 70.7" style="enable-background:new 0 0 70.7 70.7;" xml:space="preserve">
<style type="text/css">
	.st0{fill:#231F20;}
	.st1{fill:none;stroke:#231F20;stroke-width:5;stroke-miterlimit:10;}
	.st2{fill:none;stroke:#000000;stroke-width:5;stroke-linejoin:round;}
</style>
<g>
	<g>
		<circle class="st0" cx="68.2" cy="55.1" r="1"/>
	</g>
	<g>
		<line class="st1" x1="68.2" y1="17.3" x2="68.2" y2="53.7"/>
		<circle class="st0" cx="68.2" cy="17.1" r="2.5"/>
		<circle class="st0" cx="68.2" cy="53.7" r="2.5"/>
	</g>
</g>
<g>
	<g>
		<circle class="st0" cx="2.5" cy="55.1" r="1"/>
	</g>
	<g>
		<line class="st1" x1="2.5" y1="17.3" x2="2.5" y2="53.7"/>
		<circle class="st0" cx="2.5" cy="17.1" r="2.5"/>
		<circle class="st0" cx="2.5" cy="53.7" r="2.5"/>
	</g>
</g>
<g>
	<g>
		<circle class="st0" cx="15.5" cy="68.2" r="1"/>
	</g>
	<g>
		<line class="st1" x1="53.3" y1="68.2" x2="17" y2="68.2"/>
		<circle class="st0" cx="53.5" cy="68.2" r="2.5"/>
		<circle class="st0" cx="17" cy="68.2" r="2.5"/>
	</g>
</g>
<g>
	<g>
		<circle class="st0" cx="15.4" cy="2.5" r="1"/>
	</g>
	<g>
		<line class="st1" x1="53.2" y1="2.5" x2="16.9" y2="2.5"/>
		<circle class="st0" cx="53.4" cy="2.5" r="2.5"/>
		<circle class="st0" cx="16.9" cy="2.5" r="2.5"/>
	</g>
</g>
<path class="st2" d="M53.1,31.2c0.1-0.3-0.1-0.7-0.4-0.9c-0.3-0.2-0.6-0.4-0.9-0.7l-8.5-6.4l-7.9-6c-0.2-0.1-0.4-0.1-0.7,0l-7.9,6
	l-8.5,6.5c-0.3,0.3-0.6,0.5-0.9,0.7s-0.5,0.5-0.4,0.9c0,3.1,0,6.2,0,9.3c0,4,0,8,0,11.9c0,0.7,0.2,0.8,0.8,0.8c3.5,0,7,0,10.6,0
	c0.6,0,0.8-0.2,0.8-0.8c0-2.9,0-8,0-11c0-0.5,0.2-0.7,0.7-0.7H35h0.1h5.1c0.5,0,0.7,0.1,0.7,0.7c0,2.9,0,8,0,11
	c0,0.6,0.2,0.8,0.8,0.8c3.5,0,7,0,10.6,0c0.7,0,0.8-0.2,0.8-0.8c0-4,0-8,0-11.9C53.1,37.4,53.1,34.3,53.1,31.2z"/>
</svg>
