<?xml version="1.0" encoding="utf-8"?>
<!-- Generator: Adobe Illustrator 22.1.0, SVG Export Plug-In . SVG Version: 6.00 Build 0)  -->
<svg version="1.1" id="Layer_1" xmlns="http://www.w3.org/2000/svg" xmlns:xlink="http://www.w3.org/1999/xlink" x="0px" y="0px"
	 viewBox="0 0 70.7 70.7" style="enable-background:new 0 0 70.7 70.7;" xml:space="preserve">
<style type="text/css">
	.st0{fill:#231F20;}
	.st1{fill:none;stroke:#231F20;stroke-width:5;stroke-miterlimit:10;}
	.st2{fill:none;stroke:#000000;stroke-width:5;stroke-miterlimit:10;}
</style>
<g>
	<g>
		<circle class="st0" cx="68.2" cy="55.1" r="1"/>
	</g>
	<g>
		<line class="st1" x1="68.2" y1="17.3" x2="68.2" y2="53.7"/>
		<circle class="st0" cx="68.2" cy="17.1" r="2.5"/>
		<circle class="st0" cx="68.2" cy="53.7" r="2.5"/>
	</g>
</g>
<g>
	<g>
		<circle class="st0" cx="2.5" cy="55.1" r="1"/>
	</g>
	<g>
		<line class="st1" x1="2.5" y1="17.3" x2="2.5" y2="53.7"/>
		<circle class="st0" cx="2.5" cy="17.1" r="2.5"/>
		<circle class="st0" cx="2.5" cy="53.7" r="2.5"/>
	</g>
</g>
<g>
	<g>
		<circle class="st0" cx="15.5" cy="68.2" r="1"/>
	</g>
	<g>
		<line class="st1" x1="53.3" y1="68.2" x2="17" y2="68.2"/>
		<circle class="st0" cx="53.5" cy="68.2" r="2.5"/>
		<circle class="st0" cx="17" cy="68.2" r="2.5"/>
	</g>
</g>
<g>
	<g>
		<circle class="st0" cx="15.4" cy="2.5" r="1"/>
	</g>
	<g>
		<line class="st1" x1="53.2" y1="2.5" x2="16.9" y2="2.5"/>
		<circle class="st0" cx="53.4" cy="2.5" r="2.5"/>
		<circle class="st0" cx="16.9" cy="2.5" r="2.5"/>
	</g>
</g>
<path class="st2" d="M42.4,40.4c-1.3-0.7-2.3-1.9-2.8-3.2c-0.3-1-0.3-2.2,0-3.2c0.6-1.4,1.5-2.5,2.8-3.2c1.8-1.3,9.3-4.9,10.4-6.1
	c0.5-0.6,0.6-1,0-1.4c-0.2-0.2-0.8-0.8-1.1-1c-3.9-3-8.8-4.7-13.7-4.7c-1.6,0-3.1,0.2-4.6,0.5c-5.1,0.9-9.7,3.6-12.9,7.7
	c-2,2.6-3.2,5.7-3.4,8.9c0,0.3,0,0.8,0,0.8l0,0c0,0,0,0,0,0.1s0,0,0,0.1l0,0c0,0,0,0.5,0,0.8c0.2,3.3,1.4,6.4,3.4,8.9
	c3.2,4.1,7.8,6.8,12.9,7.7c1.5,0.3,3.1,0.5,4.6,0.5c5,0,9.8-1.6,13.7-4.6c0.3-0.2,0.9-0.8,1.1-1c0.6-0.5,0.5-0.9,0-1.4
	C51.7,45.2,44.2,41.7,42.4,40.4z"/>
</svg>
