<?xml version="1.0" encoding="utf-8"?>
<!-- Generator: Adobe Illustrator 22.1.0, SVG Export Plug-In . SVG Version: 6.00 Build 0)  -->
<svg version="1.1" id="Layer_1" xmlns="http://www.w3.org/2000/svg" xmlns:xlink="http://www.w3.org/1999/xlink" x="0px" y="0px"
	 viewBox="0 0 70.7 70.7" style="enable-background:new 0 0 70.7 70.7;" xml:space="preserve">
<style type="text/css">
	.st0{fill:#231F20;}
	.st1{fill:none;stroke:#231F20;stroke-width:5;stroke-miterlimit:10;}
</style>
<g>
	<g>
		<circle class="st0" cx="68.2" cy="55.1" r="1"/>
	</g>
	<g>
		<line class="st1" x1="68.2" y1="17.3" x2="68.2" y2="53.7"/>
		<circle class="st0" cx="68.2" cy="17.1" r="2.5"/>
		<circle class="st0" cx="68.2" cy="53.7" r="2.5"/>
	</g>
</g>
<g>
	<g>
		<circle class="st0" cx="2.5" cy="55.1" r="1"/>
	</g>
	<g>
		<line class="st1" x1="2.5" y1="17.3" x2="2.5" y2="53.7"/>
		<circle class="st0" cx="2.5" cy="17.1" r="2.5"/>
		<circle class="st0" cx="2.5" cy="53.7" r="2.5"/>
	</g>
</g>
<g>
	<g>
		<circle class="st0" cx="15.5" cy="68.2" r="1"/>
	</g>
	<g>
		<line class="st1" x1="53.3" y1="68.2" x2="17" y2="68.2"/>
		<circle class="st0" cx="53.5" cy="68.2" r="2.5"/>
		<circle class="st0" cx="17" cy="68.2" r="2.5"/>
	</g>
</g>
<g>
	<g>
		<circle class="st0" cx="15.4" cy="2.5" r="1"/>
	</g>
	<g>
		<line class="st1" x1="53.2" y1="2.5" x2="16.9" y2="2.5"/>
		<circle class="st0" cx="53.4" cy="2.5" r="2.5"/>
		<circle class="st0" cx="16.9" cy="2.5" r="2.5"/>
	</g>
</g>
<path class="st1" d="M51.5,43.4c-0.8-0.6-1.9-1.4-2.9-2.1c-1.2-0.9-0.8-2-0.6-3.2c0.3-2.2,0.3-1.8,0.5-3.5c0.3-3.3-1.3-7.2-3.7-9.9
	c-1.6-1.8-3.4-3.4-5.4-4.8c-1.9-1.5-3.1-2.3-4.3-2.3H35c-1.2,0.1-2.4,0.8-4.3,2.3c-1.9,1.4-3.7,3-5.4,4.8c-2.4,2.7-4,6.6-3.7,9.9
	c0.2,1.7,0.2,1.4,0.5,3.5c0.1,1.2,0.6,2.3-0.6,3.2c-1,0.6-2.1,1.5-2.9,2.1c-1.6,1.1-2.2,1.9-1.2,3.6c1.2,2.1,2.7,4,4.3,5.7
	c1.3,1.2,2,1.5,3.9-0.2c1-0.9,1.6-1.6,3.1-3c2.4-2.3,3-2.3,4-2.3h4.5c1,0.1,1.6,0,4,2.3c1.4,1.4,2,2.1,3.1,3c2,1.7,2.6,1.4,4,0.2
	C50,51,51.4,49,52.6,47C53.6,45.3,53,44.5,51.5,43.4z"/>
</svg>
