<?xml version="1.0" encoding="UTF-8" standalone="no"?>
<!-- Created with Inkscape (http://www.inkscape.org/) -->

<svg
   xmlns:dc="http://purl.org/dc/elements/1.1/"
   xmlns:cc="http://creativecommons.org/ns#"
   xmlns:rdf="http://www.w3.org/1999/02/22-rdf-syntax-ns#"
   xmlns:svg="http://www.w3.org/2000/svg"
   xmlns="http://www.w3.org/2000/svg"
   xmlns:sodipodi="http://sodipodi.sourceforge.net/DTD/sodipodi-0.dtd"
   xmlns:inkscape="http://www.inkscape.org/namespaces/inkscape"
   width="84.190758mm"
   height="93.42733mm"
   viewBox="0 0 84.190758 93.42733"
   version="1.1"
   id="svg3301"
   inkscape:version="0.92.4 (5da689c313, 2019-01-14)"
   sodipodi:docname="birds-eve-screen.svg">
  <defs
     id="defs3295" />
  <sodipodi:namedview
     id="base"
     pagecolor="#ffffff"
     bordercolor="#666666"
     borderopacity="1.0"
     inkscape:pageopacity="0.0"
     inkscape:pageshadow="2"
     inkscape:zoom="1.1157959"
     inkscape:cx="159.10064"
     inkscape:cy="176.55559"
     inkscape:document-units="mm"
     inkscape:current-layer="layer1"
     showgrid="false"
     fit-margin-top="0"
     fit-margin-left="0"
     fit-margin-right="0"
     fit-margin-bottom="0"
     inkscape:window-width="1920"
     inkscape:window-height="1017"
     inkscape:window-x="-8"
     inkscape:window-y="-8"
     inkscape:window-maximized="1" />
  <metadata
     id="metadata3298">
    <rdf:RDF>
      <cc:Work
         rdf:about="">
        <dc:format>image/svg+xml</dc:format>
        <dc:type
           rdf:resource="http://purl.org/dc/dcmitype/StillImage" />
        <dc:title></dc:title>
      </cc:Work>
    </rdf:RDF>
  </metadata>
  <g
     inkscape:label="Layer 1"
     inkscape:groupmode="layer"
     id="layer1"
     transform="translate(-1.74986,-204.17324)">
    <g
       id="g3993">
      <rect
         transform="matrix(1.000000,0.000000,0.000000,1.000000,0.000000,0.000000)"
         style="isolation:isolate;fill:#de9f5d;stroke-width:0.26458332"
         id="rect536"
         height="92.456001"
         width="83.769722"
         y="204.65891"
         x="1.9535941"
         class="cls-13" />
      <path
         class="cls-17"
         d="M85.72333 204.19324C85.72333 204.19324 5.35349 204.19324 5.35349 204.19324C4.27134 204.19324 3.17861 204.14824 2.09647 204.19324C2.04887 204.19324 2.00127 204.19324 1.95359 204.19324C1.77632 204.19324 1.74986 204.55043 1.74986 204.65891C1.74986 204.65891 1.74986 293.36312 1.74986 293.36312C1.74986 294.56168 1.74986 295.76024 1.74986 296.9588C1.74986 296.9588 1.74986 297.11491 1.74986 297.11491C1.74986 297.23132 1.77636 297.58057 1.95359 297.58057C1.95359 297.58057 82.32343 297.58057 82.32343 297.58057C83.40558 297.58057 84.50095 297.62557 85.5831 297.58057C85.5831 297.58057 85.72333 297.58057 85.72333 297.58057C85.90325 297.58057 85.92706 297.22339 85.92706 297.11491C85.92706 297.11491 85.92706 208.4107 85.92706 208.4107C85.92706 207.21214 85.92706 206.01357 85.92706 204.81501C85.92706 204.81501 85.92706 204.67214 85.92706 204.67214C85.92706 204.55307 85.90326 204.20647 85.72333 204.20647C85.54341 204.20647 85.5196 204.56366 85.5196 204.67214C85.5196 204.67214 85.5196 293.36312 85.5196 293.36312C85.5196 294.55639 85.4614 295.76553 85.5196 296.9588C85.5196 296.9588 85.5196 297.11491 85.5196 297.11491C85.5196 297.11491 85.72333 296.64924 85.72333 296.64924C85.72333 296.64924 3.22095 296.64924 3.22095 296.64924C2.84642 296.62804 2.471 296.62804 2.09647 296.64924C2.04887 296.65224 2.00117 296.65224 1.95359 296.64924C1.95359 296.64924 2.15997 297.11491 2.15997 297.11491C2.15997 297.11491 2.15997 208.4107 2.15997 208.4107C2.15997 207.21743 2.21817 206.00828 2.15997 204.81501C2.15997 204.76471 2.15997 204.71182 2.15997 204.65891C2.15997 204.65891 1.95359 205.12457 1.95359 205.12457C1.95359 205.12457 82.32343 205.12457 82.32343 205.12457C83.40558 205.12457 84.50095 205.16687 85.5831 205.12457C85.5831 205.12457 85.72333 205.12457 85.72333 205.12457C86.01172 205.12457 86.01437 204.19324 85.72333 204.19324C85.72333 204.19324 85.72333 204.19324 85.72333 204.19324"
         id="path538"
         style="isolation:isolate;stroke-width:0.00129661972914;fill:#4d4d4d" />
      <path
         class="cls-20"
         d="M41.6993 250.51914C41.6993 250.51914 41.6993 237.88264 41.6993 237.88264C41.6993 237.88264 37.05851 237.88264 37.05851 237.88264C37.05851 237.88264 37.05851 250.47151 37.05851 250.47151C37.77024 250.47151 38.4899 250.56671 39.20163 250.62232C40.03471 250.71172 40.87644 250.67692 41.6993 250.51914C41.6993 250.51914 41.6993 250.51914 41.6993 250.51914"
         id="path540"
         style="isolation:isolate;stroke-width:0.00129661972914;fill:#bcbcbc" />
      <path
         class="cls-20"
         d="M41.6993 263.60543C41.6993 263.60543 41.6993 254.03545 41.6993 254.03545C40.1582 254.19201 38.61018 254.27061 37.06115 254.27093C37.06115 254.27093 37.06115 263.60543 37.06115 263.60543C37.06115 263.60543 41.6993 263.60543 41.6993 263.60543"
         id="path542"
         style="isolation:isolate;stroke-width:0.00129661972914;fill:#bcbcbc" />
      <path
         class="cls-21"
         d="M41.6993 250.51914C40.8773 250.67667 40.03648 250.71144 39.20428 250.62232C38.49255 250.56672 37.77288 250.48209 37.06115 250.47151C37.06115 250.47151 37.06115 254.27093 37.06115 254.27093C38.61018 254.27061 40.1582 254.19203 41.6993 254.03545C41.6993 254.03545 41.6993 250.51914 41.6993 250.51914"
         id="path544"
         style="isolation:isolate;stroke-width:0.00129661972914;fill:#edeff0" />
      <path
         class="cls-17"
         d="M37.68557 237.95143C37.68557 237.95143 37.18815 238.16839 37.18815 238.16839C37.18815 238.16839 37.70145 238.16839 37.70145 238.16839C37.70045 238.10989 37.69445 238.05153 37.68555 237.99376C37.68455 237.97966 37.68455 237.96556 37.68555 237.95146C37.68555 237.95146 37.68557 237.95143 37.68557 237.95143"
         id="path546"
         style="isolation:isolate;stroke-width:0.00129661972914;fill:#4d4d4d" />
      <path
         class="cls-17"
         d="M37.99513 263.60543C37.99513 263.60543 37.67499 263.60543 37.67499 263.60543C37.67499 263.60543 37.67499 263.82239 37.67499 263.82239C37.67499 263.94145 37.52682 264.01553 37.34426 264.04199C37.34426 264.04199 41.3818 264.04199 41.3818 264.04199C41.3818 264.04199 41.3818 263.60543 41.3818 263.60543C41.3818 263.60543 37.99513 263.60543 37.99513 263.60543"
         id="path548"
         style="isolation:isolate;stroke-width:0.00129661972914;fill:#4d4d4d" />
      <path
         class="cls-17"
         d="M37.20138 263.60543C37.20138 263.60543 37.6988 263.60543 37.6988 263.60543C37.6988 263.60543 37.6988 238.99918 37.6988 238.99918C37.6988 238.73459 37.7332 238.43297 37.7147 238.1578C37.7147 238.1578 37.2014 238.1578 37.2014 238.1578C37.2014 238.1578 37.69882 237.94084 37.69882 237.94084C37.69782 237.95494 37.69782 237.96904 37.69882 237.98314C37.70782 238.04094 37.71352 238.09925 37.71472 238.15776C37.71472 238.15776 41.38184 238.15776 41.38184 238.15776C41.38184 238.15776 41.38184 237.74501 41.38184 237.74501C41.38184 237.74501 37.20142 237.74501 37.20142 237.74501C37.07972 237.74501 36.70665 237.77411 36.70665 237.96462C36.70665 237.96462 36.70665 262.77724 36.70665 262.77724C36.68155 263.11544 36.68155 263.45504 36.70665 263.79324C36.70765 263.80734 36.70765 263.82144 36.70665 263.83554C36.69345 263.63181 37.06119 263.60535 37.20142 263.60535C37.20142 263.60535 37.20138 263.60543 37.20138 263.60543"
         id="path550"
         style="isolation:isolate;stroke-width:0.00129661972914;fill:#4d4d4d" />
      <path
         class="cls-17"
         d="M37.68557 263.82239C37.68557 263.82239 37.68557 263.60543 37.68557 263.60543C37.68557 263.60543 37.20138 263.60543 37.20138 263.60543C37.07438 263.60543 36.70661 263.63193 36.70661 263.82239C36.70624 263.84369 36.71161 263.86479 36.72251 263.88319C36.72251 263.88319 36.72251 263.88319 36.72251 263.88319C36.80451 264.00754 37.09822 264.03136 37.19611 264.03136C37.19611 264.03136 37.3628 264.03136 37.3628 264.03136C37.53742 264.01546 37.68559 263.93876 37.68559 263.82234C37.68559 263.82234 37.68557 263.82239 37.68557 263.82239"
         id="path552"
         style="isolation:isolate;stroke-width:0.00129661972914;fill:#4d4d4d" />
      <polygon
         class="cls-11"
         points="38.88148,278.62582 38.88148,223.14799 55.46557,215.21049 55.46557,286.56332"
         id="polygon554"
         style="isolation:isolate;fill:#ffffff" />
      <path
         class="cls-17"
         d="M39.10109 278.62582C39.10109 278.62582 39.10109 225.41282 39.10109 225.41282C39.10109 224.69316 39.13289 223.96291 39.10109 223.24324C39.10109 223.21144 39.10109 223.17974 39.10109 223.14794C39.10109 223.14794 38.9397 223.62684 38.9397 223.62684C38.9397 223.62684 44.54357 220.94396 44.54357 220.94396C44.54357 220.94396 53.47326 216.67094 53.47326 216.67094C53.47326 216.67094 55.52378 215.68934 55.52378 215.68934C55.52378 215.68934 55.2592 215.21044 55.2592 215.21044C55.2592 215.21044 55.2592 283.66609 55.2592 283.66609C55.2592 284.58684 55.2169 285.51817 55.2592 286.44157C55.2592 286.48127 55.2592 286.52097 55.2592 286.56327C55.2592 286.56327 55.52378 286.08438 55.52378 286.08438C55.52378 286.08438 49.9199 283.4015 49.9199 283.4015C49.9199 283.4015 40.98757 279.12584 40.98757 279.12584C40.98757 279.12584 38.9397 278.14688 38.9397 278.14688C38.64336 278.004 38.55076 278.97238 38.82328 279.10202C38.82328 279.10202 44.42715 281.7849 44.42715 281.7849C44.42715 281.7849 53.35684 286.06057 53.35684 286.06057C53.35684 286.06057 55.40736 287.03952 55.40736 287.03952C55.6349 287.15065 55.67195 286.6744 55.67195 286.56327C55.67195 286.56327 55.67195 218.10763 55.67195 218.10763C55.67195 217.18159 55.67195 216.25554 55.67195 215.33215C55.67195 215.33215 55.67195 215.21044 55.67195 215.21044C55.67195 215.09667 55.62435 214.62306 55.40736 214.73154C55.40736 214.73154 49.80349 217.41442 49.80349 217.41442C49.80349 217.41442 40.8738 221.69009 40.8738 221.69009C40.8738 221.69009 38.82328 222.66904 38.82328 222.66904C38.6857 222.73784 38.66453 223.02359 38.66453 223.14794C38.66453 223.14794 38.66453 276.37417 38.66453 276.37417C38.66453 277.09648 38.66453 277.82144 38.66453 278.54375C38.66453 278.54375 38.66453 278.63905 38.66453 278.63905C38.66453 278.76605 38.69103 279.13382 38.88149 279.13382C39.07199 279.13382 39.10109 278.73959 39.10109 278.62582C39.10109 278.62582 39.10109 278.62582 39.10109 278.62582"
         id="path556"
         style="isolation:isolate;stroke-width:0.00129661972914;fill:#4d4d4d" />
      <text
         class="cls-22"
         id="text558"
         style="font-weight:800;font-size:8.49336338px;font-family:Arial-Black, 'Arial Black';isolation:isolate;fill:#4d4d4d;stroke-width:0.40386891"
         x="160.83594"
         y="-71.220009"
         transform="matrix(0.000000,1.526434,-0.655122,0.000000,0.000000,0.000000)">H</text>
      <rect
         transform="matrix(1.000000,0.000000,0.000000,1.000000,0.000000,0.000000)"
         style="isolation:isolate;fill:#4d4d4d;stroke-width:0.26458332"
         id="rect560"
         height="9.2577715"
         width="0.79374999"
         y="246.25406"
         x="52.158276"
         class="cls-17" />
      <rect
         transform="matrix(1.000000,0.000000,0.000000,1.000000,0.000000,0.000000)"
         style="isolation:isolate;fill:#4d4d4d;stroke-width:0.26458332"
         id="rect562"
         height="1.8520833"
         width="3.9740417"
         y="240.85654"
         x="46.657574"
         class="cls-17" />
      <rect
         transform="matrix(1.000000,0.000000,0.000000,1.000000,0.000000,0.000000)"
         style="isolation:isolate;fill:#4d4d4d;stroke-width:0.26458332"
         id="rect564"
         height="1.8520833"
         width="3.9740417"
         y="259.06519"
         x="46.660229"
         class="cls-17" />
      <rect
         transform="matrix(1.000000,0.000000,0.000000,1.000000,0.000000,0.000000)"
         style="isolation:isolate;fill:#bac0c5;stroke-width:0.26458332"
         id="rect566"
         height="3.1564794"
         width="2.0955"
         y="232.43222"
         x="41.471767"
         class="cls-18" />
      <rect
         transform="matrix(1.000000,0.000000,0.000000,1.000000,0.000000,0.000000)"
         style="isolation:isolate;fill:#bac0c5;stroke-width:0.26458332"
         id="rect568"
         height="3.1564794"
         width="2.0955"
         y="239.93317"
         x="41.471767"
         class="cls-18" />
      <rect
         transform="matrix(1.000000,0.000000,0.000000,1.000000,0.000000,0.000000)"
         style="isolation:isolate;fill:#bac0c5;stroke-width:0.26458332"
         id="rect570"
         height="3.1564794"
         width="2.0955"
         y="236.18137"
         x="41.471767"
         class="cls-18" />
      <rect
         transform="matrix(1.000000,0.000000,0.000000,1.000000,0.000000,0.000000)"
         style="isolation:isolate;fill:#bac0c5;stroke-width:0.26458332"
         id="rect572"
         height="3.1564794"
         width="2.0955"
         y="243.68231"
         x="41.471767"
         class="cls-18" />
      <rect
         transform="matrix(1.000000,0.000000,0.000000,1.000000,0.000000,0.000000)"
         style="isolation:isolate;fill:#bac0c5;stroke-width:0.26458332"
         id="rect574"
         height="3.1564794"
         width="2.0955"
         y="247.43408"
         x="41.471767"
         class="cls-18" />
      <rect
         transform="matrix(1.000000,0.000000,0.000000,1.000000,0.000000,0.000000)"
         style="isolation:isolate;fill:#bac0c5;stroke-width:0.26458332"
         id="rect576"
         height="3.1564794"
         width="2.0955"
         y="251.18323"
         x="41.471767"
         class="cls-18" />
      <rect
         transform="matrix(1.000000,0.000000,0.000000,1.000000,0.000000,0.000000)"
         style="isolation:isolate;fill:#bac0c5;stroke-width:0.26458332"
         id="rect578"
         height="3.1564794"
         width="2.0955"
         y="254.93237"
         x="41.471767"
         class="cls-18" />
      <rect
         transform="matrix(1.000000,0.000000,0.000000,1.000000,0.000000,0.000000)"
         style="isolation:isolate;fill:#bac0c5;stroke-width:0.26458332"
         id="rect580"
         height="3.1564794"
         width="2.0955"
         y="258.68417"
         x="41.471767"
         class="cls-18" />
      <rect
         transform="matrix(1.000000,0.000000,0.000000,1.000000,0.000000,0.000000)"
         style="isolation:isolate;fill:#bac0c5;stroke-width:0.26458332"
         id="rect582"
         height="3.1564794"
         width="2.0955"
         y="262.43332"
         x="41.471767"
         class="cls-18" />
      <rect
         transform="matrix(1.000000,0.000000,0.000000,1.000000,0.000000,0.000000)"
         style="isolation:isolate;fill:#bac0c5;stroke-width:0.26458332"
         id="rect584"
         height="3.1564794"
         width="2.0955"
         y="266.18512"
         x="41.471767"
         class="cls-18" />
    </g>
  </g>
</svg>
