<?xml version="1.0" encoding="UTF-8"?><svg xmlns="http://www.w3.org/2000/svg" xmlns:xlink="http://www.w3.org/1999/xlink" viewBox="0 0 1280 1100"><defs><style>.cls-1,.cls-2,.cls-3{fill:none;}.cls-4{font-size:27px;}.cls-5{font-size:50.52px;}.cls-5,.cls-6,.cls-7,.cls-8{fill:#4d4d4d;}.cls-5,.cls-8{font-family:Arial-Black, 'Arial Black';}.cls-2{stroke:#f6f7f8;}.cls-2,.cls-3{stroke-miterlimit:10;stroke-width:3px;}.cls-3{stroke:#fff;}.cls-9{font-size:51.79px;}.cls-9,.cls-10,.cls-11,.cls-12,.cls-13{fill:#fff;}.cls-9,.cls-11,.cls-12,.cls-13{font-weight:700;}.cls-9,.cls-11,.cls-13{font-family:OpenSans-Extrabold, 'Open Sans';}.cls-14{fill:#f6f7f8;}.cls-15,.cls-16{fill:#fb805f;}.cls-17{fill:#f0f5f9;}.cls-18{fill:#edeff0;}.cls-19{fill:#fca68f;}.cls-20{fill:#6797c2;}.cls-21{fill:#c2d5e7;}.cls-22{fill:#bac0c5;}.cls-23{fill:#bcbcbc;}.cls-24{fill:#95b6d4;}.cls-25{fill:#87919a;}.cls-26{fill:#53616f;}.cls-27{letter-spacing:4.63em;}.cls-11{font-size:25.03px;}.cls-12{font-family:OpenSans-ExtraboldItalic, 'Open Sans';font-size:38.24px;}.cls-13{font-size:23px;}.cls-28{font-size:36px;}.cls-16{filter:url(#drop-shadow-2);}.cls-7{font-family:OpenSans, 'Open Sans';}.cls-8{font-size:33.28px;}</style><filter id="drop-shadow-2" filterUnits="userSpaceOnUse"><feOffset dx="1.88" dy="1.88"/><feGaussianBlur result="blur" stdDeviation="2.82"/><feFlood flood-color="#000" flood-opacity=".7"/><feComposite in2="blur" operator="in"/><feComposite in="SourceGraphic"/></filter></defs><g id="background"><path class="cls-14" d="M275.49,526.62H65.83c-.88,0-1.77,.05-2.65-.03-2.98-.27-5.4-2.6-5.4-5.57v-29.8c0-9.18,0-18.36,0-27.54s0-21.92,0-32.88,0-24.19,0-36.28c0-12.45,0-24.9,0-37.35s0-24.05,0-36.07c0-10.96,0-21.92,0-32.88,0-9.11,0-18.22,0-27.33s0-13.04,0-19.56-.02-6.4,0-9.59,2.94-5.39,6.03-5.47c.76-.02,1.53,0,2.29,0h207.53c1.15,0,2.39-.09,3.5,.2,2.62,.67,4.39,2.86,4.39,5.47v3.69c0,5.11,0,10.23,0,15.34,0,8.03,0,16.07,0,24.1,0,10.22,0,20.43,0,30.65s0,23.23,0,34.84v37.11c0,12.35,0,24.69,0,37.04v65.03c0,7.83,0,15.66,0,23.48v17.93c0,3.22-2.93,5.39-6.03,5.49-1.3,.04-1.27,4.19,0,4.15,5.12-.15,7.82-4.66,7.86-9.37,0-1.01,0-2.01,0-3.02v-68.26c0-11.66,0-23.32,0-34.98v-109.97c0-10.26,0-20.52,0-30.78v-39.21c0-4.51,.32-9.79-4.46-12.24-1.62-.83-3.24-.83-4.97-.83h-5.57c-7.03,0-14.07,0-21.1,0-10.27,0-20.55,0-30.82,0h-73.75c-11.46,0-22.92,0-34.39,0h-42.46c-.94,0-1.92-.06-2.86,.05-4.74,.58-7,5.03-7.02,9.38-.02,3.04,0,6.08,0,9.12,0,6.45,0,12.9,0,19.36,0,9.11,0,18.22,0,27.33s0,22.02,0,33.04,0,24.32,0,36.48v37.66c0,12.24,0,24.47,0,36.71s0,22.13,0,33.2,0,18.38,0,27.58c0,6.56,0,13.12,0,19.69,0,3.18-.01,6.36,0,9.53,.01,3.72,1.44,7.63,5.2,9.05,1.46,.55,2.86,.51,4.36,.51,4.95,0,9.91,0,14.86,0,8.88,0,17.77,0,26.65,0,11.39,0,22.78,0,34.17,0,12.48,0,24.95,0,37.43,0,12.14,0,24.27,0,36.41,0,10.41,0,20.82,0,31.24,0h21.53c2.57,0,5.13,0,7.7,0,1.28,0,1.29-4.15,0-4.15Z"/><path class="cls-14" d="M269.71,231.31H70.35c-3.63,0-6.6,2.97-6.6,6.6v275.69L269.71,231.31Z"/><path class="cls-14" d="M425.93,396.53h-120.03c-1.75,0-4.19-.27-4.28-2.33-.08-1.89,0-3.8,0-5.68,0-9,0-18.01,0-27.01v-39.52c0-14.04,0-28.08,0-42.13,0-11.51,0-23.02,0-34.52v-11.18c0-1.87-.1-3.76,0-5.62,.11-2.07,2.6-2.29,4.34-2.29h115.45c1.6,0,3.27-.14,4.86,.01,3.1,.29,2.72,2.32,2.72,4.49,0,7.51,0,15.01,0,22.52,0,12.48,0,24.96,0,37.43,0,14.11,0,28.22,0,42.32,0,12.4,0,24.8,0,37.2v22.05c0,.64,.03,1.29,0,1.92-.07,1.43-1.64,2.25-3.06,2.31-1.31,.06-1.26,4.21,0,4.15,3.36-.14,4.85-3.22,4.89-6.23,0-.55,0-1.11,0-1.67v-38.89c0-13.88,0-27.75,0-41.63,0-13.87,0-27.74,0-41.62v-40.22c0-2.74,.15-5.86-2.46-7.59-1.71-1.13-4.45-.73-6.4-.73h-91.8c-8.11,0-16.21,0-24.32,0-.6,0-1.24-.05-1.84,.06-3,.52-4.18,3.45-4.21,6.19-.02,1.71,0,3.42,0,5.12,0,8.86,0,17.72,0,26.58v39.99c0,14.17,0,28.35,0,42.52v35.03c0,5.57-.05,11.15,0,16.72,.02,2.31,.73,4.91,3.03,5.94,.92,.41,1.81,.42,2.77,.42h120.34c1.28,0,1.29-4.15,0-4.15Z"/><path class="cls-14" d="M572.38,301.75h-122.89c-.29,0-.59,.02-.88,0-.02,0-.03,0-.05,0-.25-.02-.48-.02-.73-.11-.31-.11-.8-.73-1.02-.76-.14-.02-.06-.08-.03,.25,0-.01,0-.02,0-.03,0-.05,0-.11,0-.16,.14-1.63,0-3.34,0-4.98,0-7.88,0-15.77,0-23.65,0-9.43,0-18.86,0-28.3,0-5.55,0-11.1,0-16.65,0-.15,0-.3,0-.45,0-.22-.17,.31,0,.27,.14-.03,.58-.6,.76-.69,.33-.17,.65-.22,1.02-.24,.2-.01,.41,0,.61,0h120.42c.91,0,1.84-.05,2.76,0,.01,0,.03,0,.04,0,.31,.02,.59,.05,.87,.17,.44,.19,.6,.63,.94,.82-.14-.08,0-.62-.04-.16-.04,.59,0,1.2,0,1.8v71.75c0,.15,0,.29,0,.44,0,.13-.04,0,.02-.13,.19-.41-.36,.29-.51,.4-.39,.29-.82,.38-1.29,.41-1.32,.08-1.24,4.23,0,4.15,3.47-.22,3.6-3.86,3.6-6.53v-7.93c0-8.94,0-17.87,0-26.81v-35.6c0-2.28,.25-5.28-2.1-6.53-1.02-.54-2.32-.39-3.44-.39h-6.05c-7.12,0-14.23,0-21.35,0-9.45,0-18.89,0-28.34,0h-29.34c-7.96,0-15.92,0-23.88,0h-12.39c-2.81,0-4.1,2.25-4.15,4.92-.03,1.67,0,3.35,0,5.02v52.9c0,5.31-.08,10.63,0,15.94,.04,2.61,1.22,4.98,4.04,5.01,1.38,.01,2.77,0,4.15,0h119.24c1.28,0,1.29-4.15,0-4.15Z"/><path class="cls-14" d="M572.39,394.25h-122.77c-.33,0-.67,.02-1,0-.38-.02-.75-.06-1.1-.24-.18-.09-.66-.69-.76-.69-.07,0,0,.17,0,.32,0-.03,0-.08,0-.11,.25-1.48,0-3.21,0-4.7,0-7.81,0-15.63,0-23.44s0-18.8,0-28.2v-16.65c0-.15,0-.31,0-.46,0-.21-.17,.32,0,.28,.14-.03,.58-.6,.76-.69,.33-.17,.65-.22,1.01-.24,.19-.01,.39,0,.59,0h120.22c.98,0,1.98-.05,2.96,0,.49,.02,.95,.1,1.36,.41,.37,.28,.53,.83,.48,.21,0,.04,0,.09,0,.13-.07,.53,0,1.11,0,1.64v71.33c0,.15,0,.3,0,.44,0,.13-.05,.01,.02-.13,.19-.41-.36,.29-.5,.39-.39,.29-.81,.38-1.28,.41-1.32,.08-1.24,4.23,0,4.15,3.47-.22,3.59-3.87,3.59-6.53v-34.78c0-9.01,0-18.01,0-27.02v-8.13c0-2.46,.09-5.91-2.93-6.58-.89-.2-1.9-.08-2.8-.08h-121.16c-2.8,0-4.09,2.25-4.14,4.91-.03,1.66,0,3.33,0,5,0,8.07,0,16.14,0,24.2,0,9.53,0,19.06,0,28.59,0,5.17-.1,10.35,0,15.51,.05,2.67,1.34,4.91,4.14,4.91h123.3c1.28,0,1.29-4.15,0-4.15Z"/><path class="cls-14" d="M425.06,229.89h-114.19c-2.08,0-3.78,1.7-3.78,3.78v157.91l117.97-161.69Z"/><path class="cls-14" d="M569.67,526.8H306.04c-1.24,0-2.43-.16-3.41-1.06-.35-.32-.82-1.07-.86-1.27,.02,.13,.02,.09,.01,.05-.01-.09,0-.19,0-.28,0-.47,0-.95,0-1.42,0-4.9,0-9.8,0-14.7,0-8.09,0-16.17,0-24.26s0-18.14,0-27.22c0-7.86,0-15.71,0-23.57,0-4.44,0-8.88,0-13.31,0-.31-.03-.64,0-.95,0-.02,0-.04,0-.06-.05,.33,.18-.37,.3-.55,.72-1.13,2.04-1.67,3.33-1.71,.33-.01,.66,0,1,0h20.36c6.05,0,12.1,0,18.15,0h22.06c8.3,0,16.61,0,24.91,0,8.9,0,17.8,0,26.7,0,9.14,0,18.29,0,27.43,0,9.03,0,18.07,0,27.1,0s17.15,0,25.72,0h67.9c2.1,0,4.75-.37,6.16,1.57,.15,.2,.44,.99,.4,.68,0,.02,0,.04,0,.06,.01,.11,0,.22,0,.33-.01,.49,0,.98,0,1.46v52.97c0,8.72,0,17.44,0,26.15s0,12.73,0,19.09v4.7c0,.32,.03,.65,0,.96-.02,.21,.16-.2-.09,.25-.75,1.33-2.01,2.02-3.53,2.08s-1.49,4.97,0,4.91c6.35-.25,5.78-7.41,5.78-11.95s0-12.43,0-18.64v-74.25c0-3.09,.34-6.41-.09-9.5s-2.63-5.75-5.96-5.78c-.65,0-1.3,0-1.94,0h-66.66c-8.65,0-17.31,0-25.96,0-9.11,0-18.21,0-27.32,0h-27.85c-9,0-18,0-27.01,0h-86.37c-.53,0-1.08-.03-1.61,.06-3.77,.59-5.06,4.34-5.06,7.7,0,4.17,0,8.33,0,12.5,0,7.79,0,15.58,0,23.37s0,18.3,0,27.46,0,16.56,0,24.84c0,5.05,0,10.1,0,15.16,0,1.4-.07,2.83,.27,4.21,.7,2.83,2.88,4.82,5.82,4.84,1.91,.02,3.82,0,5.73,0h258.22c1.51,0,1.53-4.91,0-4.91Z"/><path class="cls-14" d="M567.83,419.76H310.88c-2.08,0-3.78,1.7-3.78,3.78v97.26l260.74-101.04Z"/><path class="cls-14" d="M571.04,229.89h-114.19c-2.08,0-3.78,1.7-3.78,3.78v63.66l117.97-67.44Z"/><path class="cls-14" d="M571.04,323.68h-114.19c-2.08,0-3.78,1.7-3.78,3.78v63.66l117.97-67.44Z"/><rect class="cls-21" x=".26" y="774.46" width="1279.5" height="300.37"/><rect class="cls-17" x="79.08" y="794.91" width="1121.85" height="243.93" rx="13.65" ry="13.65"/><path class="cls-14" d="M872.41,172.09c-35,.03-63.59,27.37-85.03,55.03-5.68,7.33-11.23,14.96-14.25,23.72-5.4,15.68-2.06,33.02,3.25,48.74,18.01,53.35,57.93,99.58,63.4,155.63,2.92,29.96-4.42,59.83-7.55,89.77-3.13,29.94-1.25,62.58,17.21,86.36,20.25,26.1,55.4,35.23,88.25,38.71,41.26,4.38,84.45,2.13,121.84-15.87,37.39-18,67.86-54.08,70.62-95.48,3.4-51.02-33.38-95.26-47.01-144.55-7.78-28.15-7.85-58.39-.19-86.57,5.53-20.35,15.09-40.23,14.27-61.31-1.04-26.85-19.36-50.75-42.17-64.96-22.81-14.21-49.69-20.21-76.19-24.69-39.74-6.72-80.82-10.5-120.1-1.47"/></g><g id="colour"><g><path class="cls-25" d="M204.32,363.64c-3.12-6.2-8.8-10.65-14.4-14.74-15.34-11.2-28.36-23.21-45.16-32.08-4.6-2.43-10.79-4.63-13.67-8.96-2.87-4.33-4.6-9.49-.25-12.34,1.02-.67,2.29-1.16,2.79-2.28,.81-1.81-.94-3.66-1.52-5.55-.71-2.28,.29-4.37,1.97-6.12-3.29,.36-6.81,.05-9.92,.99-7.65,2.33-13.76,7.97-18.49,14.24-9.73,12.9-15.6,29.42-18.11,45.28-1.76,11.13-1.76,22.6-1.36,33.83,.43,12.37,1.52,24.71,2.47,37.05,1.86,24.11,1.62,48.52,6.12,72.36,.61,3.21,1.31,6.39,2.13,9.54,.87-.4,1.85-.2,2.73-.6l109.38,2.81c-.18-37.46-1.18-74.94-1.36-112.4-.03-7.17-.14-14.64-3.36-21.04Z"/><path class="cls-22" d="M248.37,326.09c-6.41-19.91-21.58-34.67-39.2-45.16-9.01-5.37-18.85-9.52-29.08-11.89-9.81-2.27-21.56-3.23-30.94,1.27-4.2,2.01-5.6,6.53-9.15,9.19-1.76,1.32-3.79,1.83-5.92,2.06-1.69,1.76-2.68,3.84-1.97,6.12,.59,1.89,2.33,3.74,1.52,5.55-.5,1.11-1.76,1.61-2.79,2.28-4.35,2.84-3.54,7.7-.66,12.03,2.87,4.33,10.74,6.99,15.34,9.42,16.8,8.87,29.06,20.73,44.4,31.93,5.6,4.09,11.28,8.55,14.4,14.74,3.23,6.4,3.33,13.87,3.36,21.04,.18,37.46,1.18,74.94,1.36,112.4l28.59,.72c.89,.43,2.16,.73,3.04,1.18-.18-5.72-.19-12.85-.02-18.56,.42-13.91,1.54-27.81,3.03-41.65,1.5-13.89,4.75-27.5,6.75-41.33,3.35-23.28,5.28-48.59-2.05-71.35Z"/></g><g><path class="cls-19" d="M153.62,557.15c-19.22-15.04-47.67-6.89-70.7-14.95-9.69-3.39-19.34-12.15-17.32-22.21,1.13-5.61,5.47-9.66,10.36-12.95-5.32,3.09-9.78,6.15-12.26,8.83,0,0-5.48,16.43-8.85,57.29,0,0,51.28,9.35,105.62,9.35,0,0,3.2-.1,8.68-.34-2.93-9.78-7.61-18.81-15.54-25.02Z"/><path class="cls-15" d="M267.31,516.67s-31.32-22.29-62.07-29.03l-88.37,.1s-24.54,9.78-40.92,19.29c-4.88,3.3-9.23,7.34-10.36,12.95-2.02,10.06,7.63,18.82,17.32,22.21,23.03,8.06,51.48-.09,70.7,14.95,7.93,6.21,12.62,15.24,15.54,25.02,20.05-.86,70.65-3.5,107.04-9.46,0,0-.04-32.03-8.88-56.04Z"/></g><path class="cls-10" d="M216.21,346.9c-13.24-5.31-26.23-11.27-39.24-17.09-13.57-6.07-27.12-12.19-40.65-18.34-.89-.41-1.79-.81-2.68-1.22-.36-.16-.72-.33-1.08-.49-1.09,1.35-2.21,2.66-3.42,3.91-.59,.61-1.2,1.2-1.85,1.76-5.43,4.72-11.72,8.29-15.4,14.71-3.65,6.36-4.37,13.7-4.13,20.93,.18,5.43,1.63,12.96,2.21,18.34-1.84-.93-4.64-2.18-6.61-2.28-4.18-.22-6.24,1.57-7.1,5.24-1.99,8.45,.56,17.57,8.43,22.33,1.45,.88,3.58,1.31,4.9,1.14,1,3.99,3.88,10.33,5.58,14.12,6.51,14.51,13.74,26.16,25.17,37.47,.63,.63,.6,2.69,1.25,3.3l-.45,23.25s-10.95,15.59-21.91,16.01c0,0,16.01,23.59,47.6,23.17,0,0,31-3.75,41.95-18.91l.5-6.16s-14.96-2.39-17.81-17.19l-.11-20.73c.54-.47,1.06-1.33,1.59-1.82,5.22-4.83,9.02-9.13,13.1-15.03,.87-1.25,2.14-3.4,2.96-4.67,.1-2.44,.39-2.78,.51-5.22,1-19.77,2.32-39.75,4.96-59.36,.63-4.71,1.33-9.45,2.16-14.12,.13-.76,.51-2.65-.42-3.03Zm-106.86,21.22c0-.16,.02,.09,0,0h0Zm0,.24s0-.01,0-.02c0,0,0-.02,0-.03,.09-.59-.02,.72,0,.05Z"/><g><path class="cls-24" d="M506.43,541.88c-23.17-17.77-55.07-16.81-84.27-16.35-23.6,.37-49.5-1.12-68.91-13.13-2.34,8.44-9.94,37.02-12.42,60.08,0,0,38.16,7.81,129.58,7.81,0,0,25.08,.3,58.51-2.66-3.12-14.02-11.06-27.01-22.48-35.76Z"/><path class="cls-20" d="M578.47,508.68s-37.91-26.62-72.66-35.85l-80.68-.38s-58.56,22.75-71.19,37.49c0,0-.25,.87-.69,2.45,19.41,12.01,45.31,13.5,68.91,13.13,29.2-.46,61.1-1.42,84.27,16.35,11.41,8.75,19.35,21.74,22.48,35.76,19.23-1.7,41.22-4.49,62.79-9.03,0,0-3.12-40.97-13.23-59.93Z"/></g><path class="cls-22" d="M210.33,425.02c-.8,1.25-.48,2.38-1.33,3.61-.57,15.59-3.38,64.7,5.81,127.68,.1,.65,.33,4.38,1.25,4.21,.89-.16,.9-4.18,.91-4.78,.44-21.97,2.52-44.32,5.95-66.03,.14-.89,.28-1.78,.43-2.67,.28-1.66,.57-3.32,.89-4.98-.81-.34-14.1-52.61-13.92-57.04Z"/><path class="cls-26" d="M528.64,283.83c-4.84-3.5-10.76-5.05-16.06-7.67-6.22-3.07-11.37-7.18-16.62-11.64-9.12-7.75-21.82-8.99-33.32-8.6-8.07,.27-15.96,.69-24-.49-8.12-1.19-15.85-3.65-23.35-6.93-1.94-.85,.18,1.92,.71,2.7,2.42,3.57,8.02,8.84,11.09,11.85-6.41,.22-17.33,2.45-23.16,4.88-4.13,1.72-7.88,3.96-11.74,6.19-4.88,2.81-9.53,2.43-14.9,1.78-1.55-.19-1.27,1.69,.44,2.03,1.6,.32,4.4,4.52,5.47,5.62,1.52,1.57,4.34,3.2,5.92,4.71,3.21,3.06,5.69,2.91,10.18,4.1-.09,.26-1.26,4.15-1.33,4.36-1.26,3.68-2,7.53-2.66,11.35-1.59,9.1-1.99,18.16-1,27.38,.8,7.41,3.13,15.87,4.85,23.12l2.51,.23,18.19,7.49,97.31-.42,14.11-7.9,1.2-1.29c.27,.04,.37-1.81,.62-1.74,4.21-12.16,6.26-23.13,6.65-35.97,.36-12.05-.32-27.34-11.09-35.13Z"/><path class="cls-10" d="M539.5,367.37c-.62-3.87-1.46-6.99-5.58-8.03-.25-.06-.89-.4-1.16-.44-.72-.1-1.59,.38-2.33,.44-1.55,.14-3.05,.64-4.56,1.29-.15-1.99-.59-5.49-.85-7.47-.6-4.64-1.28-9.24-1.05-13.93,.54-8.03,1.44-16.92-2.84-24.14-3.21-5.41-9.13-7.91-15.16-8.63-7.26-.87-14.39,.73-21.46,2.22-9.19,1.93-18.1,3.31-27.43,1.53-8.67-1.65-17.29-4.84-26.24-3.94-7.65,.77-14.77,4.68-18.3,11.69-3.81,7.57-3.13,16.46-2.55,24.63,.35,4.95,.32,9.66-.64,14.54-.18,.91-.48,3.4-.65,4.31-2.02-1.03-4.21-2.43-6.38-2.62-.58-.05-1.08-.06-1.59,0-.93,.1-1.66-.56-2.4-.16-2.33,1.27-3.74,3.86-4.45,6.74-1.29,5.24-.23,10.13,1.46,15.21,1.58,4.75,3.31,6.48,7.75,9.11,1.41,.83,3.98,1.84,5.62,1.67,.7,4.35,2.59,12.45,3.95,16.55,.92,2.79,2.46,4.6,3.95,7.14,1.68,2.87,3.37,4.75,5.32,7.44,3.7,5.11,7.45,10.26,11.39,15.19,.33,.41-.38,2.53-.04,2.94,.03,.04,.06,.08,.1,.11l-.21,26.1s-2.08,7.09-8.2,8.81c0,0,12.16,17.38,44.59,17.38,0,0,29.96-4,38.17-18.29,0,0-8.12-3.27-8.96-11.69l-.23-24.98c.69-.72,1.84-2.67,2.51-3.42,4.42-4.97,6.72-9.19,10.25-14.81,4.27-6.8,8-11.62,10.25-19.36,.65-2.24,1.81-7.59,2.28-9.87,1.44,.33,4.36,.15,6.07-.61,4.16-1.84,5.13-3.88,6.83-7.9,2.14-5.05,3.65-9.32,2.78-14.75Z"/><g></g><rect class="cls-10" x="897.64" y="445.12" width="120.68" height="236.47" rx="15.51" ry="15.51"/><path class="cls-10" d="M749.14,701.9s13.91-12.78,16.92-24.06c0,0,20.3-85.34,36.47-92.48,0,0,10.15-1.5,11.65,2.26,0,0,7.52-12.78,9.77-12.03,0,0,13.16-.75,16.92,4.14,0,0,6.77-12.41,15.79-7.52,0,0,7.52,3.38,7.52,8.27,0,0,25.19-37.97,35.72-39.47,0,0,6.77,1.88,7.52,8.27,0,0-10.15,31.58-43.61,85.72,0,0-3.38,15.79,4.89,17.29,0,0,21.81-13.53,39.85-6.02,0,0,17.67,1.5,9.77,21.43,0,0-7.52,2.26-20.68,.75,0,0-15.04,4.14-25.19,13.16,0,0-31.96,18.8-52.63,20.68,0,0-21.43,21.43-25.94,27.44,0,0-39.85,8.65-44.74-27.82Z"/><path class="cls-10" d="M1096.15,733.35s-36.09-49.12-39.1-60.9c0,0,14.04-32.83,15.54-46.62,0,0-7.77-55.39-10.78-61.41,0,0-24.31-16.29-25.56-37.6,0,0-7.52-6.27-15.54,6.77,0,0-9.77,22.56,10.78,37.6,0,0,3.26,24.06,4.51,27.82l-2.76,.25s-14.04-30.58-14.79-35.09l-39.1,116.04s21.05,11.28,29.07,13.28l16.04,39.1s28.57,24.06,71.68,.75Z"/></g><g id="expanded_lines"><g><path class="cls-1" d="M441.87,444.82c4.69,3.69,10.16,6.1,16.05,7.07,6.16,1.01,12.63,.82,18.65-.9,8.63-2.46,15.78-7.95,21.82-14.47,.1-2.3,.2-4.59,.33-6.88,.02-.35,.07-1.51,.67-1.51s.69,1.13,.67,1.51c-.1,1.77-.18,3.55-.26,5.32,1.97-2.25,3.82-4.6,5.56-6.97,2.29-3.13,4.44-6.36,6.49-9.66,2.15-3.46,4.34-6.95,6.1-10.63,2.32-4.86,3.87-10.05,4.93-15.33-1.94-1-3.3-2.88-4.3-4.84-.3-.58-.28-1.56,0-2.14,.26-.54,.68-.52,.94,0,.88,1.73,2.17,3.33,3.89,4.14,.2-1.16,.37-2.32,.53-3.49,1.03-7.6,1.3-15.29,1.05-22.96,0-.1-.01-.19-.01-.29-1.13,.61-2.2,1.3-3.19,2.04-.51,.38-.79-.79-.82-1.06-.07-.58-.05-1.48,.47-1.86,1.06-.79,2.22-1.48,3.4-2.1-.19-2.97-.5-5.93-.9-8.89-.6-4.49-1.1-8.97-.88-13.51,0-.19,.01-.36,.02-.49,.26-4.11,.7-8.26,.29-12.37-.36-3.62-1.4-7.28-3.8-10.1-1.91-2.25-4.52-3.78-7.28-4.76-5.63-1.98-11.99-1.82-17.81-.89-9.09,1.46-18,4.23-27.27,4.42-8.72,.18-16.99-2.85-25.48-4.35-7.86-1.39-16.37-1.2-23.09,3.63-3.15,2.27-5.44,5.46-6.64,9.15-1.19,3.66-1.42,7.55-1.34,11.37,.11,4.74,.73,9.45,.74,14.2,0,2.4-.17,4.78-.56,7.14-.34,2.06-.8,4.1-1.17,6.15,.72,.44,1.41,.91,2.06,1.39,.52,.39,.54,1.3,.47,1.86-.03,.27-.31,1.44-.82,1.06-.68-.51-1.4-1-2.16-1.46-.7,5.17-.79,10.33-.63,15.6,.11,3.58,.36,7.17,.79,10.73,1.94-.74,3.34-2.49,4.27-4.32,.27-.54,.68-.55,.94,0,.29,.6,.3,1.55,0,2.14-1.08,2.12-2.63,4.16-4.81,5.08,.31,2.07,.69,4.13,1.15,6.16,1.23,5.49,2.98,11.12,6.45,15.63,4.29,5.59,8.22,11.44,12.4,17.1,.88,1.19,1.77,2.37,2.68,3.53-.04-.81-.07-1.61-.12-2.42-.02-.35,.1-1.51,.67-1.51,.6,0,.64,1.12,.67,1.51,.08,1.39,.15,2.79,.21,4.18,2.41,2.92,5.02,5.67,8,8.01Zm58.82-82.74c-.03,.27-.31,1.44-.82,1.06-.38-.28-.8-.52-1.21-.75-1.89-1.03-3.98-1.68-6.12-1.94,.29,.07,.53,.19,.77,.43-.51,.51-1.02,1.02-1.02,2.04,0,1.53,1.02,2.55,2.55,2.55,.51,0,1.53-.51,2.04-1.02,.51,.51,.51,1.53,.51,2.04,0,3.56-2.55,6.11-6.11,6.11s-6.11-2.55-6.11-6.11,2.55-6.11,6.11-6.11c.17,0,.32,0,.46,0-.03,0-.07,0-.1,0-4.11-.28-8.05,.98-11.53,3.11-.81,.5-1.15-2.43-.35-2.92,2.18-1.34,4.55-2.37,7.07-2.89,3.23-.67,6.57-.41,9.67,.69,1.29,.45,2.63,1.04,3.73,1.86,.51,.39,.54,1.29,.47,1.86Zm-30.81,35.69c1.46-.19,2.91-.43,4.35-.74,3.3-.72,6.86-1.8,9.48-4.04,.34-.29,.66-.67,1.03-1.14-.06-.04,0-.06,.03-.05,0-.02,0-.03,.02-.05,.01-.06,.03-.12,.04-.18,.1-.63-.03-1.32-.32-2.08-.7-1.83-1.98-3.42-3.35-4.8-.7-.71-1.51-1.29-2.19-2.01-2.42-2.59-3.59-6.33-4.4-9.7-1.49-6.18-1.99-12.68-1.95-19.02,0-.13,0-.26,0-.39,.01-.41,.05-.98,.33-1.31,.26-.3,.71-.48,1.04-.67,.69-.4,1.39-.78,2.11-1.14,2.51-1.27,5.14-2.3,7.86-2.99,4.13-1.05,8.49-1.23,12.65-.23,3.89,.94,8.03,2.86,10.78,5.88,.44,.48,.39,1.51,.24,2.07-.12,.44-.47,1.03-.91,.54-.04-.04-.08-.08-.11-.12-.05-.05-.09-.09-.14-.14-.01-.01-.02-.02-.02-.02-.01-.01-.03-.02-.05-.04-.42-.38-.86-.75-1.31-1.1-3.22-2.47-7.11-4.02-11.13-4.51-7.06-.87-13.96,1.46-20.01,4.97,0,2.92,.16,5.56,.44,8.4,.47,4.76,1.16,9.68,3.3,14.03,.69,1.39,1.57,2.58,2.74,3.59,1.78,1.54,3.37,3.34,4.48,5.43,.67,1.26,1.12,2.67,1.24,4.1,.09,1.17,.07,2.6-.43,3.69-.33,.71-.93,1.3-1.5,1.8-1.31,1.17-2.91,1.99-4.53,2.64-3.13,1.26-6.48,1.94-9.81,2.37-.86,.11-.99-2.9,0-3.03Zm15.66,18.84c.79-.5,1.15,2.42,.35,2.92-4.21,2.67-8.89,4.57-13.83,5.37-6.68,1.08-13.53,.08-19.81-2.36-2.84-1.1-5.74-2.46-8.2-4.28-.52-.38-.54-1.3-.47-1.86,.03-.28,.31-1.44,.82-1.06,.84,.62,1.75,1.15,2.65,1.66,4.7,2.65,9.92,4.43,15.28,5.06,8.19,.96,16.25-1.05,23.2-5.46Zm-62.53-61.01c-.8,.5-1.15-2.43-.35-2.92,3.78-2.34,7.91-4.12,12.27-5.01,5.54-1.13,11.27-.71,16.6,1.15,2.27,.79,4.62,1.81,6.55,3.27,.51,.39,.54,1.29,.47,1.86-.03,.27-.31,1.44-.82,1.06-.65-.49-1.36-.9-2.07-1.29-3.8-2.08-8.06-3.29-12.37-3.59-7.21-.5-14.18,1.7-20.27,5.47Zm8.36,7.87c-.81,.5-1.15-2.43-.35-2.92,2.18-1.34,4.55-2.37,7.07-2.89,3.23-.67,6.57-.41,9.67,.69,1.29,.45,2.63,1.04,3.73,1.86,.51,.39,.54,1.29,.47,1.86-.03,.27-.31,1.44-.82,1.06-.38-.28-.8-.52-1.21-.75-2.16-1.18-4.57-1.86-7.03-2.02-4.11-.28-8.05,.98-11.53,3.11Zm3.74,3c0-3.56,2.55-6.11,6.11-6.11,1.02,0,1.53,0,2.04,.51-.51,.51-1.02,1.02-1.02,2.04,0,1.53,1.02,2.55,2.55,2.55,.51,0,1.53-.51,2.04-1.02,.51,.51,.51,1.53,.51,2.04,0,3.56-2.55,6.11-6.11,6.11s-6.11-2.55-6.11-6.11Z"/><path class="cls-1" d="M194.96,481.33c-.97-1.25-1.83-2.59-2.53-4.01-.48-.96-.65-1.92-.79-3-.62-4.95-.59-10-.56-14.98,.01-2.54,.06-5.09,.12-7.63-2.81,2.47-5.81,4.72-9.02,6.62-5.41,3.21-11.83,5.61-18.22,4.99-7.1-.69-13.51-4.82-18.83-9.31-1.01-.86-2-1.74-2.97-2.65,.09,3.48,.15,6.97,.13,10.45,0,2.6-.05,5.21-.19,7.81-.11,2.11-.11,4.44-.66,6.51-.23,.86-1,1.71-1.52,2.41-1.26,1.69-2.69,3.25-4.22,4.7-4.33,4.11-9.63,7.07-15.45,8.36,.35,.38,.7,.77,1.07,1.14,4.12,4.23,8.84,8.08,13.93,11.22,6.48,4.01,13.66,6.9,21.21,8.06,9.27,1.44,18.75,.19,27.5-3.13,8.94-3.39,17.04-8.67,24.35-14.83-.06-1.29-.11-2.58-.16-3.87-5.18-1.56-9.83-4.54-13.2-8.87Z"/><path class="cls-1" d="M526.23,375.29c-.23,4.91-.69,9.83-1.49,14.68,.27,.05,.54,.09,.82,.1,1.44,.07,2.91-.33,4.15-1.07,1.72-1.03,3.21-2.67,4.43-4.23,1.59-2.02,2.82-4.31,3.66-6.75,.4-1.14,.7-2.33,.92-3.52,.17-.94,.33-2.29,.36-3.07,.04-1.12,.02-2.1-.07-3.01-.11-1.08-.21-1.67-.47-2.65-.35-1.3-.86-2.67-1.94-3.7-1.66-1.57-4.02-1.72-6.16-1.32-1.41,.27-2.82,.76-4.17,1.38,.18,4.38,.16,8.77-.04,13.14Z"/><path class="cls-1" d="M501.63,471.64c-.9-1.15-1.69-2.39-2.34-3.7-.45-.91-.63-1.83-.75-2.85-.56-4.54-.54-9.17-.51-13.74,.02-3.79,.1-7.58,.23-11.37-4.07,4.28-8.65,8.14-13.89,10.91-5.16,2.73-10.88,4.29-16.72,4.57-6.65,.31-13.49-.69-19.53-3.59-5.38-2.58-9.86-6.61-13.74-11.09-.12-.14-.23-.28-.35-.42,.01,.32,.03,.64,.04,.96,.19,5.1,.32,10.2,.3,15.3,0,2.38-.05,4.77-.17,7.14-.1,1.96-.1,4.1-.61,6.01-.21,.8-.92,1.6-1.4,2.24-1.16,1.55-2.47,2.98-3.87,4.32-.33,.31-.66,.61-1,.91,.07,.05,.13,.11,.19,.16,4.14,3.37,8.63,6.32,13.39,8.75,6.05,3.08,12.57,5.28,19.32,6.16,7.96,1.03,16.1,.17,23.66-2.53,8.32-2.96,15.78-7.88,22.36-13.74-1.71-1.24-3.25-2.71-4.58-4.42Z"/><path class="cls-1" d="M500,465.54c0-.07,.01-.12,.02-.18-.02-.03-.03-.06-.05-.1,.02,.1,.04,.2,.03,.28Z"/><path class="cls-1" d="M213.1,493.1c-1.1,1.01-2.22,2.01-3.36,2.99,.1,2.12,.21,4.25,.33,6.37,1.1,18.89,3.04,37.74,6,56.43,.02-.42,.03-.85,.05-1.27,.52-13.78,1.38-27.55,2.77-41.27,.78-7.72,1.73-15.43,3.06-23.08-2.12-.85-4.26-1.67-6.4-2.48-.81,.78-1.62,1.56-2.44,2.32Z"/><path class="cls-1" d="M212.08,489.48c0,.79-.25,1.58-.68,1.51-.64-.11-1.27-.26-1.89-.41,.03,.8,.07,1.61,.1,2.41,1.18-1.02,2.34-2.07,3.49-3.13-.34-.12-.68-.25-1.01-.37Z"/><path class="cls-1" d="M499.86,464.99c.04,.07,.06,.15,.09,.23,0,.02,.01,.03,.02,.04-.02-.11-.06-.23-.07-.32-.01-.07-.02-.15-.03-.22-.03,.11-.05,.23-.02,.27Z"/><path class="cls-1" d="M240.39,472.02c.64-12.89,1.74-25.76,3.2-38.59,.43-3.78,1.08-7.42,1.79-11.17,2.27-12.01,4.42-24.06,5.84-36.21,1.42-12.14,2.14-24.45,1.2-36.66-.86-11.1-2.95-22.32-7.97-32.34-4.54-9.08-11.24-16.94-18.94-23.49-7.87-6.7-16.78-12.35-26.16-16.67-9.99-4.6-20.9-7.98-31.96-8.35-5.18-.17-10.46,.34-15.39,2.03-2.4,.83-4.45,1.93-6.13,3.88-1.34,1.55-2.4,3.33-3.81,4.83-1.53,1.63-3.34,2.75-5.52,3.31-2.92,.74-5.97,.46-8.94,.73-4.06,.37-7.91,2.16-11.25,4.43-6.89,4.68-12,11.72-15.96,18.94-4.11,7.49-7.21,15.56-9.47,23.79-2.3,8.37-3.37,16.86-3.71,25.53-.97,24.25,2.36,48.44,3.63,72.62,1.16,22,1.57,44.58,7.46,65.95,2.73-1.19,5.47-2.34,8.24-3.44,2.69-1.07,5.39-2.09,8.11-3.08-.13-.49-.11-1.05,.01-1.5,.1-.37,.52-1.11,.91-.54,.02,.03,.05,.07,.07,.1,.33,.41,.66,.82,1,1.22,5.23-1.87,10.5-3.61,15.8-5.25,.25-.08,.44,.04,.58,.25,1.53-1.22,2.95-2.56,4.26-4.02,1.1-1.23,2.17-2.53,3.05-3.94,.17-1.06,.27-2.14,.35-3.21,.03-.39,.06-.78,.08-1.17,0,0,0,0,0,0,0-.03,0-.05,0-.09,0-.07,0-.15,.01-.22,.01-.2,.02-.39,.03-.59,.04-.86,.07-1.71,.09-2.57,.15-5.49,.06-10.99-.1-16.48-5.01-4.91-9.43-10.44-13.43-16.18-5.28-7.58-9.85-15.66-13.7-24.06-1.89-4.12-3.51-8.34-4.59-12.7-.12,.02-.24,.04-.36,.05-1.44,.14-2.98-.28-4.22-1-1.66-.98-3.12-2.6-4.29-4.11-1.55-2-2.71-4.28-3.52-6.68-1.44-4.27-1.86-9.11-.76-13.51,.38-1.51,.97-3.15,2.05-4.32,1.45-1.57,3.51-2.08,5.58-1.81,2.02,.26,4.04,1.04,5.89,2.06,0,0,0,0,0-.01,0-.16,0-.32,0-.47,0-.07,0-.14,0-.21,0,0,0,0,0-.02-.52-5.37-1.63-10.63-1.88-16.03-.34-7.24,.56-14.8,4.22-21.19,1.92-3.36,4.59-6.06,7.57-8.5,2.69-2.2,5.57-4.17,8.18-6.48,1.14-1.01,2.23-2.08,3.26-3.21-2.39-1.09-4.79-2.17-7.18-3.26-.83-.38-.57-3.34,.35-2.92,2.9,1.33,5.81,2.65,8.71,3.97,1.25-1.57,2.39-3.22,3.61-4.82,2.19-2.85,4.89-5.34,7.98-7.19,5.94-3.55,13-4.61,19.82-4.26,7.16,.36,14.2,2.14,20.98,4.41,3.25,1.09,6.45,2.32,9.61,3.63,3.07,1.27,6.2,2.54,9.11,4.16,7.6,4.22,14.15,10.55,19.06,17.68,2.3,3.34,4.31,6.95,5.67,10.78,.65,1.82,1.16,3.67,1.49,5.57,.07,.43,.15,.87,.19,1.3,0,.05,0,.09,0,.11,.02,.12,.05,.24,.07,.36,.7,3.83,1.04,7.73,1.25,11.61,.43,7.88,.09,15.81-.98,23.62-1.42,10.38-4.17,20.56-8.35,30.17-1.93,4.41-4.05,8.74-6.37,12.97-1.92,3.5-3.97,6.93-6.16,10.27-.21,4.96-.38,9.93-.5,14.89-.32,13.57-.27,27.14,.17,40.71,2.03,.72,4.05,1.46,6.07,2.22,.41-.4,.82-.8,1.23-1.21,.72-.72,1.1,.99,.92,2.02,1.64,.63,3.28,1.27,4.91,1.92,1.06-5.74,2.35-11.45,4.29-16.96,.23-.64,.68-.45,.94,0,.35,.6,.22,1.52,0,2.14-1.75,4.97-2.94,10.14-3.91,15.34,2.28,.92,4.56,1.87,6.82,2.85,3.16,1.37,6.3,2.81,9.4,4.31-.02-.63-.04-1.25-.05-1.88-.17-8.06,.04-16.13,.44-24.18Z"/><path class="cls-1" d="M267.19,518.92s.02,.03,0,0h0Z"/><path class="cls-1" d="M484.75,391.85s0,0,0,0c0,0,0,0,0,0Z"/><path class="cls-1" d="M484.76,391.83s0,0-.01,.01c0,0,0,0,0,0,0,0,0,0,0-.02Z"/><path class="cls-1" d="M484.83,391.75c.1-.13,0-.02-.04,.05,0,0,0,0,0,0,.01-.02,.03-.03,.04-.05Z"/><path class="cls-1" d="M407.41,368.22c.11-1.86,.29-3.72,.53-5.57-2.18-1.16-4.58-2.01-6.93-2.08-1.97-.06-3.91,.6-5.1,2.25-.41,.57-.68,1.12-.97,1.87-.2,.53-.52,1.73-.6,2.21-.38,2.1-.39,3.94-.15,5.99,.27,2.33,.87,4.63,1.81,6.82,1.05,2.43,2.5,4.66,4.31,6.6,1.07,1.14,2.27,2.32,3.7,3,1.25,.6,2.66,.89,4.05,.73-.05-.47-.11-.95-.16-1.42-.71-6.77-.89-13.6-.48-20.4Z"/><polygon class="cls-1" points="484.76 391.86 484.76 391.85 484.75 391.85 484.76 391.86"/><path class="cls-1" d="M484.78,391.8s0,0,0,0c0,0,0,.02,0,.02,0,0,0-.01,.01-.02Z"/><path class="cls-1" d="M484.76,391.85s0,0,.02-.01c0,0,0-.02,.01-.03,0,0,0,0,0,0,0,0-.01,.01-.02,.02,0,0,0,.02,0,.02Z"/><path class="cls-1" d="M409.77,352.14c.33-2.42,.34-4.86,.24-7.31-.34-8.74-1.87-17.71,1.33-26.14,1.42-3.73,3.86-6.95,7.13-9.24,3.13-2.19,6.85-3.51,10.62-4.07,8.86-1.32,17.56,1.65,26.12,3.47,4.33,.92,8.7,1.51,13.14,1.32,4.77-.2,9.48-1.06,14.15-2.01,7.33-1.51,14.7-3.41,22.25-2.91,5.99,.4,12.32,2.31,16.05,7.32,2.44,3.27,3.49,7.45,3.86,11.46,.42,4.57-.02,9.15-.31,13.71-.26,4.43,.39,8.84,.97,13.22,.36,2.73,.62,5.47,.8,8.22,1.72-.8,3.61-1.46,5.5-1.6,.03-.29,.1-.57,.19-.82,.58-1.5,1.13-3.02,1.63-4.56,4.2-12.91,5.77-26.62,5.63-40.16-.07-6.44-.99-12.92-4.07-18.66-1.42-2.65-3.34-4.94-5.77-6.72-2.28-1.67-4.85-2.89-7.44-4-2.81-1.2-5.67-2.27-8.43-3.6-2.99-1.44-5.88-3.11-8.63-4.98-2.75-1.87-5.34-3.96-7.79-6.21-2.14-1.97-4.53-3.62-7.12-4.93-5.19-2.63-10.97-3.83-16.73-4.32-6.03-.51-11.99-.03-18.02,.18-7.3,.26-14.61-.29-21.76-1.76-5.34-1.1-10.51-2.76-15.56-4.78,3.44,4.38,7.43,8.31,12.13,11.35,.58,.37,.73,3.17-.18,2.98-3.83-.83-7.78-.79-11.65-.25-7.12,.99-14.04,3.55-20.38,6.89-3.33,1.76-6.43,4.22-10.06,5.35-2.27,.7-4.57,.77-6.87,.61,.94,.95,1.87,1.93,2.78,2.91,.97,1.04,1.93,2.15,3.08,3.01,4.15,3.12,9.25,5.71,14.47,6.24,.97,.1,.9,3.09,0,3.03-.77-.05-1.33,.88-1.65,1.51-.75,1.47-1.16,2.84-1.59,4.41-.94,3.41-1.56,6.78-2.1,10.23-.37,2.37-.73,4.74-.94,7.13-1.13,13.29,1.58,26.56,4.7,39.41,.04,.16,.07,.37,.09,.59,.75-.11,1.52-.13,2.3-.04,2.22,.26,4.44,1.08,6.48,2.17,.03-.17,.05-.35,.09-.52,.44-2.37,.98-4.73,1.3-7.13Z"/><path class="cls-1" d="M185.25,391.85s0,0,.02-.01c0,0,0-.02,.01-.03,0,0,0,0,0,0,0,0-.01,.01-.02,.02,0,0,0,.02,0,.02Z"/><path class="cls-1" d="M185.24,391.85s0,0,0,0c0,0,0,0,0,0Z"/><path class="cls-1" d="M108.1,376.85c.22-2.08,.52-4.16,.86-6.22-1.92-1.05-4.03-1.83-6.12-1.93-1.73-.08-3.46,.44-4.53,1.87-.77,1.03-1.14,2.21-1.39,3.56,0,.02-.05,.27-.05,.27-.01,.1-.03,.19-.04,.29-.03,.22-.06,.44-.08,.67-.02,.21-.04,.42-.05,.63,0,.03-.02,.4-.02,.44-.03,1.05,0,1.78,.1,2.74,.22,2.03,.74,4.04,1.56,5.95,.9,2.1,2.15,4.03,3.71,5.71,.93,1,1.97,2.03,3.21,2.64,.99,.49,2.09,.75,3.19,.7-.3-1.61-.52-3.24-.64-4.9-.31-4.14-.14-8.29,.3-12.41Z"/><path class="cls-1" d="M185.31,391.75c.1-.13,0-.02-.04,.05,0,0,0,0,0,0,.01-.02,.03-.03,.04-.05Z"/><path class="cls-1" d="M353.54,513.42s.03-.04,.04-.05c0,0,0,0,0,0-.01,.02-.02,.03-.04,.05Z"/><path class="cls-1" d="M185.27,391.8s0,0,0,0c0,0,0,.02,0,.02,0,0,0-.01,.01-.02Z"/><path class="cls-1" d="M185.25,391.83s0,0-.01,.01c0,0,0,0,0,0,0,0,0,0,0-.02Z"/><path class="cls-1" d="M192.56,450.49c-.09,3.37-.16,6.73-.16,10.1,0,2.61,.03,5.23,.13,7.84,.07,1.82,.17,3.63,.46,5.66,.07-.16,.19-.18,.14,.6,.16,.35,.33,.7,.51,1.04,.05,.09,.1,.18,.15,.27,.01,.02,.01,.03,.02,.04,0,0,0,0,.01,.02,.08,.13,.15,.26,.23,.39,.21,.35,.43,.7,.67,1.03,.54,.79,1.12,1.54,1.74,2.26,.91,1.05,1.91,2,2.97,2.86,.15-.27,.36-.43,.63-.34,2.32,.77,4.63,1.56,6.94,2.36,.33,.11,.65,.23,.97,.35-.5-15.6-.47-31.21,.03-46.8,.07-2.06,.14-4.12,.22-6.17-2.53,3.7-5.23,7.28-8.16,10.67-2.35,2.73-4.84,5.37-7.51,7.83Z"/><path class="cls-1" d="M193.12,474.87c0-.07,.01-.13,.02-.19-.01-.03-.02-.05-.04-.07,.02,.09,.03,.18,.02,.26Z"/><path class="cls-1" d="M217.13,346.96c.53,.21,.54,1.43,.47,1.86-.01,.06-.02,.12-.03,.19-.64,4.75-1.49,9.49-2.13,14.24-1.49,11.1-2.68,22.23-3.64,33.39-.84,9.75-1.49,19.51-1.96,29.28,4.37-6.83,8.16-14.03,11.41-21.45,2.07-4.77,3.79-9.67,5.15-14.69,2.34-8.68,3.63-17.64,3.91-26.62,.18-5.99-.02-11.58-.76-17.45-.14-1.12-.36-2.24-.51-3.36,0,.04,0-.01-.04-.31,.01,.1,.03,.21,.04,.31,0-.04-.02-.17-.03-.24-.11-.56-.16-1.13-.25-1.69-.27-1.64-.74-3.26-1.32-4.81-2.87-7.74-8.16-14.66-14.23-20.18-3.13-2.84-6.56-5.38-10.28-7.39-2.84-1.53-5.87-2.75-8.85-3.98-6.34-2.62-12.85-4.91-19.56-6.38-6.71-1.46-13.77-2.15-20.56-.82-6.81,1.33-12.85,4.95-17.07,10.49-.76,1-1.49,2.02-2.23,3.02,14.17,6.44,28.35,12.85,42.56,19.2,13.24,5.92,26.45,11.99,39.92,17.39Z"/><path class="cls-1" d="M164.04,460.31c2.97,.28,5.99-.13,8.85-.94,6.68-1.87,12.65-5.96,17.82-10.48,.19-.17,.38-.35,.57-.52,.13-4.25,.31-8.5,.55-12.75,.02-.35,.07-1.51,.67-1.51s.69,1.13,.67,1.51c-.17,2.97-.29,5.93-.41,8.9-.03,.86-.06,1.72-.09,2.58,5.59-5.23,10.44-11.24,14.76-17.54,.33-.48,.65-.97,.97-1.45,.55-12.29,1.39-24.57,2.51-36.82,.97-10.58,2.16-21.13,3.62-31.65,.47-3.36,.95-6.71,1.51-10.05-6.18-2.49-12.29-5.19-18.39-7.86-16.01-7.02-31.95-14.2-47.87-21.41-5.64-2.55-11.26-5.11-16.9-7.67-.09,.11-.17,.22-.26,.32-1.33,1.57-2.77,3.05-4.29,4.43-2.54,2.31-5.36,4.26-8.03,6.4-2.93,2.34-5.61,4.91-7.55,8.15-1.76,2.93-2.86,6.26-3.41,9.63-1.02,6.23-.39,12.37,.54,18.6,.31,2.1,.71,4.2,.85,6.32,.05,.7,.03,1.37-.04,2.05,.48,.31,.95,.63,1.4,.96,.52,.39,.54,1.3,.47,1.86-.03,.27-.31,1.44-.82,1.06-.47-.35-.97-.7-1.49-1.03-.3,1.83-.57,3.67-.78,5.51-.66,5.71-.68,11.4,.38,16.99,1.75-.6,3-2.16,3.84-3.78,.27-.54,.68-.55,.94,0,.29,.59,.3,1.55,0,2.14-.94,1.84-2.28,3.62-4.15,4.45,.14,.52,.28,1.04,.44,1.56,1.02,3.37,2.4,6.62,3.87,9.8,1.83,3.96,3.82,7.84,5.97,11.64,4.53,7.98,9.76,15.62,15.81,22.53,1.32,1.51,2.69,3,4.12,4.45,0-.11,0-.22-.01-.32-.13-3.58-.27-7.16-.47-10.74-.02-.35,.1-1.51,.67-1.51,.6,0,.64,1.12,.67,1.51,.18,3.17,.31,6.33,.43,9.5,.04,.97,.07,1.95,.1,2.92,3.83,3.7,8.05,7.02,12.77,9.41,2.88,1.46,5.97,2.55,9.2,2.85Zm36.7-98.23c-.03,.27-.31,1.44-.82,1.06-.38-.28-.8-.52-1.21-.75-1.67-.91-3.5-1.52-5.38-1.83,.16,.07,.31,.17,.45,.32-.51,.51-1.02,1.02-1.02,2.04,0,1.53,1.02,2.55,2.55,2.55,.51,0,1.53-.51,2.04-1.02,.51,.51,.51,1.53,.51,2.04,0,3.56-2.55,6.11-6.11,6.11s-6.11-2.55-6.11-6.11,2.55-6.11,6.11-6.11c-.02,0-.04,0-.06,0-4.11-.28-8.05,.98-11.53,3.11-.81,.5-1.15-2.43-.35-2.92,2.18-1.34,4.55-2.37,7.07-2.89,3.23-.67,6.57-.41,9.67,.69,1.29,.45,2.63,1.04,3.73,1.86,.51,.39,.54,1.29,.47,1.86Zm-30.38,35.69c1.46-.19,2.91-.43,4.35-.74,3.3-.72,6.86-1.8,9.48-4.04,.34-.29,.66-.67,1.03-1.14-.06-.04,0-.06,.03-.05,0-.02,0-.03,.02-.05l.04-.18c.1-.63-.03-1.32-.32-2.08-.7-1.83-1.98-3.42-3.35-4.8-.7-.71-1.51-1.29-2.19-2.01-2.42-2.59-3.59-6.33-4.4-9.7-1.49-6.18-1.99-12.68-1.95-19.02,0-.13,0-.26,0-.39,.01-.41,.05-.98,.33-1.31,.26-.3,.71-.48,1.04-.67,.69-.4,1.39-.78,2.11-1.14,2.51-1.27,5.14-2.3,7.86-2.99,4.13-1.05,8.49-1.23,12.65-.23,3.89,.94,8.03,2.86,10.78,5.88,.44,.48,.39,1.51,.24,2.07-.12,.44-.47,1.03-.91,.54-.04-.04-.08-.08-.11-.12-.05-.05-.09-.09-.14-.14-.01-.01-.02-.02-.02-.02-.01-.01-.03-.02-.05-.04-.42-.38-.86-.75-1.31-1.1-3.22-2.47-7.11-4.02-11.13-4.51-7.06-.87-13.96,1.46-20.01,4.97,0,2.92,.16,5.56,.44,8.4,.47,4.76,1.16,9.68,3.3,14.03,.69,1.39,1.57,2.58,2.74,3.59,1.78,1.54,3.37,3.34,4.48,5.43,.67,1.26,1.12,2.67,1.24,4.1,.09,1.17,.07,2.6-.43,3.69-.33,.71-.93,1.3-1.5,1.8-1.31,1.17-2.91,1.99-4.53,2.64-3.13,1.26-6.48,1.94-9.81,2.37-.86,.11-.99-2.9,0-3.03Zm-47.22-45.09c3.78-2.34,7.91-4.12,12.27-5.01,5.54-1.13,11.27-.71,16.6,1.15,2.27,.79,4.62,1.81,6.55,3.27,.51,.39,.54,1.29,.47,1.86-.03,.27-.31,1.44-.82,1.06-.65-.49-1.36-.9-2.07-1.29-3.8-2.08-8.06-3.29-12.37-3.59-7.21-.5-14.18,1.7-20.27,5.47-.8,.5-1.15-2.43-.35-2.92Zm7.93,7.87c2.18-1.34,4.55-2.37,7.07-2.89,3.23-.67,6.57-.41,9.67,.69,1.29,.45,2.63,1.04,3.73,1.86,.51,.39,.54,1.29,.47,1.86-.03,.27-.31,1.44-.82,1.06-.38-.28-.8-.52-1.21-.75-2.16-1.18-4.57-1.86-7.03-2.02-4.11-.28-8.05,.98-11.53,3.11-.81,.5-1.15-2.43-.35-2.92Zm10.63,12.03c-3.56,0-6.11-2.55-6.11-6.11s2.55-6.11,6.11-6.11c1.02,0,1.53,0,2.04,.51-.51,.51-1.02,1.02-1.02,2.04,0,1.53,1.02,2.55,2.55,2.55,.51,0,1.53-.51,2.04-1.02,.51,.51,.51,1.53,.51,2.04,0,3.56-2.55,6.11-6.11,6.11Zm2.84,49.1c-.52-.38-.54-1.3-.47-1.86,.03-.28,.31-1.44,.82-1.06,.84,.62,1.75,1.15,2.65,1.66,4.7,2.65,9.92,4.43,15.28,5.06,8.19,.96,16.25-1.05,23.2-5.46,.79-.5,1.15,2.42,.35,2.92-4.21,2.67-8.89,4.57-13.83,5.37-6.68,1.08-13.53,.08-19.81-2.36-2.84-1.1-5.74-2.46-8.2-4.28Z"/><path class="cls-1" d="M193,474.09c-.03,.08-.05,.19-.02,.24,.04,.07,.07,.17,.1,.24,0,.01,.01,.02,.02,.03-.03-.15-.07-.31-.09-.44,0-.03,0-.06-.01-.08Z"/><polygon class="cls-1" points="185.25 391.86 185.25 391.85 185.24 391.85 185.25 391.86"/><path class="cls-6" d="M524.34,337.74c-.02,.35-.27,1.33-.82,1.06-.41-.2-.49-.84-.48-1.37-.22,4.54,.28,9.02,.88,13.51,.4,2.96,.71,5.92,.9,8.89,.14-.08,.29-.15,.43-.23,.28-.14,.57-.28,.86-.42-.18-2.75-.44-5.49-.8-8.22-.58-4.38-1.24-8.79-.97-13.22Z"/><path class="cls-6" d="M524.98,363.09c.24,7.66-.02,15.36-1.05,22.96-.16,1.16-.34,2.33-.53,3.49,.42,.2,.87,.35,1.35,.44,.8-4.86,1.26-9.78,1.49-14.68,.21-4.38,.23-8.77,.04-13.14-.44,.2-.88,.42-1.31,.65,0,.1,.01,.19,.01,.29Z"/><path class="cls-6" d="M523.52,338.79c.55,.27,.8-.71,.82-1.06,.03-.5,.1-1.59-.47-1.86-.55-.27-.8,.71-.82,1.06,0,.17-.01,.33-.02,.49,0,.52,.07,1.17,.48,1.37Z"/><path class="cls-6" d="M448.11,451.88c6.04,2.9,12.88,3.9,19.53,3.59,5.83-.28,11.55-1.84,16.72-4.57,5.24-2.77,9.82-6.63,13.89-10.91,.04-1.16,.09-2.31,.13-3.47-6.03,6.52-13.19,12.02-21.82,14.47-6.02,1.71-12.49,1.91-18.65,.9-5.89-.97-11.36-3.38-16.05-7.07-2.97-2.34-5.58-5.09-8-8.01,.05,1.19,.1,2.38,.15,3.57,.12,.14,.23,.28,.35,.42,3.88,4.47,8.36,8.5,13.74,11.09Z"/><path class="cls-6" d="M523.04,337.42c0-.16,0-.33,.02-.49,0,.13-.02,.31-.02,.49Z"/><path class="cls-6" d="M410.83,354.38c.39-2.37,.57-4.75,.56-7.14-.01-4.74-.64-9.46-.74-14.2-.09-3.82,.15-7.71,1.34-11.37,1.2-3.69,3.49-6.89,6.64-9.15,6.72-4.83,15.23-5.01,23.09-3.63,8.49,1.5,16.76,4.53,25.48,4.35,9.26-.19,18.18-2.96,27.27-4.42,5.82-.93,12.18-1.09,17.81,.89,2.76,.97,5.37,2.51,7.28,4.76,2.39,2.82,3.43,6.47,3.8,10.1,.41,4.11-.02,8.26-.29,12.37,.02-.35,.27-1.33,.82-1.06,.56,.28,.5,1.36,.47,1.86,.29-4.57,.74-9.14,.31-13.71-.37-4.01-1.43-8.19-3.86-11.46-3.73-5.01-10.06-6.92-16.05-7.32-7.55-.5-14.91,1.41-22.25,2.91-4.67,.96-9.38,1.81-14.15,2.01-4.44,.19-8.81-.4-13.14-1.32-8.56-1.81-17.26-4.78-26.12-3.47-3.77,.56-7.49,1.88-10.62,4.07-3.27,2.29-5.71,5.51-7.13,9.24-3.2,8.42-1.66,17.4-1.33,26.14,.09,2.44,.08,4.88-.24,7.31-.32,2.39-.87,4.75-1.3,7.13-.03,.17-.06,.35-.09,.52,.44,.24,.87,.49,1.29,.74,.37-2.05,.82-4.09,1.17-6.15Z"/><path class="cls-6" d="M429.76,431.51c-4.19-5.67-8.11-11.52-12.4-17.1-3.47-4.52-5.21-10.15-6.45-15.63-.46-2.04-.83-4.1-1.15-6.16-.42,.18-.87,.32-1.34,.4,.75,5.29,1.89,10.56,3.76,15.56,.97,2.59,2.16,5.14,3.74,7.42,2.06,2.97,4.34,5.81,6.45,8.75,3.35,4.69,6.6,9.49,10.25,13.97-.05-1.22-.11-2.44-.17-3.66-.92-1.16-1.81-2.34-2.68-3.53Z"/><path class="cls-6" d="M517.94,407.7c-1.76,3.68-3.95,7.17-6.1,10.63-2.05,3.29-4.2,6.53-6.49,9.66-1.74,2.37-3.59,4.72-5.56,6.97-.04,.95-.08,1.91-.12,2.86,0,.22-.01,.44-.02,.65,4.87-5.38,9.04-11.37,12.87-17.52,2.21-3.55,4.45-7.14,6.27-10.9,1.64-3.39,2.89-6.96,3.9-10.58,.6-2.17,1.1-4.36,1.54-6.57-.48-.13-.93-.3-1.35-.52-1.06,5.28-2.61,10.47-4.93,15.33Z"/><path class="cls-6" d="M409.21,363.38c-.41-.25-.84-.5-1.27-.73-.24,1.85-.42,3.7-.53,5.57-.41,6.79-.23,13.63,.48,20.4,.05,.47,.11,.95,.16,1.42,.08-.01,.17-.02,.25-.03,.38-.06,.73-.16,1.07-.29-.43-3.56-.69-7.15-.79-10.73-.16-5.27-.07-10.43,.63-15.6Z"/><path class="cls-6" d="M531.81,358.9c-.19-.39-.24-.86-.19-1.32-1.9,.14-3.78,.8-5.5,1.6,.06,.99,.12,1.98,.16,2.97,1.35-.62,2.76-1.11,4.17-1.38,2.14-.4,4.5-.25,6.16,1.32,1.09,1.03,1.6,2.4,1.94,3.7,.26,.98,.36,1.57,.47,2.65,.09,.91,.11,1.89,.07,3.01-.03,.78-.18,2.13-.36,3.07-.22,1.19-.53,2.38-.92,3.52-.84,2.43-2.07,4.72-3.66,6.75-1.22,1.56-2.71,3.2-4.43,4.23-1.24,.74-2.71,1.14-4.15,1.07-.28-.01-.55-.05-.82-.1-.16,.98-.34,1.95-.53,2.92,.1,.03,.19,.05,.29,.08,1.65,.36,3.4,0,4.92-.71,1.56-.73,2.85-2.04,4.01-3.27,1.98-2.1,3.56-4.58,4.69-7.23,2.04-4.78,2.85-10.31,2-15.45-.33-2.01-.88-4.04-1.99-5.77-1.1-1.72-2.9-2.74-4.9-2.95-.16,.43-.32,.87-.48,1.3-.23,.6-.7,.5-.94,0Z"/><path class="cls-6" d="M524.82,359.82c.06,.99,.11,1.98,.15,2.98,.43-.23,.87-.45,1.31-.65-.04-.99-.09-1.98-.16-2.97-.29,.14-.58,.28-.86,.42-.15,.07-.29,.15-.43,.23Z"/><path class="cls-6" d="M523.39,389.53c-.16,.95-.33,1.89-.52,2.84,.42,.22,.87,.39,1.35,.52,.19-.97,.37-1.94,.53-2.92-.48-.09-.93-.24-1.35-.44Z"/><path class="cls-6" d="M404,389.31c-1.43-.69-2.63-1.86-3.7-3-1.81-1.93-3.26-4.17-4.31-6.6-.94-2.19-1.55-4.49-1.81-6.82-.23-2.05-.22-3.89,.15-5.99,.09-.48,.4-1.68,.6-2.21,.29-.76,.56-1.3,.97-1.87,1.19-1.64,3.12-2.31,5.1-2.25,2.36,.07,4.75,.91,6.93,2.08,.13-.96,.27-1.91,.44-2.86-2.05-1.09-4.27-1.91-6.48-2.17-.78-.09-1.55-.08-2.3,.04,.04,.53-.01,1.16-.33,1.49-.45,.47-.8-.09-.91-.54-.05-.2-.09-.4-.14-.59-.96,.35-1.85,.9-2.58,1.72-1.19,1.33-1.85,3.16-2.27,4.87-1.21,4.94-.74,10.35,.88,15.14,.93,2.76,2.28,5.38,4.08,7.68,1.31,1.67,2.95,3.5,4.81,4.57,1.41,.81,3.14,1.28,4.77,1.12,.18-.02,.35-.04,.52-.07-.14-.99-.27-1.98-.38-2.98-1.38,.17-2.79-.12-4.05-.73Z"/><path class="cls-6" d="M409.37,389.71c-.34,.13-.7,.23-1.07,.29-.08,.01-.17,.02-.25,.03,.11,.99,.24,1.98,.38,2.98,.47-.09,.92-.22,1.34-.4-.15-.96-.28-1.93-.4-2.9Z"/><path class="cls-6" d="M409.54,361.21c.04-.23,.08-.46,.12-.68-.42-.26-.85-.51-1.29-.74-.17,.95-.31,1.91-.44,2.86,.43,.23,.86,.48,1.27,.73,.1-.72,.21-1.44,.33-2.17Z"/><path class="cls-6" d="M96.91,374.13s0,.01-.01,.07c0-.02,0-.05,.01-.07Z"/><path class="cls-6" d="M96.69,376.05s0-.04,0-.06c0,0,0,0,0,.06Z"/><path class="cls-6" d="M105.26,393.46c-1.24-.61-2.28-1.64-3.21-2.64-1.56-1.68-2.81-3.61-3.71-5.71-.82-1.91-1.34-3.91-1.56-5.95-.11-.96-.14-1.68-.1-2.74,0-.04,.02-.4,.02-.44,0,.02,0,.04,0,.06,0-.05,0-.06,0-.06,.01-.21,.03-.42,.05-.63,.02-.22,.05-.44,.08-.67,.01-.1,.03-.19,.04-.29,0,0,.04-.25,.05-.27,0,.02,0,.05-.01,.07,.01-.06,.01-.08,.01-.07,.26-1.35,.62-2.53,1.39-3.56,1.07-1.43,2.8-1.95,4.53-1.87,2.09,.1,4.21,.88,6.12,1.93,.06-.38,.12-.76,.19-1.14,.09-.52,.19-1.05,.28-1.57,0-.04,.01-.09,.01-.13-1.85-1.02-3.87-1.8-5.89-2.06-2.07-.27-4.13,.24-5.58,1.81-1.08,1.17-1.67,2.81-2.05,4.32-1.1,4.4-.68,9.24,.76,13.51,.81,2.4,1.97,4.68,3.52,6.68,1.17,1.51,2.63,3.13,4.29,4.11,1.24,.73,2.79,1.14,4.22,1,.12-.01,.24-.03,.36-.05-.24-.98-.45-1.97-.64-2.96-1.1,.05-2.2-.21-3.19-.7Z"/><path class="cls-6" d="M380.75,279.19c2.31,.16,4.61,.09,6.87-.61,3.63-1.12,6.72-3.59,10.06-5.35,6.34-3.35,13.25-5.91,20.38-6.89,3.87-.54,7.82-.58,11.65,.25,.91,.2,.76-2.6,.18-2.98-4.7-3.04-8.68-6.98-12.13-11.35-1.22-.49-2.43-.99-3.64-1.52l.51-2.77c.99,1.46,2.03,2.9,3.13,4.29,5.04,2.02,10.22,3.68,15.56,4.78,7.16,1.47,14.47,2.02,21.76,1.76,6.03-.21,11.99-.69,18.02-.18,5.76,.48,11.54,1.69,16.73,4.32,2.59,1.31,4.98,2.96,7.12,4.93,2.45,2.25,5.04,4.34,7.79,6.21,2.75,1.87,5.63,3.54,8.63,4.98,2.75,1.33,5.62,2.4,8.43,3.6,2.59,1.1,5.16,2.33,7.44,4,2.43,1.78,4.35,4.07,5.77,6.72,3.08,5.75,4,12.22,4.07,18.66,.14,13.54-1.43,27.25-5.63,40.16-.5,1.53-1.05,3.05-1.63,4.56-.1,.25-.16,.53-.19,.82,.41-.03,.82-.05,1.23-.03,.13,0,.26,.03,.39,.04,4.7-12.7,6.74-26.31,7.11-39.8,.34-12.43-.6-27.84-12.36-35.13-2.49-1.55-5.21-2.68-7.92-3.79-3.02-1.23-6.02-2.49-8.9-4.03-2.97-1.59-5.82-3.41-8.52-5.43-2.61-1.95-4.89-4.28-7.47-6.26-9.5-7.32-22.25-8.23-33.8-7.72-3.48,.15-6.94,.41-10.43,.39-3.8-.02-7.6-.27-11.36-.76-6.84-.89-13.53-2.62-19.96-5.11-1.74-.67-3.46-1.39-5.16-2.14-1.09-.48-.81,2.33-.51,2.77,3.06,4.53,6.62,8.79,10.78,12.35,1.67,.07,3.33,.26,4.97,.62l-.18,2.98c-1.68-1.09-3.28-2.3-4.8-3.6-5.42-.23-10.91,.92-16.03,2.57-3.36,1.08-6.64,2.43-9.81,4-1.53,.76-3.04,1.58-4.51,2.45-1.68,1-3.32,2.1-5.1,2.93-4.25,1.97-8.74,1.31-13.22,.78,1.42,.21,2.63,1.5,3.61,2.44,.37,.35,.72,.72,1.08,1.09Z"/><path class="cls-6" d="M379.67,278.1c-.98-.94-2.2-2.23-3.61-2.44v3.03c1.56,.19,3.13,.39,4.7,.5-.36-.36-.71-.74-1.08-1.09Z"/><path class="cls-6" d="M401.08,291.35v3.03c.9,.06,.97-2.93,0-3.03Z"/><path class="cls-6" d="M414.11,250.74c1.21,.53,2.42,1.03,3.64,1.52-1.09-1.39-2.14-2.82-3.13-4.29l-.51,2.77Z"/><path class="cls-6" d="M401.08,291.35c-.92-.06-1.63,.79-2.07,1.49-.22,.35-.42,.71-.6,1.09,.88,.2,1.77,.36,2.68,.46v-3.03Z"/><path class="cls-6" d="M429.7,263.56c-1.64-.36-3.3-.55-4.97-.62,1.52,1.3,3.11,2.51,4.8,3.6l.18-2.98Z"/><path class="cls-6" d="M401.08,291.35c-5.22-.53-10.31-3.12-14.47-6.24-1.14-.86-2.1-1.97-3.08-3.01-.92-.98-1.84-1.95-2.78-2.91-1.57-.11-3.13-.31-4.7-.5,1.14,.17,2.26,1.39,3.06,2.14,1.31,1.23,2.52,2.57,3.75,3.88,1.03,1.09,2.04,2.26,3.23,3.19,1.96,1.54,4.22,2.83,6.47,3.91,1.87,.9,3.83,1.63,5.84,2.1,.18-.37,.38-.74,.6-1.09,.44-.7,1.15-1.55,2.07-1.49Z"/><path class="cls-6" d="M399.5,357.06c-3.12-12.85-5.83-26.12-4.7-39.41,.2-2.39,.56-4.77,.94-7.13,.55-3.45,1.17-6.82,2.1-10.23,.43-1.57,.85-2.94,1.59-4.41,.32-.63,.88-1.56,1.65-1.51-.9-.09-1.79-.25-2.68-.46-.48,.97-.84,1.99-1.17,3.01-1.16,3.56-1.85,7.27-2.48,10.96-.45,2.65-.86,5.32-1.15,8-.68,6.44-.44,12.98,.29,19.4,.87,7.66,2.5,15.22,4.31,22.71,.45-.16,.91-.28,1.38-.35-.02-.22-.05-.42-.09-.59Z"/><path class="cls-6" d="M376.05,278.69v-3.03c-.86-.1-.98,2.88,0,3.03Z"/><path class="cls-6" d="M531.62,357.58c-.05,.46,0,.93,.19,1.32,.25,.5,.71,.6,.94,0,.17-.43,.32-.87,.48-1.3-.13-.01-.26-.03-.39-.04-.41-.02-.82,0-1.23,.03Z"/><path class="cls-6" d="M399.26,359.13c.32-.33,.37-.95,.33-1.49-.47,.07-.94,.19-1.38,.35,.05,.2,.09,.4,.14,.59,.11,.46,.47,1.01,.91,.54Z"/><path class="cls-6" d="M469.88,400.8c3.33-.44,6.68-1.11,9.81-2.37,1.62-.65,3.22-1.48,4.53-2.64,.57-.51,1.18-1.1,1.5-1.8,.5-1.09,.53-2.52,.43-3.69-.11-1.43-.56-2.84-1.24-4.1-1.11-2.09-2.69-3.89-4.48-5.43-1.17-1.01-2.05-2.2-2.74-3.59-2.15-4.34-2.84-9.27-3.3-14.03-.28-2.85-.45-5.48-.44-8.4-.16,.09-.32,.18-.48,.28,.16-.49,.33-.97,.49-1.46,0,.4-.01,.8-.01,1.19,6.04-3.51,12.95-5.84,20.01-4.97,4.02,.5,7.91,2.04,11.13,4.51,.45,.35,.89,.72,1.31,1.1,.02,.02,.04,.03,.05,.04-.02-.02,.11,.09,0,0,0,0,.01,.01,.02,.02,.05,.05,.09,.09,.14,.14,.04,.04,.08,.08,.11,.12,.44,.49,.8-.11,.91-.54,.15-.57,.2-1.59-.24-2.07-2.75-3.02-6.88-4.94-10.78-5.88-4.16-1-8.51-.82-12.65,.23-2.73,.69-5.36,1.72-7.86,2.99-.71,.36-1.41,.74-2.11,1.14-.33,.19-.79,.37-1.04,.67-.28,.33-.32,.9-.33,1.31,0,.13,0,.26,0,.39-.04,6.35,.45,12.85,1.95,19.02,.81,3.37,1.98,7.11,4.4,9.7,.68,.72,1.49,1.31,2.19,2.01,1.36,1.38,2.65,2.97,3.35,4.8,.29,.76,.43,1.45,.32,2.08-.01,.06-.03,.12-.04,.18,0,.02-.01,.03-.02,.05,0,0,0,0,0,0,.05-.07,.15-.18,.04-.05-.01,.02-.03,.03-.04,.05,0,0,.01,0,0,0,0,0,0,.02-.01,.03-.01,0-.02,.01-.02,.01,0,0,0,0,0,0,0,0,0,0,.01,0-.04,.09-.04,.09-.01,0,0,0,0,0,0,0,0,0,0,0,0,0,0,0,0,0,0,0-.37,.47-.69,.85-1.03,1.14-2.62,2.24-6.18,3.32-9.48,4.04-1.44,.31-2.89,.55-4.35,.74-.99,.13-.86,3.14,0,3.03Z"/><path class="cls-6" d="M484.76,391.83s0,.02,0,.02c0,0,0,0,0,0,0,0,0,0,0,0,0,0,0-.02,0-.02,0,0,0,0,0,.01Z"/><path class="cls-6" d="M484.77,391.82s0,.01,0,.01c0,0,0,0,0-.01,0,0,0,0,0,0Z"/><path class="cls-6" d="M484.77,391.82s.01-.01,.02-.02c0,0,0,0,0,0,0,0,0,.01-.01,.02,0,0,0,0,0,0Z"/><path class="cls-6" d="M484.77,391.82s0-.02,0-.02c-.04,0-.09,0-.03,.05,0,0,0,0,.01-.01,0,0,0,0,0-.01Z"/><path class="cls-6" d="M484.77,391.87s0,0-.01,0c-.03,.1-.02,.1,.01,0Z"/><path class="cls-6" d="M506.45,355.43c.11,.09-.02-.02,0,0h0Z"/><path class="cls-6" d="M473.48,355.01c.16-.09,.32-.18,.48-.28,0-.39,0-.78,.01-1.19-.16,.49-.33,.97-.49,1.46Z"/><path class="cls-6" d="M443.29,350.14c4.31,.3,8.58,1.51,12.37,3.59,.71,.39,1.42,.8,2.07,1.29,.51,.38,.79-.79,.82-1.06,.07-.57,.05-1.48-.47-1.86-1.93-1.45-4.29-2.48-6.55-3.27-5.33-1.86-11.06-2.28-16.6-1.15-4.37,.89-8.49,2.67-12.27,5.01-.8,.49-.45,3.42,.35,2.92,6.1-3.77,13.06-5.97,20.27-5.47Z"/><path class="cls-6" d="M444.41,415.35c-.51-.38-.79,.78-.82,1.06-.07,.57-.05,1.48,.47,1.86,2.46,1.82,5.36,3.18,8.2,4.28,6.28,2.43,13.13,3.44,19.81,2.36,4.93-.8,9.62-2.7,13.83-5.37,.79-.5,.44-3.42-.35-2.92-6.95,4.41-15.01,6.42-23.2,5.46-5.36-.63-10.58-2.41-15.28-5.06-.91-.51-1.82-1.05-2.65-1.66Z"/><path class="cls-6" d="M447.33,366.48c0-.51,0-1.53-.51-2.04-.51,.51-1.53,1.02-2.04,1.02-1.53,0-2.55-1.02-2.55-2.55,0-1.02,.51-1.53,1.02-2.04-.51-.51-1.02-.51-2.04-.51-3.56,0-6.11,2.55-6.11,6.11s2.55,6.11,6.11,6.11,6.11-2.55,6.11-6.11Z"/><path class="cls-6" d="M491.26,360.37c-3.56,0-6.11,2.55-6.11,6.11s2.55,6.11,6.11,6.11,6.11-2.55,6.11-6.11c0-.51,0-1.53-.51-2.04-.51,.51-1.53,1.02-2.04,1.02-1.53,0-2.55-1.02-2.55-2.55,0-1.02,.51-1.53,1.02-2.04-.24-.24-.48-.36-.77-.43-.27-.03-.54-.06-.81-.08-.14,0-.29,0-.46,0Z"/><path class="cls-6" d="M230.2,340.85c-.02-.09-.03-.17-.05-.26-.02-.08,.06,.46,.05,.26Z"/><path class="cls-6" d="M190.71,448.89c-5.17,4.52-11.14,8.61-17.82,10.48-2.86,.8-5.88,1.21-8.85,.94-3.23-.3-6.32-1.38-9.2-2.85-4.72-2.4-8.94-5.71-12.77-9.41,.04,1.11,.07,2.22,.1,3.32,.97,.91,1.95,1.8,2.97,2.65,5.32,4.49,11.73,8.62,18.83,9.31,6.38,.62,12.81-1.78,18.22-4.99,3.21-1.9,6.21-4.15,9.02-6.62,.03-1.12,.05-2.23,.09-3.35-.19,.17-.38,.35-.57,.52Z"/><path class="cls-6" d="M136.57,442.23c-6.05-6.91-11.27-14.55-15.81-22.53-2.16-3.79-4.14-7.68-5.97-11.64-1.47-3.19-2.85-6.44-3.87-9.8-.16-.52-.3-1.04-.44-1.56-.44,.2-.91,.34-1.4,.42,1.08,4.36,2.7,8.58,4.59,12.7,3.85,8.4,8.43,16.48,13.7,24.06,3.99,5.74,8.42,11.27,13.43,16.18-.03-1.12-.07-2.25-.11-3.37-1.43-1.45-2.8-2.94-4.12-4.45Z"/><path class="cls-6" d="M109.45,367.8c.01-.1,.03-.26,0-.09,0,.02,0,.05,0,.07,0,0,0,0,0,.01,0,0,.01,0,.02,0Z"/><path class="cls-6" d="M109.45,367.8c.42,.24,.84,.48,1.24,.74,.07-.68,.08-1.35,.04-2.05-.14-2.12-.54-4.22-.85-6.32-.93-6.23-1.56-12.37-.54-18.6,.55-3.36,1.65-6.7,3.41-9.63,1.94-3.24,4.61-5.81,7.55-8.15,2.68-2.14,5.49-4.09,8.03-6.4,1.52-1.38,2.96-2.86,4.29-4.43,.09-.11,.17-.22,.26-.32-.7-.32-1.41-.64-2.11-.96-1.03,1.12-2.12,2.2-3.26,3.21-2.61,2.31-5.49,4.28-8.18,6.48-2.98,2.44-5.65,5.13-7.57,8.5-3.65,6.39-4.55,13.94-4.22,21.19,.25,5.4,1.36,10.67,1.88,16.03,0,0,0,.01,0,.02,0-.01,0-.02,0-.03,0-.25,.03,.35,0,.03,0,.07,0,.14,0,.21,0,.16,0,.32,0,.47,0-.02,0-.05,0-.07,.03-.17,.02-.01,0,.09Z"/><path class="cls-6" d="M109.43,367.07s0,.02,0,.03c.03,.32,0-.28,0-.03Z"/><path class="cls-6" d="M109.44,367.78s0,0,0,.01c0,0,0,0,0,0,0,0,0,0,0-.01Z"/><path class="cls-6" d="M109.47,376.91c.21-1.84,.48-3.68,.78-5.51-.42-.27-.85-.52-1.29-.76-.34,2.07-.63,4.14-.86,6.22-.44,4.12-.61,8.27-.3,12.41,.12,1.65,.34,3.28,.64,4.9,.18,0,.36-.02,.54-.05,.3-.04,.59-.12,.87-.21-1.07-5.59-1.04-11.28-.38-16.99Z"/><path class="cls-6" d="M192.67,447.1c-.04,1.13-.07,2.26-.1,3.39,2.66-2.46,5.16-5.1,7.51-7.83,2.92-3.4,5.63-6.97,8.16-10.67,.05-1.29,.11-2.59,.17-3.88-.32,.48-.64,.97-.97,1.45-4.32,6.3-9.17,12.31-14.76,17.54Z"/><path class="cls-6" d="M229.03,342.35c-.01-.1-.03-.21-.04-.31,.04,.3,.05,.35,.04,.31Z"/><path class="cls-6" d="M109.44,367.86s0,0,.02-.05c0,0-.01,0-.02,0,0,.02,0,.04,0,.06Z"/><path class="cls-6" d="M109.15,369.49c-.07,.38-.13,.76-.19,1.14,.44,.24,.87,.5,1.29,.76,.1-.61,.2-1.22,.31-1.82,.06-.35,.1-.69,.14-1.03-.4-.26-.82-.51-1.24-.74,0,.05-.01,.09-.02,.05,0-.02,0-.04,0-.06,0,0,0,0,0,0,0,.04,0,.09-.01,.13-.09,.52-.19,1.05-.28,1.57Z"/><path class="cls-6" d="M109.85,393.9c-.28,.1-.57,.17-.87,.21-.18,.03-.36,.04-.54,.05,.18,.99,.4,1.98,.64,2.96,.5-.08,.97-.22,1.4-.42-.24-.93-.45-1.87-.63-2.81Z"/><path class="cls-6" d="M185.26,391.87s0,0-.01,0c-.03,.1-.02,.1,.01,0Z"/><path class="cls-6" d="M206.94,355.43c.11,.09-.02-.02,0,0h0Z"/><path class="cls-6" d="M185.26,391.82s0,.01,0,.01c0,0,0,0,0-.01,0,0,0,0,0,0Z"/><path class="cls-6" d="M185.25,391.83s0,.02,0,.02c0,0,0,0,0,0,0,0,0,0,0,0,0,0,0-.02,0-.02,0,0,0,0,0,.01Z"/><path class="cls-6" d="M185.25,391.82s.01-.01,.02-.02c0,0,0,0,0,0,0,0,0,.01-.01,.02,0,0,0,0,0,0Z"/><path class="cls-6" d="M173.96,355.01c.16-.09,.32-.18,.48-.28,0-.39,0-.78,.01-1.19-.16,.49-.33,.97-.49,1.46Z"/><path class="cls-6" d="M185.26,391.82s0-.02,0-.02c-.04,0-.09,0-.03,.05,0,0,0,0,.01-.01,0,0,0,0,0-.01Z"/><path class="cls-6" d="M170.37,400.8c3.33-.44,6.68-1.11,9.81-2.37,1.62-.65,3.22-1.48,4.53-2.64,.57-.51,1.18-1.1,1.5-1.8,.5-1.09,.53-2.52,.43-3.69-.11-1.43-.56-2.84-1.24-4.1-1.11-2.09-2.69-3.89-4.48-5.43-1.17-1.01-2.05-2.2-2.74-3.59-2.15-4.34-2.84-9.27-3.3-14.03-.28-2.85-.45-5.48-.44-8.4-.16,.09-.32,.18-.48,.28,.16-.49,.33-.97,.49-1.46,0,.4-.01,.8-.01,1.19,6.04-3.51,12.95-5.84,20.01-4.97,4.02,.5,7.91,2.04,11.13,4.51,.45,.35,.89,.72,1.31,1.1,.02,.02,.04,.03,.05,.04-.02-.02,.11,.09,0,0,0,0,.01,.01,.02,.02,.05,.05,.09,.09,.14,.14,.04,.04,.08,.08,.11,.12,.44,.49,.8-.11,.91-.54,.15-.57,.2-1.59-.24-2.07-2.75-3.02-6.88-4.94-10.78-5.88-4.16-1-8.51-.82-12.65,.23-2.73,.69-5.36,1.72-7.86,2.99-.71,.36-1.41,.74-2.11,1.14-.33,.19-.79,.37-1.04,.67-.28,.33-.32,.9-.33,1.31,0,.13,0,.26,0,.39-.04,6.35,.45,12.85,1.95,19.02,.81,3.37,1.98,7.11,4.4,9.7,.68,.72,1.49,1.31,2.19,2.01,1.36,1.38,2.65,2.97,3.35,4.8,.29,.76,.43,1.45,.32,2.08l-.04,.18s-.01,.03-.02,.05c0,0,0,0,0,0,.05-.07,.15-.18,.04-.05-.01,.02-.03,.03-.04,.05,0,0,.01,0,0,0,0,0,0,.02-.01,.03-.01,0-.02,.01-.02,.01,0,0,0,0,0,0,0,0,0,0,.01,0-.04,.09-.04,.09-.01,0,0,0,0,0,0,0,0,0,0,0,0,0,0,0,0,0,0,0-.37,.47-.69,.85-1.03,1.14-2.62,2.24-6.18,3.32-9.48,4.04-1.44,.31-2.89,.55-4.35,.74-.99,.13-.86,3.14,0,3.03Z"/><path class="cls-6" d="M143.78,350.14c4.31,.3,8.58,1.51,12.37,3.59,.71,.39,1.42,.8,2.07,1.29,.51,.38,.79-.79,.82-1.06,.07-.57,.05-1.48-.47-1.86-1.93-1.45-4.29-2.48-6.55-3.27-5.33-1.86-11.06-2.28-16.6-1.15-4.37,.89-8.49,2.67-12.27,5.01-.8,.49-.45,3.42,.35,2.92,6.1-3.77,13.06-5.97,20.27-5.47Z"/><path class="cls-6" d="M142.96,360.36c2.45,.17,4.87,.85,7.03,2.02,.42,.23,.83,.47,1.21,.75,.51,.38,.79-.79,.82-1.06,.07-.57,.05-1.48-.47-1.86-1.1-.83-2.44-1.41-3.73-1.86-3.11-1.09-6.44-1.35-9.67-.69-2.52,.52-4.89,1.55-7.07,2.89-.8,.49-.45,3.42,.35,2.92,3.48-2.14,7.42-3.39,11.53-3.11Z"/><path class="cls-6" d="M200.28,360.22c-1.1-.83-2.44-1.41-3.73-1.86-3.11-1.09-6.44-1.35-9.67-.69-2.52,.52-4.89,1.55-7.07,2.89-.8,.49-.45,3.42,.35,2.92,3.48-2.14,7.42-3.39,11.53-3.11,.02,0,.04,0,.06,0h0c.73,0,1.19,0,1.58,.19,1.88,.31,3.7,.92,5.38,1.83,.42,.23,.83,.47,1.21,.75,.51,.38,.79-.79,.82-1.06,.07-.57,.05-1.48-.47-1.86Z"/><path class="cls-6" d="M442.9,360.36c2.45,.17,4.87,.85,7.03,2.02,.42,.23,.83,.47,1.21,.75,.51,.38,.79-.79,.82-1.06,.07-.57,.05-1.48-.47-1.86-1.1-.83-2.44-1.41-3.73-1.86-3.11-1.09-6.44-1.35-9.67-.69-2.52,.52-4.89,1.55-7.07,2.89-.8,.49-.45,3.42,.35,2.92,3.48-2.14,7.42-3.39,11.53-3.11Z"/><path class="cls-6" d="M500.22,360.22c-1.1-.83-2.44-1.41-3.73-1.86-3.11-1.09-6.44-1.35-9.67-.69-2.52,.52-4.89,1.55-7.07,2.89-.8,.49-.45,3.42,.35,2.92,3.48-2.14,7.42-3.39,11.53-3.11,.03,0,.07,0,.1,0,.32,0,.58,.02,.81,.08,2.14,.26,4.23,.91,6.12,1.94,.42,.23,.83,.47,1.21,.75,.51,.38,.79-.79,.82-1.06,.07-.57,.05-1.48-.47-1.86Z"/><path class="cls-6" d="M492.53,360.45c-.23-.05-.49-.07-.81-.08,.27,.02,.54,.04,.81,.08Z"/><path class="cls-6" d="M172.56,428.33c4.93-.8,9.62-2.7,13.83-5.37,.79-.5,.44-3.42-.35-2.92-6.95,4.41-15.01,6.42-23.2,5.46-5.36-.63-10.58-2.41-15.28-5.06-.91-.51-1.82-1.05-2.65-1.66-.51-.38-.79,.78-.82,1.06-.07,.56-.05,1.48,.47,1.86,2.46,1.82,5.36,3.18,8.2,4.28,6.28,2.43,13.13,3.44,19.81,2.36Z"/><path class="cls-6" d="M147.82,366.48c0-.51,0-1.53-.51-2.04-.51,.51-1.53,1.02-2.04,1.02-1.53,0-2.55-1.02-2.55-2.55,0-1.02,.51-1.53,1.02-2.04-.51-.51-1.02-.51-2.04-.51-3.56,0-6.11,2.55-6.11,6.11s2.55,6.11,6.11,6.11,6.11-2.55,6.11-6.11Z"/><path class="cls-6" d="M185.64,366.48c0,3.56,2.55,6.11,6.11,6.11s6.11-2.55,6.11-6.11c0-.51,0-1.53-.51-2.04-.51,.51-1.53,1.02-2.04,1.02-1.53,0-2.55-1.02-2.55-2.55,0-1.02,.51-1.53,1.02-2.04-.15-.15-.29-.25-.45-.32-.53-.09-1.05-.15-1.59-.19-3.56,0-6.11,2.55-6.11,6.11Z"/><path class="cls-6" d="M191.75,360.37c.53,.04,1.06,.1,1.59,.19-.39-.18-.86-.19-1.58-.19h0Z"/><path class="cls-6" d="M422.85,476.59c.17,.16,.33,.32,.5,.48,.68-.45,1.35-.92,1.99-1.42-.83,.31-1.67,.62-2.5,.94Z"/><path class="cls-6" d="M483.86,489.8c-7.57,2.69-15.7,3.56-23.66,2.53-6.75-.88-13.27-3.07-19.32-6.16-4.76-2.42-9.24-5.38-13.39-8.75-.07-.05-.13-.11-.19-.16-.63,.55-1.29,1.08-1.96,1.58,.22,.19,.44,.38,.65,.56,3.91,3.31,8.16,6.24,12.66,8.7,5.92,3.24,12.33,5.66,18.99,6.86,7.82,1.4,15.89,.99,23.52-1.25,9.91-2.91,18.73-8.6,26.31-15.53,.28-.25,.55-.51,.83-.77-.71-.41-1.4-.87-2.07-1.35-6.58,5.85-14.04,10.78-22.36,13.74Z"/><path class="cls-6" d="M423.32,473.76c.09,.09,.18,.18,.28,.26,.58,.55,1.17,1.08,1.77,1.6,1.45-1.12,2.8-2.36,4.03-3.71-.14-.43-.39-.7-.73-.58-1.89,.7-3.77,1.41-5.66,2.12,.02,.02,.04,.04,.07,.07,.05,.05,.21,.21,.24,.23Z"/><path class="cls-6" d="M353.58,513.37s.02-.02,.03-.03c0,0-.01,.01-.03,.03Z"/><path class="cls-6" d="M421.25,474.97c-.16-.18-.26-.43-.31-.71-6.99,2.68-13.92,5.48-20.78,8.47-6.9,3-13.72,6.19-20.39,9.67-4.67,2.44-9.27,5.02-13.71,7.86-2.81,1.79-5.56,3.69-8.16,5.77-1.43,1.15-2.82,2.35-4.08,3.68-.58,.61-1,1.12-1.35,1.89-2.11,4.67-3.28,9.81-4.41,14.78-1.48,6.52-2.68,13.09-3.78,19.68-1,6.01-1.91,12.03-2.76,18.06-.46,3.32-.91,6.65-1.32,9.98-.02,.15-.04,.31-.06,.46-.06,.49-.08,1.6,.47,1.86,.56,.27,.78-.72,.82-1.06,.28-2.31,.58-4.62,.9-6.93,.74-5.51,1.54-11,2.41-16.49,1.03-6.53,2.15-12.99,3.48-19.44,.62-3,1.28-6,2.04-8.97,.33-1.3,.68-2.6,1.06-3.89,.18-.6,.36-1.2,.55-1.79,.09-.27,.18-.54,.27-.81,.05-.15,.1-.3,.22-.64,.34-.95,.7-1.88,1.12-2.8,.06-.13,.15-.29,.13-.27,0,.01-.02,.02-.03,.03-.01,.01-.02,.03-.04,.05,.01-.02,.02-.03,.04-.05,0,0,0,0,0,0,.02-.02,.03-.03,.03-.03,.15-.19,.3-.37,.46-.55,.37-.42,.76-.81,1.16-1.2,.18-.18,.02-.02,.06-.06,.07-.07,.15-.14,.22-.21,.15-.14,.3-.28,.46-.42,.37-.33,.74-.66,1.12-.98,2.25-1.91,4.65-3.64,7.1-5.28,3.96-2.65,8.07-5.07,12.25-7.35,6.09-3.32,12.33-6.36,18.64-9.22,8.63-3.92,17.41-7.51,26.26-10.9,.5-.19,1.01-.38,1.51-.57-.55-.53-1.09-1.06-1.6-1.62Z"/><path class="cls-6" d="M423.32,473.76s-.03-.03-.05-.05c.05,.04,.06,.05,.05,.05Z"/><path class="cls-6" d="M425.37,475.63c-.6-.53-1.19-1.06-1.77-1.6-.09-.09-.19-.18-.28-.26,0,0,0,0-.05-.05,.02,.02,.03,.03,.05,.05-.02-.02-.19-.18-.24-.23-.02-.02-.04-.04-.07-.07-.69,.26-1.39,.52-2.08,.79,.05,.28,.14,.54,.31,.71,.51,.56,1.05,1.09,1.6,1.62,.83-.32,1.66-.63,2.5-.94,0,0,.02-.01,.03-.02Z"/><path class="cls-6" d="M509.57,472.92c-1.4-.53-2.79-1.06-4.19-1.58-.27-.1-.48,.05-.62,.33,1.06,.97,2.21,1.83,3.44,2.58,.46-.44,.93-.88,1.38-1.33Z"/><path class="cls-6" d="M578.75,511.51c-.06-.06-.04-.03,0,0,.03,.02,.04,.04,0,0Z"/><path class="cls-6" d="M580.51,513.43c-.07-.1-.1-.2-.05-.07,0,.01,.02,.02,.03,.03,0,.01,.02,.02,.02,.03Z"/><path class="cls-6" d="M593.2,570.28c-.28-2.37-.59-4.74-.9-7.11-.74-5.54-1.55-11.08-2.45-16.6-1.05-6.5-2.21-12.99-3.65-19.41-1.14-5.13-2.36-10.4-4.48-15.23-.39-.88-.74-1.41-1.38-2.1-1.13-1.21-2.38-2.32-3.66-3.37-2.34-1.93-4.82-3.68-7.35-5.34-4-2.63-8.16-5.03-12.37-7.31-6.02-3.24-12.18-6.22-18.41-9.03-8.42-3.8-16.98-7.3-25.62-10.6-.61-.23-1.22-.46-1.83-.69,.05,.6-.03,1.23-.28,1.47-.15,.15-.31,.3-.46,.45,2,.94,4.13,1.62,6.32,2.02,.48,.09,.68,.81,.68,1.53,5.07,1.99,10.11,4.05,15.11,6.21,6.77,2.93,13.48,6.03,20.04,9.4,4.65,2.39,9.24,4.92,13.68,7.68,2.93,1.82,5.81,3.75,8.55,5.86,.91,.7,1.8,1.42,2.67,2.17,.34,.29,.67,.59,1,.9,.07,.06,.13,.13,.2,.19,.03,.03,.11,.1,.15,.14-.04-.04-.07-.07,0,0,.04,.04,.03,.03,0,0,.04,.04,.09,.08,.1,.1,.06,.06,.13,.13,.19,.19,.49,.49,.98,1,1.41,1.55-.05-.14-.02-.04,.05,.07,0-.01-.02-.02-.02-.03,0-.01-.02-.02-.03-.03,0,0,0,0,0,0,.09,.22,.2,.43,.3,.65,.43,.99,.81,1.99,1.16,3.01,.09,.27,.34,1.01,.49,1.49,.19,.62,.38,1.25,.56,1.87,.38,1.33,.74,2.67,1.07,4.01,1.53,6.14,2.72,12.35,3.78,18.56,1.01,5.9,1.91,11.81,2.74,17.74,.46,3.3,.9,6.61,1.29,9.92,.02,.15,.04,.31,.06,.46,.04,.38,.25,1.3,.82,1.06,.54-.23,.52-1.43,.47-1.86Z"/><path class="cls-6" d="M510.36,475.42c.15-.15,.31-.3,.46-.45,.25-.25,.33-.87,.28-1.47-.51-.19-1.02-.38-1.53-.58-.46,.45-.92,.89-1.38,1.33,.7,.43,1.43,.82,2.17,1.17Z"/><path class="cls-6" d="M66.52,516.6c.07-.07-.04,.03,0,0h0Z"/><path class="cls-6" d="M64.38,518.95s.04-.06,.07-.08c-.01,.01-.03,.04-.07,.08Z"/><path class="cls-6" d="M63.56,521.08c.02-.07,0,0,0,0h0Z"/><path class="cls-6" d="M119.08,488.81c2.96-.53,5.81-1.51,8.48-2.89,1.93-1,3.76-2.2,5.46-3.56-.14-.22-.34-.33-.58-.25-5.3,1.64-10.57,3.38-15.8,5.25,.61,.75,1.22,1.5,1.85,2.23,.1-.4,.29-.72,.59-.77Z"/><path class="cls-6" d="M87.89,499.47c-4.26,2.16-8.43,4.48-12.43,7.09-2.58,1.68-5.09,3.47-7.44,5.46-1.27,1.08-2.51,2.22-3.62,3.47-.77,.88-1.17,1.79-1.59,2.92-1.62,4.45-2.51,9.17-3.34,13.82-1.03,5.75-1.83,11.53-2.54,17.33-.65,5.24-1.21,10.5-1.72,15.76-.28,2.87-.54,5.75-.77,8.62-.01,.14-.02,.27-.03,.41-.04,.5-.09,1.59,.47,1.86,.55,.27,.79-.71,.82-1.06,.16-1.99,.33-3.98,.52-5.98,.44-4.78,.93-9.56,1.47-14.33,.66-5.8,1.41-11.6,2.32-17.37,.78-4.93,1.6-9.7,2.99-14.58,.13-.46,.27-.91,.41-1.37,.04-.12,.08-.24,.12-.36,.01-.04,.02-.07,.03-.08,0,0,.02-.07,0,0,0,0,0,0,0,0,.07-.21,.14-.41,.22-.62,.14-.38,.29-.76,.45-1.13,.06-.14,.29-.55,.21-.47-.02,.03-.04,.06-.07,.08,.03-.05,.05-.07,.07-.08,.09-.12,.18-.23,.27-.35,.31-.37,.64-.73,.97-1.08,.26-.27,.52-.53,.78-.79,.02-.02,.04-.04,.05-.05-.04,.03,.07-.07,0,0,0,0,.02-.02,.04-.04,.08-.08,.16-.15,.24-.23,.18-.16,.35-.33,.53-.49,2.02-1.82,4.19-3.45,6.42-4.99,3.57-2.46,7.32-4.67,11.15-6.72,4.16-2.23,8.43-4.28,12.75-6.19-.26-.91-.52-1.82-.76-2.74-3.04,1.35-6.05,2.77-9.01,4.27Z"/><path class="cls-6" d="M114.64,488.07c-2.72,.99-5.42,2.01-8.11,3.08-2.76,1.1-5.51,2.24-8.24,3.44,.25,.91,.51,1.83,.79,2.73,.96-.42,1.91-.83,2.88-1.24,4.73-1.99,9.53-3.83,14.36-5.57-.49-.61-.97-1.23-1.42-1.87-.12-.17-.2-.36-.25-.57Z"/><path class="cls-6" d="M276.67,568.42c-.44-4.77-.93-9.54-1.47-14.3-.66-5.75-1.39-11.49-2.29-17.2-.8-5.08-1.67-10.19-3.05-15.14-.48-1.73-.99-3.52-1.8-5.13-.13-.25-.25-.42-.44-.63-.85-.96-1.8-1.84-2.77-2.67-2-1.74-4.15-3.31-6.34-4.8-3.55-2.41-7.26-4.59-11.03-6.63-2.02-1.09-4.07-2.14-6.14-3.15,.04,1.06,.08,2.11,.14,3.17,.63,.31,1.26,.61,1.88,.93,4.21,2.15,8.35,4.45,12.33,6.99,2.57,1.64,5.09,3.38,7.46,5.3,.75,.61,1.49,1.24,2.2,1.89,.14,.12,.27,.25,.4,.38,.01,.01,.02,.02,.03,.03-.08-.07,.11,.1,0,0,0,0,0,0,.01,.01,.06,.06,.12,.11,.18,.17,.19,.19,.38,.38,.57,.58,.21,.22,.4,.45,.6,.67,0,0,0,0,.01,.01-.02-.03-.03-.06-.05-.09,.04,.07,.06,.11,.07,.13,.02,.03,.02,.03,0,0,0,0-.02-.02-.03-.03,.34,.67,.59,1.39,.84,2.1,.02,.05,.03,.08,.03,.1,0,.01,0,.02,0,0,0-.01-.01-.03,0,0,.03,.1,.07,.2,.1,.31,.07,.23,.15,.46,.22,.69,.15,.49,.29,.98,.43,1.48,.29,1.05,.55,2.11,.79,3.17,.58,2.51,1.04,4.93,1.46,7.35,.98,5.66,1.76,11.35,2.45,17.05,.62,5.08,1.16,10.16,1.65,15.25,.27,2.79,.52,5.59,.75,8.38,.01,.13,.02,.26,.03,.4,.03,.39,.26,1.3,.82,1.06,.55-.24,.5-1.42,.47-1.86-.15-1.98-.33-3.95-.51-5.92Z"/><path class="cls-6" d="M268.03,521.07s0,.01,0,0h0Z"/><path class="cls-6" d="M230.6,493.77c-2.26-.98-4.54-1.92-6.82-2.85-.18,.95-.35,1.91-.51,2.87,.58,.24,1.17,.46,1.75,.7,5.09,2.09,10.13,4.33,15.08,6.75-.04-1.05-.08-2.1-.11-3.15-3.1-1.5-6.24-2.94-9.4-4.31Z"/><path class="cls-6" d="M200.07,482.26c-.27-.09-.48,.06-.63,.34,2.54,2.05,5.48,3.57,8.61,4.54-.03-.72-.05-1.45-.07-2.17-.32-.11-.65-.23-.97-.35-2.31-.81-4.62-1.59-6.94-2.36Z"/><path class="cls-6" d="M265.79,517.43c.11,.1-.08-.07,0,0h0Z"/><path class="cls-6" d="M267.12,518.79s.03,.06,.05,.09c.01,.01,.02,.03,.03,.03-.02-.02-.04-.06-.07-.13Z"/><path class="cls-6" d="M90.84,428.64c-1.27-24.18-4.6-48.37-3.63-72.62,.35-8.67,1.41-17.16,3.71-25.53,2.26-8.24,5.36-16.3,9.47-23.79,3.96-7.22,9.07-14.26,15.96-18.94,3.34-2.27,7.19-4.06,11.25-4.43,2.97-.27,6.03,.01,8.94-.73,2.18-.56,3.99-1.67,5.52-3.31,1.4-1.5,2.47-3.27,3.81-4.83,1.68-1.95,3.73-3.05,6.13-3.88,4.92-1.69,10.21-2.21,15.39-2.03,11.06,.37,21.97,3.75,31.96,8.35,9.38,4.32,18.3,9.97,26.16,16.67,7.7,6.55,14.4,14.42,18.94,23.49,5.02,10.02,7.11,21.24,7.97,32.34,.94,12.21,.22,24.51-1.2,36.66-1.42,12.15-3.57,24.2-5.84,36.21-.71,3.75-1.36,7.39-1.79,11.17-1.47,12.82-2.56,25.7-3.2,38.59-.4,8.05-.62,16.12-.44,24.18,.01,.63,.03,1.25,.05,1.88,.45,.22,.9,.44,1.34,.66-.2-5.8-.15-11.61,.02-17.4,.4-14.34,1.53-28.65,3.06-42.91,.31-2.93,.57-5.88,1.01-8.79,.67-4.45,1.68-8.88,2.5-13.31,1.11-6.04,2.15-12.09,3.07-18.17,1.84-12.29,3.15-24.69,3.18-37.13,.02-11.95-1.06-24.18-4.59-35.65-6.17-20.11-21.47-35.09-39.12-45.71-9.18-5.53-19.2-9.83-29.65-12.29-5.42-1.27-11-2.03-16.58-1.89-5.02,.13-10.46,.9-15.02,3.12-4.12,2.01-5.57,6.46-9.03,9.15-4.57,3.56-10.8,1.62-16.02,3.16-7.61,2.24-13.73,7.76-18.48,13.93-5.35,6.96-9.3,14.98-12.37,23.16-2.75,7.32-4.9,14.91-6.1,22.64-1.76,11.31-1.72,22.93-1.3,34.34,.46,12.54,1.58,25.03,2.54,37.54,1.84,24.11,1.61,48.53,6.12,72.36,.65,3.46,1.42,6.89,2.32,10.29,.46-.21,.93-.4,1.4-.61-5.88-21.36-6.3-43.95-7.46-65.95Z"/><path class="cls-6" d="M96.9,495.19c.24,.92,.5,1.83,.76,2.74,.47-.21,.95-.41,1.42-.61-.27-.91-.53-1.82-.79-2.73-.46,.2-.93,.4-1.4,.61Z"/><path class="cls-6" d="M240,498.09c.03,1.05,.06,2.1,.11,3.15,.46,.22,.91,.45,1.37,.68-.05-1.06-.1-2.11-.14-3.17-.45-.22-.89-.45-1.34-.66Z"/><path class="cls-6" d="M216.31,348.02c-.09,.52-.18,1.04-.27,1.56,.24,.1,.49,.2,.73,.3-.16-.62-.31-1.24-.47-1.86Z"/><path class="cls-6" d="M208.16,490.21c.05,1.29,.11,2.58,.16,3.87,.43-.36,.86-.72,1.29-1.09-.04-.8-.07-1.61-.1-2.41-.45-.11-.9-.23-1.35-.37Z"/><path class="cls-6" d="M208.01,438.16c-.5,15.59-.53,31.21-.03,46.8,.45,.16,.9,.32,1.35,.48-.44-13.56-.49-27.14-.17-40.71,.12-4.97,.29-9.93,.5-14.89-.47,.72-.94,1.43-1.43,2.14-.08,2.06-.16,4.12-.22,6.17Z"/><path class="cls-6" d="M218.89,516.34c-1.39,13.72-2.24,27.5-2.77,41.27-.02,.42-.03,.85-.05,1.27,.35,2.23,.71,4.47,1.09,6.69-.44,.13-.87,.27-1.31,.4,.05-2.37,.13-4.73,.22-7.1-2.95-18.69-4.9-37.54-6-56.43-.12-2.12-.23-4.25-.33-6.37-.42,.36-.85,.72-1.28,1.08,1.02,20.52,2.96,41.01,6.12,61.32,.41,2.64,.84,5.27,1.29,7.9,.29,1.7,1.28,.98,1.31-.4,.15-7.74,.53-15.48,.97-23.21,.88-15.22,2.14-30.46,4.53-45.52,.18-1.15,.37-2.3,.57-3.46-.44-.18-.88-.35-1.33-.53-1.32,7.65-2.27,15.36-3.06,23.08Z"/><path class="cls-6" d="M217.17,565.58c-.38-2.23-.74-4.46-1.09-6.69-.09,2.37-.17,4.73-.22,7.1,.44-.13,.87-.27,1.31-.4Z"/><path class="cls-6" d="M197.66,341.72c6.1,2.68,12.21,5.37,18.39,7.86,.09-.52,.17-1.04,.27-1.56,.16,.62,.31,1.24,.47,1.86-.24-.1-.49-.2-.73-.3-.56,3.34-1.05,6.7-1.51,10.05-1.47,10.52-2.65,21.08-3.62,31.65-1.13,12.25-1.96,24.53-2.51,36.82,.48-.73,.96-1.45,1.43-2.19,.47-9.77,1.12-19.53,1.96-29.28,.96-11.15,2.15-22.29,3.64-33.39,.64-4.76,1.49-9.49,2.13-14.24,0-.06,.02-.12,.03-.19,.08-.43,.06-1.65-.47-1.86-13.47-5.39-26.68-11.47-39.92-17.39-14.21-6.35-28.39-12.76-42.56-19.2-.57,.77-1.15,1.53-1.77,2.27,5.63,2.56,11.26,5.12,16.9,7.67,15.93,7.2,31.86,14.38,47.87,21.41Z"/><path class="cls-6" d="M134.65,310.37c-.48-.22-.96-.43-1.44-.65-.18-.08-.37-.17-.55-.25-.26,.33-.52,.66-.79,.98-.36,.42-.72,.83-1.1,1.23,.7,.32,1.41,.64,2.11,.96,.61-.74,1.2-1.5,1.77-2.27Z"/><path class="cls-6" d="M208.4,428.11c-.06,1.29-.12,2.59-.17,3.88,.48-.71,.96-1.42,1.43-2.14,.06-1.31,.11-2.62,.18-3.92-.47,.73-.95,1.46-1.43,2.19Z"/><path class="cls-6" d="M208.04,487.14c.44,.14,.89,.26,1.34,.38-.02-.69-.04-1.38-.06-2.07-.45-.16-.9-.32-1.35-.48,.02,.72,.04,1.45,.07,2.17Z"/><path class="cls-6" d="M222.45,490.4c-.15,.82-.3,1.64-.44,2.45-.02,.14-.05,.27-.07,.41,.44,.18,.89,.35,1.33,.53,.16-.96,.33-1.91,.51-2.87-.44-.18-.89-.35-1.33-.53Z"/><path class="cls-6" d="M139.93,478.54c.52-.69,1.29-1.54,1.52-2.41,.55-2.06,.55-4.39,.66-6.51,.14-2.6,.18-5.2,.19-7.81,.01-3.48-.04-6.97-.13-10.45-.46-.43-.92-.87-1.37-1.31,.16,5.49,.25,10.99,.1,16.48-.02,.86-.05,1.71-.09,2.57,0,.2-.02,.39-.03,.59,0,.07,0,.15-.01,.22,0,.04,0,.06,0,.09,.01-.21-.01,.25,0,0,0,0,0,0,0,0-.02,.39-.05,.78-.08,1.17-.08,1.07-.19,2.15-.35,3.21,.07-.11,.15-.22,.22-.34-.1,.3-.2,.6-.31,.91,.03-.19,.06-.38,.09-.57-.87,1.41-1.95,2.72-3.05,3.94-1.3,1.45-2.73,2.8-4.26,4.02,.46,.69,.4,2.48-.23,2.67-2.33,.72-4.66,1.46-6.98,2.23-2.41,.79-4.82,1.61-7.22,2.46,.55,.64,1.11,1.27,1.68,1.9,5.82-1.29,11.12-4.26,15.45-8.36,1.53-1.45,2.95-3.01,4.22-4.7Z"/><path class="cls-6" d="M140.76,470.01c-.01,.25,.01-.21,0,0h0Z"/><path class="cls-6" d="M140.54,474.06c-.07,.11-.15,.22-.22,.34-.03,.19-.06,.38-.09,.57,.1-.3,.2-.6,.31-.91Z"/><path class="cls-6" d="M142.07,448.04c-.46-.45-.92-.9-1.38-1.36,.04,1.12,.07,2.25,.11,3.37,.45,.44,.91,.88,1.37,1.31-.03-1.11-.06-2.22-.1-3.32Z"/><path class="cls-6" d="M125.81,487.25c2.32-.76,4.65-1.5,6.98-2.23,.62-.19,.69-1.98,.23-2.67-1.7,1.36-3.53,2.56-5.46,3.56-2.67,1.39-5.52,2.36-8.48,2.89-.3,.05-.49,.37-.59,.77,.04,.04,.07,.08,.11,.12,2.4-.84,4.8-1.66,7.22-2.46Z"/><path class="cls-6" d="M193.82,476.03c-.11-.18,.07,.13,0,0h0Z"/><path class="cls-6" d="M193,474.09s0,.06,.01,.08c.02,.13,.06,.29,.09,.44,.01,.03,.02,.05,.04,.07,.06-.78-.07-.75-.14-.6Z"/><path class="cls-6" d="M199.71,485.18c-.61-.2-.68-1.84-.28-2.58-1.06-.86-2.06-1.81-2.97-2.86-.62-.72-1.21-1.47-1.74-2.26-.23-.34-.45-.68-.67-1.03-.08-.13-.16-.26-.23-.39,0,0,0-.01-.01-.02,.07,.13-.11-.18,0,0,0-.01-.01-.02-.02-.04-.05-.09-.1-.18-.15-.27-.18-.34-.35-.69-.51-1.04,0,.06,0,.12-.02,.19,0-.08,0-.17-.02-.26,0-.01-.01-.02-.02-.03-.04-.08-.06-.17-.1-.24-.03-.05-.02-.17,.02-.24-.29-2.03-.39-3.84-.46-5.66-.11-2.61-.14-5.23-.13-7.84,0-3.37,.07-6.74,.16-10.1-.45,.42-.91,.83-1.37,1.23-.06,2.54-.1,5.09-.12,7.63-.03,4.98-.06,10.03,.56,14.98,.13,1.07,.31,2.03,.79,3,.7,1.42,1.56,2.76,2.53,4.01,3.37,4.34,8.02,7.32,13.2,8.87-.03-.72-.06-1.44-.09-2.16-2.78-.98-5.56-1.95-8.36-2.87Z"/><path class="cls-6" d="M192.67,447.1c-.46,.43-.92,.85-1.39,1.27-.03,1.12-.06,2.23-.09,3.35,.46-.41,.92-.82,1.37-1.23,.03-1.13,.07-2.26,.1-3.39Z"/><path class="cls-6" d="M199.71,485.18c2.8,.93,5.58,1.89,8.36,2.87-.01-.3-.02-.61-.03-.91-3.13-.97-6.07-2.49-8.61-4.54-.4,.74-.33,2.38,.28,2.58Z"/><path class="cls-6" d="M208.07,488.05c.03,.72,.06,1.44,.09,2.16,.45,.13,.9,.26,1.35,.37-.03-.68-.06-1.36-.09-2.04-.45-.16-.9-.32-1.35-.48Z"/><path class="cls-6" d="M209.42,488.53c-.01-.34-.02-.68-.04-1.02-.45-.12-.9-.24-1.34-.38,.01,.3,.02,.61,.03,.91,.45,.16,.9,.32,1.35,.48Z"/><path class="cls-6" d="M432.83,464.1s0,.04,0,.06c0,.04,0,.03,0-.06Z"/><path class="cls-6" d="M429.03,474.26c-1.22,.45-2.43,.91-3.65,1.37,.63,.55,1.27,1.09,1.92,1.62,.34-.3,.68-.6,1-.91,1.4-1.33,2.71-2.76,3.87-4.32,.48-.64,1.19-1.44,1.4-2.24,.51-1.91,.51-4.05,.61-6.01,.12-2.38,.16-4.76,.17-7.14,.02-5.1-.11-10.2-.3-15.3-.01-.32-.03-.64-.04-.96-.47-.55-.94-1.11-1.4-1.67,.05,1.24,.1,2.48,.14,3.71,.22,6.17,.37,12.34,.2,18.51-.02,.78-.05,1.56-.08,2.33,0,.17-.02,.34-.03,.52,0,.05-.02,.3-.02,.38,0-.02,0-.04,0-.06,0,.09,0,.1,0,.06-.02,.32-.04,.65-.07,.97-.07,.98-.18,1.97-.33,2.94,.07-.12,.16-.23,.23-.36-.1,.3-.2,.6-.31,.91,.03-.18,.05-.37,.08-.55-.79,1.26-1.75,2.43-2.73,3.53-.1,.11-.2,.21-.3,.32,.27,.8,.16,2.15-.38,2.34Z"/><path class="cls-6" d="M432.66,467.72c-.07,.12-.15,.24-.23,.36-.03,.18-.05,.37-.08,.55,.1-.3,.2-.6,.31-.91Z"/><path class="cls-6" d="M433.87,436.81c-.48-.58-.96-1.17-1.42-1.76,.06,1.22,.12,2.44,.17,3.66,.46,.56,.93,1.12,1.4,1.67-.05-1.19-.09-2.38-.15-3.57Z"/><path class="cls-6" d="M425.37,475.64s-.02,0-.03,.01c-.65,.5-1.31,.97-1.99,1.42,.65,.6,1.31,1.19,1.98,1.77,.67-.5,1.32-1.02,1.96-1.58-.65-.53-1.29-1.07-1.92-1.62Z"/><path class="cls-6" d="M425.37,475.63s0,0,0,0c1.22-.46,2.43-.92,3.65-1.37,.54-.2,.64-1.54,.38-2.34-1.24,1.35-2.59,2.59-4.03,3.71Z"/><path class="cls-6" d="M425.34,475.65s.02,0,.03-.01c0,0,0,0,0,0,0,0-.02,.01-.03,.02Z"/><path class="cls-6" d="M498.24,439.99c-.13,3.79-.21,7.58-.23,11.37-.02,4.57-.05,9.2,.51,13.74,.13,1.02,.3,1.93,.75,2.85,.65,1.31,1.44,2.55,2.34,3.7,1.33,1.7,2.88,3.17,4.58,4.42,.35-.31,.71-.63,1.06-.95-.75-.28-1.5-.57-2.25-.84-.61-.22-.66-1.86-.27-2.59-.59-.54-1.16-1.12-1.7-1.73-.58-.67-1.12-1.37-1.62-2.1-.2-.3-.4-.6-.58-.9-.07-.11-.13-.22-.2-.33,0,0,0,0-.04-.06,.01,.02,.02,.04,.04,.06-.01-.02-.15-.27-.18-.32-.16-.3-.31-.62-.46-.93,0,.06-.01,.11-.02,.18,0-.08,0-.18-.03-.28,0-.02-.01-.03-.02-.04-.03-.07-.05-.16-.09-.23-.03-.04-.01-.16,.02-.27-.1-.75-.18-1.5-.24-2.25-.02-.25-.04-.49-.06-.74,0-.08-.03-.48-.04-.56,0,.02,0,.03,0,.05,0-.07,0-.08,0-.05-.03-.53-.06-1.05-.08-1.58-.1-2.39-.12-4.78-.12-7.17,0-4.65,.13-9.3,.3-13.94-.22,.25-.44,.5-.67,.75-.24,.26-.49,.51-.73,.77Z"/><path class="cls-6" d="M500.65,466.6s-.02-.04-.04-.06c.03,.05,.04,.07,.04,.06Z"/><path class="cls-6" d="M499.97,465.26s.03,.06,.05,.1c.12-1.13-.06-.91-.14-.63,.01,.07,.02,.15,.03,.22,.01,.09,.04,.21,.07,.32Z"/><path class="cls-6" d="M499.54,461.22s0-.03,0-.05c0-.03,0-.02,0,.05Z"/><path class="cls-6" d="M499.79,434.96c-.46,.53-.93,1.05-1.41,1.56-.05,1.16-.1,2.31-.13,3.47,.24-.26,.49-.51,.73-.77,.23-.25,.44-.5,.67-.75,0-.22,.01-.44,.02-.65,.04-.95,.08-1.91,.12-2.86Z"/><path class="cls-6" d="M507.27,475.11c-.35,.32-.7,.63-1.06,.95,.67,.49,1.36,.94,2.07,1.35,.49-.46,.97-.91,1.45-1.38-.82-.31-1.64-.62-2.46-.92Z"/><path class="cls-6" d="M516.68,477.43c-2.19-.4-4.32-1.07-6.32-2.02-.21,.21-.42,.41-.63,.62,2.55,.96,5.09,1.94,7.63,2.94,0-.72-.2-1.45-.68-1.53Z"/><path class="cls-6" d="M505.02,474.26c.75,.28,1.5,.56,2.25,.84,.31-.28,.61-.57,.92-.86-1.22-.74-2.37-1.6-3.44-2.58-.39,.73-.34,2.37,.27,2.59Z"/><path class="cls-6" d="M507.27,475.11c.82,.31,1.64,.61,2.46,.92,.21-.2,.42-.41,.63-.62-.75-.35-1.47-.74-2.17-1.17-.31,.29-.61,.58-.92,.86Z"/><path class="cls-6" d="M208.32,494.08c-7.32,6.16-15.41,11.43-24.35,14.83-8.75,3.32-18.23,4.57-27.5,3.13-7.55-1.17-14.73-4.06-21.21-8.06-5.09-3.15-9.81-7-13.93-11.22-.37-.38-.72-.76-1.07-1.14-.39,.09-.79,.17-1.19,.24-.54,.1-.8-1.16-.63-2.08-.71,.25-1.42,.5-2.13,.76,1.04,1.29,2.16,2.54,3.29,3.74,4,4.27,8.46,8.12,13.33,11.36,6.29,4.2,13.3,7.36,20.72,8.93,9.02,1.91,18.32,1.26,27.1-1.48,10.26-3.2,19.5-9.02,27.73-15.9-.03-.5-.06-1.01-.08-1.51-.03-.53-.04-1.05-.07-1.58Z"/><path class="cls-6" d="M118.48,489.58c-.62-.74-1.24-1.48-1.85-2.23-.67,.24-1.33,.48-1.99,.72,.06,.21,.14,.4,.25,.57,.45,.64,.93,1.26,1.42,1.87,.71-.25,1.42-.51,2.13-.76,.01-.06,.02-.12,.04-.17Z"/><path class="cls-6" d="M209.61,492.99c-.43,.37-.85,.73-1.29,1.09,.02,.53,.04,1.05,.07,1.58,.02,.5,.06,1.01,.08,1.51,.43-.36,.85-.72,1.28-1.08-.05-1.03-.09-2.07-.14-3.1Z"/><path class="cls-6" d="M118.44,489.76c-.17,.93,.09,2.18,.63,2.08,.4-.07,.79-.15,1.19-.24-.57-.62-1.13-1.25-1.68-1.9-.05,.02-.1,.03-.14,.05Z"/><path class="cls-6" d="M118.48,489.58c-.01,.06-.03,.12-.04,.17,.05-.02,.1-.03,.14-.05-.04-.04-.07-.08-.11-.12Z"/></g><g><rect class="cls-10" x="820.41" y="90.92" width="275.05" height="171.65"/><path class="cls-23" d="M820.36,89.7v173.63h275.12V89.7h-275.12Zm272.14,169.7h-269.16V93.63h269.16v165.78Z"/><rect class="cls-22" x="885.98" y="206.59" width="12.31" height="19.02"/><rect class="cls-22" x="915.21" y="206.59" width="12.31" height="19.02"/><rect class="cls-22" x="900.59" y="206.59" width="12.31" height="19.02"/><rect class="cls-22" x="929.83" y="206.59" width="12.31" height="19.02"/><rect class="cls-22" x="944.45" y="206.59" width="12.31" height="19.02"/><rect class="cls-22" x="959.06" y="206.59" width="12.31" height="19.02"/><rect class="cls-22" x="973.68" y="206.59" width="12.31" height="19.02"/><rect class="cls-22" x="988.3" y="206.59" width="12.31" height="19.02"/><rect class="cls-22" x="1002.92" y="206.59" width="12.31" height="19.02"/><rect class="cls-22" x="1017.53" y="206.59" width="12.31" height="19.02"/><path class="cls-10" d="M934.33,245.46l-10.05,1.77s-.76-3.82-3.7-4.58l-5.66-6.35s.64-2.4,3.21-1.15l2.92,1.52-2.16-11.6s1.4-2.43,2.87-1.25l1.45,5.08,10.37,1.57,1.94,7.75-1.2,3.87,.02,3.38Z"/><g><path class="cls-23" d="M956.98,263.15h-49.65v18.22h49.47c.04-2.8,.37-5.62,.59-8.42,.26-3.26,.31-6.64-.4-9.8Z"/><path class="cls-23" d="M1008.41,263.15h-37.6c.65,6.04,.88,12.13,.92,18.22h36.69v-18.22Z"/><path class="cls-18" d="M956.98,263.15c.71,3.16,.66,6.54,.4,9.8-.22,2.8-.55,5.62-.59,8.42h14.92c-.04-6.1-.26-12.18-.92-18.22h-13.82Z"/></g><text class="cls-5" transform="translate(936.95 178.21) rotate(-.02)"><tspan x="0" y="0">H</tspan></text><path class="cls-1" d="M952.94,264.85h-44.95v15.96c.34,0,.69,.02,1.01,.02h98.82v-15.99h-54.89Z"/><path class="cls-1" d="M898.28,225.61h-12.31v-19.02h12.31v19.02Zm14.62,0h-12.31v-19.02h12.31v19.02Zm84.09-83.21v36.08s-7.2,0-7.2,0v-36.08s7.2,0,7.2,0Zm-21.03,57.14h-36.08s0-7.2,0-7.2h36.08s0,7.2,0,7.2Zm-.03-78.18v7.22s-36.08,.01-36.08,.01v-7.22s36.08-.01,36.08-.01Zm-49.91,21.07v36.08s-7.2,0-7.2,0v-36.08s7.2,0,7.2,0Zm1.49,83.18h-12.31v-19.02h12.31v19.02Zm14.62,0h-12.31v-19.02h12.31v19.02Zm14.62,0h-12.31v-19.02h12.31v19.02Zm14.62,0h-12.31v-19.02h12.31v19.02Zm14.62,0h-12.31v-19.02h12.31v19.02Zm14.62,0h-12.31v-19.02h12.31v19.02Zm14.62,0h-12.31v-19.02h12.31v19.02Zm14.62,0h-12.31v-19.02h12.31v19.02Z"/><path class="cls-6" d="M819.84,262.57c.17,.38,.34,.76,.5,1.14v-1.15s-.02,0-.03,0c-.15,.02-.32,0-.47,0Z"/><path class="cls-6" d="M962.88,262.57h-54.89v2.29h99.84v-2.29h-44.95Z"/><path class="cls-6" d="M1095.97,90.92c-.17-.38-.34-.76-.5-1.14v1.15s.02,0,.03,0c.15-.02,.32,0,.47,0Z"/><path class="cls-6" d="M820.35,89.77c-.17,.38-.34,.76-.5,1.14h.57c-.02-.28-.04-.56-.06-.84,0-.1,0-.2,0-.3Z"/><path class="cls-6" d="M885.38,262.57h-61.37c-1.19,0-2.47-.13-3.66,0v1.15c-.17-.38-.34-.76-.5-1.14,.15,0,.32,.02,.47,0,.01,0,.02,0,.03,0V96.87c0-1.95,.17-3.99,.06-5.96h-.57c.17-.38,.34-.76,.5-1.14,0,.1,0,.2,0,.3,.03,.28,.05,.56,.06,.84h271.4c1.19,0,2.47,.13,3.66,0v-1.15c.17,.38,.34,.76,.5,1.14-.15,0-.32-.02-.47,0-.01,0-.02,0-.03,0V242.33c0,6.74-.09,13.49,0,20.24h.51c.27,0,.44,.34,.5,.76V111.15c0-7.02,.1-14.05,0-21.08,0-.1,0-.2,0-.3,0-.28-.07-1.14-.5-1.14h-264.92c-3.57,0-7.17-.11-10.74,0-.16,0-.31,0-.47,0-.44,0-.5,.88-.5,1.14V242.33c0,7.02-.1,14.05,0,21.08,0,.1,0,.2,0,.3,0,.28,.07,1.14,.5,1.14h87.14v-2.29h-21.61Z"/><path class="cls-6" d="M1096.48,263.71c0,1.37-1.01,1.35-1.01,0,0-.1,0-.2,0-.3,0-.28,0-.56,0-.84h-86.63v2.29h75.93c3.57,0,7.17,.11,10.74,0,.16,0,.31,0,.47,0,.43,0,.6-.86,.5-1.53v.39Z"/><path class="cls-6" d="M1095.97,262.57h-.51c0,.28,0,.56,0,.84,0,.1,0,.2,0,.3,0,1.35,1.01,1.37,1.01,0v-.39c-.06-.42-.23-.76-.5-.76Z"/><path class="cls-6" d="M1008.49,283.08s-.01,.01-.02,.01c0,0,.01,0,.02-.01Z"/><path class="cls-6" d="M1008.47,283.09s-.09,.04-.14,.04c.05,0,.1-.01,.14-.04Z"/><path class="cls-6" d="M907.49,280.84c.17,.38,.34,.76,.5,1.14v-1.17c-.11,0-.22,.01-.33,.02-.06,0-.12,0-.17,0Z"/><path class="cls-6" d="M1008.33,280.84h-.5v1.14c0,.29,.06,1.14,.5,1.14,.05,0,.1-.01,.14-.04,0,0,.01-.01,.02-.01,.29-.19,.34-.86,.34-1.09v-.39c-.06-.42-.23-.76-.5-.76Z"/><path class="cls-6" d="M1007.83,278.76v2.08h.5c.27,0,.44,.34,.5,.76v-16.74h-1.01v13.91Z"/><path class="cls-6" d="M1008.49,283.08c.31-.19,.43-.9,.34-1.48v.39c0,.23-.05,.91-.34,1.09Z"/><path class="cls-6" d="M1007.83,281.98v-1.14h-98.82c-.32,0-.68-.03-1.01-.02v1.17c-.17-.38-.34-.76-.5-1.14,.06,0,.12,0,.17,0,.11-.01,.22-.02,.33-.02v-15.96h-1.01v17.13c0,.28,.07,1.14,.5,1.14h96.74c1.3,0,2.63,.09,3.93,0,.06,0,.12,0,.17,0-.44,0-.5-.85-.5-1.14Z"/><path class="cls-6" d="M1007.83,262.57v2.29h1.01v-2.29h-1.01Z"/><path class="cls-6" d="M907.99,262.57h-1.01v2.29h1.01v-2.29Z"/><rect class="cls-6" x="939.85" y="121.37" width="36.08" height="7.22"/><rect class="cls-6" x="939.88" y="192.33" width="36.08" height="7.22"/><rect class="cls-6" x="918.82" y="142.43" width="7.22" height="36.08"/><rect class="cls-6" x="989.78" y="142.4" width="7.22" height="36.08"/><path class="cls-1" d="M931.41,234.81c-.29,.41-.63-.11-.69-.41-.03-.17-.06-.34-.1-.5-.2-1.03-.4-2.07-.6-3.1,0,0-.02-.01-.02-.02-.15-.11-.29-.23-.46-.32-.7-.38-1.48-.4-2.23-.21,.16,.82,.31,1.64,.47,2.46,.09,.49,.13,1.13-.18,1.57-.29,.41-.63-.11-.69-.41-.03-.17-.06-.33-.1-.5-.2-1.03-.4-2.07-.6-3.1-.71-.53-1.64-.66-2.52-.53,.23,1.21,.46,2.42,.7,3.63,.08,.43,.17,1.2-.18,1.57-.33,.34-.62-.06-.69-.41-.3-1.58-.61-3.17-.91-4.75-.22-.27-.31-.83-.25-1.31-.09-.48-.18-.95-.27-1.43-.24-1.25-.55-3.19-2.35-2.37-.57,.26-.57,.35-.49,.89,.09,.62,.26,1.22,.4,1.83,.27,1.22,.48,2.45,.71,3.67,.48,2.53,.97,5.05,1.45,7.57,.08,.43,.17,1.2-.18,1.57-.33,.34-.62-.06-.69-.41-.13-.66-.25-1.32-.38-1.97-.81-.53-1.62-1.06-2.43-1.58-.66-.42-1.39-.68-2.13-.32-.16,.08-.3,.17-.43,.28l-.11,.09c.16,.19,.41,.47,.45,.51,.79,.77,1.67,1.49,2.37,2.34,.78,.96,1.42,1.9,2.4,2.69,.87,.71,1.94,1.24,2.64,2.14,.52,.67,.85,1.49,1.07,2.31,3.12-.6,6.24-1.2,9.36-1.8-.05-.66-.09-1.33,0-1.98,.07-.62,.22-1.24,.42-1.83,.11-.33,.23-.66,.39-.97,.05-.11,.08-.17,.1-.21,.31-.91,.31-1.84,.11-2.77-.14-.67-.28-1.33-.43-1.99-.15-.68-.22-1.46-.47-2.11-.42-1.08-1.61-1.74-2.73-1.77,.15,.79,.3,1.59,.46,2.38,.09,.49,.13,1.13-.18,1.57Zm-4.16,9.75c-.31,.39-.63-.09-.69-.41-.04-.23-.09-.45-.13-.68-.3-1.56-.6-3.12-.9-4.68-.09-.47-.15-1.15,.18-1.57,.31-.39,.63,.09,.69,.41,.04,.23,.09,.45,.13,.68,.3,1.56,.6,3.12,.9,4.68,.09,.47,.15,1.15-.18,1.57Zm2.17-.37c-.31,.39-.63-.09-.69-.41-.04-.23-.09-.45-.13-.68-.3-1.56-.6-3.12-.9-4.68-.09-.47-.15-1.15,.18-1.57,.31-.39,.63,.09,.69,.41,.04,.23,.09,.45,.13,.68,.3,1.56,.6,3.12,.9,4.68,.09,.47,.15,1.15-.18,1.57Zm2.35-.45c-.31,.39-.63-.09-.69-.41-.04-.23-.09-.45-.13-.68-.3-1.56-.6-3.12-.9-4.68-.09-.47-.15-1.15,.18-1.57,.31-.39,.63,.09,.69,.41,.04,.23,.09,.45,.13,.68,.3,1.56,.6,3.12,.9,4.68,.09,.47,.15,1.15-.18,1.57Z"/><path class="cls-1" d="M930.03,230.78s-.03-.02-.02,0c0,0,.01,0,.02,.01,0,0,0,0,0-.01Z"/><path class="cls-6" d="M930.03,230.79s0,0,0,0c0,0-.01,0-.02-.01,0,0,.01,0,.02,.02Z"/><path class="cls-6" d="M934.66,239.5s-.01,.06-.03,.09c.04-.11,.08-.19,.03-.09Z"/><path class="cls-6" d="M934.29,246.61c.04-.75,.09-1.5,.13-2.25-.22,.04-.45,.09-.67,.13,0,.09,.01,.18,.02,.27,.03,.47,.02,1.62,.52,1.85Z"/><path class="cls-6" d="M915.37,236.36s.06-.05,.09-.08c-.08-.09-.14-.16-.13-.16-.14,.44-.13,.52,.04,.24Z"/><path class="cls-6" d="M924.53,246.91c-.04-.21-.09-.42-.15-.62l-.29,.06c.14,.19,.29,.38,.43,.57Z"/><path class="cls-6" d="M926.23,230.26c-.02-.11-.04-.23-.07-.34-.09-.49-.13-1.13,.18-1.57,.29-.41,.63,.11,.69,.41,.03,.17,.06,.33,.1,.5,.06,.33,.13,.66,.19,.99,.75-.19,1.53-.18,2.23,.21,.17,.09,.31,.21,.46,.32-.02-.01,0,0,.02,0-.02-.13-.05-.25-.07-.38-.1-.49-.13-1.13,.18-1.57,.07-.1,.14-.14,.21-.15-.02-.01-.04-.03-.06-.04,.02,0,.05,0,.07,0-.98-.88-2.3-.9-3.53-.55-.22,.06-.03,.12-.15,.1-.06-.01-.17-.13-.23-.17-.25-.17-.52-.3-.79-.4-.79-.29-1.58-.28-2.37-.09,.14,.73,.28,1.46,.42,2.2,.87-.13,1.8,0,2.52,.53Z"/><path class="cls-6" d="M934.56,244.4c.16,.16,.24,.34,.26,.54,0-.04-.01-.07-.02-.11,0-.05,0-.12-.01-.18-.06-.12-.14-.21-.23-.25Z"/><path class="cls-6" d="M930.35,228.69s.05,0,.07,0c-.02-.02-.04-.04-.06-.06-.02,0-.05,0-.07,0,.02,.01,.04,.03,.06,.04Z"/><path class="cls-6" d="M935.37,234.3c-.22-1.01-.37-2.07-.7-3.05-.62-1.82-2.41-2.93-4.3-2.61,.02,.02,.04,.04,.06,.06,.2,.04,.37,.34,.41,.55,.03,.17,.06,.34,.1,.5,.07,.37,.14,.74,.21,1.11,1.12,.03,2.31,.69,2.73,1.77,.25,.65,.32,1.43,.47,2.11,.15,.66,.29,1.33,.43,1.99,.19,.93,.2,1.86-.11,2.77,.05-.1,.01-.02-.03,.09,.01-.03,.01-.06,.03-.09-.02,.04-.05,.1-.1,.21-.16,.31-.28,.64-.39,.97-.2,.59-.35,1.21-.42,1.83-.08,.66-.04,1.32,0,1.98,.22-.04,.45-.09,.67-.13-.04,.75-.09,1.5-.13,2.25-.51-.23-.49-1.38-.52-1.85,0-.09-.01-.18-.02-.27-3.12,.6-6.24,1.2-9.36,1.8,.05,.21,.11,.41,.15,.62-.14-.19-.29-.38-.43-.57l.29-.06c-.22-.83-.54-1.64-1.07-2.31-.7-.9-1.76-1.43-2.64-2.14-.98-.8-1.62-1.73-2.4-2.69-.7-.86-1.58-1.58-2.37-2.34-.04-.04-.29-.33-.45-.51-.03,.03-.06,.05-.09,.08-.17,.29-.18,.21-.04-.24,0,0,.06,.07,.13,.16l.11-.09c.13-.11,.28-.21,.43-.28,.74-.36,1.48-.09,2.13,.32,.81,.52,1.62,1.05,2.43,1.58-.18-.91-.35-1.82-.53-2.73-.58-.38-1.16-.77-1.76-1.13-1.84-1.12-3.91-.02-4,2.15-.06,1.41,.69,2.27,1.66,3.18,.5,.48,1.02,.95,1.49,1.46,.45,.48,.78,1.04,1.18,1.55,.84,1.06,1.94,1.91,3.05,2.69,1.15,.81,1.72,1.7,1.99,3.09,.03,.15,.19,.61,.43,.57,3.44-.66,6.88-1.32,10.33-1.98,.56-.11,.68-1.41,.37-2,0,.07,.02,.13,.01,.18,0,.04,.01,.07,.02,.11-.02-.2-.11-.38-.26-.54,.1,.04,.17,.13,.23,.25-.01-.07-.02-.15-.03-.21-.02-.25-.04-.49-.05-.74-.03-.63,.06-1.16,.28-1.76,.21-.57,.49-1.07,.63-1.66,.22-.9,.33-1.84,.29-2.76-.04-1.1-.33-2.16-.56-3.23Z"/><path class="cls-6" d="M924.23,234.92c.35-.36,.26-1.13,.18-1.57-.23-1.21-.46-2.42-.7-3.63-.24,.04-.47,.09-.69,.16-.16,.05-.29,0-.4-.13,.3,1.58,.61,3.17,.91,4.75,.07,.35,.36,.75,.69,.41Z"/><path class="cls-6" d="M920.69,237.88s-.08-.05-.12-.08c.13,.66,.25,1.32,.38,1.97,.07,.35,.36,.75,.69,.41,.35-.36,.26-1.13,.18-1.57-.48-2.52-.97-5.05-1.45-7.57-.23-1.23-.44-2.46-.71-3.67-.14-.61-.3-1.22-.4-1.83-.08-.54-.08-.63,.49-.89,1.8-.83,2.12,1.11,2.35,2.37,.09,.48,.18,.95,.27,1.43,.04-.37,.17-.69,.38-.76,.18-.06,.36-.11,.54-.15-.08-.44-.17-.88-.25-1.31-.23-1.22-.37-3.01-1.53-3.76-.6-.38-1.41-.32-2.03-.02-.86,.41-1.22,1.33-1.28,2.23-.08,1.12,.22,2.25,.47,3.33,.27,1.16,.48,2.32,.7,3.49,.22,1.19,.45,2.39,.68,3.58,.3,.2,.61,.4,.91,.6,.61,.39,.32,2.58-.27,2.21Z"/><path class="cls-6" d="M920.69,237.88c.58,.38,.87-1.81,.27-2.21-.31-.2-.61-.4-.91-.6,.18,.91,.35,1.82,.53,2.73,.04,.03,.08,.05,.12,.08Z"/><path class="cls-6" d="M922.38,228.44c.08,.44,.17,.88,.25,1.31,.1,.12,.23,.18,.4,.13,.22-.07,.45-.12,.69-.16-.14-.73-.28-1.46-.42-2.2-.18,.04-.36,.09-.54,.15-.21,.07-.34,.39-.38,.76Z"/><path class="cls-6" d="M926.92,233.86c.06,.3,.39,.82,.69,.41,.32-.43,.28-1.07,.18-1.57-.16-.82-.31-1.64-.47-2.46-.2,.05-.4,.11-.59,.19-.09,.05-.18,.05-.27,0-.07-.07-.16-.13-.24-.18,.2,1.03,.4,2.07,.6,3.1,.03,.17,.06,.33,.1,.5Z"/><path class="cls-6" d="M926.73,230.44c.19-.08,.39-.14,.59-.19-.06-.33-.13-.66-.19-.99-.03-.17-.06-.33-.1-.5-.06-.3-.39-.82-.69-.41-.32,.43-.28,1.07-.18,1.57,.02,.11,.04,.23,.07,.34,.08,.06,.16,.12,.24,.18,.09,.05,.18,.05,.27,0Z"/><path class="cls-6" d="M930.16,230.9c.09,.02-.06-.08-.13-.12,0,0,0,0,0,.01,.01,.01,.03,.02,.04,.03-.02-.01-.03-.02-.04-.03,.2,1.03,.4,2.07,.6,3.1,.03,.17,.06,.34,.1,.5,.06,.3,.39,.82,.69,.41,.32-.43,.28-1.07,.18-1.57-.15-.79-.3-1.59-.46-2.38-.03,0-.07,0-.1,0-.29,0-.6,.12-.88,.05Z"/><path class="cls-6" d="M930.35,228.69c-.07,0-.14,.05-.21,.15-.32,.43-.28,1.07-.18,1.57,.02,.13,.05,.25,.07,.38,.07,.04,.21,.14,.13,.12,.28,.07,.59-.05,.88-.05,.03,0,.07,0,.1,0-.07-.37-.14-.74-.21-1.11-.03-.17-.06-.34-.1-.5-.04-.2-.21-.5-.41-.55,.04,.04,.08,.07,.12,.11l-.19-.12Z"/><path class="cls-6" d="M930.07,230.82s-.03-.02-.04-.03c0,0,0,0,0,0,.01,0,.02,.02,.04,.03Z"/><path class="cls-6" d="M930.35,228.69l.19,.12s-.08-.07-.12-.11c-.02,0-.05-.01-.07,0Z"/><path class="cls-6" d="M926.53,238.32c-.04-.23-.09-.45-.13-.68-.06-.32-.38-.8-.69-.41-.33,.41-.27,1.09-.18,1.57,.3,1.56,.6,3.12,.9,4.68,.04,.23,.09,.45,.13,.68,.06,.32,.38,.8,.69,.41,.33-.41,.27-1.09,.18-1.57-.3-1.56-.6-3.12-.9-4.68Z"/><path class="cls-6" d="M928.7,237.95c-.04-.23-.09-.45-.13-.68-.06-.32-.38-.8-.69-.41-.33,.41-.27,1.09-.18,1.57,.3,1.56,.6,3.12,.9,4.68,.04,.23,.09,.45,.13,.68,.06,.32,.38,.8,.69,.41,.33-.41,.27-1.09,.18-1.57-.3-1.56-.6-3.12-.9-4.68Z"/><path class="cls-6" d="M930.92,236.83c-.06-.32-.38-.8-.69-.41-.33,.41-.27,1.09-.18,1.57,.3,1.56,.6,3.12,.9,4.68,.04,.23,.09,.45,.13,.68,.06,.32,.38,.8,.69,.41,.33-.41,.27-1.09,.18-1.57-.3-1.56-.6-3.12-.9-4.68-.04-.23-.09-.45-.13-.68Z"/></g><path class="cls-6" d="M897.41,643.35v-64.38c0-.48-.1-1.88-.82-1.88s-.82,1.44-.82,1.88v64.38c0,.48,.1,1.88,.82,1.88s.82-1.44,.82-1.88h0Z"/><path class="cls-6" d="M959.98,456.2c0,.34,.07-.5,.01-.16-.01,.07-.05,.34,0,.02s0-.06-.01,.01c-.06,.29,.15-.34,.03-.08-.03,.06-.05,.12-.08,.18-.09,.21-.04,0,.04-.05-.09,.05-.18,.27-.25,.35-.04,.05-.09,.1-.13,.15-.12,.15,.1-.07,0,0-.11,.09-.22,.18-.34,.27-.24,.16-.51,.28-.78,.37l.22-.07c-.59,.17-1.19,.17-1.78,0l.22,.07c-.28-.09-.54-.21-.78-.37-.11-.07-.21-.16-.31-.24-.2-.16,.14,.16-.03-.03-.04-.05-.09-.1-.13-.15-.07-.08-.16-.3-.25-.35,.07,.04,.13,.26,.04,.05-.03-.06-.05-.12-.08-.18-.12-.26,.09,.36,.03,.08-.02-.07-.07-.33-.01-.01s.02,.05,0-.02c-.05-.33,.02,.5,.01,.16,0-.3-.04,.43-.02,.21,0-.07,.02-.14,.03-.2-.03,.47-.05,.3-.01,.13,.06-.25-.12,.28-.04,.11,.03-.06,.05-.12,.08-.18,.02-.04,.03-.07,.05-.11,.05-.09,.02-.05-.07,.12,.08-.06,.16-.24,.22-.32,.05-.06,.1-.12,.15-.18,.12-.15-.1,.07,0,0,.11-.09,.22-.18,.34-.27,.24-.16,.51-.28,.78-.37l-.22,.07c.59-.17,1.19-.17,1.78,0l-.22-.07c.28,.09,.54,.21,.78,.37,.11,.07,.21,.16,.31,.24,.2,.16-.14-.16,.03,.03,.04,.05,.09,.1,.13,.15,.08,.1,.15,.21,.23,.32,.09,.13-.12-.26-.03-.05,.03,.07,.06,.15,.1,.22,.11,.23-.08-.29-.04-.11,.02,.06,.03,.13,.05,.2-.15-.4-.06-.32-.03-.13,.04,.31-.02-.5-.01-.16,0,.43,.06,.93,.24,1.33,.1,.21,.3,.55,.58,.55,.71,0,.83-1.44,.82-1.88-.02-1.79-.71-3.92-2.54-4.62-1.5-.57-3.12-.11-4.1,1.17-.59,.77-.92,1.78-1,2.75-.09,1.18,.01,2.45,.59,3.51,.75,1.37,2.21,2.36,3.83,2.02,.87-.18,1.61-.64,2.16-1.34,.77-.98,1.04-2.27,1.06-3.48,0-.42-.06-.94-.24-1.33-.1-.21-.3-.55-.58-.55-.72,0-.82,1.44-.82,1.88Z"/><path class="cls-6" d="M749.48,704.35c2.64-2.84,5.14-5.82,7.54-8.87,3.76-4.77,7.83-10.02,9.65-15.9,.42-1.35,.65-2.77,.97-4.15,.75-3.31,1.54-6.62,2.36-9.92,2.55-10.35,5.35-20.65,8.52-30.83,3.39-10.91,7.13-21.83,12.18-32.1,1.95-3.96,4.11-7.89,6.89-11.33,1.02-1.26,2.13-2.46,3.41-3.46,.65-.5,.68-.54,1.59-.68,1.6-.23,3.23-.28,4.84-.16,2.4,.18,4.7,.77,6.88,1.79,1.13,.53,1.47-3.13,.44-3.62-3.68-1.73-7.83-2.33-11.86-1.8-.71,.09-1.34,.16-1.94,.56-.65,.44-1.24,.99-1.81,1.53-2.98,2.84-5.21,6.38-7.21,9.94-5.49,9.77-9.31,20.5-12.81,31.11-3.56,10.78-6.63,21.72-9.43,32.71-1.48,5.81-2.84,11.63-4.16,17.48-.95,4.2-3.77,8.06-6.23,11.49-3.08,4.29-6.47,8.39-10.02,12.3-.2,.22-.4,.44-.61,.66-.72,.78-.22,4.37,.83,3.24h0Z"/><path class="cls-6" d="M838.88,576.1c-4.66-2.08-8.93-2.87-14.05-2.79-.46,0-1.01-.03-1.47,.07-.56,.12-.89,.5-1.3,.91-1.92,1.95-3.41,4.33-4.77,6.69-5.36,9.3-9.23,19.55-12.89,29.62-.89,2.44-1.76,4.89-2.57,7.36-.23,.7-.23,1.99,.3,2.57,.57,.63,.96-.15,1.13-.67,.04-.12,.08-.25,.12-.37,.05-.15,.1-.3,.15-.45-.12,.36,.09-.25,.13-.37,.46-1.33,.92-2.65,1.39-3.97,1.53-4.28,3.14-8.53,4.85-12.75,1.98-4.89,4.07-9.74,6.47-14.45,1.35-2.66,2.82-5.28,4.6-7.68,.61-.82,1.32-1.92,2.17-2.53,.21-.15,.42-.18,.82-.2,5.23-.27,10.56,.88,15.32,3,1.15,.51,2.9-2.57,1.87-3.03l-2.28-.96Z"/><path class="cls-6" d="M864.38,576.51c-3.2-4.62-8.24-8.37-14.13-7.25-4.66,.88-7.46,5.21-9.93,8.9-6.8,10.18-12.18,21.38-17.35,32.45-1.34,2.86-2.66,5.73-3.92,8.62-.33,.77-.38,1.89,0,2.65,.32,.64,.86,.71,1.17,0,3.15-7.22,6.54-14.34,10.1-21.35,2.81-5.54,5.74-11.05,9.02-16.33,1.58-2.54,3.23-5.07,5.16-7.35,1.3-1.54,2.76-2.98,4.72-3.6,5.78-1.82,11.12,1.87,14.32,6.49,.49,.71,1-.23,1.13-.67,.22-.78,.18-1.88-.3-2.57h0Z"/><path class="cls-6" d="M839.53,623.54c2.31-4.18,4.62-8.16,7.09-12.35,5.52-9.37,11.24-18.62,17.24-27.69,6.54-9.88,13.37-19.66,21.13-28.64,1.65-1.9,3.34-3.77,5.1-5.56,.81-.82,1.64-1.62,2.48-2.41,.11-.11,.51-.47,.22-.21,.15-.14,.31-.28,.47-.41,2.81-2.38,6.82-3.93,10.12-1.55,1.33,.96,2.32,2.36,3.08,3.8,.01,.03,.75,1.33,.56,.96-.42-.77-.1-.1-.09-.09,.08,.19-.21-.39-.11-.2,.11,.21-.14-.49-.09-.28s.04,.35-.05-.29c.08,.58-.03-.53,0-.04,.05,.65,.09-.52-.01,.23-.02,.16-.04,.32-.06,.47-.08,.65,.07-.27-.02,.15-.25,1.09-.53,2.16-.86,3.22-.05,.16-.1,.32-.15,.47s-.25,.75-.09,.28c-.14,.41-.28,.82-.43,1.22-.34,.94-.7,1.87-1.07,2.8-1,2.51-2.08,4.98-3.2,7.44-3.63,7.98-7.64,15.78-11.75,23.52-6.77,12.74-13.88,25.31-21.11,37.79-1.16,1.99-2.32,3.99-3.48,5.98-.65,1.11-1.6,2.31-1.95,3.55-.3,1.08-.44,2.23-.53,3.34-.37,4.84,.64,9.79,3.38,13.85,1.8,2.67,4.29,4.78,7.04,6.41,1.01,.6,1.45-3.02,.44-3.62-4.95-2.94-8.62-7.45-9.23-13.28-.16-1.49-.08-2.6,.19-4.23,.05-.32-.09,.4,0,0,.02-.09,.04-.18,.06-.27,.03-.12,.04-.25,.09-.36,0-.02,0-.04,.02-.06-.1,.25-.13,.24,.08,.02s.34-.58,.5-.86c.62-1.05,1.23-2.11,1.85-3.16,7.62-13.06,15.1-26.2,22.25-39.52,4.4-8.2,8.7-16.46,12.61-24.91,2.08-4.49,4.08-9.03,5.65-13.72,.69-2.08,1.38-4.27,1.45-6.48,.03-.99-.1-1.87-.57-2.74-.04-.08-.16-.11-.2-.19,.2,.37-.06-.34-.12-.46-.44-.8-.92-1.59-1.49-2.32-.84-1.07-1.88-2.07-3.11-2.68-1.96-.98-4.09-.9-6.11-.17-3.02,1.1-5.21,3.45-7.37,5.64-7.98,8.08-14.75,17.39-21.2,26.71-6.66,9.63-12.93,19.53-18.96,29.56-3.54,5.88-7,11.8-10.35,17.79-.16,.28-.31,.56-.47,.85-.39,.71-.36,1.94,0,2.65s.81,.65,1.17,0h0Z"/><g><path class="cls-6" d="M1019.83,657.88v-190.07c0-2.05,0-4.09,0-6.14-.02-6.72-3.21-13.25-9.31-16.44-3.19-1.67-6.54-1.91-10.03-1.91h-86.67c-5.11,0-9.82,1.65-13.36,5.48-3.54,3.84-4.7,8.8-4.7,13.88v79.95c0,.48,.1,1.88,.83,1.88s.83-1.44,.83-1.88v-79.7c0-.5,0-1,0-1.51,.03-3.84,1.82-7.51,4.62-10.12,3.41-3.18,7.66-4.23,12.18-4.23h86.25c3.46,0,6.77,.2,9.92,1.93,4.82,2.65,7.81,7.54,7.81,13.03v177.16c0,8.62,.23,17.28,0,25.9-.22,8.18-7.91,13.97-15.66,13.99-3.99,.01-7.97,0-11.96,0h-54.1c-7.83,0-15.66,.03-23.49,0-5.87-.02-11.24-3.19-13.91-8.19-.73,.1-1.45,.22-2.18,.35,2.42,6.73,8.62,11.53,16,11.59,2.46,.02,4.93,0,7.39,0h59.83c7.55,0,15.1,.06,22.65,0,8.57-.07,15.44-6.51,16.82-14.83,.55-3.28,.26-6.81,.26-10.12Z"/><path class="cls-6" d="M904.32,670.4c4.97-.22,10.54,1.3,14.89-1.87,.7-.51,.95-1.08,1.28-1.91,.67-1.69,1.18-3.44,1.41-5.25,.38-2.89,.06-5.96-1.22-8.6-1.62-3.32-4.62-5.85-8-7.27-13.95-5.87-29.27-3.07-42.45,3.48-1.23,.61-2.44,1.26-3.63,1.93-1,.57-.61,4.21,.44,3.62,5.8-3.29,12.06-5.87,18.58-7.33,8.73-1.95,17.53-1.61,25.9,1.64,2.32,.9,4.54,2.19,6.23,4.06,1.39,1.53,2.44,3.41,2.62,5.49,.11,1.29-.1,2.57-.44,3.81-.23,.83-.51,1.68-.89,2.45,.06-.13,.23-.1-.11,.14-1.92,1.34-4.12,1.94-6.45,2.07-2.45,.14-4.9-.31-7.36-.24-2.47,.07-4.95,.33-7.4,.75,.3,1.25,.75,2.43,1.34,3.51,1.77-.25,3.54-.41,5.27-.49Z"/><path class="cls-6" d="M896.03,667.68c-5.27,1.09-10.37,3.01-14.93,5.82-1.91,1.18-3.65,2.65-5.49,3.92-4.11,2.84-8.4,5.42-12.8,7.79-14.1,7.57-29.51,12.91-45.43,14.84-2.36,.29-4.73,.49-7.11,.63-1.19,.07-1.13,3.82,0,3.75,17.3-1,34.18-6.07,49.62-13.85,7.22-3.64,13.91-7.94,20.43-12.67,4.76-3.45,10.62-5.57,16.55-6.66-.29-.82-.54-1.67-.72-2.54-.06-.28-.11-.64-.12-1.02Z"/><path class="cls-6" d="M897.72,667.37c-.56,.1-1.13,.19-1.69,.31,.01,.38,.06,.74,.12,1.02,.18,.87,.43,1.72,.72,2.54,.73-.13,1.45-.25,2.18-.35-.58-1.09-1.03-2.26-1.34-3.51Z"/></g><path class="cls-6" d="M823.35,699.16c-.52,0-1.44,1.05-1.85,1.38-.83,.68-1.65,1.37-2.47,2.07-1.54,1.32-3.07,2.66-4.57,4.02-2.76,2.5-5.47,5.06-8.12,7.67-3.81,3.76-7.52,7.63-11.09,11.62-.65,.73-1.3,1.46-1.94,2.21-.53,.62-.5,1.83-.3,2.57,.15,.52,.58,1.31,1.13,.67,5.92-6.95,12.42-13.47,19.13-19.65,1.64-1.51,3.3-3,4.98-4.45,.81-.7,1.62-1.39,2.44-2.08,.47-.4,.95-.79,1.42-1.18,.18-.15,1.09-1.1,1.23-1.1,1.16,0,1.17-3.75,0-3.75h0Z"/><path class="cls-6" d="M980.34,682.76c7.11,4.25,14.59,7.91,22.29,10.96,1.8,.71,3.62,1.4,5.46,2.02,.13,.04,.29,.07,.42,.14,.02,.01,.05,.01,.07,.02-.29-.18,0,.06,.08,.2,.36,.66,.62,1.03,.98,1.72,2.15,4.14,3.87,8.51,5.6,12.83,1.99,4.97,3.88,9.97,5.74,14.98,1.03,2.79,2.06,5.58,3.05,8.39,.26,.74,.86,.59,1.17,0,.4-.78,.28-1.86,0-2.65-2.61-7.32-5.33-14.61-8.19-21.84-1.81-4.57-3.63-9.17-5.81-13.58-.39-.79-.8-1.57-1.25-2.34-.25-.43-.53-1.07-.96-1.34-.31-.2-.81-.27-1.15-.39-.91-.32-1.81-.65-2.71-.99-8.43-3.19-16.61-7.12-24.34-11.75-1-.6-1.44,3.01-.44,3.62h0Z"/><path class="cls-6" d="M1098.19,732.18c-4.15-5.27-8.19-10.62-12.18-16.01-7.4-10-14.7-20.15-21.15-30.81-1.5-2.47-2.94-4.98-4.25-7.56-.56-1.1-1.09-2.21-1.57-3.34-.41-.95-.77-1.89-1-2.64l-.13,2.27c2.32-5.7,4.49-11.46,6.59-17.25,3.28-9.05,6.74-18.33,8.35-27.85,.33-1.93,.37-3.63,.08-5.52-.4-2.65-.8-5.3-1.21-7.94-1.32-8.58-2.68-17.15-4.11-25.72-1.26-7.55-2.45-15.14-4.17-22.6-.32-1.41-.54-3.52-1.69-4.51-1.99-1.71-3.98-3.43-5.89-5.24-3.43-3.24-6.7-6.67-9.67-10.34-3.08-3.8-6-7.91-7.72-12.53-.34-.92-.63-1.89-.81-2.86-.16-.85-.22-1.74-.19-2.32,.07-1.45,.01-2.36-.76-3.52-1.44-2.16-3.88-3.42-6.48-2.82s-4.52,2.2-6.31,3.92c-1.34,1.29-2.89,2.63-3.48,4.42-.82,2.45-1.36,5-1.73,7.55-1.43,9.75,.1,20.3,6.34,28.21,1.91,2.41,4.19,4.51,6.69,6.3l-.58-1.31c.28,3.49,.65,6.97,1.08,10.45,.7,5.76,1.44,11.62,3.05,17.21l.49-2.75c-3.73,1.37-7.17,3.88-10.29,6.25-.63,.48-.67,1.59-.58,2.31,.04,.32,.39,1.79,1.01,1.31,3.13-2.37,6.57-4.88,10.29-6.25,.79-.29,.65-2.22,.49-2.75-2.13-7.4-2.86-15.27-3.61-22.91-.1-1.05-.2-2.1-.29-3.15-.02-.22-.02-.44-.06-.66-.16-1.07-.69-1.4-1.49-2.02-3.44-2.62-6.37-5.95-8.31-9.82-2.97-5.9-3.58-12.6-2.71-18.99,.28-2.01,.66-3.87,1.27-5.96,.08-.28,.17-.55,.25-.82,.06-.2,.26-.38,0,.02,.03-.05,.03-.16,.07-.2,1.28-1.2,2.34-2.71,3.71-3.88,2.18-1.86,5.42-3.88,8.3-2.31,.78,.42,1.29,.91,1.8,1.59,.11,.15,.51,.75,.42,.62-.14-.19,.05,.1,.09,.19l-.21-1.82c-.55,4.77,1.02,9.46,3.28,13.6,2.52,4.61,5.78,8.76,9.29,12.65,2.96,3.28,6.12,6.39,9.41,9.34,.96,.86,1.93,1.71,2.91,2.54,.17,.14,.41,.43,.62,.51,.32,.13-.39-.28-.27-.38-.01,0,.15,.35,.16,.38,.03,.29-.1-.31-.03-.08,.02,.08,.05,.15,.07,.23,.06,.2,.12,.41,.18,.61,.14,.51,.27,1.03,.39,1.55,.33,1.41,.63,2.84,.91,4.26,.77,3.84,1.43,7.59,2.1,11.49,1.58,9.15,3.04,18.31,4.47,27.48,.52,3.36,1.04,6.72,1.55,10.08,.15,1.01,.31,2.02,.46,3.03,.05,.34,.03,.82,.17,1.14-.08-.19,.06-1.27-.04-.52-.02,.16-.03,.33-.05,.5-.05,.45-.11,.9-.18,1.34-.14,.9-.28,1.58-.48,2.5-.5,2.26-1.1,4.5-1.74,6.73-1.45,5.02-3.12,9.97-4.87,14.89-1.58,4.46-3.24,8.89-4.94,13.3-.83,2.14-1.76,4.26-2.53,6.43-.62,1.73,.14,3.41,.79,5.02s1.44,3.24,2.26,4.82c2.12,4.08,4.52,8.01,6.99,11.88,5.57,8.72,11.59,17.16,17.74,25.48,3.99,5.4,8.04,10.76,12.18,16.05,.21,.26,.41,.53,.62,.79,.52,.66,.99-.19,1.13-.67,.21-.74,.21-1.92-.3-2.57h0Z"/><path class="cls-6" d="M1018.29,565.79c1.82,5.58,3.8,11.12,6,16.56,2.63,6.52,5.51,13.15,9.57,18.92,.49,.7,1-.22,1.13-.67,.22-.77,.19-1.88-.3-2.57-3.94-5.59-6.69-12.03-9.24-18.33-2.1-5.2-4.01-10.47-5.74-15.8-.18-.54-.55-1.27-1.13-.67-.52,.54-.51,1.91-.3,2.57h0Z"/><g><rect class="cls-22" x="910.65" y="572.45" width="8.11" height="12.53"/><rect class="cls-22" x="929.91" y="572.45" width="8.11" height="12.53"/><rect class="cls-22" x="920.28" y="572.45" width="8.11" height="12.53"/><rect class="cls-22" x="939.54" y="572.45" width="8.11" height="12.53"/><rect class="cls-22" x="949.17" y="572.45" width="8.11" height="12.53"/><rect class="cls-22" x="958.8" y="572.45" width="8.11" height="12.53"/><rect class="cls-22" x="968.43" y="572.45" width="8.11" height="12.53"/><rect class="cls-22" x="978.06" y="572.45" width="8.11" height="12.53"/><rect class="cls-22" x="987.69" y="572.45" width="8.11" height="12.53"/><rect class="cls-22" x="997.32" y="572.45" width="8.11" height="12.53"/><text class="cls-8" transform="translate(944.23 553.75) rotate(-.02)"><tspan x="0" y="0">H</tspan></text><rect class="cls-6" x="946.14" y="516.31" width="23.77" height="4.75"/><rect class="cls-6" x="946.16" y="563.06" width="23.77" height="4.75"/><rect class="cls-6" x="932.29" y="530.18" width="4.75" height="23.77"/><rect class="cls-6" x="979.03" y="530.17" width="4.75" height="23.77"/></g></g><g id="descriptions"><text class="cls-7" transform="translate(118.3 856.69)"><tspan class="cls-28"><tspan x="0" y="0">As well as a computer, this test requires either:</tspan></tspan><tspan class="cls-4"><tspan x="0" y="50" xml:space="preserve">       Two people: the patient having their eyes tested (1) and an examiner (2) to enter </tspan><tspan class="cls-27" x="1063.47" y="50">	</tspan></tspan><tspan class="cls-4"><tspan x="0" y="92" xml:space="preserve">       the patients answers into the computer</tspan></tspan><tspan class="cls-4"><tspan x="0" y="142" xml:space="preserve">       You (1) and your smart-phone (2) to enter your answers</tspan></tspan></text><g><circle class="cls-22" cx="136.42" cy="896.64" r="17.58"/><text class="cls-13" transform="translate(128.26 903.7)"><tspan x="0" y="0">a</tspan></text></g><g><circle class="cls-22" cx="136.42" cy="987.25" r="17.58"/><text class="cls-13" transform="translate(130.03 995.82)"><tspan x="0" y="0">b</tspan></text></g><g><circle class="cls-15" cx="40.69" cy="302.91" r="19.14"/><text class="cls-11" transform="translate(32.26 311.69)"><tspan x="0" y="0">1</tspan></text></g><g><circle class="cls-20" cx="343.2" cy="302.91" r="19.14"/><text class="cls-11" transform="translate(335.87 312.24)"><tspan x="0" y="0">2</tspan></text></g><line class="cls-2" x1="640" y1="38.61" x2="640" y2="753.67"/><g><circle class="cls-20" cx="957.77" cy="418.96" r="19.14"/><text class="cls-11" transform="translate(950.44 428.29)"><tspan x="0" y="0">2</tspan></text></g><g><circle class="cls-15" cx="747.95" cy="733.87" r="19.14"/><text class="cls-11" transform="translate(739.52 742.65)"><tspan x="0" y="0">1</tspan></text></g><g><circle class="cls-22" cx="63.22" cy="61.58" r="43.22"/><text class="cls-9" transform="translate(46.56 74.69)"><tspan x="0" y="0">a</tspan></text></g><g><circle class="cls-22" cx="708.71" cy="61.58" r="43.22"/><text class="cls-9" transform="translate(693.59 80.69)"><tspan x="0" y="0">b</tspan></text></g></g></svg>