<?xml version="1.0" encoding="utf-8"?>
<!-- Generator: Adobe Illustrator 22.1.0, SVG Export Plug-In . SVG Version: 6.00 Build 0)  -->
<svg version="1.1" id="Layer_1" xmlns="http://www.w3.org/2000/svg" xmlns:xlink="http://www.w3.org/1999/xlink" x="0px" y="0px"
	 viewBox="0 0 25.7 25.8" style="enable-background:new 0 0 25.7 25.8;" xml:space="preserve">
<style type="text/css">
	.st0{fill:#FFFFFF;}
	.st1{fill:#ED2024;}
</style>
<g>
	<path class="st0" d="M4.1,25.8c2.9-2.9,5.8-5.8,8.9-9c3,3,5.8,5.9,8.6,8.7c1.4-1.3,2.6-2.6,4-4c-2.9-2.9-5.8-5.8-8.9-8.9
		c3-3,5.9-5.9,8.7-8.7c-1.3-1.3-2.5-2.6-3.9-4.1c-2.9,2.9-5.8,5.8-8.9,9c-3-3-5.8-5.9-8.5-8.7C2.7,1.6,1.4,2.9,0,4.3
		c2.9,2.8,5.8,5.7,8.8,8.8c-3,3-5.9,5.9-8.7,8.6C1.4,23,2.7,24.4,4.1,25.8z"/>
	<path class="st1" d="M4.1,25.8c-1.4-1.5-2.6-2.8-3.9-4.2c2.8-2.8,5.7-5.7,8.7-8.6C5.8,10,2.9,7.1,0,4.3c1.4-1.4,2.7-2.6,4.1-4
		C6.8,3.1,9.7,6,12.6,9c3.1-3.1,6-6,8.9-9c1.4,1.5,2.7,2.8,3.9,4.1c-2.8,2.8-5.7,5.7-8.7,8.7c3.1,3.1,6,6,8.9,8.9
		c-1.4,1.4-2.7,2.6-4,4c-2.8-2.8-5.7-5.7-8.6-8.7C9.9,20,7,22.9,4.1,25.8z"/>
</g>
</svg>
