<?xml version="1.0" encoding="utf-8"?>
<!-- Generator: Adobe Illustrator 22.1.0, SVG Export Plug-In . SVG Version: 6.00 Build 0)  -->
<svg version="1.1" id="Layer_1" xmlns="http://www.w3.org/2000/svg" xmlns:xlink="http://www.w3.org/1999/xlink" x="0px" y="0px"
	 viewBox="0 0 90.4 90.4" style="enable-background:new 0 0 90.4 90.4;" xml:space="preserve">
<style type="text/css">
	.st0{fill:#FFFFFF;}
</style>
<g>
	<path class="st0" d="M53.1,32.9C53,33,53,33,52.9,33.1c-0.4,0.4-0.9,0.8-1.3,1.2c-0.4,0.4-0.8,0.7-1.3,1.1
		c-0.6,0.5-1.2,1.1-1.8,1.6c-0.5,0.4-0.9,0.8-1.4,1.2c-0.6,0.5-1.2,1-1.8,1.6c-0.5,0.4-0.9,0.8-1.4,1.2c-0.6,0.6-1.3,1.1-1.9,1.7
		c-0.3,0.3-0.6,0.5-0.9,0.8c-0.6,0.5-1.3,1.1-1.9,1.6c-0.4,0.4-0.9,0.8-1.3,1.2c-0.6,0.6-1.3,1.1-1.9,1.7c-0.4,0.4-0.9,0.8-1.3,1.1
		c-0.6,0.5-1.3,1.1-1.9,1.6c-0.4,0.4-0.9,0.8-1.3,1.2c-0.6,0.5-1.2,1.1-1.8,1.6c-0.5,0.4-0.9,0.8-1.4,1.2c-0.8,0.7-1.5,1.3-2.3,2
		c-0.3,0.3-0.6,0.6-0.9,0.8c-0.3,0-0.4,0.2-0.4,0.4c0,2.5,0,5.1,0,7.6c0,0.1,0,0.2,0,0.3c13.7,0,27.4,0,41.1,0c0-2.7,0-5.5,0-8.2
		c-9.4,0-18.9,0-28.4,0c0.5-0.5,1-0.9,1.5-1.4c0.6-0.5,1.2-1,1.8-1.6c0.5-0.4,0.9-0.8,1.4-1.2c0.6-0.6,1.3-1.1,1.9-1.7
		c0.4-0.4,0.9-0.8,1.3-1.2c0.6-0.5,1.2-1.1,1.8-1.6c0.5-0.4,0.9-0.8,1.4-1.2c0.6-0.5,1.2-1.1,1.8-1.6c0.5-0.4,0.9-0.8,1.4-1.2
		c0.6-0.5,1.2-1,1.8-1.6c0.5-0.4,0.9-0.8,1.4-1.2c0.6-0.6,1.3-1.1,1.9-1.7c0.4-0.4,0.8-0.7,1.3-1.1c0.7-0.6,1.5-1.3,2.2-1.9
		c0.6-0.5,1.2-1.1,1.8-1.6c0.8-0.7,1.6-1.3,2.3-2c0.3-0.3,0.6-0.5,0.9-0.8c0.2-0.1,0.3-0.3,0.3-0.5c0-2.5,0-5.1,0-7.6
		c0-0.1,0-0.2,0-0.3c-13.5,0.1-27.2,0.1-40.9,0.1c0,2.8,0,5.5,0,8.2C34.2,32.9,43.6,32.9,53.1,32.9z"/>
	<path d="M53.1,32.9c-9.5,0-18.9,0-28.4,0c0-2.7,0-5.4,0-8.2c13.7,0,27.4,0,41.1,0c0,0.1,0,0.2,0,0.3c0,2.5,0,5.1,0,7.6
		c0,0.2-0.1,0.4-0.3,0.5c-0.3,0.2-0.6,0.5-0.9,0.8c-0.8,0.7-1.6,1.3-2.3,2c-0.6,0.5-1.2,1.1-1.8,1.6c-0.7,0.6-1.5,1.3-2.2,1.9
		c-0.4,0.4-0.8,0.7-1.3,1.1c-0.6,0.6-1.3,1.1-1.9,1.7c-0.5,0.4-0.9,0.8-1.4,1.2c-0.6,0.5-1.2,1-1.8,1.6c-0.5,0.4-0.9,0.8-1.4,1.2
		c-0.6,0.5-1.2,1.1-1.8,1.6c-0.5,0.4-0.9,0.8-1.4,1.2c-0.6,0.5-1.2,1.1-1.8,1.6c-0.4,0.4-0.9,0.8-1.3,1.2c-0.6,0.6-1.3,1.1-1.9,1.7
		c-0.5,0.4-0.9,0.8-1.4,1.2c-0.6,0.5-1.2,1-1.8,1.6c-0.5,0.4-1,0.9-1.5,1.4c9.5,0,18.9,0,28.4,0c0,2.8,0,5.5,0,8.2
		c-13.7,0-27.4,0-41.1,0c0-0.1,0-0.2,0-0.3c0-2.5,0-5.1,0-7.6c0-0.2,0.1-0.3,0.2-0.5c0.3-0.2,0.6-0.5,0.9-0.8c0.8-0.7,1.5-1.3,2.3-2
		c0.5-0.4,0.9-0.8,1.4-1.2c0.6-0.5,1.2-1.1,1.8-1.6c0.4-0.4,0.9-0.8,1.3-1.2c0.6-0.5,1.3-1.1,1.9-1.6c0.4-0.4,0.9-0.8,1.3-1.1
		c0.6-0.6,1.3-1.1,1.9-1.7c0.4-0.4,0.9-0.8,1.3-1.2c0.6-0.5,1.3-1.1,1.9-1.6c0.3-0.3,0.6-0.5,0.9-0.8c0.6-0.6,1.3-1.1,1.9-1.7
		c0.5-0.4,0.9-0.8,1.4-1.2c0.6-0.5,1.2-1,1.8-1.6c0.5-0.4,0.9-0.8,1.4-1.2c0.6-0.5,1.2-1.1,1.8-1.6c0.4-0.4,0.8-0.7,1.3-1.1
		c0.4-0.4,0.9-0.8,1.3-1.2C53,33.1,53,33,53.1,32.9z"/>
</g>
<rect x="1" y="25.6" width="8.2" height="41.1"/>
<rect x="83.2" y="25.6" width="8.2" height="41.1"/>
<rect x="42.1" y="-15.5" transform="matrix(-1.836970e-16 1 -1 -1.836970e-16 51.2562 -41.2357)" width="8.2" height="41.1"/>
<rect x="42.1" y="66.8" transform="matrix(-1.836970e-16 1 -1 -1.836970e-16 133.5609 41.069)" width="8.2" height="41.1"/>
</svg>
