<?xml version="1.0" encoding="utf-8"?>
<!-- Generator: Adobe Illustrator 22.1.0, SVG Export Plug-In . SVG Version: 6.00 Build 0)  -->
<svg version="1.1" id="Layer_1" xmlns="http://www.w3.org/2000/svg" xmlns:xlink="http://www.w3.org/1999/xlink" x="0px" y="0px"
	 viewBox="0 0 90.4 90.4" style="enable-background:new 0 0 90.4 90.4;" xml:space="preserve">
<style type="text/css">
	.st0{fill:#FFFFFF;}
</style>
<g>
	<path class="st0" d="M41.2,43.3c0.6,1,1.3,2,1.9,3c0.9,1.4,1.8,2.8,2.6,4.2c0.7,1,1.3,2.1,2,3.1c0.9,1.4,1.8,2.8,2.7,4.2
		c0.7,1.2,1.5,2.3,2.2,3.5c0.9,1.4,1.8,2.8,2.6,4.2c0.1,0.2,0.2,0.2,0.4,0.2c3.3,0,6.6,0,9.9,0c0.1,0,0.2,0,0.3,0
		c-0.9-1.4-1.7-2.8-2.6-4.1c-0.7-1-1.3-2.1-2-3.1c-0.9-1.5-1.8-2.9-2.7-4.4c-0.7-1-1.3-2.1-2-3.1c-0.9-1.5-1.8-2.9-2.8-4.4
		c-0.6-1-1.2-2-1.8-2.9c-0.9-1.5-1.8-2.9-2.7-4.4c-0.3-0.5-0.6-1-0.9-1.5c5.8-4.3,11.6-8.7,17.5-13.1c-0.1,0-0.1,0-0.1,0
		c-4.5,0-9,0-13.4,0c-0.1,0-0.1,0-0.2,0.1c-0.5,0.3-0.9,0.7-1.4,1.1c-1.1,0.9-2.3,1.7-3.4,2.6c-0.9,0.7-1.8,1.4-2.8,2.1
		c-1.2,0.9-2.4,1.8-3.6,2.7c-1.4,1-2.8,2.1-4.1,3.1c-1.1,0.8-2.2,1.6-3.3,2.5c-0.2,0.1-0.4,0.3-0.6,0.4c0-4.9,0-9.7,0-14.5
		c-2.7-0.1-5.5-0.1-8.2-0.1c0,13.7,0,27.4,0,41.1c2.7,0,5.5,0,8.2,0c0-0.1,0-0.2,0-0.3c0-5.2,0-10.4,0-15.6c0-0.1,0-0.1,0-0.2
		c0-0.1,0.1-0.2,0.1-0.2c0.5-0.4,0.9-0.7,1.4-1c1-0.8,2.1-1.6,3.1-2.4C38.8,45.1,40,44.2,41.2,43.3z"/>
	<path d="M41.2,43.3c-1.2,0.9-2.4,1.8-3.6,2.7c-1.1,0.8-2.1,1.6-3.1,2.4c-0.5,0.3-0.9,0.7-1.4,1c-0.1,0-0.1,0.1-0.1,0.2
		c0,0.1,0,0.1,0,0.2c0,5.2,0,10.4,0,15.6c0,0.1,0,0.2,0,0.3c-2.7,0-5.5,0-8.2,0c-0.1-13.6-0.1-27.3-0.1-41c2.7,0,5.5,0,8.2,0
		c0,4.8,0,9.6,0,14.5c0.2-0.2,0.4-0.3,0.6-0.4c1.1-0.8,2.2-1.6,3.3-2.5c1.4-1,2.8-2.1,4.1-3.1c1.2-0.9,2.4-1.8,3.6-2.7
		c0.9-0.7,1.8-1.4,2.8-2.1c1.1-0.9,2.3-1.7,3.4-2.6c0.5-0.4,0.9-0.7,1.4-1.1c0,0,0.1,0,0.2,0c4.4,0,8.9,0,13.4,0c0,0,0,0,0.1,0
		c-5.8,4.4-11.7,8.8-17.5,13.2c0.3,0.5,0.6,1,0.9,1.5c0.9,1.5,1.8,2.9,2.7,4.4c0.6,1,1.2,2,1.8,2.9c0.9,1.5,1.8,2.9,2.8,4.4
		c0.7,1,1.3,2.1,2,3.1c0.9,1.5,1.8,2.9,2.7,4.4c0.6,1,1.3,2.1,2,3.1c0.9,1.4,1.7,2.7,2.6,4.1c-0.1,0-0.2,0-0.3,0c-3.3,0-6.6,0-9.9,0
		c-0.2,0-0.3,0-0.4-0.2c-0.9-1.4-1.8-2.8-2.6-4.2c-0.7-1.2-1.5-2.3-2.2-3.5c-0.9-1.4-1.8-2.8-2.7-4.2c-0.7-1-1.3-2.1-2-3.1
		c-0.9-1.4-1.8-2.8-2.6-4.2C42.5,45.3,41.8,44.3,41.2,43.3z"/>
</g>
<rect x="1" y="25.6" width="8.2" height="41.1"/>
<rect x="83.2" y="25.6" width="8.2" height="41.1"/>
<rect x="42.1" y="-15.5" transform="matrix(-1.836970e-16 1 -1 -1.836970e-16 51.2562 -41.2357)" width="8.2" height="41.1"/>
<rect x="42.1" y="66.8" transform="matrix(-1.836970e-16 1 -1 -1.836970e-16 133.5609 41.069)" width="8.2" height="41.1"/>
</svg>
