<?xml version="1.0" encoding="utf-8"?>
<!-- Generator: Adobe Illustrator 22.1.0, SVG Export Plug-In . SVG Version: 6.00 Build 0)  -->
<svg version="1.1" id="Layer_1" xmlns="http://www.w3.org/2000/svg" xmlns:xlink="http://www.w3.org/1999/xlink" x="0px" y="0px"
	 viewBox="0 0 90.4 90.4" style="enable-background:new 0 0 90.4 90.4;" xml:space="preserve">
<style type="text/css">
	.st0{fill:#FFFFFF;}
</style>
<g>
	<path class="st0" d="M24.7,24.7c0,13.7,0,27.4,0,41.1c2.7,0,5.5,0,8.2,0c0-9.4,0-18.9,0-28.4c0.1,0.1,0.1,0.1,0.2,0.2
		c0.4,0.5,0.8,0.9,1.2,1.4c0.3,0.4,0.7,0.8,1,1.2c0.5,0.6,1.1,1.2,1.6,1.8c0.4,0.5,0.8,0.9,1.2,1.4c0.6,0.6,1.1,1.3,1.7,1.9
		c0.4,0.4,0.8,0.9,1.1,1.3c0.5,0.6,1.1,1.3,1.6,1.9c0.4,0.4,0.8,0.9,1.2,1.3c0.5,0.6,1.1,1.2,1.6,1.8c0.4,0.5,0.8,0.9,1.2,1.4
		c0.5,0.6,1.1,1.3,1.6,1.9c0.4,0.4,0.8,0.9,1.2,1.3c0.5,0.6,1.1,1.2,1.6,1.9c0.4,0.5,0.8,0.9,1.2,1.4c0.5,0.6,1,1.2,1.5,1.8
		c0.4,0.5,0.8,0.9,1.2,1.4c0.6,0.7,1.1,1.3,1.7,2c0.3,0.3,0.6,0.6,0.8,0.9c0.1,0.2,0.3,0.2,0.5,0.2c2.6,0,5.1,0,7.7,0
		c0.1,0,0.2,0,0.3,0c0-13.7,0-27.4,0-41.1c-2.8,0-5.5,0-8.2,0c0,9.5,0,18.9,0,28.4c-0.6-0.7-1.2-1.3-1.7-1.9
		c-0.4-0.4-0.7-0.8-1.1-1.3c-0.5-0.6-1-1.2-1.6-1.8c-0.4-0.5-0.8-0.9-1.2-1.4c-0.5-0.6-1.1-1.3-1.6-1.9c-0.4-0.4-0.8-0.9-1.2-1.3
		c-0.6-0.6-1.1-1.3-1.7-1.9c-0.3-0.3-0.5-0.6-0.8-0.9c-0.5-0.6-1.1-1.3-1.6-1.9c-0.4-0.4-0.8-0.9-1.2-1.3c-0.5-0.6-1.1-1.2-1.6-1.9
		c-0.4-0.5-0.8-0.9-1.2-1.4c-0.5-0.6-1.1-1.2-1.6-1.8c-0.4-0.5-0.8-0.9-1.2-1.4c-0.5-0.6-1-1.2-1.6-1.8c-0.4-0.5-0.8-0.9-1.2-1.4
		c-0.6-0.6-1.1-1.3-1.7-1.9c-0.2-0.3-0.4-0.6-0.7-1c-0.1-0.1-0.2-0.2-0.4-0.2c-2.6,0-5.2,0-7.7,0C24.9,24.7,24.8,24.7,24.7,24.7z"/>
	<path d="M24.7,24.7c0.1,0,0.2,0,0.3,0c2.5,0,5.1,0,7.7,0c0.2,0,0.3,0.1,0.4,0.2c0.3,0.3,0.5,0.6,0.8,0.9c0.6,0.6,1.1,1.3,1.7,1.9
		c0.4,0.5,0.8,0.9,1.2,1.4c0.5,0.6,1,1.2,1.6,1.8c0.4,0.5,0.8,0.9,1.2,1.4c0.5,0.6,1.1,1.2,1.6,1.8c0.4,0.5,0.8,0.9,1.2,1.4
		c0.5,0.6,1.1,1.2,1.6,1.9c0.4,0.4,0.8,0.9,1.2,1.3c0.5,0.6,1.1,1.3,1.6,1.9c0.3,0.3,0.5,0.6,0.8,0.9c0.6,0.6,1.1,1.3,1.7,1.9
		c0.4,0.4,0.8,0.9,1.2,1.3c0.5,0.6,1.1,1.3,1.6,1.9c0.4,0.5,0.8,0.9,1.2,1.4c0.5,0.6,1,1.2,1.6,1.8c0.4,0.4,0.7,0.8,1.1,1.3
		c0.6,0.6,1.1,1.3,1.7,1.9c0-9.5,0-18.9,0-28.4c2.8,0,5.5,0,8.2,0c0,13.7,0,27.4,0,41.1c-0.1,0-0.2,0-0.3,0c-2.6,0-5.1,0-7.7,0
		c-0.2,0-0.3-0.1-0.5-0.2c-0.2-0.3-0.5-0.6-0.8-0.9c-0.6-0.7-1.1-1.3-1.7-2c-0.4-0.5-0.8-0.9-1.2-1.4c-0.5-0.6-1-1.2-1.5-1.8
		c-0.4-0.5-0.8-0.9-1.2-1.4c-0.5-0.6-1.1-1.2-1.6-1.9c-0.4-0.4-0.8-0.9-1.2-1.3c-0.5-0.6-1.1-1.3-1.6-1.9c-0.4-0.5-0.8-0.9-1.2-1.4
		c-0.5-0.6-1.1-1.2-1.6-1.8c-0.4-0.4-0.8-0.9-1.2-1.3c-0.5-0.6-1.1-1.3-1.6-1.9c-0.4-0.4-0.8-0.9-1.1-1.3c-0.6-0.6-1.1-1.3-1.7-1.9
		c-0.4-0.5-0.8-0.9-1.2-1.4c-0.5-0.6-1.1-1.2-1.6-1.8c-0.3-0.4-0.7-0.8-1-1.2c-0.4-0.5-0.8-0.9-1.2-1.4c0-0.1-0.1-0.1-0.2-0.2
		c0,9.5,0,18.9,0,28.4c-2.8,0-5.5,0-8.2,0C24.7,52.1,24.7,38.4,24.7,24.7z"/>
</g>
<rect x="1" y="25.6" width="8.2" height="41.1"/>
<rect x="83.2" y="25.6" width="8.2" height="41.1"/>
<rect x="42.1" y="-15.5" transform="matrix(-1.836970e-16 1 -1 -1.836970e-16 51.2562 -41.2357)" width="8.2" height="41.1"/>
<rect x="42.1" y="66.8" transform="matrix(-1.836970e-16 1 -1 -1.836970e-16 133.5609 41.069)" width="8.2" height="41.1"/>
</svg>
