<?xml version="1.0" encoding="utf-8"?>
<!-- Generator: Adobe Illustrator 22.1.0, SVG Export Plug-In . SVG Version: 6.00 Build 0)  -->
<svg version="1.1" id="Layer_1" xmlns="http://www.w3.org/2000/svg" xmlns:xlink="http://www.w3.org/1999/xlink" x="0px" y="0px"
	 viewBox="0 0 90.4 90.4" style="enable-background:new 0 0 90.4 90.4;" xml:space="preserve">
<style type="text/css">
	.st0{fill:#FFFFFF;}
</style>
<g>
	<path class="st0" d="M65.8,37c-0.1-0.6-0.1-1.3-0.2-1.9c-0.2-1.2-0.6-2.3-1.1-3.4c-0.6-1.2-1.2-2.4-2.3-3.3
		c-0.3-0.2-0.5-0.5-0.8-0.8c-1-0.9-2.1-1.6-3.3-2.1c-1.4-0.5-2.8-0.8-4.3-0.8c-5.5,0-10.9,0-16.4,0c-0.8,0-1.5,0.1-2.3,0.2
		c-1.1,0.1-2.1,0.5-3,0.9c-1,0.5-1.9,1.1-2.7,1.8c-0.7,0.7-1.4,1.3-2,2.1c-0.8,0.9-1.3,1.9-1.8,3c-0.5,1.2-0.8,2.4-0.8,3.6
		c-0.1,0.9,0,1.9,0.1,2.8c0.3,1.5,0.8,2.8,1.5,4.1c0.7,1.2,1.7,2.3,2.8,3.2c1,0.8,2.1,1.5,3.4,2c1.4,0.6,2.8,0.9,4.3,0.9
		c5.4,0,10.8,0,16.2,0c0.7,0,1.3,0.1,2,0.4c2,0.7,2.7,2.6,2.5,4.3c-0.1,0.9-0.5,1.7-1.3,2.4c-0.8,0.7-1.7,1.1-2.7,1.1
		c-5.8,0-11.6,0-17.4,0c-0.3,0-0.7-0.1-1-0.2c-0.5-0.2-0.9-0.6-1.3-1c-0.5-0.5-0.8-1.2-0.9-1.9c0-0.3-0.1-0.7-0.1-1
		c-2.7,0-5.5,0-8.2,0c0,0.5,0.1,1,0.1,1.5c0.1,0.8,0.3,1.7,0.5,2.5c0.5,1.6,1.2,3,2.3,4.2c0.7,0.8,1.5,1.5,2.4,2.1
		c1,0.7,2.1,1.2,3.3,1.5c1.1,0.3,2.2,0.5,3.3,0.5c5,0,10,0,15,0c1.2,0,2.4,0,3.6-0.1c0.8-0.1,1.5-0.2,2.3-0.4
		c1.5-0.5,2.7-1.3,3.7-2.4c0.3-0.3,0.5-0.5,0.8-0.8c0.5-0.6,1-1.2,1.5-1.8c0.7-1,1.2-2.2,1.6-3.4c0.3-0.9,0.5-1.8,0.5-2.8
		c0.1-1,0-2.1-0.2-3.1c-0.3-1.4-0.8-2.8-1.6-4c-0.6-0.9-1.3-1.7-2.2-2.4c-1-0.9-2.1-1.6-3.3-2.2c-1.5-0.7-3.2-1.1-4.8-1.1
		c-5.5,0-11,0-16.5,0c-0.2,0-0.5,0-0.7-0.1C35,40.9,34,40.2,33.4,39c-0.4-0.8-0.5-1.6-0.4-2.5c0.1-0.9,0.5-1.7,1.1-2.3
		c0.4-0.4,1-0.7,1.5-0.9c0.5-0.2,1-0.3,1.5-0.3c5.2,0,10.5,0,15.7,0c0.4,0,0.9,0.1,1.3,0.2c0.3,0.1,0.6,0.2,0.9,0.4
		c0.5,0.1,0.9,0.1,1.1,0.3c0.7,0.6,1.1,1.3,1.3,2.2c0.1,0.3,0.1,0.6,0.2,0.9C60.3,37,63,37,65.8,37z"/>
	<path d="M65.8,37c-2.8,0-5.5,0-8.2,0c-0.1-0.3-0.1-0.6-0.2-0.9c-0.2-0.9-0.7-1.6-1.3-2.2c-0.2-0.2-0.6-0.2-0.9-0.4
		c-0.3-0.1-0.6-0.3-0.9-0.4c-0.4-0.2-0.8-0.2-1.3-0.2c-5.2,0-10.5,0-15.7,0c-0.5,0-1,0.1-1.5,0.3c-0.6,0.2-1.1,0.5-1.6,1
		c-0.6,0.6-1,1.4-1.1,2.3c-0.1,0.9,0,1.7,0.4,2.5c0.6,1.2,1.6,1.9,2.9,2.1c0.2,0,0.5,0.1,0.7,0.1c5.5,0,11,0,16.5,0
		c1.7,0,3.3,0.4,4.8,1.1c1.2,0.6,2.3,1.3,3.3,2.2c0.8,0.7,1.6,1.5,2.2,2.4c0.8,1.2,1.3,2.6,1.6,4c0.2,1,0.2,2.1,0.2,3.1
		c0,0.9-0.2,1.9-0.5,2.8c-0.4,1.2-0.9,2.3-1.6,3.4c-0.5,0.6-1,1.2-1.5,1.8c-0.2,0.3-0.5,0.6-0.8,0.8c-1.1,1.1-2.3,1.9-3.7,2.4
		c-0.7,0.2-1.5,0.4-2.3,0.4c-1.2,0.1-2.4,0.1-3.6,0.1c-5,0-10,0-15,0c-1.1,0-2.2-0.2-3.3-0.5c-1.2-0.4-2.3-0.9-3.3-1.5
		c-0.9-0.6-1.7-1.3-2.4-2c-1.1-1.2-1.9-2.6-2.3-4.2c-0.2-0.8-0.4-1.6-0.5-2.5c-0.1-0.5-0.1-1-0.1-1.5c2.8,0,5.5,0,8.2,0
		c0,0.3,0,0.7,0.1,1c0.1,0.7,0.4,1.4,0.9,1.9c0.4,0.4,0.8,0.8,1.3,1c0.3,0.1,0.7,0.2,1,0.2c5.8,0,11.6,0,17.4,0c1,0,1.9-0.4,2.7-1.1
		c0.7-0.6,1.1-1.4,1.3-2.4c0.2-1.7-0.5-3.6-2.5-4.3c-0.7-0.2-1.3-0.4-2-0.4c-5.4,0-10.8,0-16.2,0c-1.5,0-2.9-0.3-4.3-0.9
		c-1.2-0.5-2.3-1.2-3.4-2c-1.1-0.9-2.1-1.9-2.8-3.2c-0.8-1.3-1.3-2.6-1.5-4.1c-0.2-0.9-0.2-1.9-0.1-2.8c0-1.3,0.3-2.5,0.7-3.7
		c0.4-1.1,1-2.1,1.7-3c0.6-0.7,1.3-1.4,2-2c0.8-0.8,1.7-1.3,2.7-1.8c1-0.5,2-0.8,3-0.9c0.9-0.2,1.7-0.3,2.5-0.3c5.5,0,10.9,0,16.4,0
		c1.5,0,2.9,0.3,4.3,0.9c1.2,0.5,2.3,1.2,3.3,2.1c0.3,0.3,0.5,0.6,0.8,0.8c1,0.9,1.7,2.1,2.3,3.3c0.5,1.1,0.9,2.2,1.1,3.4
		C65.7,35.7,65.7,36.4,65.8,37z"/>
</g>
<rect y="24.6" width="8.2" height="41.1"/>
<rect x="82.2" y="24.6" width="8.2" height="41.1"/>
<rect x="41.1" y="-16.5" transform="matrix(-1.836970e-16 1 -1 -1.836970e-16 49.2562 -41.2357)" width="8.2" height="41.1"/>
<rect x="41.1" y="65.8" transform="matrix(-1.836970e-16 1 -1 -1.836970e-16 131.5609 41.069)" width="8.2" height="41.1"/>
</svg>
