<?xml version="1.0" encoding="utf-8"?>
<!-- Generator: Adobe Illustrator 22.1.0, SVG Export Plug-In . SVG Version: 6.00 Build 0)  -->
<svg version="1.1" id="Layer_1" xmlns="http://www.w3.org/2000/svg" xmlns:xlink="http://www.w3.org/1999/xlink" x="0px" y="0px"
	 viewBox="0 0 90.4 90.4" style="enable-background:new 0 0 90.4 90.4;" xml:space="preserve">
<style type="text/css">
	.st0{fill:#FFFFFF;}
</style>
<g>
	<path class="st0" d="M49.4,65.8c0-11,0-21.9,0-32.9c5.5,0,11,0,16.4,0c0-2.8,0-5.5,0-8.2c-13.7,0-27.4,0-41.1,0c0,2.7,0,5.5,0,8.2
		c5.5,0,11,0,16.4,0c0,11,0,21.9,0,32.9C43.9,65.8,46.6,65.8,49.4,65.8z"/>
	<path d="M49.4,65.8c-2.8,0-5.5,0-8.2,0c0-11,0-21.9,0-32.9c-5.5,0-10.9,0-16.4,0c-0.1-2.7-0.1-5.5-0.1-8.2c13.7,0,27.4,0,41.1,0
		c0,2.7,0,5.5,0,8.2c-5.5,0-10.9,0-16.4,0C49.4,43.9,49.4,54.8,49.4,65.8z"/>
</g>
<rect x="1" y="25.6" width="8.2" height="41.1"/>
<rect x="83.2" y="25.6" width="8.2" height="41.1"/>
<rect x="42.1" y="-15.5" transform="matrix(-1.836970e-16 1 -1 -1.836970e-16 51.2562 -41.2357)" width="8.2" height="41.1"/>
<rect x="42.1" y="66.8" transform="matrix(-1.836970e-16 1 -1 -1.836970e-16 133.5609 41.069)" width="8.2" height="41.1"/>
</svg>
