<?xml version="1.0" encoding="utf-8"?>
<!-- Generator: Adobe Illustrator 22.1.0, SVG Export Plug-In . SVG Version: 6.00 Build 0)  -->
<svg version="1.1" id="Layer_1" xmlns="http://www.w3.org/2000/svg" xmlns:xlink="http://www.w3.org/1999/xlink" x="0px" y="0px"
	 viewBox="0 0 31.7 25.3" style="enable-background:new 0 0 31.7 25.3;" xml:space="preserve">
<style type="text/css">
	.st0{fill:#FFFFFF;}
</style>
<g>
	<path class="st0" d="M10,18.2c-2.3-2.4-4.3-4.6-6-6.4c-1.4,1.2-2.8,2.4-4,3.5c3.5,3.5,6.8,6.9,10,10.1c7.2-7.2,14.4-14.4,21.6-21.6
		c-1.1-1.1-2.3-2.4-3.6-3.7C22.2,6,16.3,11.9,10,18.2z"/>
	<path d="M10,18.2C16.3,11.9,22.2,6,28.1,0c1.3,1.3,2.5,2.6,3.6,3.7C24.5,10.9,17.2,18.2,10,25.3c-3.2-3.2-6.6-6.6-10-10.1
		c1.2-1.1,2.6-2.2,4-3.5C5.7,13.7,7.8,15.8,10,18.2z"/>
</g>
</svg>
